<svg xmlns="http://www.w3.org/2000/svg" viewBox="0 0 387.01 116.11"><g id="Capa_2" data-name="Capa 2"><g id="katman_1" data-name="katman 1"><path id="Path_5" data-name="Path 5" d="M78.2,21.3H46.06C30.9,21.3,25.35,26.82,25.35,42V74.12c0,15.16,5.55,20.71,20.71,20.71H78.2c15.13,0,20.68-5.55,20.68-20.71V42C98.88,26.82,93.36,21.3,78.2,21.3Z" style="fill:#e14459"/><path id="Path_6" data-name="Path 6" d="M56.73,65.67l-.89,2h-2l4.22-9.6h1.71L64,67.65H62l-.86-2Zm.7-1.74h3L58.9,60.5Zm31.32-5.88h2v9.6h-2ZM81.1,65.91h5.35v1.74H79.18v-9.6h7.06v1.77H81.1v2h3.55v1.77H81.1Zm-5.53-7.86h2l-3.34,9.63H72.62l-2.19-6.32-2.19,6.32h-1.6l-3.37-9.63h2.1l2.13,6.62,2.16-6.62h1.6l2.19,6.62Zm-24.66,0h2v5.44c0,2.75-1.51,4.34-4.17,4.34s-4.11-1.57-4.11-4.28V58.06h2V63.5c0,1.62.77,2.48,2.19,2.48s2.19-.86,2.19-2.42Zm-11,0h1.95v9.63H39.92V63.75h-4.4v3.93h-2V58.05h2v3.87h4.4ZM62.13,45.82A12.23,12.23,0,0,1,49.9,33.59h1.71a10.52,10.52,0,0,0,21,0h1.71A12.25,12.25,0,0,1,62.13,45.82Z" style="fill:#fff;fill-rule:evenodd"/><path d="M359.71,0H24.2c-.89,0-1.77,0-2.66,0a38.65,38.65,0,0,0-5.73.53,18.75,18.75,0,0,0-5.44,1.77,18.93,18.93,0,0,0-4.64,3.4,18,18,0,0,0-3.4,4.64A18.55,18.55,0,0,0,.56,15.84,37.92,37.92,0,0,0,0,21.57c0,.86,0,1.74,0,2.63V91.91c0,.89,0,1.77,0,2.66a37.92,37.92,0,0,0,.53,5.73,18.94,18.94,0,0,0,1.77,5.47,18.73,18.73,0,0,0,8,8,18.49,18.49,0,0,0,5.44,1.83,43.05,43.05,0,0,0,5.73.5c.89,0,1.77,0,2.66,0H362.81l2.63,0a42.2,42.2,0,0,0,5.73-.5,19.07,19.07,0,0,0,5.47-1.83,18.08,18.08,0,0,0,4.64-3.37,17.87,17.87,0,0,0,5.17-10.08,37.92,37.92,0,0,0,.53-5.73V91.91c0-1,0-2.07,0-3.13V27.33c0-1.06,0-2.1,0-3.13V21.57a37.92,37.92,0,0,0-.53-5.73,18.94,18.94,0,0,0-1.77-5.47,18.87,18.87,0,0,0-8-8A18.55,18.55,0,0,0,371.17.56,37.92,37.92,0,0,0,365.44,0l-2.63,0ZM24.2,113.59c-.89,0-1.71,0-2.6,0a32.48,32.48,0,0,1-5.35-.47,16.55,16.55,0,0,1-4.76-1.57,15.29,15.29,0,0,1-4-2.9,15.52,15.52,0,0,1-2.92-4A17.07,17.07,0,0,1,3,99.84a34.21,34.21,0,0,1-.47-5.35c0-.62,0-2.63,0-2.63V24.18s0-2,0-2.57A33.62,33.62,0,0,1,3,16.26a17.39,17.39,0,0,1,1.57-4.79,16,16,0,0,1,2.9-4,15.33,15.33,0,0,1,4-2.92A16.15,16.15,0,0,1,16.26,3a34.27,34.27,0,0,1,5.38-.47l2.57,0H362.78l2.63,0a33.56,33.56,0,0,1,5.32.47,16.15,16.15,0,0,1,4.79,1.57,14.92,14.92,0,0,1,4,2.92,15.81,15.81,0,0,1,2.95,4A15.6,15.6,0,0,1,384,16.23a34.67,34.67,0,0,1,.5,5.41c0,.8,0,1.68,0,2.54V91.86c0,.92,0,1.77,0,2.66a37.11,37.11,0,0,1-.47,5.29,15.87,15.87,0,0,1-1.57,4.79,15.48,15.48,0,0,1-2.9,4,16,16,0,0,1-4,2.92,16.64,16.64,0,0,1-4.79,1.57,31.94,31.94,0,0,1-5.35.47c-.83,0-1.71,0-2.57,0H24.2ZM131.82,73.65l-6.44-17.4L119,73.65ZM109.37,86.56l13.35-35h5.35l13.35,35h-4.93l-3.19-9H117.55l-3.19,9Zm41.12-3.93V96.54h-4.31V60.32h4.31v4a8.91,8.91,0,0,1,3.43-3.46,10.13,10.13,0,0,1,5-1.15,9.41,9.41,0,0,1,7.77,3.81q3,3.78,3,10c0,4.12-1,7.44-3,10a9.44,9.44,0,0,1-7.77,3.78,10.35,10.35,0,0,1-5-1.12A9.2,9.2,0,0,1,150.49,82.63Zm14.68-9.16a12.46,12.46,0,0,0-2-7.47,6.18,6.18,0,0,0-5.35-2.72A6.35,6.35,0,0,0,152.43,66a12.6,12.6,0,0,0-2,7.47,12.6,12.6,0,0,0,2,7.47,6.36,6.36,0,0,0,5.41,2.69,6.22,6.22,0,0,0,5.35-2.69A12.46,12.46,0,0,0,165.17,73.47ZM181,82.63V96.54h-4.34V60.32H181v4a9,9,0,0,1,3.4-3.46,10.19,10.19,0,0,1,5-1.15,9.38,9.38,0,0,1,7.74,3.81q3,3.78,3,10c0,4.12-1,7.44-3,10a9.41,9.41,0,0,1-7.74,3.78,10.41,10.41,0,0,1-5-1.12A9.21,9.21,0,0,1,181,82.63Zm14.65-9.16a12.46,12.46,0,0,0-2-7.47,6.18,6.18,0,0,0-5.35-2.72A6.35,6.35,0,0,0,182.89,66,12.75,12.75,0,0,0,181,73.47a12.75,12.75,0,0,0,1.92,7.47,6.36,6.36,0,0,0,5.41,2.69,6.22,6.22,0,0,0,5.35-2.69A12.46,12.46,0,0,0,195.63,73.47Zm35.51,8.1V72.18h-7.71v-3.9h12.41v15a20.8,20.8,0,0,1-6.06,3,24.58,24.58,0,0,1-7,1q-8.22,0-12.85-4.79T205.29,69.1q0-8.56,4.61-13.35t12.85-4.82a23.85,23.85,0,0,1,6.47.86,20.24,20.24,0,0,1,5.7,2.48v5A18.87,18.87,0,0,0,229.34,56a17.29,17.29,0,0,0-6.2-1.12q-6.4,0-9.66,3.57t-3.19,10.69q0,7.08,3.19,10.66t9.66,3.57a22.52,22.52,0,0,0,4.49-.41A11.8,11.8,0,0,0,231.14,81.57Zm29.22-8.22h-4.28q-5.23,0-7.24,1.21a4.34,4.34,0,0,0-2,4.08,4.65,4.65,0,0,0,1.51,3.66,6,6,0,0,0,4.11,1.33,7.19,7.19,0,0,0,5.76-2.54,10.09,10.09,0,0,0,2.16-6.77v-1Zm4.31-1.77v15h-4.31v-4a9.55,9.55,0,0,1-3.66,3.55,11.86,11.86,0,0,1-5.41,1.12A9,9,0,0,1,244.88,85a8.05,8.05,0,0,1-2.36-6.09,7.92,7.92,0,0,1,2.95-6.68q3-2.25,8.86-2.25h6v-.41A5.66,5.66,0,0,0,258.41,65a8.36,8.36,0,0,0-5.49-1.62,18.16,18.16,0,0,0-4.37.53,17.15,17.15,0,0,0-4.11,1.62v-4a28.07,28.07,0,0,1,4.61-1.36,20.3,20.3,0,0,1,4.31-.47q5.7,0,8.51,3C263.74,64.6,264.67,67.58,264.67,71.58Zm8.89,15V50.11h4.31V86.56Zm13.33,0V50.11h4.31V86.56Zm35.65-14.21v2.13H302.72a10,10,0,0,0,2.66,6.79,9.31,9.31,0,0,0,6.71,2.3,19.46,19.46,0,0,0,4.79-.59,21.11,21.11,0,0,0,4.64-1.83v4.08a27.16,27.16,0,0,1-4.76,1.51,24.54,24.54,0,0,1-4.93.5c-4.18,0-7.49-1.22-10-3.66s-3.66-5.71-3.66-9.87,1.16-7.72,3.49-10.22a12.11,12.11,0,0,1,9.39-3.81,10.64,10.64,0,0,1,8.36,3.43Q322.54,66.5,322.54,72.35Zm-19.7-1.24h15.39a8.29,8.29,0,0,0-2-5.67,6.58,6.58,0,0,0-5.11-2.1,8.15,8.15,0,0,0-5.79,2A8.61,8.61,0,0,0,302.84,71.11Zm41.8-11.2,0,4.43a6,6,0,0,0-1.6-.62,7.85,7.85,0,0,0-1.86-.21,6.92,6.92,0,0,0-5.64,2.39q-1.95,2.37-1.95,6.82V86.55h-4.31V60.32h4.31V64.4a8.79,8.79,0,0,1,3.55-3.55,11,11,0,0,1,5.29-1.18,6.27,6.27,0,0,1,1,.09A9.52,9.52,0,0,1,344.64,59.91Zm27,.41L360.12,89q-1.83,4.69-3.57,6.14a7.1,7.1,0,0,1-4.64,1.42h-3.46v-3.6H351a4.16,4.16,0,0,0,2.78-.86,10.58,10.58,0,0,0,2.16-4l.8-2L346.09,60.32h4.58l8.21,20.5,8.18-20.5ZM109,39.35V21.13h13.16v2.15H111.4v5.58h10.07V31H111.4v6.2h11.18v2.15Zm15.07,0,7-9.49-6.21-8.73h2.87l3.3,4.68A25.22,25.22,0,0,1,132.53,28,23.83,23.83,0,0,1,134,26l3.67-4.84h2.62l-6.4,8.59,6.89,9.63h-3l-4.58-6.5c-.26-.37-.52-.78-.8-1.22-.4.66-.69,1.12-.87,1.37L127,39.35Zm18.82,0V21.13h6.87a16,16,0,0,1,2.77.18,5.54,5.54,0,0,1,2.25.85,4.49,4.49,0,0,1,1.46,1.76,5.92,5.92,0,0,1-.93,6.41c-1,1.08-2.76,1.61-5.34,1.61h-4.67v7.41Zm2.41-9.56H150a5,5,0,0,0,3.31-.87,3.07,3.07,0,0,0,1-2.44,3.32,3.32,0,0,0-.58-2,2.76,2.76,0,0,0-1.52-1.08,10.92,10.92,0,0,0-2.25-.16h-4.66Zm14.46,9.56V21.13h2.41V37.2h9v2.15Zm13.52-8.87a9.9,9.9,0,0,1,2.43-7.1A8.3,8.3,0,0,1,182,20.81,8.68,8.68,0,0,1,186.54,22a7.77,7.77,0,0,1,3.08,3.36,10.85,10.85,0,0,1,1.07,4.89,10.77,10.77,0,0,1-1.12,4.95,7.63,7.63,0,0,1-3.17,3.31A9.06,9.06,0,0,1,182,39.66a8.68,8.68,0,0,1-4.6-1.24,8,8,0,0,1-3.07-3.4A10.31,10.31,0,0,1,173.27,30.48Zm2.48,0a7.29,7.29,0,0,0,1.77,5.19,6.16,6.16,0,0,0,8.92,0,7.68,7.68,0,0,0,1.76-5.43,9.36,9.36,0,0,0-.75-3.88,5.72,5.72,0,0,0-2.2-2.57,5.94,5.94,0,0,0-3.25-.91,6.16,6.16,0,0,0-4.4,1.75C176.37,25.82,175.75,27.77,175.75,30.51ZM180.45,20l1.65-3.48H185L182.3,20Zm13.38,19.33V21.13h8.08a11,11,0,0,1,3.7.49,4.06,4.06,0,0,1,2,1.74,5.12,5.12,0,0,1,.76,2.74,4.6,4.6,0,0,1-1.25,3.27,6.34,6.34,0,0,1-3.88,1.69,6.19,6.19,0,0,1,1.45.91,12.11,12.11,0,0,1,2,2.42l3.17,5h-3l-2.41-3.79c-.7-1.1-1.28-1.93-1.74-2.51a5.33,5.33,0,0,0-1.22-1.22,3.65,3.65,0,0,0-1.1-.48,7,7,0,0,0-1.34-.09h-2.8v8.09Zm2.41-10.18h5.18a7.8,7.8,0,0,0,2.59-.34,2.74,2.74,0,0,0,1.41-1.09,3,3,0,0,0,.49-1.64A2.72,2.72,0,0,0,205,24a4.36,4.36,0,0,0-3-.83h-5.77Zm13.93,10.18,7-18.22h2.6l7.45,18.22h-2.74l-2.13-5.52h-7.61l-2,5.52Zm5.25-7.48h6.18l-1.9-5.05c-.58-1.53-1-2.79-1.29-3.77a23.91,23.91,0,0,1-1,3.48ZM229,39.35V21.13h2.41V37.2h9v2.15Zm13.52-8.87a9.9,9.9,0,0,1,2.43-7.1,8.3,8.3,0,0,1,6.29-2.57A8.68,8.68,0,0,1,255.83,22a7.77,7.77,0,0,1,3.08,3.36A10.85,10.85,0,0,1,260,30.27a10.77,10.77,0,0,1-1.12,4.95,7.63,7.63,0,0,1-3.17,3.31,9.06,9.06,0,0,1-4.42,1.13,8.68,8.68,0,0,1-4.6-1.24A8,8,0,0,1,243.6,35,10.31,10.31,0,0,1,242.56,30.48Zm2.48,0a7.29,7.29,0,0,0,1.77,5.19,6.16,6.16,0,0,0,8.92,0,7.68,7.68,0,0,0,1.76-5.43,9.36,9.36,0,0,0-.75-3.88,5.72,5.72,0,0,0-2.2-2.57,5.94,5.94,0,0,0-3.25-.91,6.16,6.16,0,0,0-4.4,1.75C245.66,25.82,245,27.77,245,30.51Zm25.16,8.84V21.13h13.17v2.15H272.61v5.58h10.08V31H272.61v6.2h11.18v2.15Zm16.9,0V21.13h2.47l9.57,14.3V21.13h2.31V39.35H299L289.41,25V39.35Z" style="fill:#2c2e36"/></g></g></svg>