<svg xmlns="http://www.w3.org/2000/svg" viewBox="0 0 2485.06 745.56"><g id="Capa_2" data-name="Capa 2"><g id="Layer_1" data-name="Layer 1"><path d="M2309.77,0H155.39c-5.71,0-11.36.19-17.08.19A248.5,248.5,0,0,0,101.52,3.6,120.19,120.19,0,0,0,66.59,15a121.94,121.94,0,0,0-29.8,21.83A116,116,0,0,0,15,66.59,119,119,0,0,0,3.6,101.71C1.35,113.85.58,126.18.19,138.5.19,144,0,149.68,0,155.39V590.17c0,5.72.19,11.37.19,17.08.39,12.33,1.16,24.66,3.41,36.8A121.57,121.57,0,0,0,15,679.17a120.25,120.25,0,0,0,51.63,51.24,118.65,118.65,0,0,0,34.93,11.75,274.77,274.77,0,0,0,36.79,3.21c5.72,0,11.37.19,17.08.19H2329.67c5.52,0,11.37-.19,16.89-.19a269.15,269.15,0,0,0,36.79-3.21,122.66,122.66,0,0,0,35.13-11.75,116,116,0,0,0,29.79-21.64,114.8,114.8,0,0,0,33.2-64.72c2.25-12.14,3-24.47,3.4-36.8V590.17c.19-6.61.19-13.29.19-20.1V175.49c0-6.81,0-13.48-.19-20.1V138.5c-.38-12.32-1.15-24.65-3.4-36.79a121.69,121.69,0,0,0-11.37-35.12A121.12,121.12,0,0,0,2418.48,15,119.16,119.16,0,0,0,2383.35,3.6c-12.13-2.25-24.46-3-36.79-3.41-5.52,0-11.37-.19-16.89-.19ZM155.39,729.38c-5.71,0-11,0-16.69-.19-10.28-.19-22.41-.77-34.36-3a106.12,106.12,0,0,1-30.56-10.08,98.11,98.11,0,0,1-25.62-18.62,99.7,99.7,0,0,1-18.75-25.81,109.75,109.75,0,0,1-10.08-30.57,219.08,219.08,0,0,1-3-34.35c-.19-4-.19-16.89-.19-16.89V155.26s.19-12.71.19-16.5c.19-9.69.77-22.22,3-34.35A111.48,111.48,0,0,1,29.41,73.65,102.65,102.65,0,0,1,48,48,98.51,98.51,0,0,1,73.84,29.28,104,104,0,0,1,104.41,19.2a219.43,219.43,0,0,1,34.54-3L155.46,16h2174l16.89.19a215,215,0,0,1,34.16,3,103.87,103.87,0,0,1,30.75,10.08A95.53,95.53,0,0,1,2436.9,48a101.67,101.67,0,0,1,18.95,25.81,100.13,100.13,0,0,1,9.69,30.38c2.25,11.55,2.83,23.5,3.21,34.73.2,5.14.2,10.79.2,16.31V589.85c0,5.91,0,11.37-.2,17.08-.38,10.79-1,22.8-3,34a102,102,0,0,1-10.09,30.76A99.47,99.47,0,0,1,2437,697.28,103.09,103.09,0,0,1,2411.22,716c-9.5,4.94-19.33,8-30.76,10.08-11.75,2.25-23.88,2.82-34.35,3-5.33.19-11,.19-16.5.19H155.39ZM541.22,353.49c-.51-60.57,49.57-90,51.77-91.36-28.42-41.29-72.42-47-87.81-47.55-36.89-3.89-72.76,22.17-91.54,22.17-19.12,0-48.22-21.66-79.35-21.15-40.1.67-77.84,23.85-98.31,60.06-42.47,73.6-10.83,181.89,30,241.45,20.47,29.1,44.16,61.76,75.46,60.57,30.46-1.18,42-19.45,78.68-19.45,36.55,0,47.21,19.45,79,18.78,32.82-.51,53.29-29.28,73.09-58.72,23.52-33.33,33-66.32,33.33-68-.84-.34-63.62-24.37-64.29-96.79m-60.07-178c16.41-20.47,27.58-48.39,24.54-76.81-23.69,1-53.47,16.41-70.56,36.55-15.06,17.76-28.6,46.69-25.21,73.94,26.73,2,54.14-13.54,71.23-33.68m502,398H940.53L917.18,500H836L813.8,573.45H772.34l80.37-249.91h49.75l80.71,249.91ZM910.24,469.23l-21.15-65.15c-2.2-6.76-6.43-22.33-12.52-47h-.84c-2.54,10.66-6.43,26.39-11.85,47l-20.81,65.15Zm279.52,12c0,30.62-8.29,54.82-25,72.59-14.89,15.9-33.5,23.68-55.5,23.68-23.86,0-40.94-8.46-51.44-25.55v94.59h-40.1V452.48c0-19.29-.5-38.92-1.52-59.22h35.2l2.19,28.59h.68c13.37-21.49,33.67-32.32,60.74-32.32,21.32,0,38.92,8.46,53.13,25.21,14.55,16.92,21.66,38.92,21.66,66.5ZM1149,482.59c0-17.59-3.89-32-11.84-43.31-8.63-11.85-20.3-17.77-34.86-17.77-9.81,0-18.78,3.39-26.9,9.82A45.22,45.22,0,0,0,1059.65,457a54.59,54.59,0,0,0-1.87,12.19v30.11c0,13,4.07,24.2,12,33.17S1088.24,546,1101.1,546c15.06,0,26.73-5.92,35.19-17.42,8.46-11.68,12.69-26.91,12.69-46Zm247.88-1.35c0,30.62-8.29,54.82-25,72.59-14.89,15.9-33.5,23.68-55.5,23.68-23.85,0-40.94-8.46-51.43-25.55v94.59h-40.1V452.48c0-19.29-.51-38.92-1.53-59.22h35.2l2.2,28.59h.67c13.37-21.49,33.67-32.32,60.75-32.32,21.31,0,38.91,8.46,53.12,25.21,14.56,16.92,21.66,38.92,21.66,66.5Zm-40.78,1.35c0-17.59-3.89-32-11.84-43.31-8.63-11.85-20.3-17.77-34.85-17.77-9.82,0-18.79,3.39-26.91,9.82A46.13,46.13,0,0,0,1266.75,457a54.49,54.49,0,0,0-1.86,12.19v30.11c0,13,4.06,24.2,12,33.17S1295.34,546,1308.2,546c15.06,0,26.9-5.92,35.19-17.42,8.63-11.68,12.69-26.91,12.69-46Zm272.59,20.81c0,21.32-7.45,38.58-22.17,52q-24.36,21.82-68,21.83c-26.9,0-48.39-5.25-64.63-15.57l9.3-33.33A112.42,112.42,0,0,0,1541,543.84c15.06,0,26.9-3.38,35.19-10.15,8.46-6.77,12.69-15.9,12.69-27.24a35.24,35.24,0,0,0-10.32-25.55q-10.39-10.41-34.51-19.29c-44.17-16.41-66-40.27-66-71.57,0-20.47,7.78-37.22,23.18-50.42,15.4-13,35.87-19.63,61.42-19.63,22.67,0,41.62,3.89,56.68,11.85l-10.15,32.48c-14.22-7.61-30.12-11.5-48.06-11.5-14,0-25.21,3.55-33.16,10.32-6.6,6.26-10,13.7-10,22.67a30.41,30.41,0,0,0,11.5,24.37c6.6,5.92,18.79,12.35,36.38,19.28,21.49,8.63,37.23,18.79,47.38,30.46,10.32,11.67,15.4,26.23,15.4,43.48m132.65-80h-44.16v87.48c0,22.16,7.78,33.33,23.35,33.33a74.44,74.44,0,0,0,17.76-1.86l1.19,30.46c-8,2.87-18.28,4.4-31.14,4.4-15.9,0-28.08-4.91-37-14.56s-13.37-25.88-13.37-48.56V423.2h-26.22V393.26h26.22v-33l39.26-11.84v44.84h44.16v30.11M1960,481.92c0,27.74-8,50.42-23.69,68.18q-24.87,27.42-66,27.41c-26.39,0-47.54-8.79-63.28-26.22s-23.52-39.59-23.52-66.33c0-27.92,8.13-50.76,24.2-68.52,16.24-17.77,38.07-26.74,65.48-26.74,26.39,0,47.71,8.8,63.79,26.4,15.4,16.92,23,38.91,23,65.82Zm-41.45.84c0-16.58-3.56-30.62-10.66-42.47-8.46-14.38-20.48-21.49-36-21.49-16.08,0-28.43,7.11-36.72,21.49-7.28,11.85-10.66,26.23-10.66,43.32,0,16.58,3.55,30.79,10.66,42.47,8.63,14.38,20.81,21.49,36.38,21.49q22.85,0,36-21.83C1914.78,513.56,1918.51,499.34,1918.51,482.76Zm171.73-54.31a73.81,73.81,0,0,0-12.69-1c-14,0-25,5.25-32.65,15.91-6.6,9.3-10,21.32-10,35.53v94.58h-40.1V449.94c0-20.81-.33-39.76-1.18-56.68h34.86l1.52,34.51h1.18c4.23-11.84,10.83-21.49,20-28.59a48.71,48.71,0,0,1,28.93-9.65,83.77,83.77,0,0,1,10,.68l.17,38.24m179,46.36a91,91,0,0,1-1.53,18.1H2147.6c.51,17.77,6.26,31.48,17.43,40.78,10.15,8.29,23.18,12.52,39.25,12.52,17.77,0,34-2.87,48.56-8.46l6.26,27.75q-25.62,11.18-60.4,11.17c-27.92,0-49.91-8.29-65.82-24.71S2109,513.39,2109,485.81c0-27.07,7.45-49.75,22.34-67.85Q2154.71,389,2194.3,389c25.89,0,45.69,9.64,58.88,28.93,10.66,15.56,16.08,34.35,16.08,56.85ZM2231,464.49c.34-11.85-2.37-22.17-7.79-30.8-6.93-11.16-17.59-16.75-31.81-16.75-13,0-23.68,5.42-31.8,16.25a60.22,60.22,0,0,0-11.85,31.13l83.25.17ZM784.6,105.63h44.8q15.17,0,23.11,2.32a40.5,40.5,0,0,1,18.3,11.18,53,53,0,0,1,11.6,19.66q4,11.64,4,28.7,0,15-3.73,25.84-4.54,13.24-13,21.45-6.37,6.21-17.22,9.69-8.11,2.57-21.7,2.56H784.6Zm24.51,20.54v80.41h18.31q10.26,0,14.82-1.16a22.66,22.66,0,0,0,9.9-5q3.93-3.57,6.42-11.72T861,166.41q0-14.07-2.48-21.61a27.83,27.83,0,0,0-7-11.76,23.33,23.33,0,0,0-11.35-5.72q-5.13-1.16-20.12-1.15Zm114.85,1V105.63h23.27v21.53ZM924,227V139.08h23.27V227Zm55.89-25.09,23.35-3.56q1.5,6.8,6,10.31t12.75,3.52q9,0,13.58-3.31a7.42,7.42,0,0,0,3.07-6.21,6.13,6.13,0,0,0-1.66-4.39q-1.74-1.67-7.78-3.07Q1001,189,993.51,183.89a22.68,22.68,0,0,1-10.43-19.8q0-11.42,9-19.21t28-7.78q18,0,26.83,5.88T1059,160.37l-22,4.06a13.56,13.56,0,0,0-5.34-7.87q-3.93-2.73-11.22-2.73-9.19,0-13.17,2.56a5.51,5.51,0,0,0-2.65,4.72,5.14,5.14,0,0,0,2.32,4.23q3.15,2.31,21.74,6.54t26,10.35q7.29,6.21,7.29,17.31,0,12.09-10.1,20.79T1022,229q-18,0-28.45-7.29A33.53,33.53,0,0,1,979.85,201.94Zm118.82-62.86h21.7V152a32.41,32.41,0,0,1,11.43-10.76,31.49,31.49,0,0,1,16-4.14q15.32,0,26,12t10.69,33.45q0,22-10.77,34.25T1147.61,229a29.5,29.5,0,0,1-13.2-2.9q-5.92-2.9-12.47-9.93v44.3h-23.27Zm23,42.49q0,14.82,5.88,21.9t14.33,7.08a16.8,16.8,0,0,0,13.5-6.5q5.38-6.5,5.38-21.32,0-13.83-5.55-20.54a17.17,17.17,0,0,0-13.74-6.71,17.88,17.88,0,0,0-14.17,6.59Q1121.7,168.64,1121.69,181.57Zm92.82.25a47.62,47.62,0,0,1,5.72-22.45,39.2,39.2,0,0,1,16.19-16.56,48,48,0,0,1,23.39-5.71q20,0,32.72,13t12.75,32.75q0,20-12.88,33.09T1260,229a51.16,51.16,0,0,1-23.07-5.46,37.55,37.55,0,0,1-16.68-16Q1214.52,197,1214.51,181.82Zm23.85,1.24q0,13.08,6.22,20a20.3,20.3,0,0,0,30.6,0q6.16-7,6.17-20.21,0-12.91-6.17-19.87a20.3,20.3,0,0,0-30.6,0Q1238.36,170,1238.36,183.06Zm182.1,44h-23.27V182.15q0-14.25-1.49-18.43a13,13,0,0,0-4.85-6.5,13.88,13.88,0,0,0-8.07-2.32,18.72,18.72,0,0,0-10.85,3.31,16.75,16.75,0,0,0-6.59,8.78q-1.77,5.47-1.78,20.21V227h-23.27V139.08h21.62V152q11.5-14.9,29-14.9a34.89,34.89,0,0,1,14.08,2.77,23.61,23.61,0,0,1,9.65,7.08,25.58,25.58,0,0,1,4.55,9.77q1.29,5.47,1.29,15.66ZM1461,127.16V105.63h23.27v21.53Zm0,99.87V139.08h23.27V227Zm63.09,0V105.63h23.27v43.72q10.77-12.25,25.51-12.25,16.06,0,26.58,11.63T1610,182.15q0,22.53-10.72,34.7t-26,12.17a32.14,32.14,0,0,1-14.87-3.77,35.46,35.46,0,0,1-12.62-11.14V227Zm23.11-45.88q0,13.66,4.3,20.21,6,9.28,16.07,9.28,7.7,0,13.12-6.59t5.43-20.74q0-15.08-5.47-21.74a17.3,17.3,0,0,0-14-6.67,17.56,17.56,0,0,0-13.92,6.5Q1547.23,167.91,1547.22,181.15ZM1645.67,227V105.63h23.27V227Zm115-28,23.19,3.9q-4.47,12.75-14.12,19.42T1745.61,229q-22.93,0-34-15-8.69-12-8.69-30.31,0-21.85,11.43-34.24t28.9-12.38q19.62,0,31,13t10.85,39.71h-58.3q.26,10.35,5.63,16.11a17.64,17.64,0,0,0,13.42,5.75,14.23,14.23,0,0,0,9.19-3Q1758.77,205.67,1760.68,199Zm1.33-23.52q-.26-10.1-5.22-15.36a16.79,16.79,0,0,0-24.68.29q-5,5.55-4.89,15.07Zm174,23.52,23.19,3.9q-4.47,12.75-14.12,19.42T1921,229q-22.95,0-34-15-8.68-12-8.69-30.31,0-21.85,11.43-34.24t28.9-12.38q19.62,0,31,13t10.85,39.71h-58.3q.24,10.35,5.63,16.11a17.64,17.64,0,0,0,13.42,5.75,14.25,14.25,0,0,0,9.19-3Q1934.14,205.67,1936.05,199Zm1.33-23.52q-.26-10.1-5.22-15.36a16.79,16.79,0,0,0-24.68.29q-5,5.55-4.89,15.07Zm139,51.51h-23.27V182.15q0-14.25-1.49-18.43a13,13,0,0,0-4.85-6.5,13.9,13.9,0,0,0-8.07-2.32,18.72,18.72,0,0,0-10.85,3.31,16.7,16.7,0,0,0-6.59,8.78q-1.77,5.47-1.78,20.21V227h-23.27V139.08h21.62V152q11.51-14.9,29-14.9a34.89,34.89,0,0,1,14.08,2.77,23.61,23.61,0,0,1,9.65,7.08,25.58,25.58,0,0,1,4.55,9.77q1.29,5.47,1.29,15.66Z"/></g></g></svg>