<svg xmlns="http://www.w3.org/2000/svg" xmlns:xlink="http://www.w3.org/1999/xlink" viewBox="0 0 47.17 58.4"><defs><linearGradient id="Degradado_sin_nombre_109" y1="29.2" x2="47.17" y2="29.2" gradientUnits="userSpaceOnUse"><stop offset="0" stop-color="#eab5f7"/><stop offset="0.16" stop-color="#a7adee"/><stop offset="0.32" stop-color="#65a5e5"/><stop offset="0.44" stop-color="#3da0df"/><stop offset="0.5" stop-color="#2d9edd"/><stop offset="0.72" stop-color="#2d9fdb"/><stop offset="0.81" stop-color="#2ba2d4"/><stop offset="0.88" stop-color="#28a8c7"/><stop offset="0.94" stop-color="#25b0b5"/><stop offset="0.99" stop-color="#20ba9e"/><stop offset="1" stop-color="#1fbb9b"/></linearGradient></defs><g id="Capa_2" data-name="Capa 2"><g id="Capa_1-2" data-name="Capa 1"><path d="M47.1,18.42s0,0,0-.06a1.94,1.94,0,0,0-.05-.2v0a.38.38,0,0,0,0-.1,53.57,53.57,0,0,0-5.46-9.27A6.42,6.42,0,0,0,40,7.28.73.73,0,0,0,40,7c.14-2.64.5-5.82-2.61-6.4-4.7-.89-10-.5-14.82-.47-2.44,0-4.89.08-7.32.19C13.34.39,10.7.08,8.87.9,6.47,2,6.63,5.14,6.78,7.36a1.06,1.06,0,0,0,.06.19C4.11,10.85,2.55,14.83.16,18.36a.65.65,0,0,0-.11.47c-.26,3.46.42,6.76,4.47,7.07a9.93,9.93,0,0,0,2.16-.06L6.8,47.1c0,2.68-.83,7.4,1,9.63,1.46,1.75,3.57,1.57,5.62,1.62,3.8.08,7.6.06,11.39,0,2.83,0,5.65-.12,8.48-.21,2.27-.07,4.92.33,6.18-2.1,1-1.89.32-5.15.28-7.21,0-2.49-.22-5-.24-7.48,0-5.22,0-10.47.05-15.7a7.91,7.91,0,0,0,2.77.23c1.43-.11,3-.43,3.83-1.74A9.93,9.93,0,0,0,47.1,18.42Zm-5.84-7.53a50.47,50.47,0,0,1,3.87,6.78q-3.48,0-7,0C37,14.54,36,11.38,34.62,8.32h1.47C38.67,8.29,39.72,8.74,41.26,10.89ZM35.47,23.8a5.34,5.34,0,0,1-3.14.62c-1.4,0-2.79-.42-3.26-1.88a8.14,8.14,0,0,1,0-3.15,1.08,1.08,0,0,0,0-.19l7.28,0a.22.22,0,0,0,0,.08C36.41,20.56,36.67,22.86,35.47,23.8Zm-1,21c0,1.17.11,2.4,0,3.56,0,.36,0,.51.1.56a1.65,1.65,0,0,0-.73-.1c-2.72,0-5.46.33-8.19.38-3.21.06-6.43.08-9.65,0A22.33,22.33,0,0,1,12.79,49l-.26,0a5.07,5.07,0,0,1,0-1c.43-7.36-.19-15-.32-22.36a7,7,0,0,0,1.87.27c1.36,0,3.21-.13,4.26-1.1A3.21,3.21,0,0,0,19,24l.11.19a5,5,0,0,0,4.13,1.75c1.35,0,3.21-.13,4.26-1.1a3.21,3.21,0,0,0,.62-.84l.11.19a5,5,0,0,0,4.13,1.75,10.19,10.19,0,0,0,1.72-.08C34.29,32.16,34.42,38.49,34.51,44.82ZM7.91,8.59,12,8.52c-1,3.07-1.84,6.22-2.52,9.36L2.18,18C4.11,14.84,5.55,11.44,7.91,8.59ZM33,8.32c1.37,3,2.43,6.21,3.57,9.35-2.53,0-5,0-7.57,0,0,0,0,0,0,0-.82-3.1-1.48-6.23-2.26-9.34l4.06,0ZM26.35,23.8a5.34,5.34,0,0,1-3.14.62c-1.4,0-2.79-.42-3.26-1.88a8.14,8.14,0,0,1,0-3.15.43.43,0,0,0,0-.12l7.27-.05s0,0,0,0C27.29,20.56,27.55,22.86,26.35,23.8ZM25.21,8.36c.79,3.11,1.45,6.25,2.25,9.35l-7.54.06a92.24,92.24,0,0,0,1.16-9.39ZM18.4,17.79,11,17.87c.7-3.16,1.57-6.31,2.57-9.38,2,0,4-.08,6-.1A84.7,84.7,0,0,1,18.4,17.79Zm-7.61,1.58,7.26-.08c.13,1.33.37,3.58-.82,4.51a5.34,5.34,0,0,1-3.14.62c-1.4,0-2.79-.42-3.26-1.88a8.14,8.14,0,0,1,0-3.15S10.79,19.38,10.79,19.37ZM10.9,2.05a22.1,22.1,0,0,1,4.39-.25q4-.18,8.05-.19c2.68,0,5.37,0,8.05.13,1.24.05,3.31-.27,4.38.22C38.1,3,38.62,4.56,38.55,6.78a35.89,35.89,0,0,0-3.79,0c-8.83,0-17.66.06-26.5.26C8.1,4.74,8,2.88,10.9,2.05ZM4.52,24.4c-2.87-.27-3.14-2.61-3-4.92l7.43-.09c.13,1.33.33,3.5-.83,4.41A5.7,5.7,0,0,1,4.52,24.4Zm33.79,27c0,1.25.34,3.32-.47,4.34-.7.86-2,.79-2.93.87-.76.06-1.54,0-2.3.07-2.45.09-4.91.13-7.37.16-3,0-6.08,0-9.12,0-2.59,0-6.53.79-7.69-2.4-.41-1.13-.1-3-.11-4.17q0-3.78,0-7.56-.06-8.64-.1-17.29a3.61,3.61,0,0,0,1.05-.64A3,3,0,0,0,9.85,24l.11.19a3.53,3.53,0,0,0,.93.88.67.67,0,0,0-.18.48c.13,7,.12,14.08.29,21.12,0,1-.3,2.82.51,3.57s3.07.43,4,.46a147.36,147.36,0,0,0,17.33-.24c3.72-.31,3.25-1.45,3.21-5q-.12-10-.48-20a3.45,3.45,0,0,0,1.05-.63,3.62,3.62,0,0,0,.63-.84,2,2,0,0,0,.17.27,3.75,3.75,0,0,0,.76.73.59.59,0,0,0,0,.2C37.94,33.93,38.28,42.68,38.31,51.43Zm7-29.08c-.46,1.56-1.41,1.91-3,2s-3.26,0-4-1.42c-.56-1-.29-2.47-.19-3.59a1.3,1.3,0,0,0,0-.22c2.5,0,5,0,7.51,0A9.71,9.71,0,0,1,45.32,22.35ZM19,3.62a83.42,83.42,0,0,1,8.66-.15.75.75,0,0,1,0,1.5A83.42,83.42,0,0,0,19,5.12C18,5.19,18,3.69,19,3.62Zm5.91,47.72c-1.76,0-5.37-.57-5.79,1.88S21,55.93,22.81,56c1.63.06,4.79.11,5.26-2S26.48,51.4,24.88,51.34Zm1.5,2.7c-.68.65-2.7.49-3.57.46a4.46,4.46,0,0,1-1.91-.24A.69.69,0,0,1,21,53a5.13,5.13,0,0,1,1.92-.13l2,0C25.41,52.86,27.43,53,26.38,54Zm5.56-11.36c0,1.18.59,4.11-1,4.59a11.2,11.2,0,0,1-2.78.09c-1.11,0-2.23.09-3.34.1a.75.75,0,0,1,0-1.5c1.48,0,3-.11,4.43-.13.16,0,.94.12,1.06,0s.09-.7.09-.91q0-1.12,0-2.25A.75.75,0,0,1,31.94,42.68Zm-.74-3.47a.75.75,0,0,1,0,1.5A.75.75,0,0,1,31.2,39.21Z" style="fill:url(#Degradado_sin_nombre_109)"/></g></g></svg>