<svg xmlns="http://www.w3.org/2000/svg" viewBox="0 0 19.15 19.15">
    <g id="Capa_2" data-name="Capa 2">
        <g id="Capa_1-2" data-name="Capa 1">
            <path d="M9.57,19.15A9.58,9.58,0,1,1,19.15,9.6,9.58,9.58,0,0,1,9.57,19.15Zm0-17.92a8.35,8.35,0,1,0,8.36,8.31A8.38,8.38,0,0,0,9.56,1.23Zm-3.85,8a1.19,1.19,0,0,0-1.8-.16c-.52.51-.46,1.21.17,1.85l3.34,3.33a1.29,1.29,0,0,0,2.25-.2l1.88-2.61C12.81,9.73,14.07,8,15.31,6.25a1.17,1.17,0,0,0-.74-1.91A1.26,1.26,0,0,0,13.32,5l-5,6.93Z" />
        </g>
    </g>
</svg>