<svg xmlns="http://www.w3.org/2000/svg" xmlns:xlink="http://www.w3.org/1999/xlink" viewBox="0 0 121.17 119.75"><defs><linearGradient id="linear-gradient" x1="15264.84" y1="5981.7" x2="15196.41" y2="6050.13" gradientTransform="matrix(0, -1, -1, 0, 6094.2, 15299.06)" gradientUnits="userSpaceOnUse"><stop offset="0" stop-color="#c1d82f"/><stop offset="0.01" stop-color="#bfd72f"/><stop offset="0.16" stop-color="#93c034"/><stop offset="0.3" stop-color="#73b038"/><stop offset="0.41" stop-color="#5fa63a"/><stop offset="0.49" stop-color="#58a23b"/><stop offset="1" stop-color="#006038"/></linearGradient><linearGradient id="linear-gradient-2" x1="15027.5" y1="2703.96" x2="14959.07" y2="2772.39" gradientTransform="matrix(0, -1, -1, 0, 2805.84, 15056.92)" xlink:href="#linear-gradient"/><linearGradient id="linear-gradient-3" x1="-564.02" y1="-2595.57" x2="-478.72" y2="-2510.27" gradientTransform="translate(582.02 2612.73)" gradientUnits="userSpaceOnUse"><stop offset="0.01" stop-color="#413f3f"/><stop offset="1"/></linearGradient><linearGradient id="New_Gradient_Swatch_22" x1="-558.56" y1="-2590.11" x2="-484.18" y2="-2515.73" gradientTransform="translate(582.02 2612.73)" gradientUnits="userSpaceOnUse"><stop offset="0" stop-color="#fff"/><stop offset="1" stop-color="#95cdf5"/></linearGradient><linearGradient id="New_Gradient_Swatch_14" x1="-533.41" y1="-2564.96" x2="-509.33" y2="-2540.88" gradientTransform="translate(582.02 2612.73)" gradientUnits="userSpaceOnUse"><stop offset="0" stop-color="#ff0090"/><stop offset="1" stop-color="#591700"/></linearGradient><linearGradient id="New_Gradient_Swatch_14-2" x1="57.7" y1="41.73" x2="61.87" y2="41.73" gradientTransform="matrix(1, 0, 0, 1, 0, 0)" xlink:href="#New_Gradient_Swatch_14"/><linearGradient id="New_Gradient_Swatch_14-3" x1="50.24" y1="33.07" x2="68.67" y2="33.07" gradientTransform="matrix(1, 0, 0, 1, 0, 0)" xlink:href="#New_Gradient_Swatch_14"/><linearGradient id="New_Gradient_Swatch_14-4" x1="57.84" y1="34.76" x2="68.67" y2="34.76" gradientTransform="matrix(1, 0, 0, 1, 0, 0)" xlink:href="#New_Gradient_Swatch_14"/><linearGradient id="New_Gradient_Swatch_14-5" x1="52.03" y1="32.17" x2="60.39" y2="32.17" gradientTransform="matrix(1, 0, 0, 1, 0, 0)" xlink:href="#New_Gradient_Swatch_14"/><linearGradient id="New_Gradient_Swatch_35" x1="7.65" y1="70.15" x2="63.03" y2="125.53" gradientUnits="userSpaceOnUse"><stop offset="0" stop-color="#7b00ff"/><stop offset="1" stop-color="#270047"/></linearGradient><linearGradient id="New_Gradient_Swatch_8" x1="4.49" y1="88.55" x2="14.21" y2="98.27" gradientUnits="userSpaceOnUse"><stop offset="0" stop-color="#ffff69"/><stop offset="1" stop-color="#ff59a6"/></linearGradient><linearGradient id="New_Gradient_Swatch_8-2" x1="5.38" y1="87.65" x2="15.1" y2="97.37" xlink:href="#New_Gradient_Swatch_8"/><linearGradient id="New_Gradient_Swatch_8-3" x1="2.22" y1="90.82" x2="11.93" y2="100.54" xlink:href="#New_Gradient_Swatch_8"/><linearGradient id="New_Gradient_Swatch_8-4" x1="7.65" y1="85.38" x2="17.37" y2="95.1" xlink:href="#New_Gradient_Swatch_8"/><linearGradient id="New_Gradient_Swatch_8-5" x1="3.49" y1="89.55" x2="13.2" y2="99.27" xlink:href="#New_Gradient_Swatch_8"/><linearGradient id="New_Gradient_Swatch_8-6" x1="6.38" y1="86.65" x2="16.1" y2="96.37" xlink:href="#New_Gradient_Swatch_8"/><linearGradient id="New_Gradient_Swatch_8-7" x1="3.61" y1="89.43" x2="13.33" y2="99.14" xlink:href="#New_Gradient_Swatch_8"/><linearGradient id="New_Gradient_Swatch_8-8" x1="6.26" y1="86.78" x2="15.98" y2="96.5" xlink:href="#New_Gradient_Swatch_8"/><linearGradient id="New_Gradient_Swatch_8-9" x1="4.93" y1="88.1" x2="14.65" y2="97.82" xlink:href="#New_Gradient_Swatch_8"/></defs><g id="Capa_2" data-name="Capa 2"><g id="Capa_1-2" data-name="Capa 1"><rect x="32.95" y="45.94" width="91.36" height="45.5" transform="translate(-20.18 102.44) rotate(-60)" style="fill:url(#linear-gradient)"/><path d="M50.85,101.32l13.4,7.74a15.44,15.44,0,0,1,15.68-4.2L110.6,51.74a15.44,15.44,0,0,1-4.2-15.68L93,28.32a15.44,15.44,0,0,1-15.68,4.21L46.65,85.64A15.44,15.44,0,0,1,50.85,101.32ZM71.58,80.9a14.09,14.09,0,1,1,19.25-5.16A14.11,14.11,0,0,1,71.58,80.9Z" style="fill:#fcee21;opacity:0.30000000000000004"/><rect x="21.89" y="41.36" width="91.36" height="45.5" transform="matrix(0.26, -0.97, 0.97, 0.26, -11.85, 112.79)" style="fill:url(#linear-gradient-2)"/><path d="M49.19,102.82l15,4A15.42,15.42,0,0,1,78.2,98.71L94.07,39.46a15.44,15.44,0,0,1-8.12-14L71,21.4A15.46,15.46,0,0,1,57,29.52L41.07,88.76A15.46,15.46,0,0,1,49.19,102.82Zm14.73-25.1a14.09,14.09,0,1,1,17.26-10A14.09,14.09,0,0,1,63.92,77.72Z" style="fill:#fcee21;opacity:0.30000000000000004"/><rect x="30.86" width="59.58" height="119.63" rx="7.34" style="fill:url(#linear-gradient-3)"/><rect x="33.12" y="12.96" width="55.05" height="93.7" style="fill:url(#New_Gradient_Swatch_22)"/><rect x="40.26" y="51.85" width="40.77" height="15.93" rx="7.29" style="fill:url(#New_Gradient_Swatch_14)"/><g style="opacity:0.2"><path d="M68.5,6.05H52.8a1.08,1.08,0,1,0,0,2.15H68.5a1.08,1.08,0,0,0,0-2.15Z" style="fill:#fff"/><path d="M48.58,6.07a1.06,1.06,0,1,0,1.05,1A1.05,1.05,0,0,0,48.58,6.07Z" style="fill:#fff"/><path d="M72.71,6.07a1.06,1.06,0,1,0,1.06,1A1,1,0,0,0,72.71,6.07Z" style="fill:#fff"/></g><circle cx="60.65" cy="113.14" r="4.58" style="fill:#fff;opacity:0.2"/><polygon points="33.12 12.96 33.12 79.78 88.17 24.73 88.17 12.96 33.12 12.96" style="fill:#fff;opacity:0.2"/><text transform="translate(46.32 62.75)" style="font-size:8.761969566345215px;fill:#fff;font-family:Quicksand-Bold, Quicksand;font-weight:700;letter-spacing:-0.04001222953873328em">P<tspan x="4.93" y="0" style="letter-spacing:-0.010309557750230718em">A</tspan><tspan x="10.44" y="0" style="letter-spacing:0.0227088907201028em">G</tspan><tspan x="16.74" y="0" style="letter-spacing:0.010894694811730301em">A</tspan><tspan x="22.43" y="0" style="letter-spacing:-0.00002786366959521816em">R</tspan></text><polygon points="57.7 39.42 57.7 44.04 61.87 40.11 57.7 39.42" style="stroke:#fff;stroke-miterlimit:10;stroke-width:0.25px;fill:url(#New_Gradient_Swatch_14-2)"/><polygon points="50.24 36.76 68.67 26.29 57.84 39.84 50.24 36.76" style="stroke:#fff;stroke-miterlimit:10;stroke-width:0.25px;fill:url(#New_Gradient_Swatch_14-3)"/><polygon points="68.67 26.29 66.1 43.23 57.84 39.84 68.67 26.29" style="stroke:#fff;stroke-miterlimit:10;stroke-width:0.25px;fill:url(#New_Gradient_Swatch_14-4)"/><path d="M52,32.17a4.18,4.18,0,1,1,4.18,4.18A4.18,4.18,0,0,1,52,32.17Z" style="stroke:#fff;stroke-miterlimit:10;stroke-width:0.25px;fill:url(#New_Gradient_Swatch_14-5)"/><path d="M55,33.63l.25-.36a1.51,1.51,0,0,0,1,.42.61.61,0,0,0,.7-.65c0-1-1.77-.8-1.77-2a1.05,1.05,0,0,1,1.14-1.07,1.37,1.37,0,0,1,1.06.48l-.28.31a1,1,0,0,0-.77-.36.59.59,0,0,0-.64.61c0,.93,1.78.67,1.78,2a1.11,1.11,0,0,1-1.22,1.12A1.9,1.9,0,0,1,55,33.63ZM56,29.31h.38v.81H56Zm0,4.63h.38v.81H56Z" style="fill:#fff;stroke:#fff;stroke-miterlimit:10;stroke-width:0.5px"/><path d="M.93,118.82a2.75,2.75,0,0,0,2,.8h64.9a2.75,2.75,0,0,0,2.76-2.76v-38a2.77,2.77,0,0,0-2.76-2.76H2.89A2.77,2.77,0,0,0,.12,78.82v38A2.76,2.76,0,0,0,.93,118.82Z" style="stroke:#000;stroke-width:0.25px;fill:url(#New_Gradient_Swatch_35)"/><path d="M5.82,104.53a.33.33,0,0,1,.15.16.4.4,0,0,1,.06.22.52.52,0,0,1-.07.29.39.39,0,0,1-.21.17.64.64,0,0,1-.28.06.69.69,0,0,1-.34-.07.54.54,0,0,1-.23-.22l.33-.19a.27.27,0,0,0,.08.15.22.22,0,0,0,.16.05.21.21,0,0,0,.16-.06.22.22,0,0,0,0-.3.19.19,0,0,0-.16-.05.27.27,0,0,0-.23.08l-.29,0L5,104H6v.29H5.32l0,.27s0,0,0,.06h0a.36.36,0,0,1,.12-.08.48.48,0,0,1,.18,0A.48.48,0,0,1,5.82,104.53Z" style="fill:#fff"/><path d="M7.47,105.09H7.25v.32H6.91v-.32H6.19v-.18l.62-1h.44v.87h.22Zm-.93-.26h.37v-.62h0c0,.06-.07.14-.13.24Z" style="fill:#fff"/><path d="M8.57,104.05a.35.35,0,0,1,.13.29.36.36,0,0,1,0,.19.31.31,0,0,1-.12.11.19.19,0,0,1-.11,0h0a.38.38,0,0,1,.13,0,.23.23,0,0,1,.12.1.38.38,0,0,1,.05.19.32.32,0,0,1-.07.22.62.62,0,0,1-.2.15.88.88,0,0,1-.29.05.75.75,0,0,1-.37-.08.46.46,0,0,1-.2-.28l.34-.15a.21.21,0,0,0,.22.22.21.21,0,0,0,.15,0,.14.14,0,0,0,.06-.12.14.14,0,0,0,0-.12.27.27,0,0,0-.17,0H8.07v-.24h.06a.31.31,0,0,0,.16,0,.19.19,0,0,0,.05-.13.17.17,0,0,0-.05-.13.17.17,0,0,0-.13,0,.19.19,0,0,0-.2.2l-.33-.12a.46.46,0,0,1,.18-.28.74.74,0,0,1,.38-.09A.61.61,0,0,1,8.57,104.05Z" style="fill:#fff"/><path d="M9,105.17a2.38,2.38,0,0,0,.53-.41.5.5,0,0,0,.17-.33.18.18,0,0,0-.2-.19.19.19,0,0,0-.16.07.34.34,0,0,0-.06.22l-.32-.1a.42.42,0,0,1,.16-.36.59.59,0,0,1,.41-.13.56.56,0,0,1,.3.07.42.42,0,0,1,.18.17.43.43,0,0,1,.06.22.55.55,0,0,1-.15.38,2.1,2.1,0,0,1-.46.35h.63v.29H9Z" style="fill:#fff"/><path d="M7.31,98.88v3.57h-.9V99.8a1.73,1.73,0,0,1-.85.45l-.08-.77a1.56,1.56,0,0,0,.61-.22,1.41,1.41,0,0,0,.48-.38Z" style="fill:#fff"/><path d="M8,101.86a6.91,6.91,0,0,0,1.31-1,1.24,1.24,0,0,0,.4-.82.5.5,0,0,0-.12-.35.47.47,0,0,0-.36-.13.49.49,0,0,0-.4.18,1,1,0,0,0-.15.55L7.92,100a1.12,1.12,0,0,1,.4-.89,1.47,1.47,0,0,1,1-.32,1.54,1.54,0,0,1,.75.16,1.1,1.1,0,0,1,.45.43,1.08,1.08,0,0,1,.15.55,1.37,1.37,0,0,1-.38.93,4.55,4.55,0,0,1-1.14.86h0q.36,0,.72,0h.84v.71H8Z" style="fill:#fff"/><path d="M13.49,99.1a.89.89,0,0,1,.33.73.92.92,0,0,1-.11.46.66.66,0,0,1-.28.27.6.6,0,0,1-.28.09v0a.66.66,0,0,1,.32.08.62.62,0,0,1,.3.26.82.82,0,0,1,.12.47.83.83,0,0,1-.18.53,1.1,1.1,0,0,1-.49.37,2,2,0,0,1-.71.13,1.74,1.74,0,0,1-.92-.21,1.18,1.18,0,0,1-.49-.68l.84-.36a.62.62,0,0,0,.17.4.53.53,0,0,0,.39.13.57.57,0,0,0,.36-.11.39.39,0,0,0,.13-.31.36.36,0,0,0-.12-.31.73.73,0,0,0-.41-.09h-.2v-.59h.16a.57.57,0,0,0,.38-.11.39.39,0,0,0,.12-.32.41.41,0,0,0-.11-.3.45.45,0,0,0-.31-.1.46.46,0,0,0-.5.48l-.82-.28a1,1,0,0,1,.45-.7,1.74,1.74,0,0,1,.92-.22A1.48,1.48,0,0,1,13.49,99.1Z" style="fill:#fff"/><path d="M17.49,101.67h-.55v.78h-.82v-.78h-1.8v-.44l1.53-2.35h1.09V101h.55Zm-2.3-.64h.93v-1l0-.59h0a4,4,0,0,1-.32.59Z" style="fill:#fff"/><path d="M23.16,100.29a1,1,0,0,1,.39.38,1.13,1.13,0,0,1,.13.56,1.31,1.31,0,0,1-.18.71,1.17,1.17,0,0,1-.5.43,1.76,1.76,0,0,1-.71.14,1.92,1.92,0,0,1-.83-.17,1.34,1.34,0,0,1-.56-.55l.81-.46a.62.62,0,0,0,.19.35.7.7,0,0,0,.8,0,.46.46,0,0,0,.14-.38.5.5,0,0,0-.14-.37.54.54,0,0,0-.4-.13.71.71,0,0,0-.57.21l-.7-.1.22-2h2.23v.72H21.93l-.08.67a.63.63,0,0,1,0,.13h0a.64.64,0,0,1,.3-.18,1.18,1.18,0,0,1,.43-.07A1.16,1.16,0,0,1,23.16,100.29Z" style="fill:#fff"/><path d="M27,99.62l-.76.35a.52.52,0,0,0-.54-.41.57.57,0,0,0-.49.29,1.32,1.32,0,0,0-.19.76v.09h0a.68.68,0,0,1,.32-.35,1.13,1.13,0,0,1,.54-.12,1.21,1.21,0,0,1,.6.14,1,1,0,0,1,.41.39,1.09,1.09,0,0,1,.15.58,1.07,1.07,0,0,1-.36.85,1.49,1.49,0,0,1-1,.32,1.37,1.37,0,0,1-1.11-.47,2.17,2.17,0,0,1-.38-1.37,2.42,2.42,0,0,1,.2-1,1.39,1.39,0,0,1,.56-.61,1.52,1.52,0,0,1,.81-.2A1.16,1.16,0,0,1,27,99.62ZM25.29,101a.47.47,0,0,0-.14.35.45.45,0,0,0,.14.35.51.51,0,0,0,.37.13.5.5,0,0,0,.38-.13.54.54,0,0,0,0-.7.54.54,0,0,0-.38-.12A.55.55,0,0,0,25.29,101Z" style="fill:#fff"/><path d="M30.27,98.88v.66a3.56,3.56,0,0,0-.91,1.33,4.63,4.63,0,0,0-.26,1.58h-.92a4,4,0,0,1,.28-1.52,4.2,4.2,0,0,1,.9-1.32h-2v-.73Z" style="fill:#fff"/><path d="M33,99.11a.85.85,0,0,1,.36.73.81.81,0,0,1-.56.78h0a1,1,0,0,1,.5.33.9.9,0,0,1-.21,1.28,2.24,2.24,0,0,1-2.13,0,.9.9,0,0,1-.21-1.28,1,1,0,0,1,.5-.33h0a.88.88,0,0,1-.42-.3.81.81,0,0,1-.15-.48.85.85,0,0,1,.36-.73,1.61,1.61,0,0,1,1-.27A1.58,1.58,0,0,1,33,99.11Zm-.57,2.6a.42.42,0,0,0,.14-.32.42.42,0,0,0-.14-.33.65.65,0,0,0-.41-.12.62.62,0,0,0-.4.12.4.4,0,0,0-.15.33.39.39,0,0,0,.15.32.62.62,0,0,0,.4.12A.65.65,0,0,0,32.42,101.71Zm-.75-2.09a.37.37,0,0,0-.13.31.38.38,0,0,0,.13.3.51.51,0,0,0,.34.11.52.52,0,0,0,.35-.11.38.38,0,0,0,.13-.3.37.37,0,0,0-.13-.31.52.52,0,0,0-.35-.11A.5.5,0,0,0,31.67,99.62Z" style="fill:#fff"/><path d="M39.51,99.3a2.15,2.15,0,0,1,.39,1.39,2,2,0,0,1-.4,1.37,1.4,1.4,0,0,1-1.12.45,1.68,1.68,0,0,1-.82-.19,1.2,1.2,0,0,1-.49-.59l.83-.33a.71.71,0,0,0,.16.3.49.49,0,0,0,.34.1c.44,0,.66-.33.66-1v-.09h0a.56.56,0,0,1-.31.35,1.08,1.08,0,0,1-.54.13,1.18,1.18,0,0,1-.59-.15,1.07,1.07,0,0,1-.42-.4A1.15,1.15,0,0,1,37,100a1.12,1.12,0,0,1,.36-.89,1.5,1.5,0,0,1,1-.32A1.32,1.32,0,0,1,39.51,99.3ZM38,99.68a.47.47,0,0,0-.14.35.47.47,0,0,0,.14.36.63.63,0,0,0,.75,0,.45.45,0,0,0,.13-.35.48.48,0,0,0-.13-.35.56.56,0,0,0-.38-.12A.51.51,0,0,0,38,99.68Z" style="fill:#fff"/><path d="M40.39,100.67c0-1.23.5-1.84,1.49-1.84s1.48.61,1.48,1.84-.49,1.84-1.48,1.84S40.39,101.89,40.39,100.67Zm1.92.85a2,2,0,0,0,.13-.85,2,2,0,0,0-.13-.86.49.49,0,0,0-.86,0,2,2,0,0,0-.14.86,2,2,0,0,0,.14.85.49.49,0,0,0,.86,0Z" style="fill:#fff"/><path d="M45.59,98.88v3.57H44.7V99.8a1.73,1.73,0,0,1-.85.45l-.08-.77a1.62,1.62,0,0,0,.61-.22,1.27,1.27,0,0,0,.47-.38Z" style="fill:#fff"/><path d="M46.32,101.86a6.91,6.91,0,0,0,1.31-1A1.24,1.24,0,0,0,48,100a.5.5,0,0,0-.12-.35.48.48,0,0,0-.36-.13.49.49,0,0,0-.4.18,1,1,0,0,0-.15.55l-.79-.25a1.11,1.11,0,0,1,.39-.89,1.51,1.51,0,0,1,1-.32,1.54,1.54,0,0,1,.75.16,1.1,1.1,0,0,1,.45.43A1.08,1.08,0,0,1,49,100a1.37,1.37,0,0,1-.38.93,4.55,4.55,0,0,1-1.14.86h0q.36,0,.72,0H49v.71H46.32Z" style="fill:#fff"/><path d="M52.64,101.86a6.91,6.91,0,0,0,1.31-1,1.24,1.24,0,0,0,.4-.82.5.5,0,0,0-.12-.35.48.48,0,0,0-.36-.13.49.49,0,0,0-.4.18,1,1,0,0,0-.15.55l-.79-.25a1.09,1.09,0,0,1,.4-.89,1.47,1.47,0,0,1,1-.32,1.54,1.54,0,0,1,.75.16,1.1,1.1,0,0,1,.45.43,1.08,1.08,0,0,1,.15.55,1.37,1.37,0,0,1-.38.93,4.55,4.55,0,0,1-1.14.86h0q.36,0,.72,0h.84v.71H52.64Z" style="fill:#fff"/><path d="M58.1,99.1a.89.89,0,0,1,.33.73.92.92,0,0,1-.11.46.66.66,0,0,1-.28.27.6.6,0,0,1-.28.09v0a.66.66,0,0,1,.32.08.67.67,0,0,1,.3.26.82.82,0,0,1,.12.47.83.83,0,0,1-.18.53,1.16,1.16,0,0,1-.49.37,2,2,0,0,1-.71.13,1.74,1.74,0,0,1-.92-.21,1.18,1.18,0,0,1-.49-.68l.84-.36a.62.62,0,0,0,.17.4.53.53,0,0,0,.39.13.57.57,0,0,0,.36-.11.39.39,0,0,0,.13-.31.36.36,0,0,0-.12-.31.73.73,0,0,0-.41-.09h-.2v-.59H57a.57.57,0,0,0,.38-.11.39.39,0,0,0,.12-.32.41.41,0,0,0-.11-.3.45.45,0,0,0-.31-.1.46.46,0,0,0-.5.48l-.82-.28a1,1,0,0,1,.45-.7,1.74,1.74,0,0,1,.92-.22A1.48,1.48,0,0,1,58.1,99.1Z" style="fill:#fff"/><path d="M62.1,101.67h-.55v.78h-.82v-.78h-1.8v-.44l1.53-2.35h1.09V101h.55ZM59.8,101h.93v-1l0-.59h0a4,4,0,0,1-.32.59Z" style="fill:#fff"/><path d="M64.67,100.29a1,1,0,0,1,.39.38,1.13,1.13,0,0,1,.14.56,1.32,1.32,0,0,1-.19.71,1.17,1.17,0,0,1-.5.43,1.71,1.71,0,0,1-.7.14,1.86,1.86,0,0,1-.83-.17,1.31,1.31,0,0,1-.57-.55l.82-.46a.56.56,0,0,0,.18.35.58.58,0,0,0,.4.12.57.57,0,0,0,.4-.13.46.46,0,0,0,.15-.38.54.54,0,0,0-.14-.37.56.56,0,0,0-.41-.13.71.71,0,0,0-.57.21l-.7-.1.23-2H65v.72H63.44l-.08.67a.63.63,0,0,1,0,.13h0a.64.64,0,0,1,.3-.18,1.23,1.23,0,0,1,.44-.07A1.1,1.1,0,0,1,64.67,100.29Z" style="fill:#fff"/><path d="M7.57,115.27H6.9L6.18,114,6,113.66H6v1.61H5.48v-2.33h.67l.72,1.26.18.35h0v-1.61h.53Z" style="fill:#fff"/><path d="M9.42,114.74h-.8l-.17.53h-.6l.81-2.33h.73l.81,2.33H9.58Zm-.13-.41-.17-.56-.1-.36H9l-.09.36-.18.56Z" style="fill:#fff"/><path d="M13.17,115.27h-.54V114.2l0-.71h0l-.57,1.78h-.49L11,113.49h0l0,.71v1.07h-.54v-2.33h.87l.36,1.19.13.49h0l.13-.49.37-1.19h.83Z" style="fill:#fff"/><path d="M15.54,114.8v.47H13.68v-2.33h1.81v.47h-1.2v.47h1v.44h-1v.48Z" style="fill:#fff"/><path d="M18.38,113a1.11,1.11,0,0,1,.44.32l-.34.39a.77.77,0,0,0-.28-.26.81.81,0,0,0-.37-.08.53.53,0,0,0-.28.06.2.2,0,0,0-.1.17.17.17,0,0,0,.1.15,1.68,1.68,0,0,0,.36.1,1.51,1.51,0,0,1,.69.25.67.67,0,0,1,.08.86.86.86,0,0,1-.36.25,1.28,1.28,0,0,1-.5.08,1.89,1.89,0,0,1-.64-.09,1.19,1.19,0,0,1-.43-.3l.31-.42a.83.83,0,0,0,.31.26.93.93,0,0,0,.42.08.72.72,0,0,0,.29,0,.19.19,0,0,0,.1-.16.16.16,0,0,0-.11-.13,1.15,1.15,0,0,0-.35-.1,3,3,0,0,1-.49-.14.71.71,0,0,1-.3-.23.51.51,0,0,1-.11-.35.7.7,0,0,1,.12-.4.76.76,0,0,1,.34-.26,1.27,1.27,0,0,1,.54-.1A1.34,1.34,0,0,1,18.38,113Z" style="fill:#fff"/><path d="M21.22,114.32a1,1,0,0,1-.27.74,1.37,1.37,0,0,1-1.55,0,1,1,0,0,1-.26-.74v-1.38h.61v1.39a.55.55,0,0,0,.1.37.39.39,0,0,0,.33.13c.29,0,.43-.17.43-.5v-1.39h.61Z" style="fill:#fff"/><path d="M22.65,114.42h-.36v.85h-.6v-2.33H22.8a1,1,0,0,1,.65.19.69.69,0,0,1,.23.55.75.75,0,0,1-.12.43.74.74,0,0,1-.34.25l.6.91h-.67Zm-.36-.43h.41a.43.43,0,0,0,.28-.07.27.27,0,0,0,.09-.23.27.27,0,0,0-.09-.22.43.43,0,0,0-.28-.07h-.41Z" style="fill:#fff"/><path d="M26,114.8v.47H24.12v-2.33h1.81v.47H24.72v.47h1v.44h-1v.48Z" style="fill:#fff"/><path d="M28.44,115.27h-.67L27,114l-.17-.35h0l0,.44v1.17h-.54v-2.33H27l.73,1.26.17.35h0l0-.43v-1.18h.54Z" style="fill:#fff"/><path d="M30.28,114.74h-.8l-.16.53h-.61l.82-2.33h.72l.82,2.33h-.63Zm-.12-.41-.17-.56-.1-.36h0l-.1.36-.17.56Z" style="fill:#fff"/><path d="M34,115.27h-.54V114.2l0-.71h0l-.57,1.78h-.49l-.57-1.78h0l0,.71v1.07h-.54v-2.33h.86l.37,1.19.13.49h0l.14-.49.36-1.19H34Z" style="fill:#fff"/><path d="M36.4,114.8v.47H34.54v-2.33h1.81v.47h-1.2v.47h1v.44h-1v.48Z" style="fill:#fff"/><path d="M44.31,80.38h1.14c.55,0,.83.21.83.62a.51.51,0,0,1-.12.35.59.59,0,0,1-.35.18h0a.6.6,0,0,1,.4.18.52.52,0,0,1,.13.37.55.55,0,0,1-.21.46,1,1,0,0,1-.63.16H44.31Zm1,1c.21,0,.32-.09.32-.26s-.11-.25-.32-.25H44.9v.51Zm.06,1a.4.4,0,0,0,.24-.07.22.22,0,0,0,.08-.19.2.2,0,0,0-.08-.19.34.34,0,0,0-.24-.07h-.5v.52Z" style="fill:#fff"/><path d="M48,82.18h-.8l-.16.52h-.61l.81-2.32H48l.81,2.32H48.2Zm-.12-.41-.17-.56-.11-.37h0l-.1.37-.17.56Z" style="fill:#fff"/><path d="M51.19,82.7h-.67l-.72-1.26-.18-.35h0V82.7H49.1V80.38h.67l.72,1.26.18.35h0V80.38h.53Z" style="fill:#fff"/><path d="M52.59,81.71l-.28.34v.65h-.6V80.38h.6v1l.83-1h.68l-.79.94.83,1.38h-.69Z" style="fill:#fff"/><path d="M57.23,82.7h-.67l-.72-1.26-.18-.35h0V82.7h-.53V80.38h.67l.72,1.26.18.35h0V80.38h.53Z" style="fill:#fff"/><path d="M59.08,82.18h-.8l-.17.52h-.6l.81-2.32h.73l.81,2.32h-.62ZM59,81.77l-.17-.56-.1-.37h0l-.1.37-.18.56Z" style="fill:#fff"/><path d="M62.83,82.7h-.54V81.64l0-.72h0l-.57,1.78h-.49l-.58-1.78h0l0,.72V82.7h-.54V80.38H61l.36,1.18.13.49h0l.13-.49L62,80.38h.83Z" style="fill:#fff"/><path d="M65.2,82.23v.47H63.34V80.38h1.81v.47H64v.47h1v.44H64v.47Z" style="fill:#fff"/><path d="M32.81,107.76c0-.81.33-1.22,1-1.22s1,.41,1,1.22-.33,1.23-1,1.23S32.81,108.58,32.81,107.76Zm1.28.57a1.49,1.49,0,0,0,.08-.57,1.57,1.57,0,0,0-.08-.57.33.33,0,0,0-.58,0,1.35,1.35,0,0,0-.09.57,1.29,1.29,0,0,0,.09.57.32.32,0,0,0,.58,0Z" style="fill:#fff"/><path d="M36.27,106.58V109h-.6v-1.77a1.17,1.17,0,0,1-.56.31l0-.51a1.33,1.33,0,0,0,.4-.15,1,1,0,0,0,.32-.25Z" style="fill:#fff"/><path d="M37.16,109.2h-.57l1-2.81h.57Z" style="fill:#fff"/><path d="M38.4,108.56a4.56,4.56,0,0,0,.87-.67.85.85,0,0,0,.26-.54.32.32,0,0,0-.08-.24.33.33,0,0,0-.24-.08.31.31,0,0,0-.26.12.53.53,0,0,0-.1.36l-.53-.16a.74.74,0,0,1,.27-.6,1,1,0,0,1,.66-.21,1.06,1.06,0,0,1,.5.11.68.68,0,0,1,.3.28.71.71,0,0,1,.1.37.89.89,0,0,1-.25.62,2.93,2.93,0,0,1-.76.57h1V109H38.4Z" style="fill:#fff"/><path d="M41.64,106.58V109H41v-1.77a1.17,1.17,0,0,1-.56.31l-.06-.51a1.29,1.29,0,0,0,.41-.15,1,1,0,0,0,.32-.25Z" style="fill:#fff"/><path d="M29.51,107.6h-.22l-.26-.72h.2l.13.44,0,.14,0-.14.14-.44h.19Z" style="fill:#fff"/><path d="M30.19,107.44h-.25l-.05.16H29.7l.26-.72h.22l.25.72h-.19Zm0-.13,0-.17,0-.11h0l0,.11-.06.17Z" style="fill:#fff"/><path d="M31.07,107.46v.14h-.55v-.72h.19v.58Z" style="fill:#fff"/><path d="M31.37,107.6h-.19v-.72h.19Z" style="fill:#fff"/><path d="M32.09,107a.36.36,0,0,1,.09.26.37.37,0,0,1-.09.27.34.34,0,0,1-.26.09h-.3v-.72h.3A.31.31,0,0,1,32.09,107Zm-.14.43a.27.27,0,0,0,0-.17.25.25,0,0,0,0-.16.17.17,0,0,0-.14-.06h-.1v.44h.1A.2.2,0,0,0,32,107.41Z" style="fill:#fff"/><path d="M29.86,108.12h-.24v.58h-.19v-.58H29.2V108h.66Z" style="fill:#fff"/><path d="M30.62,108v.72h-.19v-.29h-.28v.29H30V108h.19v.28h.28V108Z" style="fill:#fff"/><path d="M31.07,108.44H31v.26h-.18V108h.34a.28.28,0,0,1,.2.06.19.19,0,0,1,.07.17.28.28,0,0,1,0,.13.31.31,0,0,1-.11.08l.19.28h-.21ZM31,108.3h.13l.09,0s0,0,0-.07a.08.08,0,0,0,0-.07l-.09,0H31Z" style="fill:#fff"/><path d="M32.16,108.4a.27.27,0,0,1-.08.23.4.4,0,0,1-.48,0,.3.3,0,0,1-.08-.23V108h.19v.43a.16.16,0,0,0,0,.11.12.12,0,0,0,.1,0c.09,0,.14,0,.14-.15V108h.18Z" style="fill:#fff"/><path d="M13.05,89.37H5.5a.73.73,0,0,0-.73.73v4.68a.73.73,0,0,0,.73.73h7.55a.73.73,0,0,0,.72-.73V90.1A.73.73,0,0,0,13.05,89.37Z"/><path d="M6.83,90h1V89.5H5.5a.59.59,0,0,0-.59.6v1.27h.78v-.28A1.14,1.14,0,0,1,6.83,90Z" style="fill:url(#New_Gradient_Swatch_8)"/><path d="M11.71,94.93h-1v.45h2.35a.6.6,0,0,0,.59-.6V93.51h-.78v.28A1.14,1.14,0,0,1,11.71,94.93Z" style="fill:url(#New_Gradient_Swatch_8-2)"/><path d="M6.83,94.93a1.14,1.14,0,0,1-1.14-1.14v-.28H4.91v1.27a.59.59,0,0,0,.59.6H7.84v-.45Z" style="fill:url(#New_Gradient_Swatch_8-3)"/><path d="M11.71,90a1.14,1.14,0,0,1,1.15,1.14v.28h.78V90.1a.6.6,0,0,0-.59-.6H10.7V90Z" style="fill:url(#New_Gradient_Swatch_8-4)"/><rect x="4.91" y="91.55" width="2.94" height="1.77" style="fill:url(#New_Gradient_Swatch_8-5)"/><rect x="10.7" y="91.55" width="2.94" height="1.77" style="fill:url(#New_Gradient_Swatch_8-6)"/><polygon points="9.27 93.56 8.03 94.89 8.03 95.38 10.52 95.38 10.52 94.89 9.27 93.56" style="fill:url(#New_Gradient_Swatch_8-7)"/><polygon points="9.27 91.32 10.52 89.99 10.52 89.5 8.03 89.5 8.03 89.99 9.27 91.32" style="fill:url(#New_Gradient_Swatch_8-8)"/><path d="M9.27,91.55l-.07,0h0L7.91,90.13H6.83a1,1,0,0,0-1,1v.28H7.94a.09.09,0,0,1,.09.09v2a.09.09,0,0,1-.09.09H5.87v.28a1,1,0,0,0,1,1H7.91l1.29-1.4.07,0h0l.07,0,1.29,1.4h1.08a1,1,0,0,0,1-1v-.28H10.61a.09.09,0,0,1-.09-.09v-2a.09.09,0,0,1,.09-.09h2.06v-.28a1,1,0,0,0-1-1H10.63L9.34,91.52h0Z" style="fill:url(#New_Gradient_Swatch_8-9)"/><path d="M67.79,76.06H2.89A2.76,2.76,0,0,0,.12,78.82v38a2.76,2.76,0,0,0,2.77,2.76h64.9a2.76,2.76,0,0,0,2.76-2.76v-38A2.76,2.76,0,0,0,67.79,76.06Zm2.28,40.8a2.29,2.29,0,0,1-2.28,2.29H2.89A2.3,2.3,0,0,1,.6,116.86v-38a2.3,2.3,0,0,1,2.29-2.29h64.9a2.29,2.29,0,0,1,2.28,2.29Z" style="fill:#fff;opacity:0.2"/></g></g></svg>