<svg xmlns="http://www.w3.org/2000/svg" xmlns:xlink="http://www.w3.org/1999/xlink" viewBox="0 0 49.51 50.97"><defs><linearGradient id="Degradado_sin_nombre_109" y1="25.48" x2="49.51" y2="25.48" gradientUnits="userSpaceOnUse"><stop offset="0" stop-color="#eab5f7"/><stop offset="0.16" stop-color="#a7adee"/><stop offset="0.32" stop-color="#65a5e5"/><stop offset="0.44" stop-color="#3da0df"/><stop offset="0.5" stop-color="#2d9edd"/><stop offset="0.72" stop-color="#2d9fdb"/><stop offset="0.81" stop-color="#2ba2d4"/><stop offset="0.88" stop-color="#28a8c7"/><stop offset="0.94" stop-color="#25b0b5"/><stop offset="0.99" stop-color="#20ba9e"/><stop offset="1" stop-color="#1fbb9b"/></linearGradient></defs><g id="Capa_2" data-name="Capa 2"><g id="Capa_1-2" data-name="Capa 1"><path d="M46.12,21.57c-.17-1.38,0-5-.93-6.1-.48-.58-1.09-.44-1.82-.48-1-.06-2-.07-3-.07C40.25,8.85,38.83,0,31,0a8.73,8.73,0,0,0-5.47,2.24A7.81,7.81,0,0,0,20.34,0c-3.51-.23-7.2,2.44-8.65,5.56-1.3,2.79-1.2,6-1.21,9.15H6.3c-1.11,0-2.17-.23-2.88.64-1,1.28-1,5-1.22,6.61C.93,31,1,40.24,0,49.33A.63.63,0,0,0,.63,50l.12,0c12.84,1.57,26.21.69,39.1.1a62.92,62.92,0,0,0,8.9-.19c.37,0,.81-.32.75-.75C48.35,40,47.3,30.79,46.12,21.57Zm-7.25-6.66c-.89,0-1.77,0-2.65-.09q-3.53-.08-7-.1c-.09-4-.61-8.47-2.76-11.44A6.69,6.69,0,0,1,31,1.65C37.94,1.61,38.78,9.62,38.87,14.91ZM25.27,4.6a12.6,12.6,0,0,1,2.1,5,30.13,30.13,0,0,1,.37,5.14l-4.53,0C23.29,11.39,23.5,7.31,25.27,4.6ZM18.5,1.65a6,6,0,0,1,5.8,1.8,8.46,8.46,0,0,0-.61.76c-2.13,2.93-2,7-2,10.49l-9.74,0C12.1,9.23,12.23,3.1,18.5,1.65ZM36.78,48.81,32.3,49c-3.24.12-6.47.3-9.71.31-7,0-14.09.15-21-.63.63-6.24.9-12.51,1.36-18.77.2-2.77.42-5.55.84-8.3.22-1.5.23-3.66.89-5,0-.13.09-.22.11-.29a.63.63,0,0,0,.26,0,8.7,8.7,0,0,1,2,0l3.39.05c0,.47,0,.93-.08,1.39a2,2,0,0,0-1.77,1.94c0,1.21.91,1.84,2,2a2.25,2.25,0,0,0,2.63-1.55,2,2,0,0,0-1.38-2.33c0-.46.05-.94.07-1.43h1.29c3.64,0,7.27-.15,10.92-.13,1.19,0,2.39,0,3.58,0,0,.54,0,1.09,0,1.63a1.75,1.75,0,0,0-1.23,1.75,1.9,1.9,0,0,0,2.11,1.74,2,2,0,0,0,2-2,1.71,1.71,0,0,0-1.35-1.53c0-.5,0-1,0-1.56,1.74,0,3.49,0,5.23.06l1.17,0c.14,1,.09,2,.14,3,.21,4,.4,8,.83,12C37.1,36.21,38.52,41,39,46,39.17,48.21,39.05,48.73,36.78,48.81ZM11.8,19.6c0,.41-.44.55-.77.55s-.72,0-.88-.26a.74.74,0,0,1,.09-.63c.1.77,1.31,1,1.44.17a.28.28,0,0,0,0-.09A.31.31,0,0,1,11.8,19.6ZM29,19.49c-.05.23-.41.35-.6.36a.41.41,0,0,1-.45-.42.8.8,0,0,0,1-.12A.2.2,0,0,1,29,19.49ZM46.69,48.58a25.86,25.86,0,0,1-6.12.15c-.14-7.14-2.29-14-2.85-21.17-.21-2.76-.35-5.52-.49-8.28,0-.89,0-2-.09-2.92a53.7,53.7,0,0,1,6.23.13,1.25,1.25,0,0,0,.53,0l0,.05A4.34,4.34,0,0,1,44.14,18c.57,3.83,1,7.69,1.46,11.54.58,4.71,1.14,9.43,1.71,14.15L47.73,47C47.94,48.7,48.16,48.27,46.69,48.58ZM10.21,46.86c-1.52.23-4.58.75-5.53-.9a3.83,3.83,0,0,1-.2-2.48c.15-1.13.36-2.26.61-3.37.21-1,1.66-.55,1.45.39a20.39,20.39,0,0,0-.67,4c0,1.62,2.86,1.13,3.94,1S11.16,46.71,10.21,46.86ZM6.11,36.77a.75.75,0,0,1,0,1.5A.75.75,0,0,1,6.11,36.77Z" style="fill:url(#Degradado_sin_nombre_109)"/></g></g></svg>