<svg xmlns="http://www.w3.org/2000/svg" viewBox="0 0 453.68 562.37"><g id="Capa_2" data-name="Capa 2"><g id="Capa_1-2" data-name="Capa 1"><path d="M267.71,451H262.1V435.55H245.72V451H239v4h1.1v24.93l5.13,20.63v8.8h6.84v53h3.66v-53h6.85v-8.79h0l5.12-20.64V455h1v-4Zm-8.33-13.42h.31v11.7h-.31Zm-3.75,0h.31v5.73h-.31Zm-3.74,0h.3v5.73h-.3Zm-3.75,0h.3v11.7h-.3Z" style="fill:#babcbe"/><path d="M276.66,14.44a3.7,3.7,0,0,0,2.3-.66,2.12,2.12,0,0,0,.87-1.77,1.82,1.82,0,0,0-.44-1.27,3,3,0,0,0-1.06-.74c-.41-.17-.94-.35-1.6-.55a6.58,6.58,0,0,1-1.58-.61,1,1,0,0,1-.51-.88,1.11,1.11,0,0,1,.52-1,3,3,0,0,1,2.89,0,1.14,1.14,0,0,1,.55,1v.05l.17.17h.8l.17-.17V8a2,2,0,0,0-.39-1.2A2.62,2.62,0,0,0,278.24,6a4.31,4.31,0,0,0-1.66-.3,3.64,3.64,0,0,0-2.25.64A2.06,2.06,0,0,0,273.48,8a1.84,1.84,0,0,0,.42,1.24,2.8,2.8,0,0,0,1,.75,11,11,0,0,0,1.56.55c.54.16.93.29,1.19.39a2.06,2.06,0,0,1,.66.42.94.94,0,0,1,.28.7,1.2,1.2,0,0,1-.54,1,2.35,2.35,0,0,1-1.43.41,2.51,2.51,0,0,1-1.48-.42,1.2,1.2,0,0,1-.58-1V12l-.17-.17h-.82l-.17.17v.21a1.78,1.78,0,0,0,.4,1.14,2.78,2.78,0,0,0,1.14.82,4.47,4.47,0,0,0,1.69.3M268.1,6.66a2.25,2.25,0,0,1,1.44.45,2.19,2.19,0,0,1,.76,1.22,8.28,8.28,0,0,1,.1,1.09l-.07.07h-4.41l-.07-.07A5.23,5.23,0,0,1,266,8.26a1.93,1.93,0,0,1,.72-1.16,2.18,2.18,0,0,1,1.39-.44m3.42,1.94a3.57,3.57,0,0,0-1-2.21,3.35,3.35,0,0,0-2.38-.78,3.41,3.41,0,0,0-2.12.66A3.15,3.15,0,0,0,264.81,8a3.84,3.84,0,0,0-.12.81q0,.45,0,1.17a6.86,6.86,0,0,0,.31,2.35,3.08,3.08,0,0,0,1.17,1.56,3.55,3.55,0,0,0,2,.58,4.06,4.06,0,0,0,2-.47,3.07,3.07,0,0,0,1.27-1.28l-.07-.24-.66-.39-.24.06a2.17,2.17,0,0,1-.85.92,2.37,2.37,0,0,1-1.26.33,2.6,2.6,0,0,1-1.57-.45,2.06,2.06,0,0,1-.8-1.2,8.27,8.27,0,0,1-.1-1.21l.07-.07h5.5l.17-.17V9.79a8,8,0,0,0-.07-1.19m-9.24-2.94A2.31,2.31,0,0,0,261,6a2.62,2.62,0,0,0-.91,1l0,0L260,7v-1l-.17-.17H259l-.17.17v8.28l.17.17h.87l.17-.17v-5a2.19,2.19,0,0,1,.58-1.57,2,2,0,0,1,1.47-.66h.22a1.69,1.69,0,0,1,.66.12l.22-.11.19-.83-.1-.22a2,2,0,0,0-1-.22m-9.47,7.78a2.29,2.29,0,0,1-1.44-.45,2.1,2.1,0,0,1-.77-1.22,8.24,8.24,0,0,1-.14-1.72,8.24,8.24,0,0,1,.14-1.72,2.17,2.17,0,0,1,.78-1.22,2.24,2.24,0,0,1,1.41-.45,2.3,2.3,0,0,1,1.43.45A2.23,2.23,0,0,1,255,8.33a8.37,8.37,0,0,1,.13,1.72,7.62,7.62,0,0,1-.15,1.72,2.27,2.27,0,0,1-.78,1.22,2.22,2.22,0,0,1-1.4.45m0,1.05a3.48,3.48,0,0,0,2.1-.63,3.11,3.11,0,0,0,1.2-1.73,7,7,0,0,0,.24-2.1,7.07,7.07,0,0,0-.24-2.09,3.08,3.08,0,0,0-1.2-1.7,3.46,3.46,0,0,0-2.08-.63,3.62,3.62,0,0,0-2.15.63A3.15,3.15,0,0,0,249.47,8a7.58,7.58,0,0,0-.23,2.07,7.87,7.87,0,0,0,.23,2.1,3.26,3.26,0,0,0,1.23,1.73,3.54,3.54,0,0,0,2.11.63m-7.54-2.36a2.21,2.21,0,0,1-.68.95,1.81,1.81,0,0,1-1.14.36,2.13,2.13,0,0,1-1.24-.36,1.85,1.85,0,0,1-.72-1,2.84,2.84,0,0,1-.24-.81,8.18,8.18,0,0,1-.07-1.25,6.26,6.26,0,0,1,.1-1.3,3,3,0,0,1,.29-.85,2,2,0,0,1,.72-.9,2.07,2.07,0,0,1,1.17-.34,1.84,1.84,0,0,1,1.12.35,1.93,1.93,0,0,1,.67.93,2.79,2.79,0,0,1,.24.83,8.54,8.54,0,0,1,.07,1.28,8.62,8.62,0,0,1-.07,1.28,3.44,3.44,0,0,1-.22.8m.3-9.52v4l0,0-.06,0a2.49,2.49,0,0,0-.94-.76,2.76,2.76,0,0,0-1.22-.26,3.23,3.23,0,0,0-2,.62,3.11,3.11,0,0,0-1.12,1.71,7.84,7.84,0,0,0-.21,2.11,7.56,7.56,0,0,0,.24,2.16,3.06,3.06,0,0,0,3.12,2.28,2.77,2.77,0,0,0,1.23-.27,2.57,2.57,0,0,0,.93-.77l.06,0,0,0v.72l.17.17h.87l.17-.17V2.61l-.17-.17h-.87ZM234,13.45a2.16,2.16,0,0,1-1.35-.38,1.3,1.3,0,0,1-.52-1.13,1.45,1.45,0,0,1,.68-1.28,3.22,3.22,0,0,1,1.8-.46h1.79l.07.07V11.6a1.54,1.54,0,0,1-.73,1.35,3,3,0,0,1-1.74.5m.48-7.84a4,4,0,0,0-2.22.59,2.21,2.21,0,0,0-1,1.55l.16.14.92.12.2-.16a1.32,1.32,0,0,1,.63-.87,2.49,2.49,0,0,1,1.33-.32,2.05,2.05,0,0,1,1.51.5,1.92,1.92,0,0,1,.48,1.37v.65l-.07.07h-2a4.06,4.06,0,0,0-2.58.74,2.44,2.44,0,0,0-.93,2,2.17,2.17,0,0,0,.82,1.87,3.25,3.25,0,0,0,2,.61,4.11,4.11,0,0,0,1.52-.26,2.6,2.6,0,0,0,1.1-.78h.07l0,.05v.7l.17.17h.87l.17-.17V8.47a2.7,2.7,0,0,0-.84-2.08,3.31,3.31,0,0,0-2.36-.78m-8.58,8.88a3.78,3.78,0,0,0,2.16-.61,2.7,2.7,0,0,0,1.17-1.6l.07-.34-.15-.19-.84-.13-.2.13,0,.07v.07a1.8,1.8,0,0,1-.75,1.11,2.43,2.43,0,0,1-1.44.44,2.21,2.21,0,0,1-1.42-.45,2.06,2.06,0,0,1-.74-1.22,7.12,7.12,0,0,1-.16-1.74,7.27,7.27,0,0,1,.16-1.72,2,2,0,0,1,.74-1.2,2.21,2.21,0,0,1,1.42-.45,2.31,2.31,0,0,1,1.44.45,1.9,1.9,0,0,1,.75,1.1l0,.26.16.15h0l.85-.12.16-.15v0l-.11-.51a2.83,2.83,0,0,0-1.18-1.56,3.68,3.68,0,0,0-2.15-.63,3.54,3.54,0,0,0-2.11.63,3.18,3.18,0,0,0-1.2,1.7A8.78,8.78,0,0,0,222.4,10a8.18,8.18,0,0,0,.22,2.11,3.25,3.25,0,0,0,1.21,1.73,3.48,3.48,0,0,0,2.1.63m-7.26-.15h.87l.17-.17V5.9l-.17-.17h-.87l-.17.17v8.27Zm.48-10.16a.9.9,0,0,0,.68-.28.93.93,0,0,0,.27-.68.93.93,0,0,0-.27-.69,1,1,0,0,0-1.36,0,.93.93,0,0,0-.27.69.93.93,0,0,0,.27.68.9.9,0,0,0,.68.28m-5.07,8a2.21,2.21,0,0,1-.68.95,1.81,1.81,0,0,1-1.14.36,2.13,2.13,0,0,1-1.24-.36,1.8,1.8,0,0,1-.72-1,2.84,2.84,0,0,1-.24-.81,8.18,8.18,0,0,1-.07-1.25,6.26,6.26,0,0,1,.1-1.3,3,3,0,0,1,.29-.85,2,2,0,0,1,.72-.9,2.07,2.07,0,0,1,1.17-.34,1.84,1.84,0,0,1,1.12.35,1.93,1.93,0,0,1,.67.93,3.12,3.12,0,0,1,.24.83,8.54,8.54,0,0,1,.07,1.28,8.62,8.62,0,0,1-.07,1.28,3.44,3.44,0,0,1-.22.8m.3-9.52v4l0,0-.06,0a2.49,2.49,0,0,0-.94-.76,2.76,2.76,0,0,0-1.22-.26,3.23,3.23,0,0,0-2,.62A3.11,3.11,0,0,0,209,7.94a7.84,7.84,0,0,0-.21,2.11,7.56,7.56,0,0,0,.24,2.16,3.06,3.06,0,0,0,3.12,2.28,2.77,2.77,0,0,0,1.23-.27,2.57,2.57,0,0,0,.93-.77l.06,0,0,0v.72l.17.17h.87l.17-.17V2.61l-.17-.17h-.87Zm-10.82,3a2.63,2.63,0,0,0-2.3,1.06l0,0,0-.06V5.91L201,5.74h-.87l-.17.17v8.28l.17.17H201l.17-.17V8.77a2,2,0,0,1,2.09-2.09,2,2,0,0,1,1.48.59,2.14,2.14,0,0,1,.57,1.54v5.38l.17.17h.87l.17-.17V8.57a2.9,2.9,0,0,0-.81-2.15,3,3,0,0,0-2.17-.8M196,14.36h.87l.17-.17V2.61l-.17-.17H196l-.17.17V14.19Zm21,19.3V24l.07-.06h3a2.23,2.23,0,0,1,2.42,2.4v5a2.3,2.3,0,0,1-.66,1.73,2.35,2.35,0,0,1-1.76.65h-3Zm-1,1.13h4a3.9,3.9,0,0,0,2.68-.89,3.06,3.06,0,0,0,1-2.4V26.16a3.1,3.1,0,0,0-1-2.41,3.9,3.9,0,0,0-2.68-.88h-4l-.17.17V34.62Zm-2.76-11V23l-.17-.17h-7.37l-.17.17V34.62l.17.17H213l.17-.17V33.9l-.17-.17h-6.26l-.07-.07V29.39l.07-.07h4.39l.17-.17v-.71l-.17-.17h-4.39l-.07-.07V24l.07-.06H213ZM196,34.79h7.12l.17-.17V33.9l-.17-.17h-6l-.07-.07V23l-.17-.17H196l-.17.17V34.62Z" style="fill:#4a4f54"/><path d="M449.93,159.72a2.23,2.23,0,0,1-1.35-.38,1.32,1.32,0,0,1-.52-1.13,1.44,1.44,0,0,1,.68-1.28,3.12,3.12,0,0,1,1.8-.46h1.79l.07.07v1.32a1.57,1.57,0,0,1-.73,1.36,3,3,0,0,1-1.74.5m.48-7.85a3.89,3.89,0,0,0-2.22.6,2.17,2.17,0,0,0-1,1.55l.16.13.92.12.2-.15a1.32,1.32,0,0,1,.63-.88,2.49,2.49,0,0,1,1.33-.31,2,2,0,0,1,1.5.5,1.85,1.85,0,0,1,.49,1.37v.65l-.07.06h-2a4,4,0,0,0-2.58.75,2.42,2.42,0,0,0-.93,2,2.19,2.19,0,0,0,.82,1.88,3.32,3.32,0,0,0,2,.61,4.11,4.11,0,0,0,1.52-.27,2.58,2.58,0,0,0,1.1-.77l.06,0,0,.05v.7l.17.17h.87l.17-.17v-5.72a2.73,2.73,0,0,0-.84-2.08,3.31,3.31,0,0,0-2.36-.78m-6.73,8.75h.87l.17-.17V148.88l-.17-.17h-.87l-.17.17v11.57Zm-3.91,0h.86l.18-.17V148.88l-.18-.17h-.86l-.17.17v11.57Zm-6.37-.9a2.28,2.28,0,0,1-1.36-.38,1.34,1.34,0,0,1-.51-1.13,1.44,1.44,0,0,1,.68-1.28,3.12,3.12,0,0,1,1.8-.46h1.79l.07.07v1.32a1.59,1.59,0,0,1-.73,1.36,3,3,0,0,1-1.74.5m.48-7.85a3.87,3.87,0,0,0-2.22.6,2.17,2.17,0,0,0-1,1.55l.15.13.92.12.21-.15a1.32,1.32,0,0,1,.63-.88,2.49,2.49,0,0,1,1.33-.31,2,2,0,0,1,1.5.5,1.9,1.9,0,0,1,.49,1.37v.65l-.07.06h-2a4,4,0,0,0-2.58.75,2.44,2.44,0,0,0-.92,2,2.21,2.21,0,0,0,.81,1.88,3.37,3.37,0,0,0,2,.61,4.11,4.11,0,0,0,1.52-.27,2.58,2.58,0,0,0,1.1-.77l.06,0,0,.05v.7l.17.17h.87l.17-.17v-5.72a2.73,2.73,0,0,0-.84-2.08,3.31,3.31,0,0,0-2.36-.78m-5.32,1v-.66l-.17-.17h-1.92l-.07-.07v-2l-.17-.17h-.83l-.17.17v2l-.07.07h-1l-.17.17v.66l.17.17h1l.07.07v5.4a2,2,0,0,0,.63,1.7,3.1,3.1,0,0,0,1.85.46l.63,0,.17-.17v-.7l-.17-.17h-.42a1.66,1.66,0,0,1-1.15-.33,1.47,1.47,0,0,1-.37-1.15v-5l.07-.07h1.92Zm-9.46-1a2.63,2.63,0,0,0-2.3,1.05l0,0,0-.05v-.73l-.17-.17h-.87l-.17.17v8.27l.17.17h.87l.17-.17V155a2,2,0,0,1,.58-1.52,2.08,2.08,0,0,1,1.52-.58,1.94,1.94,0,0,1,1.47.6,2.13,2.13,0,0,1,.57,1.53v5.38l.17.17h.87l.17-.17v-5.62a2.87,2.87,0,0,0-.81-2.14,3,3,0,0,0-2.17-.8m-9.77,7.83a2.28,2.28,0,0,1-1.36-.38,1.35,1.35,0,0,1-.52-1.13,1.46,1.46,0,0,1,.68-1.28,3.18,3.18,0,0,1,1.81-.46h1.79l.06.07v1.32a1.57,1.57,0,0,1-.73,1.36,3,3,0,0,1-1.73.5m.47-7.85a3.86,3.86,0,0,0-2.21.6,2.17,2.17,0,0,0-1,1.55l.15.13.92.12.2-.15a1.32,1.32,0,0,1,.63-.88,2.52,2.52,0,0,1,1.33-.31,2,2,0,0,1,1.51.5,1.89,1.89,0,0,1,.48,1.37v.65l-.06.06h-2a4,4,0,0,0-2.58.75,2.42,2.42,0,0,0-.93,2,2.22,2.22,0,0,0,.82,1.88,3.35,3.35,0,0,0,2,.61,4.06,4.06,0,0,0,1.51-.27,2.61,2.61,0,0,0,1.11-.77l.06,0,0,.05v.7l.17.17h.87l.17-.17v-5.72a2.72,2.72,0,0,0-.83-2.08,3.35,3.35,0,0,0-2.37-.78m-8.37,2.44h-3.24l-.07-.07v-4.43l.07-.07h3.24a2.22,2.22,0,0,1,1.63.63,2.26,2.26,0,0,1,.63,1.67,2.15,2.15,0,0,1-2.26,2.27m.13-5.62h-4.48l-.17.17v11.59l.17.17H398l.17-.17v-5.07l.07-.07h3.32a3.36,3.36,0,0,0,2.44-.9,3.18,3.18,0,0,0,.93-2.39,3.27,3.27,0,0,0-.91-2.41,3.22,3.22,0,0,0-2.41-.92" style="fill:#4a4f54"/><path d="M67.32,72.23a2.25,2.25,0,0,1,1.44.45,2.1,2.1,0,0,1,.75,1.21A7.86,7.86,0,0,1,69.62,75l-.07.07H65.14L65.07,75a5.12,5.12,0,0,1,.14-1.15,2,2,0,0,1,.72-1.17,2.18,2.18,0,0,1,1.39-.43m3.42,1.94a3.65,3.65,0,0,0-1-2.22,3.35,3.35,0,0,0-2.38-.78,3.41,3.41,0,0,0-2.12.66,3.44,3.44,0,0,0-1.29,2.58q0,.45,0,1.17a6.83,6.83,0,0,0,.31,2.35,3.11,3.11,0,0,0,1.17,1.57,3.71,3.71,0,0,0,2,.58,4,4,0,0,0,2-.47,3.06,3.06,0,0,0,1.28-1.29l-.07-.24-.66-.39-.24.07a2.23,2.23,0,0,1-.85.92,2.36,2.36,0,0,1-1.26.32A2.65,2.65,0,0,1,66,78.56a2,2,0,0,1-.8-1.21,8,8,0,0,1-.1-1.21l.07-.07h5.5l.17-.17v-.54a7.92,7.92,0,0,0-.07-1.19M59.88,77.69a2.1,2.1,0,0,1-.68,1,1.81,1.81,0,0,1-1.14.36,2.13,2.13,0,0,1-1.24-.36,1.81,1.81,0,0,1-.72-1,2.68,2.68,0,0,1-.24-.8,8.24,8.24,0,0,1-.07-1.26,7.28,7.28,0,0,1,.09-1.3,3.47,3.47,0,0,1,.3-.84,1.89,1.89,0,0,1,.72-.9,2,2,0,0,1,1.17-.34,1.84,1.84,0,0,1,1.12.34,2,2,0,0,1,.67.93,2.88,2.88,0,0,1,.24.83,8.62,8.62,0,0,1,.07,1.28,8.45,8.45,0,0,1-.07,1.28,3.18,3.18,0,0,1-.22.8m.3-9.52v4l0,0-.06,0a2.49,2.49,0,0,0-.94-.76,2.9,2.9,0,0,0-1.22-.26,3.29,3.29,0,0,0-2,.62,3.19,3.19,0,0,0-1.12,1.71,7.89,7.89,0,0,0-.21,2.11,7.59,7.59,0,0,0,.24,2.17,3.17,3.17,0,0,0,1.12,1.67,3.26,3.26,0,0,0,2,.61,2.77,2.77,0,0,0,1.23-.27A2.67,2.67,0,0,0,60.1,79l.06,0,0,0v.71l.18.17h.86l.17-.17V68.17L61.22,68h-.86Zm-11.47,3a2.34,2.34,0,0,0-1.28.35,2.72,2.72,0,0,0-.92,1l0,0,0,0v-1l-.17-.17h-.87l-.17.17v8.27l.17.17h.87l.17-.17v-5A2.21,2.21,0,0,1,47,73.16a2,2,0,0,1,1.47-.66l.22,0a1.69,1.69,0,0,1,.66.12l.22-.1.19-.84-.1-.22a2,2,0,0,0-1-.22M39.24,79a2.28,2.28,0,0,1-1.43-.45A2.07,2.07,0,0,1,37,77.33a8.18,8.18,0,0,1-.14-1.72A8.31,8.31,0,0,1,37,73.89a2.16,2.16,0,0,1,2.2-1.66,2.27,2.27,0,0,1,1.42.45,2.21,2.21,0,0,1,.79,1.21,8.31,8.31,0,0,1,.14,1.72,7.46,7.46,0,0,1-.16,1.72,2.17,2.17,0,0,1-.78,1.22,2.22,2.22,0,0,1-1.4.45m0,1.06a3.54,3.54,0,0,0,2.11-.63,3.2,3.2,0,0,0,1.2-1.74,7.34,7.34,0,0,0,.23-2.09,7.52,7.52,0,0,0-.23-2.1,3.21,3.21,0,0,0-1.2-1.7,3.5,3.5,0,0,0-2.09-.63,3.59,3.59,0,0,0-2.14.63,3.06,3.06,0,0,0-1.21,1.72,7.18,7.18,0,0,0-.24,2.08,7.35,7.35,0,0,0,.24,2.09,3.18,3.18,0,0,0,1.22,1.74,3.56,3.56,0,0,0,2.11.63m-5.36-7.92v-.66l-.17-.17H31.79l-.07-.07v-2l-.17-.17h-.84l-.17.17v2l-.06.07h-1l-.17.17v.66l.17.17h1l.06.07v5.4a2,2,0,0,0,.63,1.7,3.11,3.11,0,0,0,1.86.46l.63,0,.17-.17v-.7l-.17-.17h-.43a1.65,1.65,0,0,1-1.14-.33,1.47,1.47,0,0,1-.37-1.15v-5l.07-.07h1.92Zm-9.47,7.92a3.91,3.91,0,0,0,2.17-.61,2.72,2.72,0,0,0,1.17-1.61l.07-.34-.15-.18-.84-.14-.2.14,0,.07v.06a1.8,1.8,0,0,1-.76,1.12,2.38,2.38,0,0,1-1.44.43A2.23,2.23,0,0,1,23,78.55a2.11,2.11,0,0,1-.74-1.22,7.6,7.6,0,0,1-.15-1.73,7.87,7.87,0,0,1,.15-1.72,2.09,2.09,0,0,1,.74-1.2,2.23,2.23,0,0,1,1.42-.45,2.32,2.32,0,0,1,1.45.45,1.9,1.9,0,0,1,.75,1.1l.05.25.15.15h0l.85-.11.15-.16v0l-.1-.51a2.87,2.87,0,0,0-1.18-1.57,3.71,3.71,0,0,0-2.16-.63,3.56,3.56,0,0,0-2.11.64,3.11,3.11,0,0,0-1.19,1.69,8.29,8.29,0,0,0-.22,2.08,7.71,7.71,0,0,0,.22,2.11,3.22,3.22,0,0,0,1.2,1.73,3.47,3.47,0,0,0,2.1.64m-9.14-7.83a2.25,2.25,0,0,1,1.44.45,2.16,2.16,0,0,1,.76,1.21,8.28,8.28,0,0,1,.1,1.09l-.07.07H13.09L13,75a5.8,5.8,0,0,1,.14-1.15,2,2,0,0,1,.72-1.17,2.18,2.18,0,0,1,1.39-.43m3.42,1.94a3.64,3.64,0,0,0-1-2.22,3.37,3.37,0,0,0-2.39-.78,3.43,3.43,0,0,0-2.12.66A3.19,3.19,0,0,0,12,73.61a3.11,3.11,0,0,0-.13.8q0,.45,0,1.17a6.83,6.83,0,0,0,.31,2.35,3.16,3.16,0,0,0,1.17,1.57,3.71,3.71,0,0,0,2,.58,4,4,0,0,0,2-.47,3.09,3.09,0,0,0,1.27-1.29l-.06-.24-.67-.39-.24.07a2.16,2.16,0,0,1-.85.92,2.36,2.36,0,0,1-1.26.32,2.64,2.64,0,0,1-1.56-.44,2,2,0,0,1-.8-1.21A7.51,7.51,0,0,1,13,76.14l.07-.07h5.5l.17-.17v-.54a7.92,7.92,0,0,0-.07-1.19M2.83,79.92H9.94l.17-.17V79l-.17-.17h-6l-.07-.07V68.17L3.69,68H2.83l-.17.17V79.75ZM54.77,99.45a2.23,2.23,0,0,1-1.35-.38,1.33,1.33,0,0,1-.52-1.14,1.43,1.43,0,0,1,.68-1.27,3.12,3.12,0,0,1,1.8-.46h1.79l.07.07v1.32A1.57,1.57,0,0,1,56.51,99a3,3,0,0,1-1.74.5m.48-7.85a3.89,3.89,0,0,0-2.22.6,2.17,2.17,0,0,0-1,1.55l.16.13.92.12.2-.15a1.32,1.32,0,0,1,.63-.88,2.49,2.49,0,0,1,1.33-.31,2,2,0,0,1,1.51.5,1.89,1.89,0,0,1,.48,1.37v.65l-.07.06h-2a4,4,0,0,0-2.58.75,2.42,2.42,0,0,0-.93,2,2.19,2.19,0,0,0,.82,1.88,3.32,3.32,0,0,0,2,.61,4.33,4.33,0,0,0,1.52-.26,2.69,2.69,0,0,0,1.1-.78l.07,0,0,0v.7l.17.17h.87l.17-.17V94.46a2.73,2.73,0,0,0-.84-2.08,3.31,3.31,0,0,0-2.36-.78M48,98.12a2.11,2.11,0,0,1-.68,1,1.86,1.86,0,0,1-1.14.35A2.15,2.15,0,0,1,45,99.08a1.91,1.91,0,0,1-.73-1A3.2,3.2,0,0,1,44,97.3a10.06,10.06,0,0,1-.06-1.25A7.41,7.41,0,0,1,44,94.74a2.79,2.79,0,0,1,.3-.84A1.91,1.91,0,0,1,45,93a2,2,0,0,1,1.18-.34,1.75,1.75,0,0,1,1.11.35,1.89,1.89,0,0,1,.67.92,2.6,2.6,0,0,1,.24.83,8.69,8.69,0,0,1,.07,1.29,8.39,8.39,0,0,1-.07,1.27,2.81,2.81,0,0,1-.22.8m.31-9.51v4l0,0-.06,0a2.54,2.54,0,0,0-.93-.76,3,3,0,0,0-1.23-.26,3.31,3.31,0,0,0-2,.62,3.24,3.24,0,0,0-1.12,1.71,8,8,0,0,0-.2,2.12A7.56,7.56,0,0,0,43,98.21a3.1,3.1,0,0,0,1.11,1.67,3.28,3.28,0,0,0,2,.61,2.79,2.79,0,0,0,1.24-.27,2.73,2.73,0,0,0,.92-.77l.06,0,0,0v.71l.17.17h.87l.17-.17V88.61l-.17-.18h-.87Zm-10.83,3a2.64,2.64,0,0,0-2.3,1l0,0,0,0v-.73L35,91.74h-.87l-.17.17v8.27l.17.17H35l.17-.17V94.77a2,2,0,0,1,2.1-2.1,1.94,1.94,0,0,1,1.47.6,2.13,2.13,0,0,1,.57,1.53v5.38l.17.17h.87l.17-.17V94.56a2.87,2.87,0,0,0-.81-2.14,3,3,0,0,0-2.17-.8m-9.77,7.83a2.28,2.28,0,0,1-1.36-.38,1.35,1.35,0,0,1-.52-1.14,1.44,1.44,0,0,1,.69-1.27,3.12,3.12,0,0,1,1.8-.46h1.79l.07.07v1.32A1.58,1.58,0,0,1,29.45,99a3,3,0,0,1-1.73.5m.47-7.85a3.86,3.86,0,0,0-2.21.6,2.17,2.17,0,0,0-1,1.55l.15.13L26,94l.21-.15a1.32,1.32,0,0,1,.63-.88,2.48,2.48,0,0,1,1.32-.31,2,2,0,0,1,1.51.5,1.85,1.85,0,0,1,.49,1.37v.65l-.07.06h-2a4,4,0,0,0-2.58.75,2.42,2.42,0,0,0-.92,2,2.21,2.21,0,0,0,.81,1.88,3.35,3.35,0,0,0,2,.61,4.23,4.23,0,0,0,1.51-.26,2.66,2.66,0,0,0,1.11-.78l.06,0,0,0v.7l.17.17h.86l.17-.17V94.46a2.72,2.72,0,0,0-.83-2.08,3.34,3.34,0,0,0-2.37-.78m-9,7.68h-3l-.07-.07V94.8l.07-.07H19.1a2.45,2.45,0,0,1,1.76.62A2.19,2.19,0,0,1,21.52,97a2.17,2.17,0,0,1-.64,1.65,2.36,2.36,0,0,1-1.71.61m-3-9.79h2.89a2.37,2.37,0,0,1,1.71.59,2,2,0,0,1,.64,1.57,1.87,1.87,0,0,1-.64,1.5,2.45,2.45,0,0,1-1.71.56H16.16l-.07-.07V89.56Zm4.7,4.65a2.81,2.81,0,0,0,1.28-1,2.71,2.71,0,0,0,.45-1.59,2.88,2.88,0,0,0-.94-2.3,3.88,3.88,0,0,0-2.6-.82h-4l-.17.18v11.57l.17.17h4.12a3.77,3.77,0,0,0,2.58-.85,3,3,0,0,0,1-2.38,3.14,3.14,0,0,0-.48-1.77,2.93,2.93,0,0,0-1.39-1.11Zm48.79,25.74a2.23,2.23,0,0,1-1.35-.38,1.32,1.32,0,0,1-.52-1.13,1.45,1.45,0,0,1,.68-1.28,3.12,3.12,0,0,1,1.8-.46h1.79l.07.07V118a1.57,1.57,0,0,1-.73,1.36,3,3,0,0,1-1.74.5m.48-7.85a3.89,3.89,0,0,0-2.22.6,2.17,2.17,0,0,0-1,1.55l.16.13.92.12.2-.15a1.32,1.32,0,0,1,.63-.88,2.49,2.49,0,0,1,1.33-.31,2.05,2.05,0,0,1,1.51.5,1.89,1.89,0,0,1,.48,1.37v.65l-.07.07h-2a4,4,0,0,0-2.58.74,2.42,2.42,0,0,0-.93,2,2.19,2.19,0,0,0,.82,1.88,3.25,3.25,0,0,0,2,.61,4.33,4.33,0,0,0,1.52-.26,2.69,2.69,0,0,0,1.1-.78l.07,0,0,0v.7l.17.17h.87l.17-.17v-5.72a2.69,2.69,0,0,0-.84-2.07,3.27,3.27,0,0,0-2.36-.79m-8.58,8.89a3.78,3.78,0,0,0,2.16-.61,2.7,2.7,0,0,0,1.17-1.6l.07-.34-.15-.19L64,118l-.2.14,0,.07v.06a1.83,1.83,0,0,1-.75,1.12,2.43,2.43,0,0,1-1.44.43,2.21,2.21,0,0,1-1.42-.45,2,2,0,0,1-.75-1.21,7.76,7.76,0,0,1-.15-1.74,7.87,7.87,0,0,1,.15-1.72,2.06,2.06,0,0,1,.75-1.2,2.21,2.21,0,0,1,1.42-.45,2.31,2.31,0,0,1,1.44.45,1.9,1.9,0,0,1,.75,1.1l0,.25.16.16h0l.85-.12.16-.16v0l-.11-.51a2.82,2.82,0,0,0-1.18-1.57,3.68,3.68,0,0,0-2.15-.63,3.54,3.54,0,0,0-2.11.64,3.07,3.07,0,0,0-1.2,1.69,8.78,8.78,0,0,0-.22,2.08,8.13,8.13,0,0,0,.22,2.11,3.18,3.18,0,0,0,1.21,1.73,3.42,3.42,0,0,0,2.1.64m-7.26-.15h.87l.17-.17v-8.28l-.17-.17h-.87l-.17.17v8.28Zm.48-10.17a.92.92,0,1,0-.68-.27.93.93,0,0,0,.68.27M51.62,113v-.66l-.17-.17H49.53l-.07-.07v-2l-.17-.18h-.84l-.17.18v2l-.06.07h-1l-.17.17V113l.17.17h1l.06.07v5.4a2,2,0,0,0,.63,1.7,3.11,3.11,0,0,0,1.86.46,5.28,5.28,0,0,0,.63,0l.17-.17v-.7l-.17-.17H51a1.6,1.6,0,0,1-1.14-.33,1.47,1.47,0,0,1-.37-1.15v-5l.07-.07h1.92Zm-10.21-2H42l.2-.11,1.16-1.86,0-.14-.13-.06h-.77l-.2.11-1,1.86,0,.15Zm.57,2a2.25,2.25,0,0,1,1.44.45,2.14,2.14,0,0,1,.76,1.22,6.57,6.57,0,0,1,.1,1.09l-.07.06h-4.4l-.07-.06a6,6,0,0,1,.13-1.16,2.05,2.05,0,0,1,.73-1.17,2.17,2.17,0,0,1,1.38-.43M45.41,115a3.62,3.62,0,0,0-1-2.21,3.84,3.84,0,0,0-4.5-.12,3.1,3.1,0,0,0-1.17,1.77,3.72,3.72,0,0,0-.13.8c0,.31,0,.7,0,1.17a7.12,7.12,0,0,0,.3,2.35A3.12,3.12,0,0,0,40,120.36a3.67,3.67,0,0,0,2,.58,4,4,0,0,0,2-.47,3.06,3.06,0,0,0,1.28-1.29l-.07-.24-.66-.39-.24.07a2.29,2.29,0,0,1-.85.92,2.41,2.41,0,0,1-1.26.32,2.58,2.58,0,0,1-1.57-.44,2,2,0,0,1-.8-1.21,6.8,6.8,0,0,1-.1-1.21l.07-.06H45.3l.17-.17v-.55a9.77,9.77,0,0,0-.06-1.19m-12.09-3a2.63,2.63,0,0,0-2.3,1l0,0,0-.05v-.73l-.17-.17h-.87l-.17.17v8.27l.17.17h.87l.17-.17V115.2a2,2,0,0,1,.58-1.52,2.08,2.08,0,0,1,1.52-.58,1.94,1.94,0,0,1,1.47.6,2.13,2.13,0,0,1,.57,1.53v5.38l.17.17h.87l.17-.17V115a2.87,2.87,0,0,0-.81-2.14,3,3,0,0,0-2.17-.8m-7.46,6.13a2,2,0,0,1-.67,1.17,2,2,0,0,1-1.37.46,2.12,2.12,0,0,1-1.39-.46,2.14,2.14,0,0,1-.74-1.19,6,6,0,0,1-.17-1.72,6.31,6.31,0,0,1,.17-1.7,2.45,2.45,0,0,1,.77-1.19,2.06,2.06,0,0,1,1.36-.46,2,2,0,0,1,1.35.47,2,2,0,0,1,.67,1.18l.09.55c0,.2,0,.59,0,1.17s0,.84,0,1.09a3.44,3.44,0,0,1-.07.63m.09-5.84V113l0,0h-.06a2.74,2.74,0,0,0-2.3-1,3,3,0,0,0-1.92.62,3.29,3.29,0,0,0-1.11,1.65,4.06,4.06,0,0,0-.18.92c0,.34,0,.76,0,1.26a7.61,7.61,0,0,0,.21,2.07,2.87,2.87,0,0,0,1.14,1.69,3.44,3.44,0,0,0,2,.59,2.64,2.64,0,0,0,2.23-1l.06,0,0,0v.63a2.44,2.44,0,0,1-.72,2,3.44,3.44,0,0,1-2.3.63l-.46,0-.12,0-.05.12,0,.79.17.18a4.9,4.9,0,0,0,.6,0,4.7,4.7,0,0,0,3-.88,3.4,3.4,0,0,0,1.1-2.8v-8.15l-.17-.17h-.87Zm-11.51,7.54a2.28,2.28,0,0,1-1.36-.38,1.35,1.35,0,0,1-.52-1.13,1.46,1.46,0,0,1,.69-1.28,3.12,3.12,0,0,1,1.8-.46h1.79l.07.07V118a1.58,1.58,0,0,1-.74,1.36,3,3,0,0,1-1.73.5m.47-7.85a3.86,3.86,0,0,0-2.21.6,2.17,2.17,0,0,0-1,1.55l.15.13.92.12.21-.15a1.32,1.32,0,0,1,.63-.88,2.48,2.48,0,0,1,1.32-.31,2,2,0,0,1,1.51.5,1.9,1.9,0,0,1,.49,1.37v.65l-.07.07h-2a4,4,0,0,0-2.58.74,2.42,2.42,0,0,0-.92,2,2.21,2.21,0,0,0,.81,1.88,3.28,3.28,0,0,0,2,.61,4.23,4.23,0,0,0,1.51-.26,2.66,2.66,0,0,0,1.11-.78l.06,0,0,0v.7l.17.17h.86l.17-.17v-5.72a2.68,2.68,0,0,0-.83-2.07,3.29,3.29,0,0,0-2.37-.79m-7.18-3-3.17,4.84,0,0,0,0L1.26,109l-.2-.1H.17L0,109v11.57l.17.17H1l.17-.17V111.2l0-.07.05,0,2.78,4.23.2.1h.45l.2-.12,2.78-4.26,0,0,0,.07v9.46l.17.17h.87l.17-.17V109l-.17-.17H7.93Z" style="fill:#4a4f54"/><path d="M59.59,197.52a2.31,2.31,0,0,0-1.29.35,2.66,2.66,0,0,0-.91,1l0,0,0-.06v-1l-.17-.17h-.86l-.17.17v8.28l.17.17h.86l.17-.17v-5a2.24,2.24,0,0,1,.58-1.57,2.06,2.06,0,0,1,1.47-.66h.22a1.69,1.69,0,0,1,.66.12l.22-.11.19-.83-.1-.22a2,2,0,0,0-1-.22m-9.47,7.78a2.28,2.28,0,0,1-1.43-.45,2.07,2.07,0,0,1-.78-1.22,10.64,10.64,0,0,1,0-3.44A2.34,2.34,0,0,1,51.53,199a2.23,2.23,0,0,1,.79,1.22,8.24,8.24,0,0,1,.14,1.72,7.52,7.52,0,0,1-.16,1.72,2.17,2.17,0,0,1-.78,1.22,2.22,2.22,0,0,1-1.4.45m0,1a3.54,3.54,0,0,0,2.11-.63,3.22,3.22,0,0,0,1.2-1.73,9.66,9.66,0,0,0,0-4.19,3.18,3.18,0,0,0-1.2-1.7,3.45,3.45,0,0,0-2.09-.63,3.57,3.57,0,0,0-2.15.63,3.09,3.09,0,0,0-1.2,1.72,7.15,7.15,0,0,0-.24,2.07,7.43,7.43,0,0,0,.24,2.1A3.19,3.19,0,0,0,48,205.72a3.56,3.56,0,0,0,2.11.63m-5.36-7.91v-.67l-.17-.17H42.67l-.07-.07v-2l-.17-.17h-.84l-.17.17v2l-.07.07h-1l-.17.17v.67l.17.17h1l.07.06v5.4a2,2,0,0,0,.63,1.7,3.11,3.11,0,0,0,1.86.46h.63l.17-.17v-.7l-.17-.17h-.43a1.7,1.7,0,0,1-1.15-.33,1.52,1.52,0,0,1-.36-1.15v-5l.07-.06h1.92Zm-9.47,7.91a3.83,3.83,0,0,0,2.17-.61,2.7,2.7,0,0,0,1.17-1.6l.07-.34-.15-.19-.84-.13-.2.13,0,.07v.07a1.85,1.85,0,0,1-.76,1.11,2.39,2.39,0,0,1-1.44.44,2.23,2.23,0,0,1-1.42-.45,2.11,2.11,0,0,1-.74-1.22,7.76,7.76,0,0,1-.15-1.74,7.93,7.93,0,0,1,.15-1.72,2.09,2.09,0,0,1,.74-1.2,2.23,2.23,0,0,1,1.42-.45,2.34,2.34,0,0,1,1.45.45,1.9,1.9,0,0,1,.75,1.1l0,.26.15.15h0l.85-.12.15-.15v0l-.1-.51a2.88,2.88,0,0,0-1.18-1.56,3.64,3.64,0,0,0-2.16-.63,3.56,3.56,0,0,0-2.11.63A3.17,3.17,0,0,0,32,199.8a8.23,8.23,0,0,0-.22,2.08A7.76,7.76,0,0,0,32,204a3.29,3.29,0,0,0,1.2,1.73,3.53,3.53,0,0,0,2.1.63m-9.14-7.83a2.25,2.25,0,0,1,1.44.45,2.19,2.19,0,0,1,.76,1.22,8.28,8.28,0,0,1,.1,1.09l-.07.07H24l-.07-.07a5.92,5.92,0,0,1,.14-1.16,1.93,1.93,0,0,1,.72-1.16,2.18,2.18,0,0,1,1.39-.44m3.42,1.94a3.57,3.57,0,0,0-1-2.21,3.35,3.35,0,0,0-2.38-.78,3.43,3.43,0,0,0-2.12.66,3.13,3.13,0,0,0-1.16,1.77,3.27,3.27,0,0,0-.13.81q0,.45,0,1.17a6.76,6.76,0,0,0,.31,2.34,3.12,3.12,0,0,0,1.17,1.57,3.55,3.55,0,0,0,2,.58,4,4,0,0,0,2-.47,3.07,3.07,0,0,0,1.27-1.28l-.06-.24-.67-.39-.24.06a2.17,2.17,0,0,1-.85.92,2.37,2.37,0,0,1-1.26.33,2.55,2.55,0,0,1-1.56-.45,2,2,0,0,1-.8-1.2,7.79,7.79,0,0,1-.11-1.21l.07-.07h5.5l.17-.17v-.55a8,8,0,0,0-.07-1.19m-15.86,5.76h7.11l.17-.17v-.72l-.17-.17h-6l-.07-.07V194.47l-.17-.17h-.86l-.17.17v11.58Zm47.56,18.26a1.84,1.84,0,0,1-.72.91,2.1,2.1,0,0,1-1.18.34,1.84,1.84,0,0,1-1.12-.35,1.93,1.93,0,0,1-.67-.93,3.16,3.16,0,0,1-.24-.82,10.57,10.57,0,0,1-.07-1.29,10.14,10.14,0,0,1,.07-1.28,3.44,3.44,0,0,1,.22-.8,2.21,2.21,0,0,1,.68-.95,1.81,1.81,0,0,1,1.14-.36,2.13,2.13,0,0,1,1.24.36,1.8,1.8,0,0,1,.72,1,2.84,2.84,0,0,1,.24.81,8.18,8.18,0,0,1,.07,1.25,7.21,7.21,0,0,1-.09,1.3,3.46,3.46,0,0,1-.29.84m1.35-4.3a3.12,3.12,0,0,0-1.11-1.67,3.23,3.23,0,0,0-2-.61,2.77,2.77,0,0,0-1.23.27,2.64,2.64,0,0,0-.93.76l-.06,0,0,0v-.72l-.17-.17h-.87l-.17.17v11.58l.17.17h.87l.17-.17v-4l0,0,.06,0a2.49,2.49,0,0,0,.94.76,2.76,2.76,0,0,0,1.22.26,3.22,3.22,0,0,0,2-.62,3.1,3.1,0,0,0,1.11-1.71,7.71,7.71,0,0,0,.22-2.11,7.43,7.43,0,0,0-.25-2.16m-10.69,6.45h.87l.17-.17v-8.27L52.8,218h-.87l-.17.17v8.27Zm.47-10.16a.94.94,0,0,0,1-1,.93.93,0,0,0-.27-.69,1,1,0,0,0-1.37,0,1,1,0,0,0,0,1.37.91.91,0,0,0,.68.28M46,217.91a2.63,2.63,0,0,0-2.3,1.06l0,0,0-.06v-4l-.17-.17h-.87l-.17.17v11.58l.17.17h.87l.17-.17v-5.42A2,2,0,0,1,45.71,219a2,2,0,0,1,1.48.59,2.14,2.14,0,0,1,.57,1.54v5.38l.17.17h.86l.18-.17v-5.62a2.9,2.9,0,0,0-.81-2.15,3,3,0,0,0-2.17-.8M35.94,226.8a4.47,4.47,0,0,0,2.09-.46,3.41,3.41,0,0,0,1.41-1.3,3.77,3.77,0,0,0,.5-1.95l-.17-.15-.87-.06-.17.16v0A2.55,2.55,0,0,1,38,225a3.2,3.2,0,0,1-4.06,0,2.55,2.55,0,0,1-.76-1.93V218.3a2.54,2.54,0,0,1,.76-1.92,3.2,3.2,0,0,1,4.06,0,2.55,2.55,0,0,1,.76,1.93v.06l.17.15.87,0,.12-.05,0-.14a3.66,3.66,0,0,0-.5-1.92,3.41,3.41,0,0,0-1.41-1.3,4.6,4.6,0,0,0-2.09-.46,4.5,4.5,0,0,0-2.09.47,3.45,3.45,0,0,0-1.41,1.32,3.83,3.83,0,0,0-.5,2V223a4,4,0,0,0,.5,2,3.45,3.45,0,0,0,1.41,1.32,4.5,4.5,0,0,0,2.09.47M22.78,219a2.25,2.25,0,0,1,1.44.45,2.19,2.19,0,0,1,.76,1.22,8.28,8.28,0,0,1,.1,1.09l-.07.07H20.6l-.07-.07a5.23,5.23,0,0,1,.14-1.16,2,2,0,0,1,.72-1.16,2.18,2.18,0,0,1,1.39-.44m3.42,1.94a3.57,3.57,0,0,0-1-2.21,3.35,3.35,0,0,0-2.38-.78,3.43,3.43,0,0,0-2.12.66,3.2,3.2,0,0,0-1.17,1.77,3.84,3.84,0,0,0-.12.81q0,.45,0,1.17a6.86,6.86,0,0,0,.31,2.35,3.14,3.14,0,0,0,1.17,1.56,3.55,3.55,0,0,0,2,.58,4.06,4.06,0,0,0,2-.47,3.07,3.07,0,0,0,1.27-1.28l-.07-.24-.66-.39-.24.06a2.17,2.17,0,0,1-.85.92,2.37,2.37,0,0,1-1.26.33,2.67,2.67,0,0,1-1.57-.44,2.12,2.12,0,0,1-.8-1.21,8.27,8.27,0,0,1-.1-1.21l.07-.07h5.5l.17-.17v-.55a8,8,0,0,0-.07-1.19m-10.86,3.53a2.13,2.13,0,0,1-.68,1,1.81,1.81,0,0,1-1.14.36,2.13,2.13,0,0,1-1.24-.36,1.91,1.91,0,0,1-.72-1,3.2,3.2,0,0,1-.24-.81,9.72,9.72,0,0,1-.07-1.25,7,7,0,0,1,.1-1.3,2.85,2.85,0,0,1,.3-.85,1.9,1.9,0,0,1,.71-.9,2.08,2.08,0,0,1,1.18-.34,1.81,1.81,0,0,1,1.11.35,1.87,1.87,0,0,1,.67.93,2.79,2.79,0,0,1,.24.83,8.54,8.54,0,0,1,.07,1.28,8.62,8.62,0,0,1-.07,1.28,3.44,3.44,0,0,1-.22.8m.31-9.52v4l0,0-.06,0a2.49,2.49,0,0,0-.94-.76,2.76,2.76,0,0,0-1.22-.26,3.23,3.23,0,0,0-2,.62,3.11,3.11,0,0,0-1.12,1.71,7.84,7.84,0,0,0-.21,2.11,7.94,7.94,0,0,0,.24,2.16,3.14,3.14,0,0,0,1.12,1.67,3.2,3.2,0,0,0,2,.61,2.77,2.77,0,0,0,1.23-.27,2.57,2.57,0,0,0,.93-.77l.06,0,0,0v.72l.17.17h.86l.18-.17V214.9l-.18-.17h-.86Z" style="fill:#4a4f54"/><path d="M448.43,257.12a2.28,2.28,0,0,1-1.43-.45,2.07,2.07,0,0,1-.78-1.22,10.57,10.57,0,0,1,0-3.43,2.16,2.16,0,0,1,2.2-1.67,2.27,2.27,0,0,1,1.42.45,2.2,2.2,0,0,1,.79,1.22,8.14,8.14,0,0,1,.14,1.71,7.46,7.46,0,0,1-.16,1.72,2.17,2.17,0,0,1-.78,1.22,2.22,2.22,0,0,1-1.4.45m0,1.06a3.54,3.54,0,0,0,2.11-.63,3.2,3.2,0,0,0,1.2-1.74,7.29,7.29,0,0,0,.23-2.09,7.52,7.52,0,0,0-.23-2.1,3.21,3.21,0,0,0-1.2-1.7,3.52,3.52,0,0,0-2.09-.63,3.64,3.64,0,0,0-2.15.63,3.09,3.09,0,0,0-1.2,1.72,7.18,7.18,0,0,0-.24,2.08,7.35,7.35,0,0,0,.24,2.09,3.18,3.18,0,0,0,1.22,1.74,3.56,3.56,0,0,0,2.11.63m-7.54-2.37a2.11,2.11,0,0,1-.68,1,1.86,1.86,0,0,1-1.14.35,2.15,2.15,0,0,1-1.23-.35,1.89,1.89,0,0,1-.73-1,3,3,0,0,1-.24-.8,9.78,9.78,0,0,1-.07-1.26,7.13,7.13,0,0,1,.1-1.3,2.79,2.79,0,0,1,.3-.84,1.81,1.81,0,0,1,.71-.9,2,2,0,0,1,1.18-.34,1.75,1.75,0,0,1,1.11.35,1.89,1.89,0,0,1,.67.92,2.6,2.6,0,0,1,.24.83,8.62,8.62,0,0,1,.07,1.28,8.45,8.45,0,0,1-.07,1.28,2.81,2.81,0,0,1-.22.8m.31-9.52v4l0,0-.06,0a2.42,2.42,0,0,0-.93-.75,2.84,2.84,0,0,0-1.23-.27,3.29,3.29,0,0,0-2,.62,3.19,3.19,0,0,0-1.12,1.71,10.77,10.77,0,0,0,0,4.28,3.17,3.17,0,0,0,1.12,1.67,3.26,3.26,0,0,0,2,.61,2.74,2.74,0,0,0,1.23-.27,2.67,2.67,0,0,0,.93-.77l.06,0,0,0v.71l.17.17h.87l.17-.17V246.29l-.17-.17h-.87Zm-11.55,10.85a2.27,2.27,0,0,1-1.35-.38,1.33,1.33,0,0,1-.52-1.14,1.45,1.45,0,0,1,.68-1.27,3.18,3.18,0,0,1,1.81-.46h1.78l.07.07v1.32a1.57,1.57,0,0,1-.73,1.36,3,3,0,0,1-1.74.5m.48-7.85a3.84,3.84,0,0,0-2.21.6,2.17,2.17,0,0,0-1,1.55l.15.13.92.12.2-.15a1.32,1.32,0,0,1,.63-.88,2.52,2.52,0,0,1,1.33-.31,2,2,0,0,1,1.51.5,1.89,1.89,0,0,1,.48,1.37v.65l-.07.06h-2a4,4,0,0,0-2.58.75,2.42,2.42,0,0,0-.93,2,2.19,2.19,0,0,0,.82,1.88,3.33,3.33,0,0,0,2,.61,4.27,4.27,0,0,0,1.51-.26,2.72,2.72,0,0,0,1.11-.78l.06,0,0,.05v.7l.17.17h.87l.17-.17v-5.72a2.76,2.76,0,0,0-.83-2.08,3.35,3.35,0,0,0-2.37-.78M423.41,258h.86l.17-.17V246.29l-.17-.17h-.86l-.18.17v11.58Zm-5.78.14a3.91,3.91,0,0,0,2.17-.61A2.72,2.72,0,0,0,421,256l.07-.34-.15-.18-.84-.14-.2.14,0,.07v.06a1.84,1.84,0,0,1-.76,1.12,2.38,2.38,0,0,1-1.44.43,2.23,2.23,0,0,1-1.42-.45,2.11,2.11,0,0,1-.74-1.22,7.6,7.6,0,0,1-.15-1.73,7.87,7.87,0,0,1,.15-1.72,2.09,2.09,0,0,1,.74-1.2,2.23,2.23,0,0,1,1.42-.45,2.34,2.34,0,0,1,1.45.45,1.9,1.9,0,0,1,.75,1.1l.05.25.15.15h0l.85-.11.15-.16v0l-.1-.51a2.87,2.87,0,0,0-1.18-1.57,3.71,3.71,0,0,0-2.16-.63,3.56,3.56,0,0,0-2.11.64,3.09,3.09,0,0,0-1.19,1.69,8.29,8.29,0,0,0-.22,2.08,7.71,7.71,0,0,0,.22,2.11,3.22,3.22,0,0,0,1.2,1.73,3.47,3.47,0,0,0,2.1.64m-9.14-7.83a2.25,2.25,0,0,1,1.44.45,2.16,2.16,0,0,1,.76,1.22,7.9,7.9,0,0,1,.1,1.08l-.07.07h-4.41l-.07-.07a5.8,5.8,0,0,1,.14-1.15,2,2,0,0,1,.72-1.17,2.18,2.18,0,0,1,1.39-.43m3.42,1.94a3.6,3.6,0,0,0-1-2.22,3.86,3.86,0,0,0-4.5-.11,3.13,3.13,0,0,0-1.16,1.77,3.61,3.61,0,0,0-.13.8q0,.45,0,1.17a6.83,6.83,0,0,0,.31,2.35,3.16,3.16,0,0,0,1.17,1.57,3.71,3.71,0,0,0,2,.58,4,4,0,0,0,2-.47,3.09,3.09,0,0,0,1.27-1.29l-.06-.24-.67-.39-.24.07a2.23,2.23,0,0,1-.85.92,2.36,2.36,0,0,1-1.26.32,2.62,2.62,0,0,1-1.56-.44,2,2,0,0,1-.8-1.21,7.51,7.51,0,0,1-.11-1.21l.07-.07h5.5L412,254v-.54a7.92,7.92,0,0,0-.07-1.19m-7.68-6.17h-7.88l-.17.17V247l.17.17h3.2l.07.07v10.6l.17.17h.87l.17-.17v-10.6l.07-.07h3.33l.17-.17v-.74Z" style="fill:#4a4f54"/><path d="M349,67.51H209v51.28a6.34,6.34,0,0,1-6.32,6.32h-6.5V305.35a5.87,5.87,0,0,0,5.86,5.86H349a5.88,5.88,0,0,0,5.86-5.86v-232A5.88,5.88,0,0,0,349,67.51" style="fill:#f2d509"/><path d="M209,118.79V67.51h-7a5.87,5.87,0,0,0-5.86,5.86v51.74h6.5a6.34,6.34,0,0,0,6.32-6.32" style="fill:#e2c70d"/><path d="M235.28,223.59H213.65a2.21,2.21,0,0,1-2.2-2.2V211.05a2.21,2.21,0,0,1,2.2-2.2h21.63a2.21,2.21,0,0,1,2.21,2.2v10.34a2.21,2.21,0,0,1-2.21,2.2" style="fill:#fff"/><path d="M269.34,223.59H247.71a2.21,2.21,0,0,1-2.21-2.2V211.05a2.21,2.21,0,0,1,2.21-2.2h21.63a2.21,2.21,0,0,1,2.2,2.2v10.34a2.21,2.21,0,0,1-2.2,2.2" style="fill:#fff"/><path d="M303.39,223.59H281.76a2.22,2.22,0,0,1-2.21-2.2V211.05a2.22,2.22,0,0,1,2.21-2.2h21.63a2.21,2.21,0,0,1,2.21,2.2v10.34a2.21,2.21,0,0,1-2.21,2.2" style="fill:#fff"/><path d="M337.45,223.59H315.81a2.21,2.21,0,0,1-2.2-2.2V211.05a2.21,2.21,0,0,1,2.2-2.2h21.64a2.21,2.21,0,0,1,2.2,2.2v10.34a2.21,2.21,0,0,1-2.2,2.2" style="fill:#221f1f"/><path d="M235.28,246.43H213.65a2.22,2.22,0,0,1-2.2-2.21V233.89a2.22,2.22,0,0,1,2.2-2.21h21.63a2.22,2.22,0,0,1,2.21,2.21v10.33a2.22,2.22,0,0,1-2.21,2.21" style="fill:#fff"/><path d="M269.34,246.43H247.71a2.22,2.22,0,0,1-2.21-2.21V233.89a2.22,2.22,0,0,1,2.21-2.21h21.63a2.22,2.22,0,0,1,2.2,2.21v10.33a2.22,2.22,0,0,1-2.2,2.21" style="fill:#eaeaed"/><path d="M303.39,246.43H281.76a2.22,2.22,0,0,1-2.21-2.21V233.89a2.22,2.22,0,0,1,2.21-2.21h21.63a2.22,2.22,0,0,1,2.21,2.21v10.33a2.22,2.22,0,0,1-2.21,2.21" style="fill:#fff"/><path d="M337.45,246.43H315.81a2.22,2.22,0,0,1-2.2-2.21V233.89a2.22,2.22,0,0,1,2.2-2.21h21.64a2.22,2.22,0,0,1,2.2,2.21v10.33a2.22,2.22,0,0,1-2.2,2.21" style="fill:#fff"/><path d="M235.28,269.26H213.65a2.21,2.21,0,0,1-2.2-2.21V256.72a2.21,2.21,0,0,1,2.2-2.2h21.63a2.21,2.21,0,0,1,2.21,2.2v10.33a2.21,2.21,0,0,1-2.21,2.21" style="fill:#fff"/><path d="M269.34,269.26H247.71a2.21,2.21,0,0,1-2.21-2.21V256.72a2.21,2.21,0,0,1,2.21-2.2h21.63a2.21,2.21,0,0,1,2.2,2.2v10.33a2.21,2.21,0,0,1-2.2,2.21" style="fill:#fff"/><path d="M303.39,269.26H281.76a2.22,2.22,0,0,1-2.21-2.21V256.72a2.22,2.22,0,0,1,2.21-2.2h21.63a2.21,2.21,0,0,1,2.21,2.2v10.33a2.21,2.21,0,0,1-2.21,2.21" style="fill:#fff"/><path d="M337.45,269.26H315.81a2.21,2.21,0,0,1-2.2-2.21V256.72a2.21,2.21,0,0,1,2.2-2.2h21.64a2.21,2.21,0,0,1,2.2,2.2v10.33a2.21,2.21,0,0,1-2.2,2.21" style="fill:#fff"/><path d="M235.28,292.09H213.65a2.21,2.21,0,0,1-2.2-2.2V279.56a2.21,2.21,0,0,1,2.2-2.21h21.63a2.21,2.21,0,0,1,2.21,2.21v10.33a2.21,2.21,0,0,1-2.21,2.2" style="fill:#cd8c12"/><path d="M269.34,292.09H247.71a2.21,2.21,0,0,1-2.21-2.2V279.56a2.21,2.21,0,0,1,2.21-2.21h21.63a2.21,2.21,0,0,1,2.2,2.21v10.33a2.21,2.21,0,0,1-2.2,2.2" style="fill:#fff"/><path d="M303.39,292.09H281.76a2.22,2.22,0,0,1-2.21-2.2V279.56a2.22,2.22,0,0,1,2.21-2.21h21.63a2.21,2.21,0,0,1,2.21,2.21v10.33a2.21,2.21,0,0,1-2.21,2.2" style="fill:#1555a5"/><path d="M337.45,292.09H315.81a2.21,2.21,0,0,1-2.2-2.2V279.56a2.21,2.21,0,0,1,2.2-2.21h21.64a2.21,2.21,0,0,1,2.2,2.21v10.33a2.21,2.21,0,0,1-2.2,2.2" style="fill:#008bad"/><line x1="249.48" y1="236.91" x2="249.48" y2="241.2" style="fill:none;stroke:#6b7377;stroke-linecap:round;stroke-miterlimit:10;stroke-width:0.971px"/><line x1="267.56" y1="236.91" x2="267.56" y2="241.2" style="fill:none;stroke:#6b7377;stroke-linecap:round;stroke-miterlimit:10;stroke-width:0.971px"/><path d="M323.21,212.51a4.84,4.84,0,1,0,6.84,0" style="fill:none;stroke:#fff;stroke-linecap:round;stroke-miterlimit:10;stroke-width:0.583px"/><line x1="326.63" y1="214.26" x2="326.63" y2="210.5" style="fill:none;stroke:#fff;stroke-linecap:round;stroke-miterlimit:10;stroke-width:0.583px"/><polyline points="289.93 289.25 285.4 284.72 289.93 280.19" style="fill:none;stroke:#fff;stroke-linecap:round;stroke-miterlimit:10;stroke-width:0.583px"/><line x1="286.58" y1="284.72" x2="300.75" y2="284.72" style="fill:none;stroke:#fff;stroke-linecap:round;stroke-miterlimit:10;stroke-width:0.583px"/><line x1="219.67" y1="279.92" x2="229.27" y2="289.52" style="fill:none;stroke:#fff;stroke-linecap:round;stroke-miterlimit:10;stroke-width:0.583px"/><line x1="229.27" y1="279.92" x2="219.67" y2="289.52" style="fill:none;stroke:#fff;stroke-linecap:round;stroke-miterlimit:10;stroke-width:0.583px"/><polyline points="321.14 285.22 325.33 289.41 333.89 280.84" style="fill:none;stroke:#fff;stroke-linecap:round;stroke-miterlimit:10;stroke-width:0.583px"/><path d="M341,191.92H210.09a3.05,3.05,0,0,1-3-3V132.37a3.05,3.05,0,0,1,3-3.05H341a3.05,3.05,0,0,1,3,3.05v56.51a3.05,3.05,0,0,1-3,3" style="fill:#e2c70d"/><rect x="216.1" y="135.62" width="118.9" height="38.58" style="fill:#6c7880"/><polyline points="216.1 174.2 216.1 135.62 335 135.62" style="fill:none;stroke:#221f1f;stroke-miterlimit:10;stroke-width:0.486px"/><polygon points="204.5 89.46 199.75 89.46 199.61 89.32 199.61 87.23 199.75 87.1 204.5 87.1 204.64 87.23 204.64 89.32 204.5 89.46" style="fill:#e5e7ea"/><polygon points="204.5 95.56 199.75 95.56 199.61 95.43 199.61 93.34 199.75 93.2 204.5 93.2 204.64 93.34 204.64 95.43 204.5 95.56" style="fill:#e5e7ea"/><polygon points="204.5 101.66 199.75 101.66 199.61 101.53 199.61 99.44 199.75 99.3 204.5 99.3 204.64 99.44 204.64 101.53 204.5 101.66" style="fill:#e5e7ea"/><polygon points="204.5 107.77 199.75 107.77 199.61 107.63 199.61 105.54 199.75 105.41 204.5 105.41 204.64 105.54 204.64 107.63 204.5 107.77" style="fill:#e5e7ea"/><path d="M115.75,208.15a2.2,2.2,0,0,0-2.2,2.19v10.28a2.21,2.21,0,0,0,2.2,2.2Z" style="fill:#221f1f"/><path d="M115.75,230.87a2.2,2.2,0,0,0-2.2,2.19v10.28a2.21,2.21,0,0,0,2.2,2.2Z" style="fill:#c8cbd1"/><path d="M115.75,253.59a2.2,2.2,0,0,0-2.2,2.19v10.28a2.21,2.21,0,0,0,2.2,2.2Z" style="fill:#c8cbd1"/><path d="M115.75,276.31a2.2,2.2,0,0,0-2.2,2.19v10.28a2.21,2.21,0,0,0,2.2,2.2Z" style="fill:#8bbf41"/><path d="M126.05,67.51h-4.57a5.85,5.85,0,0,0-5.83,5.83V304.17a5.85,5.85,0,0,0,5.83,5.83h27.29V70.41Z" style="fill:#f2d509"/><path d="M153.69,71l-4.92-.63V310h4.92a5.84,5.84,0,0,0,5.82-5.83V76.87A5.84,5.84,0,0,0,153.69,71" style="fill:#e2c70d"/><rect x="121.53" y="67.54" width="3.67" height="55.63" style="fill:#221f1f"/><rect x="138.96" y="130.58" width="2.64" height="151.21" style="fill:#221f1f"/><rect x="138.22" y="219.51" width="2.31" height="43.87" style="fill:#221f1f"/><path d="M143.3,82.36h-5.16a.62.62,0,0,1-.62-.62V76a.62.62,0,0,1,.62-.62h5.16a.62.62,0,0,1,.62.62v5.77a.62.62,0,0,1-.62.62" style="fill:#e2c70d"/><rect x="139.57" y="87.69" width="2.31" height="9.38" style="fill:#e2c70d"/><rect x="139.57" y="292.47" width="2.31" height="9.38" style="fill:#e2c70d"/><line x1="131.32" y1="68.69" x2="131.32" y2="309.61" style="fill:none;stroke:#ca4a23;stroke-miterlimit:10;stroke-width:0.242px"/><path d="M210.68,352.77v-.89a2.25,2.25,0,0,1,2.24-2.24H234.8a2.25,2.25,0,0,1,2.24,2.24v.89" style="fill:#cd8c12"/><path d="M245.14,352.77v-.89a2.25,2.25,0,0,1,2.23-2.24h21.89a2.25,2.25,0,0,1,2.24,2.24v.89" style="fill:#fff"/><path d="M279.6,352.77v-.89a2.25,2.25,0,0,1,2.23-2.24h21.89a2.25,2.25,0,0,1,2.24,2.24v.89" style="fill:#1555a5"/><path d="M314.06,352.77v-.89a2.25,2.25,0,0,1,2.23-2.24h21.89a2.25,2.25,0,0,1,2.24,2.24v.89" style="fill:#008bad"/><path d="M199.66,352.77H333.51A3.18,3.18,0,0,1,336.7,356H196.47a3.18,3.18,0,0,1,3.19-3.18" style="fill:#ea6e30"/><polygon points="195.28 367.9 355.82 367.9 349.85 385.43 341.61 391.41 209.49 391.41 201.25 385.43 195.28 367.9" style="fill:#f2d509"/><path d="M351.44,352.77H199.66a3.18,3.18,0,0,0-3.19,3.18l-1.2,12H355.82l-1.19-12a3.18,3.18,0,0,0-3.19-3.18" style="fill:#f2d509"/><polyline points="195.28 367.9 260.06 367.9 264.25 364.32 286.85 364.32 291.04 367.9 355.82 367.9" style="fill:none;stroke:#e2c70d;stroke-miterlimit:10;stroke-width:0.566929px"/><path d="M269.44,366.78h12.5c.58,0,4.84,2.9,4.84,4s-2.19,2.74-2.77,2.74H267.37c-.58,0-2.81-1.35-2.81-2.49s4.3-4.25,4.88-4.25" style="fill:#555556"/><path d="M269.44,366.78h12.5c.58,0,4.84,2.9,4.84,4s-2.19,2.74-2.77,2.74H267.37c-.58,0-2.81-1.35-2.81-2.49S268.86,366.78,269.44,366.78Z" style="fill:none;stroke:#dcdbda;stroke-miterlimit:10;stroke-width:0.32px"/><path d="M279.68,371.22v.2a.45.45,0,0,1-.45.45h-7.5a.45.45,0,0,1-.44-.45v-.2a.45.45,0,0,1,.44-.45h7.5a.45.45,0,0,1,.45.45" style="fill:#cac8c7"/><path d="M293.64,370.13a1.72,1.72,0,1,0,.85,2.28,1.72,1.72,0,0,0-.85-2.28" style="fill:#555556"/><path d="M191.22,106.84h-4.31a.25.25,0,0,1-.25-.25V.25a.25.25,0,0,1,.5,0V106.34h4.06a.25.25,0,0,1,.25.25A.25.25,0,0,1,191.22,106.84Z" style="fill:#00a5b5"/><path d="M389.6,250.42H370.39V207.78a.25.25,0,0,0-.25-.25h-4.87a.25.25,0,0,0,0,.5h4.62V294.2h-4.62a.25.25,0,0,0,0,.5h4.87a.25.25,0,0,0,.25-.25V250.92H389.6a.25.25,0,0,0,0-.5Z" style="fill:#00a5b5"/><path d="M389.6,154.21H370.39V128.6a.25.25,0,0,0-.25-.25h-4.87a.26.26,0,0,0-.25.25.25.25,0,0,0,.25.25h4.62v49.69h-4.62a.25.25,0,0,0,0,.5h4.87a.25.25,0,0,0,.25-.25V154.71H389.6a.25.25,0,0,0,.25-.25A.26.26,0,0,0,389.6,154.21Z" style="fill:#00a5b5"/><path d="M106.65,284.47H102V132.63h4.62a.25.25,0,0,0,0-.5h-4.87a.25.25,0,0,0-.25.25V208.3H82.33a.25.25,0,1,0,0,.5h19.2v75.92a.25.25,0,0,0,.25.25h4.87a.25.25,0,0,0,.25-.25A.25.25,0,0,0,106.65,284.47Z" style="fill:#00a5b5"/><path d="M106.65,127.46H102V68h4.62a.25.25,0,0,0,.25-.25.25.25,0,0,0-.25-.25h-4.87a.26.26,0,0,0-.25.25V98.27H82.33a.25.25,0,0,0,0,.5h19.2v28.94a.25.25,0,0,0,.25.25h4.87a.25.25,0,0,0,0-.5Z" style="fill:#00a5b5"/><path d="M259.09,458.54H248.73a2.62,2.62,0,0,0-2.62,2.61v23.94a2.63,2.63,0,0,0,2.62,2.62h10.36a2.62,2.62,0,0,0,2.62-2.62V461.15a2.61,2.61,0,0,0-2.62-2.61" style="fill:#cfd0d2"/><path d="M253,477.1V464.54l-.18-.17h-.73l-.15,0,.32-.52.43-.77.26-.42c.14-.24.26-.47.39-.7l.08-.05,1.42,2.47h-.91l-.13.13v9.34l0,.11.06-.07.48-.42c.23-.2.44-.42.66-.62l.75-.69.5-.49.39-.59.05-.31v-2h-.82v-2.49h2.47v2.49h-.68l-.16.16v.6a3.71,3.71,0,0,1,0,1.05,2.68,2.68,0,0,1-.59,1.59l-.39.37-.75.71-.71.65-.47.46-.51.5a1,1,0,0,0-.33.66l0,.63V480l.21.27a1.89,1.89,0,0,1,1,.72l.33.57a2.11,2.11,0,0,1,.09,1,2.09,2.09,0,0,1-.21.64,1.85,1.85,0,0,1-.62.71,1.57,1.57,0,0,1-.71.34l-.6.07a1.68,1.68,0,0,1-.88-.23,2,2,0,0,1-.68-.56,2.75,2.75,0,0,1-.35-.63,1.79,1.79,0,0,1-.1-.86,1.82,1.82,0,0,1,.24-.79,2,2,0,0,1,.65-.72l.47-.26.33-.1v-1.31a1.32,1.32,0,0,0-.19-.7l-.33-.39-.83-.77-.61-.59-.57-.54-.64-.62a2.2,2.2,0,0,1-.48-.84,2.29,2.29,0,0,1-.09-.78c0-.58,0-1.17,0-1.75l-.13-.17-.33-.23-.24-.27-.11-.21a1.23,1.23,0,0,1,.11-1,1.14,1.14,0,0,1,.68-.57l.5-.08a1.24,1.24,0,0,1,.77.34,1,1,0,0,1,.34.61l0,.36a1.2,1.2,0,0,1-.31.78l-.45.32-.07.11c0,.67,0,1.34,0,2a1.22,1.22,0,0,0,.24.69l.37.37.72.69.75.72.74.69.12.07" style="fill:#221f1f"/><path d="M236.36,107.76h0a2.57,2.57,0,1,1,2.57-2.57,2.58,2.58,0,0,1-2.57,2.57m0-7.27a4.64,4.64,0,0,0-4.7,4.7v8.25a.51.51,0,0,0,.51.51h1.12a.51.51,0,0,0,.51-.51v-4.27a4.83,4.83,0,0,0,2.56.73,4.73,4.73,0,0,0,4.73-4.72A4.66,4.66,0,0,0,236.35,100.49Z" style="fill:#221f1f"/><path d="M250.62,100.49H249.5a.51.51,0,0,0-.52.51v4.19a2.57,2.57,0,1,1-5.13,0V101a.51.51,0,0,0-.52-.51h-1.12a.51.51,0,0,0-.51.51v4.19a4.72,4.72,0,0,0,4.73,4.72,4.8,4.8,0,0,0,2.55-.73v.11a.51.51,0,0,0,.52.51h1.12a.51.51,0,0,0,.51-.51V101a.51.51,0,0,0-.51-.51" style="fill:#221f1f"/><path d="M256.45,100.48a4.77,4.77,0,0,0-2.55.73v-.1a.51.51,0,0,0-.51-.51h-1.13a.51.51,0,0,0-.51.51v8.29a.51.51,0,0,0,.51.51h1.13a.51.51,0,0,0,.51-.51v-4.29a2.57,2.57,0,0,1,5.14.1v4.19a.51.51,0,0,0,.51.51h1.12a.51.51,0,0,0,.51-.51v-4.19a4.73,4.73,0,0,0-4.73-4.73" style="fill:#221f1f"/><path d="M266.5,107.77a2.54,2.54,0,0,1-2.55-2.53v-2.55h2.54a.51.51,0,0,0,.51-.51v-1.12a.51.51,0,0,0-.51-.51H264v-1a.51.51,0,0,0-.51-.51h-1.12a.51.51,0,0,0-.51.51v5.7a4.63,4.63,0,0,0,4.69,4.67.51.51,0,0,0,.52-.51v-1.12a.51.51,0,0,0-.52-.51" style="fill:#221f1f"/><path d="M272.05,107.77h0a2.58,2.58,0,1,1,2.58-2.58,2.58,2.58,0,0,1-2.58,2.58m0-7.3a4.72,4.72,0,1,0,4.74,4.74A4.75,4.75,0,0,0,272,100.47Z" style="fill:#221f1f"/><path d="M315.9,112.3a.76.76,0,0,1,0-1.13l1.9-1.91a.78.78,0,0,1,1.14,0l1.9,1.91a.76.76,0,0,1,0,1.13l-1.9,1.91a.76.76,0,0,1-1.14,0Z" style="fill:#a81b8d"/><path d="M318.51,106.84a1.21,1.21,0,0,1,0-1.79l3-3a1.21,1.21,0,0,1,1.78,0l3,3a1.21,1.21,0,0,1,0,1.79l-3,3a1.18,1.18,0,0,1-1.78,0Z" style="fill:#a81b8d"/><path d="M310.19,101.21a1.46,1.46,0,0,1,0-2.16l3.63-3.64a1.47,1.47,0,0,1,2.16,0l3.64,3.64a1.46,1.46,0,0,1,0,2.16L316,104.84a1.44,1.44,0,0,1-2.16,0Z" style="fill:#a81b8d"/><path d="M297.79,107.78a2.6,2.6,0,0,1-1.23-2.24v-.39a4.66,4.66,0,0,0-1.35-3.3,4.6,4.6,0,0,0-3.29-1.37,4.69,4.69,0,0,0,0,9.38,4.6,4.6,0,0,0,3.57-1.66,3.59,3.59,0,0,0,2.26,1.62h0a.18.18,0,0,0,.1,0,.16.16,0,0,0,.06-.12v-1.61A.32.32,0,0,0,297.79,107.78Zm-5.87-5.25a2.59,2.59,0,0,1,2.62,2.62,2.64,2.64,0,1,1-2.62-2.62Z" style="fill:#a81b8d"/><path d="M306.41,100.51h-.94a.61.61,0,0,0-.62.61v4a2.6,2.6,0,0,1-.85,1.92,2.51,2.51,0,0,1-2,.65,2.65,2.65,0,0,1-2.32-2.65v-3.63c0-.86-.43-.95-.62-.95h-.9a.61.61,0,0,0-.61.61v4a4.81,4.81,0,0,0,4.71,4.75,4.52,4.52,0,0,0,2.55-.76v.39a2.55,2.55,0,0,1-2.25,2.54.6.6,0,0,0-.53.6v.85a.74.74,0,0,0,.22.57.57.57,0,0,0,.38.14h.06a4.76,4.76,0,0,0,4.29-4.7v-8.42A.61.61,0,0,0,306.41,100.51Z" style="fill:#a81b8d"/><path d="M282,107.76h0a2.57,2.57,0,1,1,2.57-2.57,2.57,2.57,0,0,1-2.57,2.57m0-7.27a4.64,4.64,0,0,0-4.7,4.7v8.25a.51.51,0,0,0,.51.51h1.13a.51.51,0,0,0,.51-.51v-4.27a4.8,4.8,0,0,0,2.55.73,4.72,4.72,0,0,0,4.73-4.72A4.66,4.66,0,0,0,282,100.49Z" style="fill:#a81b8d"/><path d="M221.65,86.58h7.84a1,1,0,0,0,1-1h0V81.69h0V78.15a1,1,0,0,0-1-1H217.21a1,1,0,0,0-1,1v3h4a1.33,1.33,0,0,1,1.39,1.27v4.12Zm-1.39-5h0a1,1,0,0,1,1,.93v4l-1-1V81.53Zm1,5.4-5.38-5.4V78.15a1.31,1.31,0,0,1,1.31-1.31h12.28a1.31,1.31,0,0,1,1.31,1.31v7.47a1.35,1.35,0,0,1-1.32,1.31Z" style="fill:#221f1f;fill-rule:evenodd"/><polygon points="232.14 83.85 244.55 83.85 247.06 84.58 232.14 84.58 232.14 83.85" style="fill:#221f1f;fill-rule:evenodd"/><path d="M403.06,459.19h-3l-.07-.07v-4.41l.07-.07H403a2.49,2.49,0,0,1,1.76.62,2.46,2.46,0,0,1,0,3.32,2.34,2.34,0,0,1-1.71.61m-3-9.79H403a2.45,2.45,0,0,1,1.71.59,2,2,0,0,1,.64,1.57,1.91,1.91,0,0,1-.64,1.5,2.48,2.48,0,0,1-1.71.56h-2.9l-.07-.07v-4.08Zm4.7,4.65a2.76,2.76,0,0,0,1.28-1,2.64,2.64,0,0,0,.46-1.59,2.89,2.89,0,0,0-.95-2.3,3.87,3.87,0,0,0-2.59-.82h-4l-.17.18v11.57l.17.17h4.12a3.77,3.77,0,0,0,2.58-.85,3,3,0,0,0,1-2.38,3.22,3.22,0,0,0-.47-1.77,3,3,0,0,0-1.4-1.11Zm-12.48,6.35a4.6,4.6,0,0,0,2.93-.85,2.79,2.79,0,0,0,1.05-2.28,2.55,2.55,0,0,0-.46-1.56,3.91,3.91,0,0,0-1.23-1.08,15.22,15.22,0,0,0-2-1,18.69,18.69,0,0,1-1.81-.77,2.58,2.58,0,0,1-.91-.7,1.58,1.58,0,0,1-.31-1,1.66,1.66,0,0,1,.65-1.43,3,3,0,0,1,1.85-.5,3.3,3.3,0,0,1,2.15.63,2,2,0,0,1,.78,1.62v.31l.17.17H396l.17-.17v-.38a2.89,2.89,0,0,0-1.09-2.35,4.58,4.58,0,0,0-3-.88,4.26,4.26,0,0,0-2.73.79,2.69,2.69,0,0,0-1,2.22,2.51,2.51,0,0,0,.44,1.52,3.23,3.23,0,0,0,1.14,1,18.38,18.38,0,0,0,2,.9,17,17,0,0,1,1.85.87,3,3,0,0,1,1,.8,1.65,1.65,0,0,1,.32,1,1.79,1.79,0,0,1-.69,1.47,3.07,3.07,0,0,1-2,.55,3.75,3.75,0,0,1-2.26-.6,1.87,1.87,0,0,1-.82-1.59v-.46l-.17-.17h-.83l-.17.17v.53a2.79,2.79,0,0,0,1.11,2.31,4.82,4.82,0,0,0,3,.87m-10.56,0a4.52,4.52,0,0,0,2.13-.48,3.35,3.35,0,0,0,1.42-1.34,3.8,3.8,0,0,0,.51-2v-8.07l-.17-.18h-.87l-.17.18v8.1a2.58,2.58,0,0,1-.79,2,2.8,2.8,0,0,1-2.06.76,2.83,2.83,0,0,1-2.06-.76,2.61,2.61,0,0,1-.78-2v-8.1l-.17-.18h-.87l-.17.18v8.07a3.8,3.8,0,0,0,.51,2,3.49,3.49,0,0,0,1.43,1.34,4.52,4.52,0,0,0,2.11.48m-13.55-1.06a2.31,2.31,0,0,1-1.44-.45,2.07,2.07,0,0,1-.77-1.22,10.57,10.57,0,0,1,0-3.43,2.34,2.34,0,0,1,3.62-1.22,2.23,2.23,0,0,1,.79,1.22,8.18,8.18,0,0,1,.14,1.72,7.42,7.42,0,0,1-.16,1.71,2.13,2.13,0,0,1-.78,1.22,2.22,2.22,0,0,1-1.4.45m0,1.06a3.48,3.48,0,0,0,2.1-.63,3.17,3.17,0,0,0,1.21-1.74,7.29,7.29,0,0,0,.23-2.09,7.52,7.52,0,0,0-.23-2.1,3.18,3.18,0,0,0-1.21-1.7,3.46,3.46,0,0,0-2.08-.63,3.64,3.64,0,0,0-2.15.63,3.09,3.09,0,0,0-1.2,1.72,7.23,7.23,0,0,0-.24,2.08,7.35,7.35,0,0,0,.24,2.09,3.18,3.18,0,0,0,1.22,1.74,3.56,3.56,0,0,0,2.11.63m-5.92-8.84a2.4,2.4,0,0,0-1.29.35,2.69,2.69,0,0,0-.91,1l0,0,0-.06v-1l-.17-.17h-.87l-.17.17v8.27l.17.17h.87l.17-.17v-5a2.24,2.24,0,0,1,.58-1.57,2,2,0,0,1,1.47-.66l.22,0a1.69,1.69,0,0,1,.66.12l.22-.1.19-.83-.1-.23a2.1,2.1,0,0,0-1-.22m-9.08,8.84a3.91,3.91,0,0,0,2.17-.61,2.73,2.73,0,0,0,1.17-1.6l.07-.34-.15-.19-.84-.14-.2.14,0,.07v.06a1.84,1.84,0,0,1-.76,1.12,2.38,2.38,0,0,1-1.44.43,2.23,2.23,0,0,1-1.42-.45,2.08,2.08,0,0,1-.74-1.22,7.6,7.6,0,0,1-.15-1.73,7.87,7.87,0,0,1,.15-1.72,2.09,2.09,0,0,1,.74-1.2,2.23,2.23,0,0,1,1.42-.45,2.34,2.34,0,0,1,1.45.45,1.9,1.9,0,0,1,.75,1.1l.05.25.15.16h0l.85-.12.15-.16v0l-.1-.51a2.87,2.87,0,0,0-1.18-1.57,3.71,3.71,0,0,0-2.16-.63,3.5,3.5,0,0,0-2.11.64,3.06,3.06,0,0,0-1.19,1.69,8.29,8.29,0,0,0-.22,2.08,7.71,7.71,0,0,0,.22,2.11,3.22,3.22,0,0,0,1.2,1.73,3.53,3.53,0,0,0,2.1.64m-7.25-.15h.87l.17-.17V451.8l-.17-.17h-.87l-.17.17v8.28Zm.48-10.17a.92.92,0,0,0,.95-.95.9.9,0,0,0-.27-.69.93.93,0,0,0-.68-.27.91.91,0,0,0-.68.27.88.88,0,0,0-.28.69.9.9,0,0,0,.28.68.91.91,0,0,0,.68.27m-6.18,1.45a3.37,3.37,0,0,0-1.55.35,2.42,2.42,0,0,0-1.06,1h-.08a2.29,2.29,0,0,0-1-1,3,3,0,0,0-1.51-.36,3.47,3.47,0,0,0-1.31.24,2.37,2.37,0,0,0-1,.75l-.06,0,0,0v-.68l-.17-.17h-.87l-.17.17v8.27l.17.17h.87l.17-.17v-5.5a2,2,0,0,1,.53-1.46,2,2,0,0,1,1.44-.55,1.89,1.89,0,0,1,1.42.56,2.07,2.07,0,0,1,.52,1.49v5.46l.17.17h.87l.17-.17v-5.5a2,2,0,0,1,.56-1.46,2,2,0,0,1,1.45-.55,1.88,1.88,0,0,1,1.41.56,2.07,2.07,0,0,1,.53,1.49v5.46l.17.17h.85l.17-.17v-5.7a2.88,2.88,0,0,0-.74-2.1,2.65,2.65,0,0,0-2-.76m-18.12,7.81a2.31,2.31,0,0,1-1.44-.45,2.07,2.07,0,0,1-.77-1.22,10.57,10.57,0,0,1,0-3.43,2.17,2.17,0,0,1,.78-1.22,2.24,2.24,0,0,1,1.41-.45,2.3,2.3,0,0,1,1.43.45,2.23,2.23,0,0,1,.79,1.22,8.31,8.31,0,0,1,.13,1.72,7.52,7.52,0,0,1-.15,1.71,2.24,2.24,0,0,1-.78,1.22,2.22,2.22,0,0,1-1.4.45m0,1.06a3.48,3.48,0,0,0,2.1-.63,3.1,3.1,0,0,0,1.2-1.74,6.89,6.89,0,0,0,.24-2.09,7.1,7.1,0,0,0-.24-2.1,3.11,3.11,0,0,0-1.2-1.7,3.46,3.46,0,0,0-2.08-.63,3.62,3.62,0,0,0-2.15.63,3.15,3.15,0,0,0-1.21,1.72,7.66,7.66,0,0,0-.23,2.08,7.79,7.79,0,0,0,.23,2.09,3.25,3.25,0,0,0,1.23,1.74,3.54,3.54,0,0,0,2.11.63m-5.36-7.92v-.66l-.17-.17h-1.93l-.06-.07v-2l-.17-.17h-.84l-.17.17v2l-.07.07h-1l-.18.17v.66l.18.17h1l.07.07v5.4a2,2,0,0,0,.63,1.7,3.11,3.11,0,0,0,1.86.46l.63,0,.17-.17v-.7l-.17-.17h-.43a1.65,1.65,0,0,1-1.15-.33,1.51,1.51,0,0,1-.36-1.15v-5l.06-.07h1.93Zm-6.83-.92a2.4,2.4,0,0,0-1.29.35,2.67,2.67,0,0,0-.9,1l0,0,0-.06v-1l-.17-.17h-.87l-.17.17v8.27l.17.17h.87l.17-.17v-5a2.19,2.19,0,0,1,.58-1.57,2,2,0,0,1,1.46-.66l.22,0a1.78,1.78,0,0,1,.67.12l.22-.1L311,452l-.1-.23a2.07,2.07,0,0,0-1-.22m-9.36,1A2.25,2.25,0,0,1,302,453a2.12,2.12,0,0,1,.75,1.22,7.51,7.51,0,0,1,.11,1.09l-.07.06h-4.41l-.07-.06a5.15,5.15,0,0,1,.14-1.16,2,2,0,0,1,.72-1.17,2.18,2.18,0,0,1,1.39-.43m3.42,1.94a3.65,3.65,0,0,0-1-2.22,3.86,3.86,0,0,0-4.5-.11,3.1,3.1,0,0,0-1.17,1.77,3.61,3.61,0,0,0-.13.8c0,.31,0,.69,0,1.17a7.12,7.12,0,0,0,.3,2.35,3.12,3.12,0,0,0,1.18,1.57,3.68,3.68,0,0,0,2,.58,4,4,0,0,0,1.95-.47,3,3,0,0,0,1.28-1.29l-.07-.24-.66-.39-.24.07a2.23,2.23,0,0,1-.85.92,2.36,2.36,0,0,1-1.26.32,2.58,2.58,0,0,1-1.57-.44,2,2,0,0,1-.8-1.21,8,8,0,0,1-.1-1.21l.07-.06h5.5l.17-.18v-.54a7.92,7.92,0,0,0-.07-1.19m-10.52-2.69v5.4a2,2,0,0,1-2.11,2.11,1.91,1.91,0,0,1-1.48-.58,2.08,2.08,0,0,1-.55-1.53v-5.4l-.17-.17h-.87l-.17.17v5.75a2.84,2.84,0,0,0,.4,1.52,2.6,2.6,0,0,0,1.09,1,3.44,3.44,0,0,0,1.51.33,2.53,2.53,0,0,0,2.26-1.05l0,0,0,.05v.73l.17.17h.87l.17-.17v-8.27l-.17-.17h-.87ZM282.78,454h-3.23l-.07-.07v-4.43l.07-.07h3.23a2.2,2.2,0,0,1,1.63.63,2.22,2.22,0,0,1,.63,1.67,2.19,2.19,0,0,1-.63,1.65,2.23,2.23,0,0,1-1.63.62m.14-5.62h-4.48l-.17.17v11.59l.17.17h.87l.17-.17V455l.07-.07h3.32a3.37,3.37,0,0,0,2.44-.9,3.18,3.18,0,0,0,.93-2.39,3.27,3.27,0,0,0-.92-2.41,3.18,3.18,0,0,0-2.4-.92m94,23.92v5.4a2,2,0,0,1-2.11,2.11,1.94,1.94,0,0,1-1.48-.57,2.12,2.12,0,0,1-.55-1.54v-5.4l-.17-.17h-.87l-.17.17V478a2.84,2.84,0,0,0,.4,1.52,2.6,2.6,0,0,0,1.09,1,3.48,3.48,0,0,0,1.51.33,2.53,2.53,0,0,0,2.26-1.05l.06,0,0,.05v.73l.17.17h.87l.17-.17v-8.27l-.17-.17h-.87Zm-7.54.66v-.66l-.17-.17h-1.93l-.06-.07v-2l-.18-.17h-.83L366,470v2l-.07.07h-1l-.17.17v.66l.17.17h1l.07.07v5.4a2,2,0,0,0,.63,1.7,3.11,3.11,0,0,0,1.86.46,5.28,5.28,0,0,0,.63,0l.17-.17v-.69l-.17-.18h-.43a1.65,1.65,0,0,1-1.15-.33,1.51,1.51,0,0,1-.36-1.15v-5l.06-.07h1.93Zm-10-.92a2.36,2.36,0,0,0-1.28.35,2.69,2.69,0,0,0-.91,1l0,0,0-.06v-1l-.17-.17H356l-.17.17v8.27l.17.17h.87l.17-.17v-5a2.19,2.19,0,0,1,.58-1.57,2,2,0,0,1,1.46-.66l.22,0a1.74,1.74,0,0,1,.67.12l.22-.1.19-.83-.11-.23a2.07,2.07,0,0,0-1-.22m-9.67,7.8a2.27,2.27,0,0,1-1.35-.38,1.32,1.32,0,0,1-.52-1.13,1.47,1.47,0,0,1,.68-1.28,3.18,3.18,0,0,1,1.81-.46h1.78l.07.07v1.33a1.57,1.57,0,0,1-.73,1.35,3,3,0,0,1-1.74.5m.48-7.85a3.84,3.84,0,0,0-2.21.6,2.18,2.18,0,0,0-1,1.55l.16.13.92.12.2-.15a1.34,1.34,0,0,1,.63-.88,2.49,2.49,0,0,1,1.33-.31,2.05,2.05,0,0,1,1.51.5,1.89,1.89,0,0,1,.48,1.37v.65l-.07.07h-2a4,4,0,0,0-2.58.74,2.42,2.42,0,0,0-.93,2,2.19,2.19,0,0,0,.82,1.88,3.25,3.25,0,0,0,2,.61,4.07,4.07,0,0,0,1.52-.27,2.68,2.68,0,0,0,1.11-.77l.06,0,0,.06v.69l.17.17h.87l.17-.17V474.8a2.72,2.72,0,0,0-.83-2.07,3.31,3.31,0,0,0-2.37-.79m-6.86,6.15a2,2,0,0,1-.67,1.17,2,2,0,0,1-1.37.46,2.13,2.13,0,0,1-2.13-1.65,5.64,5.64,0,0,1-.17-1.72,5.92,5.92,0,0,1,.17-1.7,2.38,2.38,0,0,1,.77-1.19,2,2,0,0,1,1.36-.46,2,2,0,0,1,1.35.46,2,2,0,0,1,.67,1.19l.09.55c0,.2,0,.59,0,1.17s0,.84,0,1.09,0,.46-.07.63m.08-5.84v.66l0,0h-.06a2.74,2.74,0,0,0-2.3-1,3,3,0,0,0-1.92.62,3.17,3.17,0,0,0-1.11,1.65,4.06,4.06,0,0,0-.18.92c0,.34,0,.76,0,1.26a8.12,8.12,0,0,0,.2,2.07,2.88,2.88,0,0,0,1.15,1.69,3.34,3.34,0,0,0,2,.59,2.65,2.65,0,0,0,2.23-1l.06,0,0,0v.63a2.47,2.47,0,0,1-.71,2,3.5,3.5,0,0,1-2.3.62l-.46,0-.12,0,0,.12,0,.79.17.18a4.64,4.64,0,0,0,.59,0,4.73,4.73,0,0,0,3-.88,3.38,3.38,0,0,0,1.09-2.8v-8.15l-.17-.17h-.87Zm-7.83-.26a2.34,2.34,0,0,0-1.28.35,2.61,2.61,0,0,0-.91,1l-.05,0,0-.06v-1l-.17-.17h-.87l-.17.17v8.27l.17.17h.87l.17-.17v-5a2.19,2.19,0,0,1,.58-1.57,2,2,0,0,1,1.46-.66l.22,0a1.78,1.78,0,0,1,.67.12l.22-.1.18-.83-.1-.23a2.07,2.07,0,0,0-1-.22m-9.67,7.8a2.23,2.23,0,0,1-1.35-.38,1.32,1.32,0,0,1-.52-1.13,1.45,1.45,0,0,1,.68-1.28,3.14,3.14,0,0,1,1.8-.46h1.79l.07.07v1.33a1.57,1.57,0,0,1-.73,1.35,3,3,0,0,1-1.74.5m.48-7.85a3.89,3.89,0,0,0-2.22.6,2.17,2.17,0,0,0-1,1.55l.16.13.92.12.2-.15a1.34,1.34,0,0,1,.63-.88,2.49,2.49,0,0,1,1.33-.31,2.05,2.05,0,0,1,1.51.5,1.89,1.89,0,0,1,.48,1.37v.65l-.07.07h-2a4,4,0,0,0-2.58.74,2.42,2.42,0,0,0-.93,2,2.19,2.19,0,0,0,.82,1.88,3.25,3.25,0,0,0,2,.61,4.11,4.11,0,0,0,1.52-.27,2.58,2.58,0,0,0,1.1-.77l.07,0,0,.06v.69l.17.17h.87l.17-.17V474.8a2.69,2.69,0,0,0-.84-2.07,3.27,3.27,0,0,0-2.36-.79m-8.58,8.89a3.78,3.78,0,0,0,2.16-.61,2.7,2.7,0,0,0,1.17-1.6l.07-.34-.15-.19-.84-.14-.2.14,0,.07v.06a1.8,1.8,0,0,1-.76,1.12,2.37,2.37,0,0,1-1.43.43,2.26,2.26,0,0,1-1.43-.45,2.07,2.07,0,0,1-.73-1.21,7.12,7.12,0,0,1-.16-1.74,7.21,7.21,0,0,1,.16-1.72,2.08,2.08,0,0,1,.73-1.2,2.26,2.26,0,0,1,1.43-.45,2.31,2.31,0,0,1,1.44.45,1.9,1.9,0,0,1,.75,1.1l.05.25.16.16h0l.85-.12.16-.16v0l-.11-.51a2.82,2.82,0,0,0-1.18-1.57,3.68,3.68,0,0,0-2.15-.63,3.47,3.47,0,0,0-2.11.64,3.16,3.16,0,0,0-1.2,1.69,8.78,8.78,0,0,0-.22,2.08,8.13,8.13,0,0,0,.22,2.11,3.22,3.22,0,0,0,1.2,1.73,3.47,3.47,0,0,0,2.11.64m-12.86-1a2.27,2.27,0,0,1-1.35-.38,1.32,1.32,0,0,1-.52-1.13,1.47,1.47,0,0,1,.68-1.28,3.18,3.18,0,0,1,1.81-.46h1.78l.07.07v1.33a1.57,1.57,0,0,1-.73,1.35,3,3,0,0,1-1.74.5m.48-7.85a3.84,3.84,0,0,0-2.21.6,2.18,2.18,0,0,0-1,1.55l.16.13.92.12.2-.15a1.34,1.34,0,0,1,.63-.88,2.52,2.52,0,0,1,1.33-.31,2.05,2.05,0,0,1,1.51.5,1.89,1.89,0,0,1,.48,1.37v.65l-.07.07h-2a4,4,0,0,0-2.58.74,2.42,2.42,0,0,0-.93,2,2.19,2.19,0,0,0,.82,1.88,3.25,3.25,0,0,0,2,.61,4.07,4.07,0,0,0,1.52-.27,2.68,2.68,0,0,0,1.11-.77l.06,0,0,.06v.69l.17.17h.87l.17-.17V474.8a2.72,2.72,0,0,0-.83-2.07,3.31,3.31,0,0,0-2.37-.79m-5.67.05a2.34,2.34,0,0,0-1.28.35,2.72,2.72,0,0,0-.92,1l0,0,0-.06v-1l-.17-.17h-.87l-.17.17v8.27l.17.17h.87l.17-.17v-5a2.23,2.23,0,0,1,.57-1.57,2,2,0,0,1,1.47-.66l.22,0a1.69,1.69,0,0,1,.66.12l.23-.1.18-.83-.1-.23a2.1,2.1,0,0,0-1-.22m-9.67,7.8a2.23,2.23,0,0,1-1.35-.38,1.32,1.32,0,0,1-.52-1.13,1.45,1.45,0,0,1,.68-1.28,3.12,3.12,0,0,1,1.8-.46h1.79l.07.07v1.33a1.57,1.57,0,0,1-.73,1.35,3,3,0,0,1-1.74.5m.48-7.85a3.87,3.87,0,0,0-2.22.6,2.17,2.17,0,0,0-1,1.55l.16.13.91.12.21-.15a1.34,1.34,0,0,1,.63-.88,2.49,2.49,0,0,1,1.33-.31,2,2,0,0,1,1.5.5,1.85,1.85,0,0,1,.49,1.37v.65l-.07.07h-2a4,4,0,0,0-2.58.74,2.42,2.42,0,0,0-.93,2,2.19,2.19,0,0,0,.82,1.88,3.25,3.25,0,0,0,2,.61,4.11,4.11,0,0,0,1.52-.27,2.58,2.58,0,0,0,1.1-.77l.06,0,0,.06v.69l.17.17h.87l.17-.17V474.8a2.69,2.69,0,0,0-.84-2.07,3.27,3.27,0,0,0-2.36-.79m-7,6.59a1.85,1.85,0,0,1-.73.9,2,2,0,0,1-1.18.34,1.8,1.8,0,0,1-1.12-.35,2,2,0,0,1-.67-.92,3.24,3.24,0,0,1-.24-.83,10.26,10.26,0,0,1-.07-1.28,10.14,10.14,0,0,1,.07-1.28,3.31,3.31,0,0,1,.22-.8,2.1,2.1,0,0,1,.68-.95,1.82,1.82,0,0,1,1.15-.36,2.12,2.12,0,0,1,1.23.36,1.77,1.77,0,0,1,.72,1,2.42,2.42,0,0,1,.24.8,8.33,8.33,0,0,1,.07,1.26,6.33,6.33,0,0,1-.1,1.3,3.45,3.45,0,0,1-.27.84m1.34-4.31a3.06,3.06,0,0,0-1.12-1.66,3.18,3.18,0,0,0-2-.62,2.77,2.77,0,0,0-1.23.27,2.67,2.67,0,0,0-.93.77l-.06,0,0-.05v-.71l-.17-.17h-.87l-.17.17v11.58l.17.17h.87l.17-.17v-4l0-.05.06,0a2.38,2.38,0,0,0,.94.75,2.76,2.76,0,0,0,1.22.27,3.28,3.28,0,0,0,2-.62,3.17,3.17,0,0,0,1.11-1.71,7.7,7.7,0,0,0,.23-2.11,7.51,7.51,0,0,0-.26-2.17m102.71,7.13V470.9h3.94a9.06,9.06,0,0,1,1.59.1,3,3,0,0,1,1.29.49,2.48,2.48,0,0,1,.84,1,3.38,3.38,0,0,1-.53,3.68,4.11,4.11,0,0,1-3.07.92h-2.68v4.25Zm1.38-5.48h2.7a2.9,2.9,0,0,0,1.91-.5,1.79,1.79,0,0,0,.56-1.41,1.9,1.9,0,0,0-.33-1.12,1.56,1.56,0,0,0-.87-.62,6.17,6.17,0,0,0-1.29-.09h-2.68Zm13.16,5.48v-1.11a2.78,2.78,0,0,1-2.4,1.28,3.12,3.12,0,0,1-1.26-.25,2.19,2.19,0,0,1-.86-.65,2.33,2.33,0,0,1-.39-.95,5.85,5.85,0,0,1-.08-1.2v-4.69h1.28V478a7.57,7.57,0,0,0,.08,1.35,1.33,1.33,0,0,0,.51.8,1.62,1.62,0,0,0,1,.29,2.11,2.11,0,0,0,1.09-.3,1.67,1.67,0,0,0,.71-.8,4.08,4.08,0,0,0,.21-1.48v-4.06h1.29v7.57Zm3.16,0v-7.57h1.15v1.08a2.71,2.71,0,0,1,2.41-1.25,3.22,3.22,0,0,1,1.26.24,2,2,0,0,1,.86.65,2.48,2.48,0,0,1,.4.95,7.07,7.07,0,0,1,.07,1.24v4.66h-1.28v-4.61a3.45,3.45,0,0,0-.15-1.17,1.27,1.27,0,0,0-.53-.62,1.77,1.77,0,0,0-.9-.23,2.05,2.05,0,0,0-1.41.52,2.57,2.57,0,0,0-.6,2v4.13Zm10.92-1.15.19,1.14a5.24,5.24,0,0,1-1,.11,2.19,2.19,0,0,1-1.09-.22,1.31,1.31,0,0,1-.54-.58,4.74,4.74,0,0,1-.16-1.52v-4.35h-.94v-1h.94V471.9l1.28-.77v2.65h1.29v1h-1.29v4.43a2,2,0,0,0,.07.7.49.49,0,0,0,.22.25.88.88,0,0,0,.44.09A3.26,3.26,0,0,0,416.17,480.2Zm.78-2.63a3.89,3.89,0,0,1,1.17-3.12,3.51,3.51,0,0,1,2.38-.84,3.4,3.4,0,0,1,2.55,1,3.9,3.9,0,0,1,1,2.83,5.07,5.07,0,0,1-.43,2.3,3.14,3.14,0,0,1-1.28,1.3,3.71,3.71,0,0,1-1.83.46,3.4,3.4,0,0,1-2.57-1A4.08,4.08,0,0,1,417,477.57Zm1.32,0a3.23,3.23,0,0,0,.63,2.17,2.11,2.11,0,0,0,3.19,0,3.3,3.3,0,0,0,.64-2.22,3.19,3.19,0,0,0-.64-2.13,2.13,2.13,0,0,0-3.19,0A3.24,3.24,0,0,0,418.27,477.57Zm11.5,3.78V470.9h3.94a9.06,9.06,0,0,1,1.59.1,3,3,0,0,1,1.29.49,2.48,2.48,0,0,1,.84,1,3.38,3.38,0,0,1-.53,3.68,4.09,4.09,0,0,1-3.07.92h-2.68v4.25Zm1.38-5.48h2.71a2.88,2.88,0,0,0,1.9-.5,1.79,1.79,0,0,0,.56-1.41,1.9,1.9,0,0,0-.33-1.12,1.56,1.56,0,0,0-.87-.62,6.17,6.17,0,0,0-1.29-.09h-2.68Zm13.14,4.55a4.88,4.88,0,0,1-1.37.85,4,4,0,0,1-1.42.25,2.75,2.75,0,0,1-1.92-.61,2,2,0,0,1-.67-1.56,2.13,2.13,0,0,1,.25-1,2.08,2.08,0,0,1,.67-.74,3.36,3.36,0,0,1,.92-.42,8.24,8.24,0,0,1,1.14-.19,12.33,12.33,0,0,0,2.29-.44c0-.18,0-.29,0-.34a1.41,1.41,0,0,0-.37-1.11,2.12,2.12,0,0,0-1.46-.43A2.24,2.24,0,0,0,441,475a1.86,1.86,0,0,0-.64,1.12l-1.26-.17a3.06,3.06,0,0,1,.57-1.3,2.36,2.36,0,0,1,1.13-.76,5,5,0,0,1,1.72-.27,4.59,4.59,0,0,1,1.57.22,2.16,2.16,0,0,1,.9.58,1.94,1.94,0,0,1,.39.87,6.42,6.42,0,0,1,.07,1.19v1.71a19.26,19.26,0,0,0,.08,2.26,2.75,2.75,0,0,0,.32.91h-1.34A2.82,2.82,0,0,1,444.29,480.42Zm-.11-2.87a9.76,9.76,0,0,1-2.1.49,4.75,4.75,0,0,0-1.11.25,1.18,1.18,0,0,0-.51.42,1.09,1.09,0,0,0-.18.61,1.07,1.07,0,0,0,.39.85,1.67,1.67,0,0,0,1.14.35,2.64,2.64,0,0,0,1.32-.33,2,2,0,0,0,.84-.88,3.08,3.08,0,0,0,.21-1.29Zm3.23,6.72-.14-1.21a2.69,2.69,0,0,0,.73.12,1.36,1.36,0,0,0,.69-.15,1.12,1.12,0,0,0,.42-.39,6.55,6.55,0,0,0,.39-1c0-.07.06-.18.11-.31l-2.87-7.59h1.38l1.58,4.38c.2.56.39,1.15.55,1.76a16.51,16.51,0,0,1,.53-1.73l1.62-4.41h1.28l-2.88,7.7a16.35,16.35,0,0,1-.72,1.72,2.56,2.56,0,0,1-.79.93,1.8,1.8,0,0,1-1.05.29A2.71,2.71,0,0,1,447.41,484.27Z" style="fill:#4a4f54"/></g></g></svg>