<svg xmlns="http://www.w3.org/2000/svg" viewBox="0 0 486.91 539.96"><g id="Capa_2" data-name="Capa 2"><g id="Capa_1-2" data-name="Capa 1"><path d="M129,103.14a2.35,2.35,0,0,1-1.43-.41,1.39,1.39,0,0,1-.55-1.2,1.54,1.54,0,0,1,.72-1.35,3.32,3.32,0,0,1,1.91-.49h1.9l.07.07v1.41a1.67,1.67,0,0,1-.78,1.44,3.19,3.19,0,0,1-1.84.53m.51-8.32a4.14,4.14,0,0,0-2.35.63A2.35,2.35,0,0,0,126,97.09l.16.15,1,.12.21-.16a1.41,1.41,0,0,1,.67-.93,2.68,2.68,0,0,1,1.41-.33,2.13,2.13,0,0,1,1.6.53,2,2,0,0,1,.51,1.45v.69l-.07.07h-2.1a4.25,4.25,0,0,0-2.73.79,2.56,2.56,0,0,0-1,2.14,2.34,2.34,0,0,0,.86,2,3.52,3.52,0,0,0,2.15.65,4.35,4.35,0,0,0,1.61-.28,2.85,2.85,0,0,0,1.17-.82l.06,0,0,0v.74l.18.18h.92l.18-.18V97.85a2.87,2.87,0,0,0-.88-2.2,3.55,3.55,0,0,0-2.51-.83m-5.63,1v-.71l-.18-.18h-2l-.07-.07V92.8l-.18-.18h-.89l-.18.18v2.09l-.07.07h-1.1l-.18.18v.71l.18.18h1.1l.07.07v5.72a2.07,2.07,0,0,0,.67,1.8,3.26,3.26,0,0,0,2,.49,5.77,5.77,0,0,0,.67,0l.18-.18v-.74l-.18-.18h-.45a1.76,1.76,0,0,1-1.22-.35,1.62,1.62,0,0,1-.38-1.22V96.1l.07-.07h2Zm-10.22.09a2.43,2.43,0,0,1,1.53.47,2.29,2.29,0,0,1,.8,1.29,7.51,7.51,0,0,1,.11,1.16l-.07.07h-4.68l-.07-.07a5.93,5.93,0,0,1,.14-1.23,2.18,2.18,0,0,1,.77-1.23,2.29,2.29,0,0,1,1.47-.46M117.25,98a3.8,3.8,0,0,0-1.1-2.35,4.11,4.11,0,0,0-4.77-.13,3.39,3.39,0,0,0-1.24,1.88,3.62,3.62,0,0,0-.13.86q0,.48,0,1.23a7.54,7.54,0,0,0,.32,2.49,3.24,3.24,0,0,0,1.25,1.66,3.83,3.83,0,0,0,2.14.62,4.24,4.24,0,0,0,2.08-.5,3.28,3.28,0,0,0,1.35-1.36l-.07-.26-.7-.41-.25.07a2.4,2.4,0,0,1-.91,1,2.53,2.53,0,0,1-1.33.34,2.76,2.76,0,0,1-1.66-.47,2.16,2.16,0,0,1-.85-1.28,7.28,7.28,0,0,1-.11-1.28l.07-.08h5.83l.18-.18v-.57a8.77,8.77,0,0,0-.07-1.26m-11,6.09h.92l.18-.18V91.64l-.18-.18h-.92l-.18.18v12.27Zm-4.48-2.29a2,2,0,0,1-.76,1,2.22,2.22,0,0,1-1.26.36,1.89,1.89,0,0,1-1.18-.37,2,2,0,0,1-.71-1,3.24,3.24,0,0,1-.26-.88,13.25,13.25,0,0,1,0-2.72,3.2,3.2,0,0,1,.24-.84,2.28,2.28,0,0,1,.72-1,1.88,1.88,0,0,1,1.21-.38,2.22,2.22,0,0,1,1.31.38,2,2,0,0,1,.77,1,3,3,0,0,1,.25.85,9.21,9.21,0,0,1,.07,1.33,7.08,7.08,0,0,1-.1,1.38,3.33,3.33,0,0,1-.3.89m1.43-4.56a3.3,3.3,0,0,0-1.18-1.77,3.37,3.37,0,0,0-2.12-.65,3,3,0,0,0-1.31.29,2.77,2.77,0,0,0-1,.81l-.06,0,0,0v-.76L97.36,95h-.92l-.18.18v12.28l.18.18h.92l.18-.18v-4.25l0,0,.06,0a2.62,2.62,0,0,0,1,.81,3,3,0,0,0,1.3.28,3.42,3.42,0,0,0,2.15-.66,3.26,3.26,0,0,0,1.18-1.81,8.14,8.14,0,0,0,.24-2.24,7.92,7.92,0,0,0-.27-2.29m-12.78-2.4a3.51,3.51,0,0,0-1.64.37,2.55,2.55,0,0,0-1.12,1.11H87.6a2.48,2.48,0,0,0-1-1.11A3.25,3.25,0,0,0,85,94.84a3.46,3.46,0,0,0-1.38.26,2.45,2.45,0,0,0-1,.78l-.06,0,0,0v-.73L82.31,95h-.92l-.18.18v8.77l.18.18h.92l.18-.18V98.08a2.13,2.13,0,0,1,.57-1.55A2.07,2.07,0,0,1,84.59,96a2,2,0,0,1,1.49.58,2.17,2.17,0,0,1,.56,1.58v5.79l.18.18h.92l.18-.18V98.08A2,2,0,0,1,90.05,96a2,2,0,0,1,1.49.58,2.17,2.17,0,0,1,.57,1.58v5.79l.18.18h.9l.18-.18v-6a3.07,3.07,0,0,0-.78-2.22,2.84,2.84,0,0,0-2.14-.81m-15.59,8.28a2.45,2.45,0,0,1-1.53-.48,2.26,2.26,0,0,1-.82-1.29,9.22,9.22,0,0,1-.14-1.82,9.33,9.33,0,0,1,.14-1.83,2.38,2.38,0,0,1,.83-1.29,2.42,2.42,0,0,1,1.5-.47,2.47,2.47,0,0,1,1.51.47,2.4,2.4,0,0,1,.84,1.29,9.33,9.33,0,0,1,.14,1.83,7.81,7.81,0,0,1-.16,1.82,2.38,2.38,0,0,1-.83,1.29,2.33,2.33,0,0,1-1.48.48m0,1.12a3.7,3.7,0,0,0,2.23-.67,3.34,3.34,0,0,0,1.27-1.84,7.43,7.43,0,0,0,.25-2.22,7.52,7.52,0,0,0-.25-2.22,3.31,3.31,0,0,0-1.27-1.8,3.66,3.66,0,0,0-2.21-.67,3.82,3.82,0,0,0-2.28.67,3.34,3.34,0,0,0-1.28,1.82,7.64,7.64,0,0,0-.25,2.2,7.79,7.79,0,0,0,.25,2.22,3.38,3.38,0,0,0,1.3,1.84,3.74,3.74,0,0,0,2.24.67m-10.32,0a4.9,4.9,0,0,0,2.22-.49,3.74,3.74,0,0,0,1.49-1.38,4,4,0,0,0,.53-2.07l-.18-.16-.92,0-.19.16v0a2.65,2.65,0,0,1-.81,2,3.36,3.36,0,0,1-4.29,0,2.67,2.67,0,0,1-.81-2v-5a2.7,2.7,0,0,1,.81-2,3.39,3.39,0,0,1,4.29,0,2.68,2.68,0,0,1,.81,2v.06l.19.16.92-.06.12,0,.06-.15a3.91,3.91,0,0,0-.53-2,3.74,3.74,0,0,0-1.49-1.38,4.9,4.9,0,0,0-2.22-.48,4.72,4.72,0,0,0-2.22.49,3.6,3.6,0,0,0-1.49,1.4,4,4,0,0,0-.53,2.08v5a4,4,0,0,0,.53,2.1,3.56,3.56,0,0,0,1.49,1.41,4.72,4.72,0,0,0,2.22.5m-14.28-1.12a2.33,2.33,0,0,1-1.43-.41,1.39,1.39,0,0,1-.55-1.2,1.54,1.54,0,0,1,.72-1.35,3.32,3.32,0,0,1,1.91-.49h1.9l.07.07v1.41a1.67,1.67,0,0,1-.78,1.44,3.21,3.21,0,0,1-1.84.53m.51-8.32a4.14,4.14,0,0,0-2.35.63,2.29,2.29,0,0,0-1.08,1.64l.16.15,1,.12.22-.16a1.38,1.38,0,0,1,.67-.93,2.68,2.68,0,0,1,1.41-.33,2.09,2.09,0,0,1,1.59.53,2,2,0,0,1,.52,1.45v.69l-.07.07h-2.1a4.21,4.21,0,0,0-2.73.79,2.57,2.57,0,0,0-1,2.14,2.32,2.32,0,0,0,.87,2,3.5,3.5,0,0,0,2.15.65,4.39,4.39,0,0,0,1.61-.28,2.92,2.92,0,0,0,1.17-.82l.06,0,0,0v.74l.18.18H54l.18-.18V97.85a2.88,2.88,0,0,0-.89-2.2,3.52,3.52,0,0,0-2.5-.83m-7.28,6.51a2.08,2.08,0,0,1-.71,1.25,2.17,2.17,0,0,1-1.45.49,2.27,2.27,0,0,1-2.26-1.76,6.15,6.15,0,0,1-.18-1.82,6.51,6.51,0,0,1,.18-1.8,2.63,2.63,0,0,1,.82-1.27,2.21,2.21,0,0,1,1.44-.48,2.11,2.11,0,0,1,1.43.49,2.17,2.17,0,0,1,.72,1.26l.08.58c0,.21,0,.63,0,1.24s0,.89,0,1.16a3.82,3.82,0,0,1-.07.66m.09-6.19v.71l0,.05-.07,0a2.88,2.88,0,0,0-2.43-1.06,3.2,3.2,0,0,0-2,.66,3.31,3.31,0,0,0-1.17,1.74,4.49,4.49,0,0,0-.2,1c0,.36,0,.81,0,1.34a8.11,8.11,0,0,0,.22,2.2,3,3,0,0,0,1.22,1.79,3.55,3.55,0,0,0,2.08.63,2.8,2.8,0,0,0,2.36-1.08l.07,0,0,0v.67a2.65,2.65,0,0,1-.75,2.09,3.69,3.69,0,0,1-2.44.65H39.9l-.13,0-.05.14,0,.83.18.2.63,0a5,5,0,0,0,3.2-.94,3.57,3.57,0,0,0,1.16-3V95.14L44.68,95h-.92Zm-8.3-.27a2.48,2.48,0,0,0-1.36.37,3,3,0,0,0-1,1l0,0,0-.07v-1.1L32.7,95h-.92l-.18.18v8.77l.18.18h.92l.18-.18V98.59a2.4,2.4,0,0,1,.61-1.67,2.19,2.19,0,0,1,1.56-.7h.23a1.76,1.76,0,0,1,.71.13l.23-.12.2-.88-.11-.23a2.09,2.09,0,0,0-1-.24M25,103.14a2.33,2.33,0,0,1-1.43-.41,1.39,1.39,0,0,1-.55-1.2,1.54,1.54,0,0,1,.72-1.35,3.32,3.32,0,0,1,1.91-.49h1.9l.07.07v1.41a1.67,1.67,0,0,1-.78,1.44,3.19,3.19,0,0,1-1.84.53m.51-8.32a4.14,4.14,0,0,0-2.35.63,2.32,2.32,0,0,0-1.08,1.64l.16.15,1,.12.22-.16a1.38,1.38,0,0,1,.67-.93,2.68,2.68,0,0,1,1.41-.33,2.09,2.09,0,0,1,1.59.53,2,2,0,0,1,.52,1.45v.69l-.07.07h-2.1a4.23,4.23,0,0,0-2.73.79,2.57,2.57,0,0,0-1,2.14,2.32,2.32,0,0,0,.87,2,3.5,3.5,0,0,0,2.15.65,4.3,4.3,0,0,0,1.6-.28,2.82,2.82,0,0,0,1.18-.82l.06,0,0,0v.74l.18.18h.92l.18-.18V97.85a2.88,2.88,0,0,0-.89-2.2,3.52,3.52,0,0,0-2.5-.83m-9.89,9.44a4.9,4.9,0,0,0,2.22-.49,3.74,3.74,0,0,0,1.49-1.38,4,4,0,0,0,.53-2.07l-.18-.16-.92,0-.18.16v0a2.68,2.68,0,0,1-.81,2,3,3,0,0,1-2.15.77,3,3,0,0,1-2.15-.78,2.67,2.67,0,0,1-.81-2v-5a2.7,2.7,0,0,1,.81-2,3,3,0,0,1,2.15-.77,3,3,0,0,1,2.15.76,2.71,2.71,0,0,1,.81,2v.06l.18.16.92-.06.12,0,.06-.15a3.91,3.91,0,0,0-.53-2,3.74,3.74,0,0,0-1.49-1.38,4.9,4.9,0,0,0-2.22-.48,4.75,4.75,0,0,0-2.22.49,3.6,3.6,0,0,0-1.49,1.4,4,4,0,0,0-.53,2.08v5a4,4,0,0,0,.53,2.1,3.56,3.56,0,0,0,1.49,1.41,4.75,4.75,0,0,0,2.22.5" style="fill:#4a4f54"/><path d="M184.1,127.21a2.36,2.36,0,0,1,1.52.48,2.29,2.29,0,0,1,.8,1.29,7.23,7.23,0,0,1,.11,1.16l-.07.07h-4.67l-.08-.07a6.31,6.31,0,0,1,.15-1.23,2.1,2.1,0,0,1,.77-1.24,2.35,2.35,0,0,1,1.47-.46m3.62,2.06a3.85,3.85,0,0,0-1.1-2.35,3.56,3.56,0,0,0-2.52-.83,3.62,3.62,0,0,0-2.25.71,3.36,3.36,0,0,0-1.24,1.88,4.11,4.11,0,0,0-.13.85c0,.32,0,.73,0,1.24a7.32,7.32,0,0,0,.33,2.49,3.26,3.26,0,0,0,1.24,1.66,3.86,3.86,0,0,0,2.15.61,4.22,4.22,0,0,0,2.07-.49,3.21,3.21,0,0,0,1.36-1.37l-.07-.25-.71-.41-.25.07a2.41,2.41,0,0,1-.9,1,2.57,2.57,0,0,1-1.34.35,2.79,2.79,0,0,1-1.66-.47,2.23,2.23,0,0,1-.85-1.29,10.15,10.15,0,0,1-.11-1.28l.08-.07h5.83l.18-.18v-.58a8.78,8.78,0,0,0-.08-1.26m-9.79-3.12a2.49,2.49,0,0,0-1.37.37,2.77,2.77,0,0,0-1,1l0,0,0-.06v-1.1l-.18-.18h-.92l-.18.18v8.77l.18.18h.92l.18-.18v-5.32a2.33,2.33,0,0,1,.62-1.67,2.16,2.16,0,0,1,1.55-.7l.24,0a1.94,1.94,0,0,1,.7.13l.23-.11.2-.88-.11-.24a2.19,2.19,0,0,0-1-.23m-10.26,8.26a2.35,2.35,0,0,1-1.43-.4,1.39,1.39,0,0,1-.55-1.2,1.56,1.56,0,0,1,.72-1.36,3.4,3.4,0,0,1,1.91-.48h1.9l.07.07v1.41a1.66,1.66,0,0,1-.77,1.43,3.17,3.17,0,0,1-1.85.53m.51-8.32a4.22,4.22,0,0,0-2.35.63,2.37,2.37,0,0,0-1.08,1.65l.16.14,1,.13.21-.16a1.41,1.41,0,0,1,.67-.93,2.58,2.58,0,0,1,1.41-.34,2.17,2.17,0,0,1,1.6.53,2,2,0,0,1,.51,1.46v.68l-.07.08h-2.1a4.3,4.3,0,0,0-2.73.78,2.6,2.6,0,0,0-1,2.14,2.32,2.32,0,0,0,.86,2,3.46,3.46,0,0,0,2.15.65,4.35,4.35,0,0,0,1.61-.28,2.68,2.68,0,0,0,1.17-.82h.06l0,0v.74l.18.18h.92l.18-.18v-6.06a2.89,2.89,0,0,0-.88-2.21,3.55,3.55,0,0,0-2.51-.83m-14.08,9.28h1l.2-.14,1.91-6.75,0,0,.05,0,2,6.75.19.14h1l.2-.14,2.6-8.78,0-.14-.13,0-.94,0-.2.16-2,7.09-.05,0-.06,0-2-7.11-.2-.14h-.87l-.2.16-2,7.11,0,0,0,0-1.91-7.11-.2-.16h-.94l-.18.14,0,.06,2.56,8.79Zm-7.41-9.26a3.64,3.64,0,0,0-1.65.37,2.66,2.66,0,0,0-1.12,1.11h-.08a2.47,2.47,0,0,0-1-1.1,3.21,3.21,0,0,0-1.6-.38,3.57,3.57,0,0,0-1.38.26,2.43,2.43,0,0,0-1,.79l-.07,0,0,0v-.72l-.18-.18h-.92l-.18.18v8.77l.18.18h.92l.18-.18v-5.83a2.1,2.1,0,0,1,.57-1.55,2,2,0,0,1,1.52-.58,2,2,0,0,1,1.5.59,2.21,2.21,0,0,1,.56,1.58v5.79l.18.18H144l.18-.18v-5.83a2,2,0,0,1,2.13-2.13,2,2,0,0,1,1.49.59,2.17,2.17,0,0,1,.57,1.58v5.79l.18.18h.9l.18-.18v-6.05a3.06,3.06,0,0,0-.79-2.22,2.82,2.82,0,0,0-2.13-.81m-12.13,0a2.45,2.45,0,0,0-1.36.37,2.79,2.79,0,0,0-1,1l0,0,0-.06v-1.1l-.18-.18h-.92l-.18.18v8.77l.18.18H132l.18-.18v-5.32a2.32,2.32,0,0,1,.61-1.67,2.18,2.18,0,0,1,1.55-.7l.24,0a1.9,1.9,0,0,1,.7.13l.24-.11.2-.88-.11-.24a2.21,2.21,0,0,0-1-.23m-7.92,9.2h.91l.19-.18V126.4l-.19-.18h-.91l-.18.18v8.77Zm.5-10.77a1,1,0,0,0,.72-.29,1.05,1.05,0,0,0,0-1.45,1,1,0,1,0-.72,1.74m-2.71-.9v-.76l-.18-.18h-7.79l-.18.18v12.27l.18.18h.92l.18-.18v-5.54l.07-.07h4.64l.18-.18v-.76l-.18-.18h-4.64l-.07-.08v-4.45l.07-.07h6.62ZM106.06,134.4a2.4,2.4,0,0,1-1.52-.48,2.21,2.21,0,0,1-.82-1.29,11.18,11.18,0,0,1,0-3.65,2.33,2.33,0,0,1,.83-1.29,2.58,2.58,0,0,1,3,0,2.29,2.29,0,0,1,.84,1.29,8.39,8.39,0,0,1,.15,1.82,7.81,7.81,0,0,1-.17,1.83,2.3,2.3,0,0,1-2.31,1.77m0,1.11a3.75,3.75,0,0,0,2.23-.66,3.37,3.37,0,0,0,1.27-1.84,7.37,7.37,0,0,0,.26-2.22,7.49,7.49,0,0,0-.26-2.23,3.38,3.38,0,0,0-1.27-1.8,3.71,3.71,0,0,0-2.21-.67,3.83,3.83,0,0,0-2.27.67,3.27,3.27,0,0,0-1.28,1.82,7.67,7.67,0,0,0-.26,2.21,7.84,7.84,0,0,0,.26,2.22,3.46,3.46,0,0,0,1.29,1.84,3.82,3.82,0,0,0,2.24.66m-8-2.5a2.25,2.25,0,0,1-.72,1,1.89,1.89,0,0,1-1.21.39,2.21,2.21,0,0,1-1.31-.39,2,2,0,0,1-.77-1,3.2,3.2,0,0,1-.25-.86,9.21,9.21,0,0,1-.07-1.33,7.15,7.15,0,0,1,.1-1.38,3.12,3.12,0,0,1,.31-.89,2.06,2.06,0,0,1,.76-1,2.14,2.14,0,0,1,1.25-.36,2,2,0,0,1,1.18.37,2.06,2.06,0,0,1,.71,1,3.24,3.24,0,0,1,.25.88,13.25,13.25,0,0,1,0,2.72,3.29,3.29,0,0,1-.23.85m.32-10.09v4.24l0,0-.06,0a2.61,2.61,0,0,0-1-.81,3.13,3.13,0,0,0-1.3-.28,3.26,3.26,0,0,0-3.34,2.47,8.83,8.83,0,0,0-.22,2.24,8.07,8.07,0,0,0,.26,2.3,3.26,3.26,0,0,0,1.18,1.76,3.37,3.37,0,0,0,2.12.65,3,3,0,0,0,1.31-.28,2.78,2.78,0,0,0,1-.82l.06,0,0,0v.76l.18.18h.92l.18-.18V122.92l-.18-.18h-.92Zm-11.47,3.19a2.8,2.8,0,0,0-2.44,1.12l0,0,0-.06v-.77l-.18-.18h-.92l-.18.18v8.77l.18.18h.92l.18-.18v-5.74a2.18,2.18,0,0,1,.61-1.61,2.2,2.2,0,0,1,1.61-.61,2.09,2.09,0,0,1,1.56.63,2.26,2.26,0,0,1,.6,1.63v5.7l.18.18h.92l.18-.18v-6a3.05,3.05,0,0,0-.85-2.27,3.13,3.13,0,0,0-2.3-.85m-10.36,8.3a2.36,2.36,0,0,1-1.44-.4,1.39,1.39,0,0,1-.55-1.2,1.56,1.56,0,0,1,.72-1.36,3.41,3.41,0,0,1,1.92-.48H79.1l.07.07v1.41a1.66,1.66,0,0,1-.77,1.43,3.16,3.16,0,0,1-1.84.53m.5-8.32a4.16,4.16,0,0,0-2.34.63,2.35,2.35,0,0,0-1.09,1.65l.16.14,1,.13.22-.16a1.37,1.37,0,0,1,.66-.93,2.61,2.61,0,0,1,1.41-.34,2.16,2.16,0,0,1,1.6.53,2,2,0,0,1,.51,1.46v.68l-.07.08H77a4.32,4.32,0,0,0-2.74.78,2.6,2.6,0,0,0-1,2.14,2.3,2.3,0,0,0,.87,2,3.41,3.41,0,0,0,2.14.65,4.35,4.35,0,0,0,1.61-.28,2.68,2.68,0,0,0,1.17-.82h.07l0,0v.74l.18.18h.92l.18-.18v-6.06a2.89,2.89,0,0,0-.88-2.21,3.55,3.55,0,0,0-2.51-.83m-11.84,9.28h6.41l.18-.18v-.81l-.18-.18h-5l0,0,0-.06,5.18-6.61.07-.22v-.86l-.18-.18H65.29l-.18.18v.81l.18.18H70.2l.06,0,0,.06-5.13,6.61-.07.21v.87Zm-3.59,0h.92l.18-.18V126.4l-.18-.18h-.92l-.18.18v8.77Zm.51-10.77a1,1,0,0,0,.72-.29,1,1,0,0,0-.72-1.73,1,1,0,0,0-.73.28,1.08,1.08,0,0,0,0,1.45,1,1,0,0,0,.73.29M57.3,135.37h.92l.18-.18V122.92l-.18-.18H57.3l-.18.18v12.27Zm-6.75-1a2.33,2.33,0,0,1-1.43-.4,1.39,1.39,0,0,1-.56-1.2,1.57,1.57,0,0,1,.73-1.36A3.4,3.4,0,0,1,51.2,131h1.89l.08.07v1.41a1.64,1.64,0,0,1-.78,1.43,3.14,3.14,0,0,1-1.84.53m.51-8.32a4.19,4.19,0,0,0-2.35.63,2.31,2.31,0,0,0-1.08,1.65l.16.14,1,.13.22-.16a1.38,1.38,0,0,1,.67-.93,2.58,2.58,0,0,1,1.41-.34,2.13,2.13,0,0,1,1.59.53,2,2,0,0,1,.52,1.46v.68l-.08.08H51a4.27,4.27,0,0,0-2.73.78,2.58,2.58,0,0,0-1,2.14,2.3,2.3,0,0,0,.87,2,3.44,3.44,0,0,0,2.15.65,4.3,4.3,0,0,0,1.6-.28,2.71,2.71,0,0,0,1.18-.82h.06l0,0v.74l.18.18h.92l.18-.18v-6.06a2.9,2.9,0,0,0-.89-2.21,3.52,3.52,0,0,0-2.5-.83m-7.31.33v5.72a2.11,2.11,0,0,1-2.24,2.24,2,2,0,0,1-1.57-.61,2.23,2.23,0,0,1-.58-1.63v-5.72l-.18-.18h-.92l-.18.18v6.1a2.94,2.94,0,0,0,.42,1.6,2.73,2.73,0,0,0,1.16,1,3.56,3.56,0,0,0,1.59.35,2.72,2.72,0,0,0,2.41-1.11l.05,0,0,0v.78l.18.18h.92l.18-.18v-8.77l-.18-.18h-.92Zm-8,.7v-.7l-.18-.18h-2l-.07-.07v-2.1l-.18-.18h-.89l-.18.18v2.1l-.07.07H31l-.18.18v.7l.18.18h1.1l.07.07v5.73a2.11,2.11,0,0,0,.67,1.8,3.29,3.29,0,0,0,2,.49l.67,0,.18-.18v-.74l-.18-.18h-.45a1.8,1.8,0,0,1-1.22-.35,1.59,1.59,0,0,1-.39-1.22v-5.33l.07-.07h2Zm-10,8.39a4,4,0,0,0,2.29-.65,2.82,2.82,0,0,0,1.24-1.69l.08-.36-.17-.2-.88-.15-.22.15,0,.07v.07a1.9,1.9,0,0,1-.8,1.19,2.58,2.58,0,0,1-1.52.46,2.35,2.35,0,0,1-1.51-.48,2.22,2.22,0,0,1-.79-1.29,8.61,8.61,0,0,1-.16-1.84,8.84,8.84,0,0,1,.16-1.83,2.2,2.2,0,0,1,.79-1.27,2.35,2.35,0,0,1,1.51-.48,2.45,2.45,0,0,1,1.53.48,2,2,0,0,1,.79,1.16l.06.28.16.16h0l.9-.13.16-.16v0a3,3,0,0,0-1.36-2.2,3.93,3.93,0,0,0-2.28-.67,3.74,3.74,0,0,0-2.24.68,3.23,3.23,0,0,0-1.26,1.79,8.78,8.78,0,0,0-.24,2.21,8.14,8.14,0,0,0,.24,2.24,3.38,3.38,0,0,0,1.27,1.83,3.68,3.68,0,0,0,2.23.67m-12.55-3.75,2.35-7.36.06,0,.05,0L18,131.76v.06l-.07,0H13.25l-.07,0Zm6.12,3.61h1l.16-.13,0-.07-4-12.29-.22-.14H15l-.21.14-4,12.29.14.2h1l.22-.14.72-2.28.07,0h5.4l.07,0,.73,2.28Z" style="fill:#4a4f54"/><path d="M79.77,199.36a2.51,2.51,0,0,1-1.53-.47,2.31,2.31,0,0,1-.82-1.3,8.38,8.38,0,0,1-.14-1.82,8.51,8.51,0,0,1,.14-1.82,2.3,2.3,0,0,1,2.33-1.77A2.32,2.32,0,0,1,82.1,194a9.22,9.22,0,0,1,.14,1.82,7.81,7.81,0,0,1-.16,1.82,2.27,2.27,0,0,1-2.31,1.77m0,1.12a3.75,3.75,0,0,0,2.23-.66A3.36,3.36,0,0,0,83.27,198a7.34,7.34,0,0,0,.25-2.22,7.52,7.52,0,0,0-.25-2.22,3.38,3.38,0,0,0-1.27-1.8,3.66,3.66,0,0,0-2.21-.67,3.82,3.82,0,0,0-2.28.67,3.37,3.37,0,0,0-1.28,1.82,7.69,7.69,0,0,0-.25,2.2,7.79,7.79,0,0,0,.25,2.22,3.46,3.46,0,0,0,1.3,1.85,3.78,3.78,0,0,0,2.24.66m-8-2.51a2.09,2.09,0,0,1-.72,1,1.86,1.86,0,0,1-1.21.38,2.22,2.22,0,0,1-1.31-.38,2,2,0,0,1-.76-1,3.2,3.2,0,0,1-.26-.86,10.93,10.93,0,0,1-.07-1.33,8,8,0,0,1,.1-1.38,3,3,0,0,1,.32-.89,1.94,1.94,0,0,1,.76-1,2.11,2.11,0,0,1,1.24-.36,2,2,0,0,1,1.18.37,2.15,2.15,0,0,1,.72,1,3.64,3.64,0,0,1,.25.88,11.63,11.63,0,0,1,.07,1.36,11.18,11.18,0,0,1-.07,1.35,3.17,3.17,0,0,1-.24.85m.33-10.08v4.24l0,0-.06,0a2.85,2.85,0,0,0-1-.8,3.13,3.13,0,0,0-1.3-.28,3.44,3.44,0,0,0-2.15.66,3.28,3.28,0,0,0-1.19,1.81,8.34,8.34,0,0,0-.22,2.24,8,8,0,0,0,.25,2.29,3.26,3.26,0,0,0,1.19,1.77,3.35,3.35,0,0,0,2.12.65,2.83,2.83,0,0,0,2.29-1.1l.06,0,0,0v.76l.18.18h.92l.18-.18V187.89l-.18-.19h-.92Zm-11.48,3.19a2.76,2.76,0,0,0-2.43,1.12l0,0,0-.06v-.77l-.18-.18H57l-.18.18v8.77l.18.18h.92l.18-.18v-5.74a2.19,2.19,0,0,1,.62-1.61,2.14,2.14,0,0,1,1.6-.61,2.06,2.06,0,0,1,1.56.63,2.26,2.26,0,0,1,.61,1.62v5.71l.18.18h.92l.18-.18v-6a3.06,3.06,0,0,0-.86-2.27,3.11,3.11,0,0,0-2.3-.85m-10.36,8.3a2.33,2.33,0,0,1-1.43-.4,1.39,1.39,0,0,1-.55-1.21,1.56,1.56,0,0,1,.72-1.35,3.4,3.4,0,0,1,1.91-.49h1.9l.07.08v1.4a1.66,1.66,0,0,1-.78,1.44,3.21,3.21,0,0,1-1.84.53m.51-8.32a4.14,4.14,0,0,0-2.35.63,2.31,2.31,0,0,0-1.08,1.65l.16.14,1,.13.22-.16a1.42,1.42,0,0,1,.67-.94,2.68,2.68,0,0,1,1.41-.33,2.13,2.13,0,0,1,1.59.53,2,2,0,0,1,.52,1.46v.68l-.07.07h-2.1a4.27,4.27,0,0,0-2.73.79,2.58,2.58,0,0,0-1,2.14,2.3,2.3,0,0,0,.87,2,3.44,3.44,0,0,0,2.15.65,4.39,4.39,0,0,0,1.61-.28,2.82,2.82,0,0,0,1.17-.82l.06,0,0,.06v.74l.18.18H54l.18-.18V194.1a2.9,2.9,0,0,0-.89-2.21,3.52,3.52,0,0,0-2.5-.83m-7.28,6.52a2.06,2.06,0,0,1-.71,1.24,2.12,2.12,0,0,1-1.45.49,2.27,2.27,0,0,1-2.26-1.75,6.24,6.24,0,0,1-.18-1.82,6.64,6.64,0,0,1,.18-1.81,2.55,2.55,0,0,1,.82-1.26,2.17,2.17,0,0,1,1.44-.49,2.11,2.11,0,0,1,1.43.5,2.18,2.18,0,0,1,.72,1.25l.08.59c0,.21,0,.62,0,1.23s0,.9,0,1.16a3.83,3.83,0,0,1-.07.67m.09-6.19v.7l0,0h-.07a2.89,2.89,0,0,0-2.43-1.07,3.2,3.2,0,0,0-2,.66,3.31,3.31,0,0,0-1.17,1.74,4.59,4.59,0,0,0-.2,1c0,.36,0,.8,0,1.33a8.06,8.06,0,0,0,.22,2.2,3,3,0,0,0,1.22,1.79,3.55,3.55,0,0,0,2.08.63,2.8,2.8,0,0,0,2.36-1.08l.07,0,0,.05V200a2.63,2.63,0,0,1-.75,2.08,3.69,3.69,0,0,1-2.44.66l-.49,0-.13,0-.05.13,0,.83.18.2.63,0a4.94,4.94,0,0,0,3.2-.94,3.55,3.55,0,0,0,1.16-3v-8.64l-.18-.18h-.92Zm-8.3-.27a2.48,2.48,0,0,0-1.36.37,2.92,2.92,0,0,0-1,1l0,0,0-.06v-1.1l-.18-.18h-.92l-.18.18v8.77l.18.18h.92l.18-.18v-5.33a2.4,2.4,0,0,1,.61-1.67,2.22,2.22,0,0,1,1.56-.69l.23,0a2,2,0,0,1,.71.13l.23-.11.2-.88-.11-.24a2.21,2.21,0,0,0-1-.23M25,199.38a2.33,2.33,0,0,1-1.43-.4,1.39,1.39,0,0,1-.55-1.21,1.56,1.56,0,0,1,.72-1.35,3.4,3.4,0,0,1,1.91-.49h1.9l.07.08v1.4a1.66,1.66,0,0,1-.78,1.44,3.19,3.19,0,0,1-1.84.53m.51-8.32a4.14,4.14,0,0,0-2.35.63,2.34,2.34,0,0,0-1.08,1.65l.16.14,1,.13.22-.16a1.42,1.42,0,0,1,.67-.94,2.68,2.68,0,0,1,1.41-.33,2.13,2.13,0,0,1,1.59.53,2,2,0,0,1,.52,1.46v.68l-.07.07h-2.1a4.29,4.29,0,0,0-2.73.79,2.58,2.58,0,0,0-1,2.14,2.3,2.3,0,0,0,.87,2,3.44,3.44,0,0,0,2.15.65,4.3,4.3,0,0,0,1.6-.28,2.73,2.73,0,0,0,1.18-.82l.06,0,0,.06v.74l.18.18h.92l.18-.18V194.1a2.9,2.9,0,0,0-.89-2.21,3.52,3.52,0,0,0-2.5-.83m-9.89,9.44a4.78,4.78,0,0,0,2.22-.49,3.61,3.61,0,0,0,1.49-1.38,4,4,0,0,0,.53-2.06l-.18-.17-.92-.05-.18.16v0a2.7,2.7,0,0,1-.81,2,3,3,0,0,1-2.15.76,3,3,0,0,1-2.15-.77,2.7,2.7,0,0,1-.81-2V191.5a2.67,2.67,0,0,1,.81-2,3,3,0,0,1,2.15-.78,3,3,0,0,1,2.15.77,2.68,2.68,0,0,1,.81,2.05v.05l.18.16.92-.05.12-.06.06-.14a3.92,3.92,0,0,0-.53-2,3.65,3.65,0,0,0-1.49-1.37,4.78,4.78,0,0,0-2.22-.49,4.75,4.75,0,0,0-2.22.5,3.54,3.54,0,0,0-1.49,1.4,3.94,3.94,0,0,0-.53,2.07v5a4.06,4.06,0,0,0,.53,2.11A3.69,3.69,0,0,0,13.43,200a4.87,4.87,0,0,0,2.22.49" style="fill:#4a4f54"/><path d="M179.31,62.59a5.64,5.64,0,0,1-1.07,2,5,5,0,0,1-1.75,1.3,5.87,5.87,0,0,1-2.4.47h-3.37V54h3.37a5.71,5.71,0,0,1,2.36.46,5,5,0,0,1,1.76,1.26,5.41,5.41,0,0,1,1.09,1.94,7.8,7.8,0,0,1,.37,2.47,8,8,0,0,1-.36,2.46m-5.22,6.11a9.17,9.17,0,0,0,3.44-.61,7.46,7.46,0,0,0,2.63-1.74,7.75,7.75,0,0,0,1.67-2.69,10.7,10.7,0,0,0,.06-6.83,7.71,7.71,0,0,0-1.58-2.71,7.45,7.45,0,0,0-2.6-1.83,9,9,0,0,0-3.62-.67H168V68.7Zm-17.88-2.38V61.1h7.63V58.86h-7.63V54H165V51.62h-11.5V68.7h11.72V66.32Zm-4.88,2.38V66.32h-9.17V51.62h-2.69V68.7Zm-21.81-.81A3.4,3.4,0,0,0,130.88,65a3,3,0,0,0-.29-1.36,2.84,2.84,0,0,0-.89-1,6.06,6.06,0,0,0-1.53-.74c-.62-.21-1.35-.41-2.2-.62-.52-.13-1-.25-1.29-.35a3.37,3.37,0,0,1-.84-.35l-.47-.46a1.28,1.28,0,0,1-.15-.65,1.44,1.44,0,0,1,.69-1.33,3.2,3.2,0,0,1,1.7-.42,5.92,5.92,0,0,1,3.73,1.39l1.13-1.59a7.09,7.09,0,0,0-2.19-1.25,7.88,7.88,0,0,0-2.65-.43,6.91,6.91,0,0,0-1.92.26,4.59,4.59,0,0,0-1.56.79,3.6,3.6,0,0,0-1,1.26,3.77,3.77,0,0,0-.37,1.71,2.87,2.87,0,0,0,.24,1.23,2.37,2.37,0,0,0,.77.89,5.14,5.14,0,0,0,1.37.67c.56.19,1.23.39,2,.6a16.07,16.07,0,0,1,2.41.79,1.22,1.22,0,0,1,.77,1.16,1.48,1.48,0,0,1-.69,1.3,3.38,3.38,0,0,1-1.87.46,6.33,6.33,0,0,1-2.26-.42,10.18,10.18,0,0,1-2.23-1.24L120.22,67a7.65,7.65,0,0,0,2.58,1.41,9.59,9.59,0,0,0,3,.49,5.92,5.92,0,0,0,3.7-1m-20.66-6.43a4.42,4.42,0,0,1,.38-1.47,3.7,3.7,0,0,1,.82-1.14,3.75,3.75,0,0,1,1.17-.74,3.88,3.88,0,0,1,1.41-.26,4,4,0,0,1,1.42.26,3.8,3.8,0,0,1,1.18.74,3.9,3.9,0,0,1,.83,1.14,4.43,4.43,0,0,1,.39,1.47ZM116.14,68a5.25,5.25,0,0,0,2.15-2.32L116,65.07a3,3,0,0,1-.53.79,3.55,3.55,0,0,1-.77.62,4.06,4.06,0,0,1-2,.51,3.8,3.8,0,0,1-1.38-.26,3.68,3.68,0,0,1-1.18-.76,3.8,3.8,0,0,1-.84-1.17,4.26,4.26,0,0,1-.4-1.51H119l0-.42,0-.55a6.73,6.73,0,0,0-.45-2.44,6,6,0,0,0-1.29-2,6.26,6.26,0,0,0-2-1.41,6.51,6.51,0,0,0-2.66-.53,6.62,6.62,0,0,0-2.69.52,6,6,0,0,0-2.06,1.42,6.6,6.6,0,0,0-1.33,2.09,7.08,7.08,0,0,0,0,5A6.62,6.62,0,0,0,107.91,67a6.11,6.11,0,0,0,2.06,1.4,6.59,6.59,0,0,0,2.67.52,6.7,6.7,0,0,0,3.5-.9M105.63,56l-.27,0H105a4.07,4.07,0,0,0-2.25.85,5.85,5.85,0,0,0-1.7,2.08V56.12H98.56V68.7h2.65V61a3.71,3.71,0,0,1,1.69-1.89,6,6,0,0,1,2.73-.71ZM86.28,60.77a4.69,4.69,0,0,1,.8-1.36,3.89,3.89,0,0,1,1.19-.91,3.2,3.2,0,0,1,1.46-.34,3.38,3.38,0,0,1,1.48.33,3.48,3.48,0,0,1,1.19.9,4.16,4.16,0,0,1,.79,1.36,4.62,4.62,0,0,1,.29,1.67,4.56,4.56,0,0,1-.29,1.68,4.11,4.11,0,0,1-.79,1.35,3.48,3.48,0,0,1-1.19.9,3.48,3.48,0,0,1-3,0,3.58,3.58,0,0,1-1.19-.89,4.21,4.21,0,0,1-.8-1.33A4.83,4.83,0,0,1,86,62.44a4.42,4.42,0,0,1,.3-1.67m6.11,7.64a6.29,6.29,0,0,0,2-1.42,6,6,0,0,0,1.31-2.08,7,7,0,0,0,0-5,6.07,6.07,0,0,0-1.31-2.08,6.29,6.29,0,0,0-2-1.42,6.94,6.94,0,0,0-5.32,0,6.33,6.33,0,0,0-2,1.42,6.23,6.23,0,0,0-1.31,2.08,7.11,7.11,0,0,0,0,5A6.26,6.26,0,0,0,85,67a6.08,6.08,0,0,0,2,1.42,7,7,0,0,0,5.34,0M73,66.34a4,4,0,0,1-1.21-.91,4.42,4.42,0,0,1-1.13-3A4.73,4.73,0,0,1,71,60.86a5,5,0,0,1,.76-1.38,3.75,3.75,0,0,1,1.14-1,3,3,0,0,1,1.46-.36,3.78,3.78,0,0,1,1.14.19,4.05,4.05,0,0,1,1.07.56,4.63,4.63,0,0,1,.91.86,4.29,4.29,0,0,1,.61,1.11v3.3a2.91,2.91,0,0,1-.49,1,3.94,3.94,0,0,1-.83.8,4.57,4.57,0,0,1-1.06.53,3.91,3.91,0,0,1-1.16.19A3.25,3.25,0,0,1,73,66.34m3.5,1.93a5,5,0,0,0,1.9-1.86l0,.94a1.42,1.42,0,0,0,.56,1.06,2,2,0,0,0,1.29.41l.43,0,.66-.1V66.44a.78.78,0,0,1-.57-.22,1.07,1.07,0,0,1-.15-.65V51.14H78.06V58.5a5.39,5.39,0,0,0-1.81-1.87,5,5,0,0,0-2.67-.73,4.87,4.87,0,0,0-2.25.52,5.72,5.72,0,0,0-1.78,1.4,6.75,6.75,0,0,0-1.18,2.06A7.31,7.31,0,0,0,68,62.37a7.23,7.23,0,0,0,.45,2.57A6.5,6.5,0,0,0,69.64,67a5.85,5.85,0,0,0,1.87,1.4,5.64,5.64,0,0,0,5-.15M57.46,66.35a2,2,0,0,1-.7-1.57,1.87,1.87,0,0,1,.91-1.63A4.1,4.1,0,0,1,60,62.54a7.66,7.66,0,0,1,1.48.15,8.14,8.14,0,0,1,1.43.4v1.66a1.23,1.23,0,0,1-.51.92,3.05,3.05,0,0,1-1.33,1,4.65,4.65,0,0,1-1.82.35,2.53,2.53,0,0,1-1.78-.64m3.72,2a5.68,5.68,0,0,0,2.08-1.69l.07.79a1.71,1.71,0,0,0,.52,1,1.73,1.73,0,0,0,1.19.38l.54,0c.19,0,.41,0,.66-.1V66.44q-.69,0-.69-.87V61a4.89,4.89,0,0,0-1.45-3.8,5.77,5.77,0,0,0-4-1.32A8.92,8.92,0,0,0,55,57.54l.82,1.68a10,10,0,0,1,2-1.07,5.52,5.52,0,0,1,2-.37,3.15,3.15,0,0,1,2.29.78,3,3,0,0,1,.79,2.18v.86a9.3,9.3,0,0,0-1.56-.42A10.38,10.38,0,0,0,59.58,61a7.56,7.56,0,0,0-2.15.29,5.54,5.54,0,0,0-1.69.82,3.79,3.79,0,0,0-1.09,1.25A3.35,3.35,0,0,0,54.26,65a3.84,3.84,0,0,0,1.22,2.81,4,4,0,0,0,1.34.83,4.71,4.71,0,0,0,1.7.3,6.16,6.16,0,0,0,2.66-.59M41.38,64.9A6.36,6.36,0,0,0,42.7,67a6.19,6.19,0,0,0,2.06,1.43,6.59,6.59,0,0,0,2.67.53,6.49,6.49,0,0,0,3.46-.9A5.19,5.19,0,0,0,53,65.72L50.39,65a2.19,2.19,0,0,1-.45.67,3.21,3.21,0,0,1-.7.55,3.1,3.1,0,0,1-.87.38,3.65,3.65,0,0,1-1,.13A3.28,3.28,0,0,1,46,66.35a3.65,3.65,0,0,1-1.21-.9,4.27,4.27,0,0,1-.81-1.36,4.45,4.45,0,0,1-.3-1.69,4.87,4.87,0,0,1,.28-1.71,4.38,4.38,0,0,1,.8-1.34,3.55,3.55,0,0,1,1.19-.88,3.67,3.67,0,0,1,1.48-.31,3.36,3.36,0,0,1,1.71.45,3.23,3.23,0,0,1,1.22,1.24L52.89,59a5.45,5.45,0,0,0-2.11-2.28,6.29,6.29,0,0,0-3.35-.85,6.67,6.67,0,0,0-2.7.52,6.22,6.22,0,0,0-2.06,1.4,6.39,6.39,0,0,0-1.31,2.07,7,7,0,0,0-.45,2.51,6.58,6.58,0,0,0,.47,2.5M38.55,51.14H35.9v2.91h2.65Zm0,5H35.9V68.7h2.65ZM24.87,66.34a4,4,0,0,1-1.22-.91,4.42,4.42,0,0,1-1.13-3,4.87,4.87,0,0,1,1-3,3.75,3.75,0,0,1,1.14-1,3,3,0,0,1,1.46-.36,3.78,3.78,0,0,1,1.14.19,4.39,4.39,0,0,1,1.07.56,4.31,4.31,0,0,1,.9.86,4,4,0,0,1,.62,1.11v3.3a2.94,2.94,0,0,1-.5,1,3.71,3.71,0,0,1-.83.8,4.21,4.21,0,0,1-1.06.53,3.85,3.85,0,0,1-1.15.19,3.25,3.25,0,0,1-1.48-.34m3.5,1.93a5.06,5.06,0,0,0,1.9-1.86l.05.94a1.44,1.44,0,0,0,.55,1.06,2,2,0,0,0,1.3.41l.42,0,.66-.1V66.44a.75.75,0,0,1-.56-.22,1,1,0,0,1-.16-.65V51.14H29.89V58.5a5.48,5.48,0,0,0-1.81-1.87,5,5,0,0,0-2.67-.73,4.84,4.84,0,0,0-2.25.52,5.61,5.61,0,0,0-1.78,1.4,6.55,6.55,0,0,0-1.18,2.06,7.31,7.31,0,0,0-.42,2.49,7.46,7.46,0,0,0,.44,2.57A6.68,6.68,0,0,0,21.46,67a5.89,5.89,0,0,0,1.88,1.4,5.64,5.64,0,0,0,5-.15M17.49,61a10.29,10.29,0,0,0-.17-2,5.08,5.08,0,0,0-.58-1.63,3.09,3.09,0,0,0-1.15-1.12,3.75,3.75,0,0,0-1.85-.41,6.4,6.4,0,0,0-3,.73,5.16,5.16,0,0,0-2.1,2V56.12H6.21V68.7H8.86V61.22A4,4,0,0,1,9.47,60a4.47,4.47,0,0,1,.9-.94,4.19,4.19,0,0,1,1.08-.62,3.39,3.39,0,0,1,1.16-.21,1.92,1.92,0,0,1,1.67.8,4.58,4.58,0,0,1,.57,2.59V68.7h2.64Zm-14.8-9.4H0V68.7H2.69Z" style="fill:#ff5100"/><line x1="143.37" y1="99.06" x2="288.42" y2="99.06" style="fill:none;stroke:#0081c9;stroke-miterlimit:10"/><line x1="193.91" y1="130.88" x2="288.42" y2="130.88" style="fill:none;stroke:#ffd200;stroke-miterlimit:10"/><line x1="92.64" y1="197.65" x2="288.42" y2="197.65" style="fill:none;stroke:#ee4e21;stroke-miterlimit:10"/><path d="M486.85,540V29.64H356.07v200.3a24.77,24.77,0,0,1-24.69,24.7H306V540Z" style="fill:#f2d509"/><path d="M368.1,229.94V29.64H340.91A23,23,0,0,0,318,52.52V254.64h25.38a24.77,24.77,0,0,0,24.69-24.7" style="fill:#e2c70d"/><path d="M350.39,169.69H331.81a.52.52,0,0,1-.52-.52V161a.53.53,0,0,1,.52-.53h18.58a.53.53,0,0,1,.52.53v8.17a.52.52,0,0,1-.52.52" style="fill:#4fb549"/><path d="M350.39,104.12H331.81a.53.53,0,0,1-.52-.52V95.43a.53.53,0,0,1,.52-.53h18.58a.53.53,0,0,1,.52.53v8.17a.53.53,0,0,1-.52.52" style="fill:#0081c9"/><path d="M350.39,136.91H331.81a.53.53,0,0,1-.52-.53v-8.17a.53.53,0,0,1,.52-.52h18.58a.53.53,0,0,1,.52.52v8.17a.53.53,0,0,1-.52.53" style="fill:#ffd200"/><path d="M331.81,193.26h18.57a.53.53,0,0,1,.53.53V202a.53.53,0,0,1-.53.52H331.81a.52.52,0,0,1-.52-.52v-8.17a.52.52,0,0,1,.52-.53" style="fill:#ee4e21"/><rect x="317.93" width="168.99" height="537.99" style="fill:none"/><path d="M414.49,110.38H444.4a3.83,3.83,0,0,0,3.68-3.67h0v0h0v0h0v0h0v-.13h0V91.72h0V78.24a3.67,3.67,0,0,0-3.68-3.67H397.58a3.66,3.66,0,0,0-3.66,3.67V89.81h15.29a5.07,5.07,0,0,1,5.28,4.84v15.74ZM409.21,91.1h0a3.72,3.72,0,0,1,3.87,3.54v15.17l-3.87-3.89V91.1Zm3.87,20.62L392.58,91.1V78.24a5,5,0,0,1,5-5H444.4a5,5,0,0,1,5,5v28.47a5.15,5.15,0,0,1-5,5Z" style="fill:#221f1f;fill-rule:evenodd"/><rect x="454.51" y="99.96" width="30.67" height="2.79" style="fill:#221f1f"/><path d="M486.85,295.15H372.21A11.92,11.92,0,0,0,360.32,307V527.78a11.92,11.92,0,0,0,11.89,11.89H486.85Z" style="fill:#e2c70d"/><rect x="406.67" y="325.62" width="79.78" height="211.41" style="fill:#6c7880"/><rect x="411.48" y="332.84" width="74.96" height="204.19" style="fill:#b1e1f1"/></g></g></svg>