<svg xmlns="http://www.w3.org/2000/svg" viewBox="0 0 116.04 54.89"><g id="Capa_2" data-name="Capa 2"><g id="Capa_1-2" data-name="Capa 1"><path d="M73.66,17.46c-.1.84,0,4.32,3.2,9.11C80.2,31.85,75,40.68,64.3,38.44a19.44,19.44,0,0,1-6.52.93,19.36,19.36,0,0,1-6.49-.95C40.64,40.66,35.36,31.85,38.7,26.57c3.22-4.79,3.3-8.27,3.2-9.11Zm0-9.51s0-.67.28-2.9c.21-1.69,1.12-3.41-1.08-3.37H69.22c-1.65,0-1.56.92-1,2.72C68.2,4.43,73.67,8,73.67,8Zm-70.88,41a.79.79,0,1,0-1.57,0v4.44c0,.89.53,1.21,1.23,1.35,1.77.35,9.61.73,10-4.59C12,44.7,3,44.88.72,45.72c-1.22.45-.8,1.76.54,1.24a11.7,11.7,0,0,1,5.67,0c1.75.39,3.58,1.71,3.58,3.14-.12,3.54-5.53,3.68-7.73,3.22Zm16.87-1.85c-1.75,0-4.69,5.34-5.56,7.25a.92.92,0,1,1-1.64-.82c.93-2.05,4.44-8.26,7.19-8.21s6.25,6.16,7.18,8.21a.92.92,0,1,1-1.64.82C24.32,52.4,21.41,47.06,19.66,47.06Zm12.24,6c1.74,0,4.69-5.33,5.55-7.25a.92.92,0,1,1,1.64.82c-.93,2.06-4.44,8.27-7.18,8.21s-6.25-6.15-7.18-8.21a.92.92,0,1,1,1.64-.82C27.23,47.75,30.15,53.08,31.9,53.08ZM42,46.2V54a.88.88,0,0,1-1.76,0V46.18A.88.88,0,1,1,42,46.2Zm8.4,6.88c1.74,0,4.69-5.33,5.55-7.25a.92.92,0,1,1,1.64.82c-.93,2.06-4.43,8.27-7.18,8.21s-6.25-6.15-7.18-8.21a.92.92,0,1,1,1.64-.82C45.77,47.75,48.69,53.08,50.44,53.08Zm13.49-2.21a5.08,5.08,0,0,0,3.41,2.28,11.46,11.46,0,0,0,5.67,0c1.3-.42,1.75.84.53,1.25-2.41.81-11.23,1.1-11.75-4.3.29-5.15,7.34-5,10-4.67,1.31.17,1,1.57-.33,1.28-1.81-.24-6.7-.53-7.65,2.72h5c.78,0,.78,1.44,0,1.44Zm28,2.45c2.19.46,7.6.32,7.73-3.22,0-1.43-1.84-2.75-3.58-3.14a11.74,11.74,0,0,0-5.68,0c-1.33.52-1.75-.79-.53-1.24,2.31-.84,11.29-1,11.71,4.38-.37,5.32-8.21,4.94-10,4.59-.7-.14-1.23-.46-1.23-1.35V48.9a.78.78,0,1,1,1.56,0Zm16.88-6.26c-1.75,0-4.69,5.34-5.56,7.25a.92.92,0,1,1-1.64-.82c.93-2.05,4.44-8.26,7.19-8.21s6.25,6.16,7.18,8.21a.92.92,0,1,1-1.64.82C113.43,52.4,110.52,47.06,108.77,47.06Zm-48.2-.86V54a.88.88,0,0,1-1.75,0V46.18A.88.88,0,1,1,60.57,46.2Zm21.12,5.46c-1.08-2-2.28-4.63-3.1-4.68-2,0-1.11,4-1.15,7.1A.88.88,0,0,1,75.69,54c0-4-.86-8.71,2.94-8.71,1.11,0,2.16,1.66,3.11,3.23,1.09,2,2.38,4.63,3.2,4.68,2,0,1.06-3.91,1.1-7a.88.88,0,0,1,1.76.12c0,4,.9,8.63-2.9,8.63C83.79,54.89,82.64,53.23,81.69,51.66Z" style="fill:#e30518;fill-rule:evenodd"/><path d="M57.78,39.32c-10.4-.27-12.29-5-9.42-6.06,1.67-.58,3.87-1.56,3.87-1.56-1.11-5.4.72-12.3,5.58-12.29s6.63,7.11,5.53,12.41c0,0,2.21.79,3.86,1.44C69.9,34.32,68.18,39.05,57.78,39.32Z" style="fill:#007ac0;fill-rule:evenodd"/><path d="M57.78,39.4c4.19,0,7.49-.9,7.49-2.15S62,35.1,57.78,35.1s-7.49.9-7.49,2.15S53.59,39.4,57.78,39.4Z" style="fill:#f49800;fill-rule:evenodd"/><path d="M49,21.28h-5a1.44,1.44,0,0,0-1.44,1.44v3.39a1.44,1.44,0,0,0,1.44,1.44h5a1.44,1.44,0,0,0,1.45-1.44V22.72A1.44,1.44,0,0,0,49,21.28Zm.62,4.37a1.09,1.09,0,0,1-1.09,1.09h-4a1.09,1.09,0,0,1-1.09-1.09V23.18a1.09,1.09,0,0,1,1.09-1.09h4a1.09,1.09,0,0,1,1.09,1.09Z" style="fill:#007ac0;fill-rule:evenodd"/><path d="M57.76,17.29c-5.42,0-12.88.48-17.67.84-3.68.29-6.52-2.51-4.07-5.16C41.22,7.33,54,.2,57.8.2,61.9.2,74.38,7.33,79.58,13c2.45,2.65,0,5.16-3.7,5.16C71.76,18.13,63.18,17.3,57.76,17.29Z" style="fill:#f49800;fill-rule:evenodd"/><path d="M71.68,21.28h-5a1.43,1.43,0,0,0-1.44,1.44v3.39a1.43,1.43,0,0,0,1.44,1.44h5a1.43,1.43,0,0,0,1.44-1.44V22.72A1.43,1.43,0,0,0,71.68,21.28Zm.62,4.37a1.09,1.09,0,0,1-1.09,1.09h-4a1.09,1.09,0,0,1-1.09-1.09V23.18a1.09,1.09,0,0,1,1.09-1.09h4a1.09,1.09,0,0,1,1.09,1.09Z" style="fill:#007ac0;fill-rule:evenodd"/><path d="M53.86,35.55c-2.76-7.73-.34-15,3.92-15,4.06,0,6.81,7.05,3.95,14.94a21.17,21.17,0,0,0-4.09-.3A23.58,23.58,0,0,0,53.86,35.55ZM49.58,23.18a1.09,1.09,0,0,0-1.09-1.09H47c.16.66.78,2.76,2.58,2.94ZM46,22.09c-.11.6-.68,2.86-2.6,2.95V23.18a1.09,1.09,0,0,1,1.09-1.09ZM72.3,23.18a1.09,1.09,0,0,0-1.09-1.09H69.72c.15.66.78,2.76,2.58,2.94Zm-3.56-1.09c-.12.6-.68,2.86-2.6,2.95V23.18a1.09,1.09,0,0,1,1.09-1.09Z" style="fill:#ffe000;fill-rule:evenodd"/><path d="M49.58,25v.62a1.09,1.09,0,0,1-1.09,1.09h-4a1.09,1.09,0,0,1-1.09-1.09V25c1.92-.09,2.49-2.35,2.6-2.95h1C47.16,22.75,47.78,24.85,49.58,25Zm1,1.08V22.72A1.57,1.57,0,0,0,49,21.15h-5a1.57,1.57,0,0,0-1.57,1.57v3.39a1.57,1.57,0,0,0,1.57,1.57h5A1.57,1.57,0,0,0,50.53,26.11ZM49,21.4a1.32,1.32,0,0,1,1.32,1.32v3.39A1.32,1.32,0,0,1,49,27.43h-5a1.32,1.32,0,0,1-1.31-1.32V22.72a1.32,1.32,0,0,1,1.31-1.32ZM61.4,30.67a.73.73,0,0,0,0-1.46.73.73,0,0,0,0,1.46ZM57.78,35a24.18,24.18,0,0,0-3.9.32c-2.58-7.51-.22-14.59,3.9-14.59s6.49,7.09,3.91,14.59A22.87,22.87,0,0,0,57.78,35Zm3.82.59c2.13.34,3.56,1,3.56,1.67,0,1.09-3.3,2-7.37,2s-7.38-.88-7.38-2c0-.71,1.42-1.33,3.56-1.68,0,0,2.32-.27,3.81-.27S61.6,35.58,61.6,35.58Zm.31-.23c2.71-7.79.08-15-4.13-14.94S51,27.56,53.65,35.35c-2.08.4-3.47,1.1-3.47,1.9a1,1,0,0,0,.41.73c-3.51-1.55-3.83-4.06-1.92-4.74,1.67-.59,3.7-1.38,3.7-1.38-1.08-5.25.58-12.29,5.41-12.28s6.5,7,5.42,12.28c0,0,2,.82,3.69,1.38C68.78,33.87,68.5,36.4,65,38a1,1,0,0,0,.37-.71C65.38,36.45,64,35.75,61.91,35.35Zm6.55-31C68,2.66,68,2,69.45,2h3.12c2.08,0,1.23,1.57,1,3.16-.11,1-.19,1.75-.22,2.35C71.73,6.31,70.06,5.24,68.46,4.3ZM64.82,38.37c10,1.69,14.87-6.69,11.67-11.75a17.29,17.29,0,0,1-3.15-8.32c-6.54-.34-11.05-.66-15.56-.73s-9,.38-15.56.73a17.14,17.14,0,0,1-3.14,8.32c-3.21,5.06,1.68,13.44,11.67,11.75C46.51,36.76,46,34,48.25,33.15c1.65-.64,3.87-1.45,3.87-1.45-1.11-5.4.81-12.53,5.66-12.52s6.77,7.12,5.67,12.52c0,0,2.21.81,3.86,1.45C69.58,34,69.06,36.76,64.82,38.37Zm-7-21.47c-5.62.08-11,.48-17.24.88-3.9.26-6.08-2.35-3.63-5,3.62-4,16-12.1,20.86-12.1S75,8.79,78.65,12.74c2.45,2.69.26,5.3-3.63,5C68.74,17.38,63.41,17,57.79,16.9Zm9.94-13c0-.16-.09-.32-.13-.48-.27-1,0-2,1.65-2h3.63c2.15,0,1.91,1.47,1.54,2.91a21.51,21.51,0,0,0-.56,3.54s3,2.19,4.63,3.58c5.21,4.4,1.82,7.27-3.15,7l-1.47-.07a12.67,12.67,0,0,0,2.75,7.23C82.4,32.46,74.75,41.12,64,38.68a22.35,22.35,0,0,1-12.35,0c-10.8,2.44-18.44-6.22-12.67-13.12a12.65,12.65,0,0,0,2.76-7.23l-1.47.07c-5,.25-8.37-2.62-3.15-7C44.82,4.86,54.18,0,57.78,0,59.77,0,63.5,1.48,67.73,3.88ZM72.3,25v.62a1.09,1.09,0,0,1-1.09,1.09h-4a1.09,1.09,0,0,1-1.09-1.09V25c1.92-.09,2.48-2.35,2.6-2.95h1C69.87,22.75,70.5,24.85,72.3,25Zm1,1.08V22.72a1.57,1.57,0,0,0-1.57-1.57h-5a1.57,1.57,0,0,0-1.57,1.57v3.39a1.57,1.57,0,0,0,1.57,1.57h5A1.57,1.57,0,0,0,73.25,26.11ZM71.68,21.4A1.32,1.32,0,0,1,73,22.72v3.39a1.32,1.32,0,0,1-1.32,1.32h-5a1.32,1.32,0,0,1-1.32-1.32V22.72a1.32,1.32,0,0,1,1.32-1.32Z" style="fill-rule:evenodd"/></g></g></svg>