<svg xmlns="http://www.w3.org/2000/svg" xmlns:xlink="http://www.w3.org/1999/xlink" viewBox="0 0 72.57 69.91"><defs><linearGradient id="Degradado_sin_nombre_109" y1="34.96" x2="72.57" y2="34.96" gradientUnits="userSpaceOnUse"><stop offset="0" stop-color="#eab5f7"/><stop offset="0.16" stop-color="#a7adee"/><stop offset="0.32" stop-color="#65a5e5"/><stop offset="0.44" stop-color="#3da0df"/><stop offset="0.5" stop-color="#2d9edd"/><stop offset="0.72" stop-color="#2d9fdb"/><stop offset="0.81" stop-color="#2ba2d4"/><stop offset="0.88" stop-color="#28a8c7"/><stop offset="0.94" stop-color="#25b0b5"/><stop offset="0.99" stop-color="#20ba9e"/><stop offset="1" stop-color="#1fbb9b"/></linearGradient></defs><g id="Capa_2" data-name="Capa 2"><g id="Capa_1-2" data-name="Capa 1"><path d="M71.91,27.87C68.55,11.05,53.92-.06,37,0c-.5,0-1,.07-1.48.11a1,1,0,0,0-.34,0C21,1.38,7.64,9.93,2.18,23.43S1.86,54.94,13.65,63.64c5.63,4.15,13.14,5.31,19.93,6,8.62,1,16.27-1.2,23.54-5.83C68.84,56.39,74.63,41.5,71.91,27.87ZM60.48,42.36A27.5,27.5,0,0,1,56.6,52.5c-3.66-.47-7.33-.85-11-1.09a78.58,78.58,0,0,0,.91-12.8A106.38,106.38,0,0,0,60.86,36.9,30.74,30.74,0,0,1,60.48,42.36Zm-44.91-25a84.46,84.46,0,0,0,9.5,1.08,73.16,73.16,0,0,0-1.55,15.91c0,.76,0,1.51.06,2.26q-6.13-.4-12.22-1.33C11.16,28.86,12.16,23,15.57,17.4ZM44.5,34.07c0,.92.07,1.84.09,2.75-2.39.11-4.78.17-7.14.19q-6,.06-12-.26c0-.78-.06-1.57-.06-2.36A70.79,70.79,0,0,1,27,18.59c3.52.15,7.07.11,10.65-.06l5.5-.28A122.88,122.88,0,0,1,44.5,34.07ZM37.3,67.13a60.13,60.13,0,0,1-8.09-13.82,111.46,111.46,0,0,1,14.16-.16C42.58,57.77,41.09,64.77,37.3,67.13ZM28.49,51.49A50.21,50.21,0,0,1,25.6,38.64q5.94.31,11.85.25,3.55,0,7.17-.19a75.76,75.76,0,0,1-.94,12.59A113.2,113.2,0,0,0,28.49,51.49Zm9.16-34.84c-3.43.17-6.82.2-10.19.07,1.5-5.56,4-10.73,8-14.39h0c4,3.65,6.17,8.67,7.36,14.06Zm.91-13.78C44.75,5.07,50,9.64,53.83,15.3c-3,.49-6,.77-9.09,1C43.62,11.25,41.75,6.56,38.56,2.87Zm-13,13.76a84.29,84.29,0,0,1-8.82-.95A33.31,33.31,0,0,1,31.93,3.26,34.18,34.18,0,0,0,25.53,16.63ZM23.72,38.54a51.25,51.25,0,0,0,2.86,13.13,86.76,86.76,0,0,0-8.93,1.39,26.94,26.94,0,0,1-6.16-15.27l0-.56Q17.55,38.15,23.72,38.54Zm3.55,15a61.64,61.64,0,0,0,7.51,13.39C29.08,63.24,23.39,59.45,19,54.69,21.77,54.15,24.51,53.77,27.27,53.49Zm16.52,5.6a52.3,52.3,0,0,0,1.46-5.83c3.4.22,6.79.55,10.17,1a41.89,41.89,0,0,1-14.68,12A26.8,26.8,0,0,0,43.79,59.09Zm2.69-22.36a111.73,111.73,0,0,0-1.35-18.6A94,94,0,0,0,54.92,17a40.88,40.88,0,0,1,5.86,18A104,104,0,0,1,46.48,36.73ZM56.85,16.65a47.25,47.25,0,0,0,7-2,31.53,31.53,0,0,1,6.75,17.61,63.25,63.25,0,0,1-8,2.35A42.77,42.77,0,0,0,56.85,16.65Zm5.74-3.56a48,48,0,0,1-6.79,1.84,35.17,35.17,0,0,0-14-12.73A33.89,33.89,0,0,1,62.59,13.09ZM26.41,3.88a35.88,35.88,0,0,0-10,9.05c-.61.8-1.16,1.59-1.68,2.39-1.52-.29-3-.62-4.55-1A39.32,39.32,0,0,1,26.41,3.88Zm-17.66,12c1.63.43,3.26.79,4.89,1.12C10.47,22.57,9.35,28.27,9.5,35c-2.59-.44-5.16-1-7.7-1.56A30.15,30.15,0,0,1,8.75,15.91Zm-7,19.47Q5.65,36.3,9.59,37a29.57,29.57,0,0,0,6.17,16.53,74.69,74.69,0,0,0-7.2,2.1,37.55,37.55,0,0,1-6.78-19C1.76,36.15,1.76,35.76,1.76,35.38ZM12.92,60.61a31.71,31.71,0,0,1-3.17-3.45,74.87,74.87,0,0,1,7.34-2C21.33,60,26.92,64,32.83,67.85,25.71,67.22,18,65.27,12.92,60.61Zm28.61,7.31c6.34-3.29,12-7.73,15.94-13.42,2,.27,4,.58,6,.9A32.12,32.12,0,0,1,41.53,67.92ZM64.71,53.71q-3.06-.51-6.14-1a29.4,29.4,0,0,0,4-12.45,32,32,0,0,0,.1-3.8,67.5,67.5,0,0,0,8-2.29A34.34,34.34,0,0,1,64.71,53.71Z" style="fill:url(#Degradado_sin_nombre_109)"/></g></g></svg>