<svg xmlns="http://www.w3.org/2000/svg" viewBox="0 0 340.81 46.18"><g id="Capa_2" data-name="Capa 2"><g id="Capa_1-2" data-name="Capa 1"><path d="M327.58,9.64a4.44,4.44,0,0,1,.8-1.36,3.85,3.85,0,0,1,1.2-.92A3.28,3.28,0,0,1,331,7a3.37,3.37,0,0,1,1.48.32,3.64,3.64,0,0,1,1.19.9,4.48,4.48,0,0,1,.8,1.36,4.9,4.9,0,0,1,.29,1.68A4.82,4.82,0,0,1,334.5,13a4.55,4.55,0,0,1-.8,1.35,3.64,3.64,0,0,1-1.19.9,3.58,3.58,0,0,1-3,0,3.72,3.72,0,0,1-1.19-.89,4.06,4.06,0,0,1-.79-1.34,4.56,4.56,0,0,1-.29-1.68,4.62,4.62,0,0,1,.3-1.67m6.11,7.64a6.65,6.65,0,0,0,2.05-1.42,6.5,6.5,0,0,0,1.31-2.08,7.14,7.14,0,0,0,0-5,6.5,6.5,0,0,0-1.31-2.08,6.65,6.65,0,0,0-2.05-1.42,6.94,6.94,0,0,0-5.32,0,6.61,6.61,0,0,0-2,1.42A6.17,6.17,0,0,0,325,8.79a7,7,0,0,0,0,5,6.15,6.15,0,0,0,1.3,2.08,6.33,6.33,0,0,0,2,1.42,7,7,0,0,0,5.34,0m-19.35-2.07a4.13,4.13,0,0,1-1.21-.92A4.26,4.26,0,0,1,312.3,13a4.5,4.5,0,0,1-.3-1.64,4.74,4.74,0,0,1,.27-1.59A4.93,4.93,0,0,1,313,8.35a3.67,3.67,0,0,1,1.15-1A3,3,0,0,1,315.63,7a3.41,3.41,0,0,1,1.14.19,4.24,4.24,0,0,1,1.08.55,4.62,4.62,0,0,1,.9.87,3.88,3.88,0,0,1,.61,1.11V13a3,3,0,0,1-.49,1,3.89,3.89,0,0,1-.83.79,4,4,0,0,1-1.06.53,3.61,3.61,0,0,1-1.16.19,3.38,3.38,0,0,1-1.48-.33m3.51,1.92a5,5,0,0,0,1.9-1.85l0,.94a1.47,1.47,0,0,0,.56,1.06,2,2,0,0,0,1.3.41l.42,0c.17,0,.39-.05.66-.09V15.3a.79.79,0,0,1-.57-.21,1.09,1.09,0,0,1-.15-.65V0h-2.65V7.36a5.33,5.33,0,0,0-1.8-1.86,4.87,4.87,0,0,0-2.67-.74,5,5,0,0,0-2.25.52,5.67,5.67,0,0,0-1.78,1.41,6.44,6.44,0,0,0-1.18,2.06,7,7,0,0,0-.43,2.49,7.18,7.18,0,0,0,.45,2.56,6.57,6.57,0,0,0,1.24,2.08,5.67,5.67,0,0,0,1.88,1.41,5.6,5.6,0,0,0,5-.16m-19.09-1.91a2.07,2.07,0,0,1-.69-1.58A1.88,1.88,0,0,1,299,12a4,4,0,0,1,2.32-.61,7.63,7.63,0,0,1,1.48.14,7.91,7.91,0,0,1,1.43.41v1.66a1.21,1.21,0,0,1-.5.91,3.25,3.25,0,0,1-1.34,1,4.8,4.8,0,0,1-1.82.35,2.53,2.53,0,0,1-1.78-.64m3.72,2a5.62,5.62,0,0,0,2.08-1.7l.07.79a1.58,1.58,0,0,0,1.71,1.38l.54,0c.19,0,.41-.05.67-.09V15.3c-.47,0-.7-.3-.7-.86V9.89a4.87,4.87,0,0,0-1.45-3.8,5.72,5.72,0,0,0-4-1.33,8.92,8.92,0,0,0-5.05,1.64l.82,1.69a9.94,9.94,0,0,1,2-1.08,5.69,5.69,0,0,1,2-.37,3.13,3.13,0,0,1,2.29.78,2.93,2.93,0,0,1,.79,2.18v.87a8.23,8.23,0,0,0-1.56-.42,9.45,9.45,0,0,0-1.76-.16,7.61,7.61,0,0,0-2.15.29A5.12,5.12,0,0,0,297,11,3.69,3.69,0,0,0,296,12.25a3.33,3.33,0,0,0-.39,1.61,3.7,3.7,0,0,0,.33,1.56,3.75,3.75,0,0,0,.89,1.26,4,4,0,0,0,1.35.83,4.66,4.66,0,0,0,1.69.3,6.16,6.16,0,0,0,2.66-.59m-16.84-2a4.16,4.16,0,0,1-1.24-.9,4,4,0,0,1-.83-1.33,4.36,4.36,0,0,1-.3-1.62,4.76,4.76,0,0,1,1-3,3.8,3.8,0,0,1,1.16-1A3.21,3.21,0,0,1,287,7a3,3,0,0,1,1.1.2,4.47,4.47,0,0,1,1,.57,4.42,4.42,0,0,1,.88.85,4.23,4.23,0,0,1,.62,1.1V13a2.59,2.59,0,0,1-.48,1,4,4,0,0,1-.8.8,4.43,4.43,0,0,1-1,.55,3.16,3.16,0,0,1-1.15.2,3.62,3.62,0,0,1-1.55-.33m3.16,1.85a4.59,4.59,0,0,0,1.85-1.78V17.2a3.81,3.81,0,0,1-.32,1.66,3.31,3.31,0,0,1-.88,1.16,3.45,3.45,0,0,1-1.29.67,5.19,5.19,0,0,1-1.55.22,5.79,5.79,0,0,1-2.44-.53,4.75,4.75,0,0,1-1.87-1.54l-1.49,1.4a6.59,6.59,0,0,0,2.32,2,7.54,7.54,0,0,0,3.48.71,9,9,0,0,0,2.65-.38,6.36,6.36,0,0,0,2.13-1.12,5.24,5.24,0,0,0,1.41-1.79,5.72,5.72,0,0,0,.5-2.44V5H291V7.36a6.13,6.13,0,0,0-1.89-1.87,4.89,4.89,0,0,0-2.66-.73,5.42,5.42,0,0,0-2.37.52,5.66,5.66,0,0,0-1.84,1.4A6.06,6.06,0,0,0,281,8.75a7.33,7.33,0,0,0-.44,2.54,7.1,7.1,0,0,0,.42,2.43,6.86,6.86,0,0,0,1.18,2A5.58,5.58,0,0,0,284,17.17a5.28,5.28,0,0,0,2.33.52,5.19,5.19,0,0,0,2.48-.63m-18.74-1.84a2,2,0,0,1-.7-1.58,1.88,1.88,0,0,1,.9-1.62,4,4,0,0,1,2.32-.61,7.56,7.56,0,0,1,1.48.14,8,8,0,0,1,1.44.41v1.66a1.2,1.2,0,0,1-.51.91,3.19,3.19,0,0,1-1.34,1,4.78,4.78,0,0,1-1.81.35,2.51,2.51,0,0,1-1.78-.64m3.71,2a5.65,5.65,0,0,0,2.09-1.7l.07.79a1.58,1.58,0,0,0,.52,1,1.67,1.67,0,0,0,1.19.39l.54,0c.18,0,.4-.05.66-.09V15.3c-.46,0-.7-.3-.7-.86V9.89a4.9,4.9,0,0,0-1.44-3.8,5.72,5.72,0,0,0-4-1.33A9,9,0,0,0,267.6,6.4l.82,1.69a9.94,9.94,0,0,1,2-1.08,5.7,5.7,0,0,1,2-.37,3.12,3.12,0,0,1,2.28.78,2.94,2.94,0,0,1,.8,2.18v.87a8.34,8.34,0,0,0-1.57-.42,9.37,9.37,0,0,0-1.76-.16,7.66,7.66,0,0,0-2.15.29,5.06,5.06,0,0,0-1.68.82,3.73,3.73,0,0,0-1.1,1.25,3.33,3.33,0,0,0-.38,1.61,3.85,3.85,0,0,0,.32,1.56,3.89,3.89,0,0,0,.89,1.26,4.2,4.2,0,0,0,1.35.83,4.71,4.71,0,0,0,1.7.3,6.12,6.12,0,0,0,2.65-.59m-16-1.89a4.27,4.27,0,0,1-1-.58,4.79,4.79,0,0,1-1.48-1.95V9.5a2.57,2.57,0,0,1,.5-1,3.9,3.9,0,0,1,.84-.78,4.08,4.08,0,0,1,1-.53A3.17,3.17,0,0,1,258.75,7a3.7,3.7,0,0,1,1.56.33,3.9,3.9,0,0,1,1.24.92,4.43,4.43,0,0,1,.82,1.34,4.5,4.5,0,0,1,.3,1.64,5,5,0,0,1-.26,1.59,4.69,4.69,0,0,1-.76,1.37,3.78,3.78,0,0,1-1.18,1,3.26,3.26,0,0,1-1.53.36,3.18,3.18,0,0,1-1.13-.21m4.25,2a5.43,5.43,0,0,0,1.76-1.4A6.14,6.14,0,0,0,265,13.82a7.85,7.85,0,0,0,.41-2.56,6.94,6.94,0,0,0-.45-2.48,6.56,6.56,0,0,0-1.24-2.07,6.1,6.1,0,0,0-1.87-1.42,5.39,5.39,0,0,0-2.38-.53,5,5,0,0,0-2.59.68A5.64,5.64,0,0,0,255,7.24V5h-2.33V22.69h2.65V15.21a5.28,5.28,0,0,0,1.83,1.87,4.86,4.86,0,0,0,2.67.73,5,5,0,0,0,2.25-.52m-21.94-6.37L243,3.59l2.75,7.33ZM235,17.57h2.86l1.78-4.65h6.6l1.8,4.65h2.84L244.14.48h-2.36ZM226,.48,214.3,17.57h2.94L229,.48ZM197,9.64a4.08,4.08,0,0,1,.8-1.36A3.93,3.93,0,0,1,199,7.36,3.32,3.32,0,0,1,200.47,7a3.37,3.37,0,0,1,1.48.32,3.75,3.75,0,0,1,1.19.9,4.26,4.26,0,0,1,.79,1.36,4.67,4.67,0,0,1,.29,1.68,4.6,4.6,0,0,1-.29,1.68,4.33,4.33,0,0,1-.79,1.35,3.75,3.75,0,0,1-1.19.9,3.58,3.58,0,0,1-3,0,3.61,3.61,0,0,1-1.19-.89A4.26,4.26,0,0,1,197,13a4.78,4.78,0,0,1-.29-1.68A4.63,4.63,0,0,1,197,9.64m6.11,7.64a6.61,6.61,0,0,0,2-1.42,6.17,6.17,0,0,0,1.31-2.08,7,7,0,0,0,0-5,6.17,6.17,0,0,0-1.31-2.08,6.36,6.36,0,0,0-4.7-1.95,6.51,6.51,0,0,0-2.66.53,6.65,6.65,0,0,0-2.05,1.42,6.33,6.33,0,0,0-1.31,2.08,7.14,7.14,0,0,0,0,5,6.47,6.47,0,0,0,1.3,2.08,6.38,6.38,0,0,0,2,1.42,7,7,0,0,0,5.34,0m-19.35-2.07a4,4,0,0,1-1.21-.92,4.09,4.09,0,0,1-.83-1.34,4.51,4.51,0,0,1-.31-1.64,4.75,4.75,0,0,1,.28-1.59,4.93,4.93,0,0,1,.76-1.37,3.75,3.75,0,0,1,1.14-1A3,3,0,0,1,185.07,7a3.5,3.5,0,0,1,1.14.19,4,4,0,0,1,1.07.55,4.12,4.12,0,0,1,.9.87,3.91,3.91,0,0,1,.62,1.11V13a2.81,2.81,0,0,1-.5,1,3.67,3.67,0,0,1-.83.79,4,4,0,0,1-1.05.53,3.61,3.61,0,0,1-1.16.19,3.38,3.38,0,0,1-1.48-.33m3.5,1.92a5,5,0,0,0,1.9-1.85l0,.94a1.46,1.46,0,0,0,.55,1.06,2,2,0,0,0,1.3.41l.42,0c.17,0,.39-.05.67-.09V15.3a.76.76,0,0,1-.57-.21,1.08,1.08,0,0,1-.16-.65V0H188.8V7.36A5.45,5.45,0,0,0,187,5.5a4.87,4.87,0,0,0-2.67-.74,5,5,0,0,0-2.25.52,5.91,5.91,0,0,0-1.78,1.41,6.64,6.64,0,0,0-1.18,2.06,7.23,7.23,0,0,0-.42,2.49,7.18,7.18,0,0,0,.45,2.56,6.39,6.39,0,0,0,1.24,2.08,5.74,5.74,0,0,0,1.87,1.41,5.47,5.47,0,0,0,2.36.52,5.35,5.35,0,0,0,2.67-.68M176.31,0h-2.65V2.91h2.65Zm0,5h-2.65V17.57h2.65ZM162.63,15.21a4.18,4.18,0,0,1-1.22-.92,4.26,4.26,0,0,1-.83-1.34,4.5,4.5,0,0,1-.3-1.64,4.75,4.75,0,0,1,.28-1.59,4.93,4.93,0,0,1,.76-1.37,3.75,3.75,0,0,1,1.14-1A3,3,0,0,1,163.92,7a3.5,3.5,0,0,1,1.14.19,4.18,4.18,0,0,1,1.07.55,4.12,4.12,0,0,1,.9.87,3.91,3.91,0,0,1,.62,1.11V13a2.81,2.81,0,0,1-.5,1,3.67,3.67,0,0,1-.83.79,3.9,3.9,0,0,1-1.06.53,3.55,3.55,0,0,1-1.15.19,3.38,3.38,0,0,1-1.48-.33m3.5,1.92a5,5,0,0,0,1.9-1.85l.05.94a1.46,1.46,0,0,0,.55,1.06,2,2,0,0,0,1.3.41l.42,0c.17,0,.39-.05.67-.09V15.3a.76.76,0,0,1-.57-.21,1.08,1.08,0,0,1-.16-.65V0h-2.64V7.36a5.45,5.45,0,0,0-1.81-1.86,4.87,4.87,0,0,0-2.67-.74,5,5,0,0,0-2.25.52,5.91,5.91,0,0,0-1.78,1.41A6.64,6.64,0,0,0,158,8.75a7.23,7.23,0,0,0-.42,2.49A7.18,7.18,0,0,0,158,13.8a6.39,6.39,0,0,0,1.24,2.08,5.64,5.64,0,0,0,1.87,1.41,5.47,5.47,0,0,0,2.36.52,5.35,5.35,0,0,0,2.67-.68M155.25,9.89a11.19,11.19,0,0,0-.16-2,5.15,5.15,0,0,0-.59-1.64,3.09,3.09,0,0,0-1.15-1.12,3.75,3.75,0,0,0-1.85-.41,6.29,6.29,0,0,0-3,.74,5.07,5.07,0,0,0-2.09,2V5H144V17.57h2.65V10.08a4.32,4.32,0,0,1,.61-1.19,5,5,0,0,1,.9-.94,4.05,4.05,0,0,1,1.09-.61,3.09,3.09,0,0,1,1.15-.22,1.9,1.9,0,0,1,1.67.81,4.58,4.58,0,0,1,.57,2.59v7.05h2.64Zm-23.67.43A4.37,4.37,0,0,1,132,8.86a3.59,3.59,0,0,1,.82-1.15A3.72,3.72,0,0,1,134,7a3.67,3.67,0,0,1,1.4-.27,3.78,3.78,0,0,1,1.42.27,3.56,3.56,0,0,1,1.18.73,3.61,3.61,0,0,1,.83,1.15,4.16,4.16,0,0,1,.4,1.46Zm7.28,6.58A5.2,5.2,0,0,0,141,14.58l-2.26-.65a3,3,0,0,1-.53.8,3.51,3.51,0,0,1-.77.61,3.44,3.44,0,0,1-.95.38,4.15,4.15,0,0,1-1.05.14,3.61,3.61,0,0,1-1.38-.27,3.52,3.52,0,0,1-1.18-.76,3.75,3.75,0,0,1-.84-1.16,4.31,4.31,0,0,1-.4-1.52h10.08l.05-.42,0-.54a6.9,6.9,0,0,0-.44-2.44,6.15,6.15,0,0,0-1.29-2,6.36,6.36,0,0,0-4.69-1.94,6.91,6.91,0,0,0-2.7.52,6.22,6.22,0,0,0-2.05,1.42,6.6,6.6,0,0,0-1.33,2.09,6.92,6.92,0,0,0-.47,2.52,6.77,6.77,0,0,0,.47,2.5,6.4,6.4,0,0,0,1.33,2.07,6.05,6.05,0,0,0,2.05,1.41,6.83,6.83,0,0,0,2.67.52,6.63,6.63,0,0,0,3.51-.91M116,13.76a6.71,6.71,0,0,0,1.33,2.09,6.4,6.4,0,0,0,2,1.43,6.63,6.63,0,0,0,2.67.53,6.41,6.41,0,0,0,3.47-.91,5.06,5.06,0,0,0,2.09-2.32l-2.6-.77a2,2,0,0,1-.44.68,3.21,3.21,0,0,1-.7.55,3.48,3.48,0,0,1-.88.37,3.52,3.52,0,0,1-1,.13,3.34,3.34,0,0,1-1.46-.32,4,4,0,0,1-1.2-.9,4.53,4.53,0,0,1-.82-1.36,4.71,4.71,0,0,1-.3-1.7,5,5,0,0,1,.29-1.71,4.14,4.14,0,0,1,.8-1.33A3.5,3.5,0,0,1,122,7a3.39,3.39,0,0,1,1.7.44,3.26,3.26,0,0,1,1.23,1.24l2.58-.82a5.48,5.48,0,0,0-2.11-2.27A6.36,6.36,0,0,0,122,4.76a6.83,6.83,0,0,0-2.69.52,6.39,6.39,0,0,0-2.06,1.41A6.18,6.18,0,0,0,116,8.76a7,7,0,0,0-.46,2.5,6.73,6.73,0,0,0,.47,2.5m-2.73-3.87a10.29,10.29,0,0,0-.17-2,4.71,4.71,0,0,0-.59-1.64,3.14,3.14,0,0,0-1.14-1.12,3.75,3.75,0,0,0-1.85-.41,6.29,6.29,0,0,0-3,.74,5.1,5.1,0,0,0-2.1,2V5H102V17.57h2.64V10.08a4.35,4.35,0,0,1,.62-1.19,4.73,4.73,0,0,1,.9-.94,4.15,4.15,0,0,1,1.08-.61,3.18,3.18,0,0,1,1.16-.22,1.9,1.9,0,0,1,1.67.81,4.59,4.59,0,0,1,.56,2.59v7.05h2.65ZM90.62,15.18V10h7.63V7.72H90.62V2.86h8.81V.48H87.93V17.57H99.65V15.18ZM337,42.21a4.4,4.4,0,0,0,2.77-.8,2.55,2.55,0,0,0,1-2.12,2.21,2.21,0,0,0-.53-1.53,3.79,3.79,0,0,0-1.27-.89,20,20,0,0,0-1.92-.65,8,8,0,0,1-1.91-.74,1.18,1.18,0,0,1-.61-1.06,1.33,1.33,0,0,1,.63-1.16,3,3,0,0,1,1.68-.42,3.06,3.06,0,0,1,1.79.47,1.42,1.42,0,0,1,.67,1.17v.06l.2.21h1l.21-.21v-.06a2.41,2.41,0,0,0-.47-1.44,3.1,3.1,0,0,0-1.34-1,5,5,0,0,0-2-.37,4.33,4.33,0,0,0-2.7.78,2.47,2.47,0,0,0-1,2.08,2.19,2.19,0,0,0,.5,1.48,3.42,3.42,0,0,0,1.24.91,14.68,14.68,0,0,0,1.88.66c.64.19,1.11.35,1.42.47a2.38,2.38,0,0,1,.8.51,1.15,1.15,0,0,1,.34.84,1.46,1.46,0,0,1-.66,1.22,2.85,2.85,0,0,1-1.72.48,3,3,0,0,1-1.77-.5,1.44,1.44,0,0,1-.7-1.18v-.16L334.3,39h-1l-.2.21v.24a2.16,2.16,0,0,0,.48,1.37,3.25,3.25,0,0,0,1.37,1,5.18,5.18,0,0,0,2,.37M326.41,41a2.77,2.77,0,0,1-1.73-.55,2.51,2.51,0,0,1-.93-1.46,9.81,9.81,0,0,1-.16-2.06,9.92,9.92,0,0,1,.16-2.07,2.66,2.66,0,0,1,.94-1.46,2.7,2.7,0,0,1,1.7-.54,2.73,2.73,0,0,1,1.71.54,2.63,2.63,0,0,1,.95,1.46,9.92,9.92,0,0,1,.16,2.07A9.14,9.14,0,0,1,329,39a2.62,2.62,0,0,1-2.62,2m0,1.26a4.27,4.27,0,0,0,2.53-.75,3.82,3.82,0,0,0,1.44-2.09,8.47,8.47,0,0,0,.28-2.52,8.58,8.58,0,0,0-.28-2.51,3.83,3.83,0,0,0-1.44-2,4.23,4.23,0,0,0-2.51-.75,4.37,4.37,0,0,0-2.58.75,3.81,3.81,0,0,0-1.45,2.07,8.65,8.65,0,0,0-.29,2.49,8.93,8.93,0,0,0,.29,2.52,3.87,3.87,0,0,0,1.47,2.09,4.3,4.3,0,0,0,2.54.75m-9.06-2.84a2.56,2.56,0,0,1-.82,1.15,2.2,2.2,0,0,1-1.37.43,2.58,2.58,0,0,1-1.48-.43,2.22,2.22,0,0,1-.87-1.17,3.55,3.55,0,0,1-.29-1,11.39,11.39,0,0,1-.08-1.5,9,9,0,0,1,.11-1.57,3.89,3.89,0,0,1,.36-1,2.36,2.36,0,0,1,.86-1.09,2.43,2.43,0,0,1,1.41-.4,2.24,2.24,0,0,1,1.34.41,2.38,2.38,0,0,1,.81,1.12,3.19,3.19,0,0,1,.28,1,10.38,10.38,0,0,1,.09,1.55,10.08,10.08,0,0,1-.09,1.53,3.52,3.52,0,0,1-.26,1M317.72,28v4.8l0,.05-.08,0a3.11,3.11,0,0,0-1.12-.91A3.43,3.43,0,0,0,315,31.6a4,4,0,0,0-2.44.74,3.86,3.86,0,0,0-1.35,2.06,9.91,9.91,0,0,0-.24,2.54,9.19,9.19,0,0,0,.28,2.59,3.81,3.81,0,0,0,1.34,2,3.88,3.88,0,0,0,2.41.73A3.42,3.42,0,0,0,316.5,42a3.19,3.19,0,0,0,1.11-.92l.08,0,0,.06v.85l.2.21h1l.21-.21V28l-.21-.21h-1Zm-13,3.62A3.15,3.15,0,0,0,302,32.89h-.05l0-.06V32l-.21-.2h-1l-.21.2V41.9l.21.21h1l.21-.21V35.4a2.37,2.37,0,0,1,2.51-2.51,2.34,2.34,0,0,1,1.77.71,2.55,2.55,0,0,1,.69,1.84V41.9l.2.21h1l.21-.21V35.15a3.48,3.48,0,0,0-1-2.57,3.56,3.56,0,0,0-2.61-1m-9,.34v6.49A2.39,2.39,0,0,1,293.17,41a2.34,2.34,0,0,1-1.78-.69,2.59,2.59,0,0,1-.65-1.85V32l-.21-.2h-1l-.2.2v6.92a3.34,3.34,0,0,0,.48,1.82,3.05,3.05,0,0,0,1.31,1.15,4,4,0,0,0,1.81.4A3.07,3.07,0,0,0,295.61,41l.06,0,0,.07v.87l.2.21h1l.2-.21V32l-.2-.2h-1Zm-10.92,7a2.41,2.41,0,0,1-.81,1.41,2.44,2.44,0,0,1-1.65.55,2.55,2.55,0,0,1-2.55-2,6.85,6.85,0,0,1-.21-2.07,7.22,7.22,0,0,1,.21-2,2.8,2.8,0,0,1,.93-1.43,2.43,2.43,0,0,1,1.62-.55,2.36,2.36,0,0,1,1.63.56,2.43,2.43,0,0,1,.81,1.42,3.27,3.27,0,0,1,.1.66c0,.24,0,.71,0,1.4s0,1,0,1.32a4.79,4.79,0,0,1-.08.75m.1-7v.8l0,.06-.07,0A3.3,3.3,0,0,0,282,31.6a3.69,3.69,0,0,0-2.31.74,3.75,3.75,0,0,0-1.33,2,4.37,4.37,0,0,0-.22,1.1c0,.41-.05.92-.05,1.52a9.17,9.17,0,0,0,.25,2.49,3.49,3.49,0,0,0,1.37,2,4.11,4.11,0,0,0,2.37.71,3.18,3.18,0,0,0,2.68-1.23l.07,0,0,.05v.76a3,3,0,0,1-.86,2.36,4.14,4.14,0,0,1-2.76.75l-.55,0-.15,0-.06.15,0,.94.21.23.71,0A5.62,5.62,0,0,0,285,45.12a4.06,4.06,0,0,0,1.32-3.36V32l-.2-.2h-1.05Zm-13.46.91a2.71,2.71,0,0,1,1.73.54,2.57,2.57,0,0,1,.91,1.46,10.7,10.7,0,0,1,.12,1.31l-.08.08h-5.3l-.08-.08a7,7,0,0,1,.16-1.39,2.41,2.41,0,0,1,.87-1.4,2.62,2.62,0,0,1,1.67-.52m4.11,2.33a4.3,4.3,0,0,0-1.25-2.66,4,4,0,0,0-2.86-.94,4.07,4.07,0,0,0-2.54.79,3.86,3.86,0,0,0-1.41,2.13,4.59,4.59,0,0,0-.15,1c0,.36,0,.83,0,1.4a8.34,8.34,0,0,0,.37,2.83,3.68,3.68,0,0,0,1.41,1.88,4.27,4.27,0,0,0,2.43.69,4.79,4.79,0,0,0,2.36-.56,3.66,3.66,0,0,0,1.53-1.54l-.08-.29-.8-.47-.29.08a2.61,2.61,0,0,1-1,1.11,2.9,2.9,0,0,1-1.51.39,3.13,3.13,0,0,1-1.89-.54,2.46,2.46,0,0,1-1-1.45,10.28,10.28,0,0,1-.12-1.45l.08-.08h6.61l.2-.21v-.65a9.62,9.62,0,0,0-.08-1.43m-14.38,7a4.4,4.4,0,0,0,2.77-.8,2.55,2.55,0,0,0,1-2.12,2.21,2.21,0,0,0-.53-1.53,3.79,3.79,0,0,0-1.27-.89,20,20,0,0,0-1.92-.65,8,8,0,0,1-1.91-.74,1.16,1.16,0,0,1-.61-1.06,1.33,1.33,0,0,1,.63-1.16,3,3,0,0,1,1.68-.42,3.06,3.06,0,0,1,1.79.47,1.42,1.42,0,0,1,.67,1.17v.06l.2.21h1l.2-.21v-.06A2.4,2.4,0,0,0,264.4,33a3.13,3.13,0,0,0-1.35-1,5,5,0,0,0-2-.37,4.33,4.33,0,0,0-2.7.78,2.47,2.47,0,0,0-1,2.08,2.19,2.19,0,0,0,.5,1.48,3.33,3.33,0,0,0,1.24.91,14.68,14.68,0,0,0,1.88.66c.64.19,1.11.35,1.42.47a2.38,2.38,0,0,1,.8.51,1.15,1.15,0,0,1,.34.84,1.46,1.46,0,0,1-.66,1.22,2.85,2.85,0,0,1-1.72.48,3,3,0,0,1-1.77-.5,1.44,1.44,0,0,1-.7-1.18v-.16l-.21-.21h-1l-.2.21v.24a2.16,2.16,0,0,0,.48,1.37,3.25,3.25,0,0,0,1.37,1,5.18,5.18,0,0,0,2,.37m-17-1.47.45-.53q2.87-3.47,3.86-4.75a7.35,7.35,0,0,0,1.93-4.19,3.4,3.4,0,0,0-.52-1.87,3.46,3.46,0,0,0-1.45-1.3,4.8,4.8,0,0,0-2.16-.47,4.32,4.32,0,0,0-2.88,1,3.25,3.25,0,0,0-1.17,2.54v.81l.2.21h1.06l.21-.21v-.63a2.2,2.2,0,0,1,.69-1.75,2.69,2.69,0,0,1,1.89-.66,2.78,2.78,0,0,1,1.92.65,2.22,2.22,0,0,1,.73,1.74q0,1.35-1.92,3.78L245.52,37c-1.63,2-2.67,3.31-3.13,3.85l-.1.25v.85l.2.21h8.16l.21-.21v-.85l-.21-.21h-6.42Zm-12.64-7.87a2.73,2.73,0,0,1,1.73.54,2.62,2.62,0,0,1,.91,1.46,10.7,10.7,0,0,1,.12,1.31l-.08.08h-5.3l-.08-.08a6.27,6.27,0,0,1,.16-1.39,2.41,2.41,0,0,1,.87-1.4,2.6,2.6,0,0,1,1.67-.52m4.11,2.33a4.3,4.3,0,0,0-1.25-2.66,4,4,0,0,0-2.86-.94,4.1,4.1,0,0,0-2.55.79,3.85,3.85,0,0,0-1.4,2.13,4.59,4.59,0,0,0-.15,1c0,.36,0,.83,0,1.4a8.64,8.64,0,0,0,.36,2.83,3.75,3.75,0,0,0,1.42,1.88,4.25,4.25,0,0,0,2.43.69,4.75,4.75,0,0,0,2.35-.56,3.75,3.75,0,0,0,1.54-1.54l-.09-.29-.79-.47-.29.08a2.68,2.68,0,0,1-1,1.11,2.91,2.91,0,0,1-1.52.39,3.1,3.1,0,0,1-1.88-.54A2.41,2.41,0,0,1,229,39a7.84,7.84,0,0,1-.12-1.45l.08-.08h6.61l.2-.21v-.65a11.2,11.2,0,0,0-.08-1.43m-10.43-2.44V32l-.21-.2h-2.31l-.08-.08V29.31l-.2-.21h-1l-.2.21v2.37l-.08.08h-1.25l-.21.2v.8l.21.21h1.25l.08.08v6.48a2.38,2.38,0,0,0,.76,2,3.72,3.72,0,0,0,2.23.55l.75,0,.21-.21v-.83l-.21-.21h-.51a2,2,0,0,1-1.38-.4,1.8,1.8,0,0,1-.44-1.38v-6l.08-.08H225Zm-11.37-1.14a3.15,3.15,0,0,0-2.77,1.27H211l0-.06V32l-.2-.2h-1l-.21.2V41.9l.21.21h1l.2-.21V35.4a2.39,2.39,0,0,1,2.52-2.51,2.34,2.34,0,0,1,1.77.71,2.54,2.54,0,0,1,.68,1.84V41.9l.21.21h1l.2-.21V35.15a3.45,3.45,0,0,0-1-2.57,3.52,3.52,0,0,0-2.6-1M202.12,41a2.74,2.74,0,0,1-1.63-.46,1.57,1.57,0,0,1-.62-1.36,1.76,1.76,0,0,1,.81-1.54,3.82,3.82,0,0,1,2.17-.55H205l.08.08v1.6a1.86,1.86,0,0,1-.88,1.62,3.59,3.59,0,0,1-2.08.61m.57-9.43a4.73,4.73,0,0,0-2.66.71,2.65,2.65,0,0,0-1.23,1.87l.19.16,1.1.14.25-.18a1.58,1.58,0,0,1,.75-1.06,3,3,0,0,1,1.6-.37,2.42,2.42,0,0,1,1.81.6,2.26,2.26,0,0,1,.58,1.65v.77L205,36h-2.37a4.85,4.85,0,0,0-3.1.88,2.93,2.93,0,0,0-1.12,2.43,2.62,2.62,0,0,0,1,2.25,3.92,3.92,0,0,0,2.43.73,5,5,0,0,0,1.82-.31A3.23,3.23,0,0,0,205,41l.07,0,0,.06v.83l.21.21h1l.2-.21V35a3.24,3.24,0,0,0-1-2.49,4,4,0,0,0-2.84-.94m-6.81.06a2.83,2.83,0,0,0-1.55.42,3.33,3.33,0,0,0-1.09,1.17l-.05,0,0-.07V32l-.21-.2h-1l-.21.2V41.9l.21.21h1l.21-.21v-6a2.68,2.68,0,0,1,.69-1.89,2.45,2.45,0,0,1,1.76-.79l.27,0a2.24,2.24,0,0,1,.8.14l.26-.12.23-1-.13-.26a2.34,2.34,0,0,0-1.16-.27M187,32v6.49A2.39,2.39,0,0,1,184.46,41a2.3,2.3,0,0,1-1.77-.69,2.55,2.55,0,0,1-.66-1.85V32l-.2-.2h-1.05l-.2.2v6.92a3.34,3.34,0,0,0,.48,1.82,3.05,3.05,0,0,0,1.31,1.15,4,4,0,0,0,1.81.4A3.06,3.06,0,0,0,186.9,41l.06,0,0,.07v.87l.2.21h1.05l.2-.21V32l-.2-.2H187.2Zm-11.37,7.47a2.56,2.56,0,0,1-.82,1.15,2.2,2.2,0,0,1-1.37.43,2.58,2.58,0,0,1-1.48-.43,2.22,2.22,0,0,1-.87-1.17,3.55,3.55,0,0,1-.29-1,11.39,11.39,0,0,1-.08-1.5,9,9,0,0,1,.11-1.57,3.89,3.89,0,0,1,.36-1,2.36,2.36,0,0,1,.86-1.09,2.41,2.41,0,0,1,1.41-.4,2.22,2.22,0,0,1,1.34.41,2.25,2.25,0,0,1,.81,1.12,3.84,3.84,0,0,1,.29,1,12.26,12.26,0,0,1,.08,1.55,11.91,11.91,0,0,1-.08,1.53,3.91,3.91,0,0,1-.27,1M176,28v4.8l0,.05-.07,0a3.23,3.23,0,0,0-1.13-.91,3.43,3.43,0,0,0-1.47-.31,4,4,0,0,0-2.44.74,3.86,3.86,0,0,0-1.35,2.06,9.91,9.91,0,0,0-.24,2.54,8.78,8.78,0,0,0,.29,2.59,3.74,3.74,0,0,0,1.33,2,3.88,3.88,0,0,0,2.41.73,3.42,3.42,0,0,0,1.48-.32A3.31,3.31,0,0,0,175.9,41l.07,0,0,.06v.85l.2.21h1.05l.2-.21V28l-.2-.21H176.2ZM158,41a2.74,2.74,0,0,1-1.63-.46,1.6,1.6,0,0,1-.62-1.36,1.75,1.75,0,0,1,.82-1.54,3.79,3.79,0,0,1,2.17-.55h2.14l.09.08v1.6a1.87,1.87,0,0,1-.89,1.62A3.59,3.59,0,0,1,158,41m.57-9.43a4.73,4.73,0,0,0-2.66.71,2.61,2.61,0,0,0-1.22,1.87l.18.16,1.11.14.24-.18a1.6,1.6,0,0,1,.76-1.06,3,3,0,0,1,1.59-.37,2.42,2.42,0,0,1,1.81.6,2.27,2.27,0,0,1,.59,1.65v.77l-.09.09h-2.37a4.89,4.89,0,0,0-3.1.88,3,3,0,0,0-1.11,2.43,2.64,2.64,0,0,0,1,2.25,3.94,3.94,0,0,0,2.43.73,5,5,0,0,0,1.82-.31A3.23,3.23,0,0,0,160.9,41l.07,0,0,.06v.83l.2.21h1l.21-.21V35a3.28,3.28,0,0,0-1-2.49,4,4,0,0,0-2.85-.94m-10.31,0a3.15,3.15,0,0,0-2.76,1.27h0l0-.06V32l-.2-.2h-1l-.2.2V41.9l.2.21h1l.2-.21V35.4A2.39,2.39,0,0,1,148,32.89a2.3,2.3,0,0,1,1.76.71,2.55,2.55,0,0,1,.69,1.84V41.9l.2.21h1.05l.2-.21V35.15a3.45,3.45,0,0,0-1-2.57,3.56,3.56,0,0,0-2.61-1M136.81,41a2.77,2.77,0,0,1-1.73-.55,2.51,2.51,0,0,1-.93-1.46,9.81,9.81,0,0,1-.16-2.06,9.92,9.92,0,0,1,.16-2.07,2.6,2.6,0,0,1,2.64-2,2.73,2.73,0,0,1,1.71.54,2.68,2.68,0,0,1,.95,1.46,9.92,9.92,0,0,1,.16,2.07,9.14,9.14,0,0,1-.18,2.06,2.62,2.62,0,0,1-2.62,2m0,1.26a4.22,4.22,0,0,0,2.52-.75,3.79,3.79,0,0,0,1.45-2.09,8.47,8.47,0,0,0,.28-2.52,8.58,8.58,0,0,0-.28-2.51,3.8,3.8,0,0,0-1.45-2,4.18,4.18,0,0,0-2.5-.75,4.37,4.37,0,0,0-2.58.75,3.81,3.81,0,0,0-1.45,2.07,8.65,8.65,0,0,0-.29,2.49,8.93,8.93,0,0,0,.29,2.52,3.87,3.87,0,0,0,1.47,2.09,4.3,4.3,0,0,0,2.54.75m-8.76-.18h1l.2-.21V31.94l-.2-.2h-1l-.2.2v9.94Zm.58-12.21a1.12,1.12,0,0,0,.82-.33,1.16,1.16,0,0,0-1.64-1.65,1.16,1.16,0,0,0,.82,2M121.2,42.21a4.35,4.35,0,0,0,2.76-.8A2.53,2.53,0,0,0,125,39.29a2.17,2.17,0,0,0-.54-1.53,3.65,3.65,0,0,0-1.26-.89c-.5-.2-1.14-.42-1.93-.65a7.87,7.87,0,0,1-1.9-.74,1.16,1.16,0,0,1-.61-1.06,1.33,1.33,0,0,1,.63-1.16,3,3,0,0,1,1.68-.42,3.06,3.06,0,0,1,1.79.47,1.41,1.41,0,0,1,.66,1.17v.06l.21.21h1l.2-.21v-.06a2.34,2.34,0,0,0-.47-1.44,3,3,0,0,0-1.33-1,5,5,0,0,0-2-.37,4.33,4.33,0,0,0-2.7.78,2.47,2.47,0,0,0-1,2.08,2.14,2.14,0,0,0,.5,1.48,3.25,3.25,0,0,0,1.24.91,14.14,14.14,0,0,0,1.88.66c.64.19,1.11.35,1.42.47a2.38,2.38,0,0,1,.8.51,1.14,1.14,0,0,1,.33.84,1.45,1.45,0,0,1-.65,1.22,2.85,2.85,0,0,1-1.72.48,3,3,0,0,1-1.77-.5,1.44,1.44,0,0,1-.7-1.18v-.16L118.5,39h-1l-.2.21v.24a2.16,2.16,0,0,0,.48,1.37,3.19,3.19,0,0,0,1.37,1,5.18,5.18,0,0,0,2,.37m-10.29-9.34a2.69,2.69,0,0,1,1.73.54,2.57,2.57,0,0,1,.91,1.46,7.74,7.74,0,0,1,.12,1.31l-.08.08H108.3l-.09-.08a6.77,6.77,0,0,1,.17-1.39,2.36,2.36,0,0,1,.87-1.4,2.59,2.59,0,0,1,1.66-.52M115,35.2a4.29,4.29,0,0,0-1.24-2.66,4,4,0,0,0-2.87-.94,4.09,4.09,0,0,0-2.54.79,3.85,3.85,0,0,0-1.4,2.13,4,4,0,0,0-.16,1c0,.36,0,.83,0,1.4a8.6,8.6,0,0,0,.37,2.83,3.79,3.79,0,0,0,1.41,1.88,4.3,4.3,0,0,0,2.44.69,4.75,4.75,0,0,0,2.35-.56,3.66,3.66,0,0,0,1.53-1.54l-.08-.29-.8-.47-.28.08a2.7,2.7,0,0,1-1,1.11,2.88,2.88,0,0,1-1.51.39,3.1,3.1,0,0,1-1.88-.54,2.41,2.41,0,0,1-1-1.45,8.5,8.5,0,0,1-.13-1.45l.09-.08h6.6l.21-.21v-.65A9.45,9.45,0,0,0,115,35.2m-11.1-3.54a2.86,2.86,0,0,0-1.55.42,3.33,3.33,0,0,0-1.09,1.17l0,0,0-.07V32l-.21-.2h-1l-.2.2V41.9l.2.21h1l.21-.21v-6a2.68,2.68,0,0,1,.69-1.89,2.47,2.47,0,0,1,1.76-.79l.27,0a2.2,2.2,0,0,1,.8.14l.26-.12.23-1-.13-.26a2.34,2.34,0,0,0-1.16-.27M93.2,34.52H89.32l-.09-.08V29.12l.09-.08H93.2a2.65,2.65,0,0,1,2,.76,2.71,2.71,0,0,1,.75,2,2.68,2.68,0,0,1-.75,2,2.72,2.72,0,0,1-2,.74m.17-6.75H88l-.21.21V41.9l.21.21h1l.2-.21V35.81l.09-.08h4a4,4,0,0,0,2.94-1.09,3.81,3.81,0,0,0,1.12-2.86,3.93,3.93,0,0,0-1.1-2.9,3.87,3.87,0,0,0-2.89-1.11" style="fill:#4a4f54"/><path d="M59,3.15H6a6,6,0,0,0-6,6V37.06a6,6,0,0,0,6,6H59a6,6,0,0,0,6-6V9.12A6,6,0,0,0,59,3.15ZM31.71,7.61a.8.8,0,1,1,1.59,0V17.79a.8.8,0,1,1-1.59,0ZM42.32,32.13A13.88,13.88,0,0,1,22.69,12.5a.8.8,0,1,1,1.13,1.13,12.29,12.29,0,1,0,17.37,0,.8.8,0,1,1,1.13-1.13,13.87,13.87,0,0,1,0,19.63Z" style="fill:#221f1f"/></g></g></svg>