<svg xmlns="http://www.w3.org/2000/svg" viewBox="0 0 296.5 301.32"><g id="Capa_2" data-name="Capa 2"><g id="Capa_1-2" data-name="Capa 1"><path d="M278.19,0H16.72S0-.42,0,18.88v110.9c0,19.29,16.72,18.86,16.72,18.86H278.19c16.72,0,18.31-20.25,18.31-20.25V20.27S294.91,0,278.19,0ZM15.92,83.25A9.3,9.3,0,1,1,25.21,74,9.3,9.3,0,0,1,15.92,83.25Zm245.51,58.09H35.07V7.31H261.43Zm15.2-44.19h-2.69V51.48h2.69Z" style="fill:#121a26"/><path d="M118.9,48.75a3.34,3.34,0,0,1-.56-2.61,7,7,0,0,1,1.23-2.88A11.7,11.7,0,0,1,122,40.74a11.84,11.84,0,0,1,3.08-1.69,6.66,6.66,0,0,1,3.13-.35,4.15,4.15,0,0,1,2.67,1.54,3.71,3.71,0,0,1,.92,2.87,5.3,5.3,0,0,1-1.33,2.72,10.88,10.88,0,0,1-2.82,2.25,15.38,15.38,0,0,1-3.44,1.49,8.5,8.5,0,0,1-3.18.37A2.94,2.94,0,0,1,118.9,48.75Zm128.91,19.5a5.19,5.19,0,0,1-1.59,2.35c-1.5,1.51-3.32,3.53-5.43,6.05s-4.24,5-6.32,7.55-4,4.68-5.69,6.57-2.94,2.92-3.69,3.12a4,4,0,0,1-2.82,0,5.52,5.52,0,0,1-2.21-1.59,6.64,6.64,0,0,1-1.34-2.57,7.48,7.48,0,0,1-.2-3,9.74,9.74,0,0,1,.82-2.92A37.53,37.53,0,0,1,221,80.4l1.74-3.18c.55-1,1-1.76,1.34-2.31a24.33,24.33,0,0,1-1.74,2.42Q221,79,219.09,81.17t-4.16,4.51a56.82,56.82,0,0,1-4.52,4.25,36.43,36.43,0,0,1-4.3,3.19,6.94,6.94,0,0,1-3.49,1.29,4.73,4.73,0,0,1-3.13-1.29A10.26,10.26,0,0,1,197,89.93a15,15,0,0,1-1.39-4,9.66,9.66,0,0,1-.17-1.88c-1.7,1.84-3.34,3.52-4.91,5.06a50,50,0,0,1-4.31,3.84,5.68,5.68,0,0,1-2.72,1.5,5.29,5.29,0,0,1-2.71-.83,9.29,9.29,0,0,1-2.47-2.15,8.86,8.86,0,0,1-1.58-3.07,7.57,7.57,0,0,1-.21-3.5,19.88,19.88,0,0,1,2.31-5.74,47.74,47.74,0,0,1,3.85-5.85c1.5-2.12,3.18-4.23,5-6.36a17,17,0,0,0-3,2c-1.37,1.09-2.92,2.45-4.67,4.06s-3.57,3.33-5.49,5.17-3.72,3.65-5.44,5.39-3.21,3.33-4.51,4.78A34.26,34.26,0,0,0,162,91.53c-.83,1.09-1.53,1.54-2.11,1.34a2.33,2.33,0,0,1-1.33-1.44,8.72,8.72,0,0,1-.57-2.62,3.9,3.9,0,0,1,.41-2.3c.21-.35.65-1,1.34-2s1.49-2.1,2.4-3.43l3-4.36c1.09-1.58,2.14-3.1,3.13-4.56s1.9-2.84,2.72-4.11,1.47-2.27,1.95-3c-2.66,2.26-5.49,4.79-8.46,7.59s-5.8,5.56-8.47,8.26-5,5.22-7,7.54a50.9,50.9,0,0,0-4.25,5.44,1.15,1.15,0,0,1-1.39.57,3.38,3.38,0,0,1-1.59-1.08,6.22,6.22,0,0,1-1.12-1.95,2.62,2.62,0,0,1,.1-2.16c.2-.41.76-1.48,1.69-3.22.41-.79.87-1.65,1.36-2.58l-.33.37c-1.75,1.92-3.46,3.65-5.13,5.23a41.52,41.52,0,0,1-4.77,3.9,7.18,7.18,0,0,1-3.7,1.54,2.89,2.89,0,0,1-2.3-1.19,9.31,9.31,0,0,1-1.6-2.87,17.26,17.26,0,0,1-.87-3.43,21.11,21.11,0,0,1-.25-3,12.7,12.7,0,0,1,1.59-5.24,51.82,51.82,0,0,1,3.59-5.9c1.4-2,2.87-4.07,4.41-6.15a72.31,72.31,0,0,0,4.05-6.11,15.17,15.17,0,0,0-3.08.31l-.4.11c-.35.54-1.47,2.12-3.39,4.76a85.7,85.7,0,0,1-8.52,9.59l-.92.9L121,77.64q-2.46,2.61-5.38,5.58c-1.95,2-3.85,3.79-5.69,5.44a60.18,60.18,0,0,1-5.13,4.11,7.4,7.4,0,0,1-3.69,1.63,6.32,6.32,0,0,1-2.87-.72,9.06,9.06,0,0,1-2.62-1.94,10.69,10.69,0,0,1-1.95-2.87,8.46,8.46,0,0,1-.77-3.6,12.46,12.46,0,0,1,1.23-4.77,53,53,0,0,1,3.13-6c1.26-2.11,2.66-4.26,4.2-6.41s3-4.16,4.47-6q-2.26,1.63-4.72,3.23c-1.64,1.06-3.32,2-5,2.92a44,44,0,0,1-5.08,2.26,18.76,18.76,0,0,1-4.87,1.12,64.09,64.09,0,0,1-2.31,8.21q-1.59,4.62-3.74,9.55T75.36,99a90.91,90.91,0,0,1-5.24,8.41,37.28,37.28,0,0,1-5.08,6c-1.63,1.5-3.14,2.25-4.5,2.25A3.15,3.15,0,0,1,58,114.26a9.85,9.85,0,0,1-1.64-3.54,22,22,0,0,1-.67-4.72,15.83,15.83,0,0,1,.51-4.83,35,35,0,0,1,2.05-5.39q1.65-3.63,4.16-8.51C64.1,84,66,80.5,68.07,76.7s4.26-7.6,6.51-11.43,4.55-7.54,6.88-11.14S86,47.3,88.08,44.39s4-5.34,5.69-7.28a13.18,13.18,0,0,1,4.32-3.64,4.5,4.5,0,0,1,4,0,6.25,6.25,0,0,1,2.72,2.92,11.59,11.59,0,0,1,1.08,4.67,13.34,13.34,0,0,1-.93,5.33,10.1,10.1,0,0,1-2.56,3.43q-2.06,2-4.87,4.31c-1.89,1.54-3.92,3.13-6.11,4.78s-4.31,3.25-6.36,4.82a4.42,4.42,0,0,1,1.33,1.84A33.53,33.53,0,0,0,93.11,64a59,59,0,0,0,6.36-2.57c2-1,3.89-1.94,5.64-3s3.27-2,4.56-2.77a18.17,18.17,0,0,1,1.64-.92,11.12,11.12,0,0,1,1.44-.62,3.21,3.21,0,0,1,2.31-.21,7.32,7.32,0,0,1,2.51,1.08,4.83,4.83,0,0,1,1.64,1.75A1.29,1.29,0,0,1,119,58.5c-.33.34-1.16,1.27-2.45,2.77s-2.81,3.28-4.52,5.33-3.49,4.26-5.33,6.62-3.48,4.6-4.87,6.72a43,43,0,0,0-3.19,5.49c-.72,1.54-.8,2.55-.25,3,.34.27,1.13.09,2.36-.57a43,43,0,0,0,4.36-2.72c1.67-1.16,3.47-2.5,5.38-4s3.75-3,5.49-4.36,3.25-2.69,4.52-3.85l1.58-1.45c1.31-1.57,2.46-3.08,3.44-4.5,2.5-3.62,3.81-6.22,4-7.8a8.85,8.85,0,0,1-1-1.27,7.7,7.7,0,0,1-.82-1.65,7.81,7.81,0,0,1-.4-1.74,3.94,3.94,0,0,1,.1-1.59,4.39,4.39,0,0,1,1.33-2,5.45,5.45,0,0,1,1.95-1.07,4.39,4.39,0,0,1,2-.16,1.88,1.88,0,0,1,1.33.77l1,1.44a18.53,18.53,0,0,1,1,1.74,8.1,8.1,0,0,1,.66,1.9,3.6,3.6,0,0,1-.1,1.9,12.44,12.44,0,0,0,2.1-.51,7,7,0,0,0,1.69-.88A18.12,18.12,0,0,0,142,54.71c.61-.56,1.33-1.24,2.15-2.06a1.64,1.64,0,0,1,1.85-.41,3.45,3.45,0,0,1,1.54,1.43,6.37,6.37,0,0,1,.82,2.31,3,3,0,0,1-.31,2.11c-.34.54-1.07,1.55-2.2,3s-2.44,3.21-3.91,5.23l-4.66,6.41q-2.46,3.38-4.46,6.41a43.78,43.78,0,0,0-3.13,5.39c-.76,1.57-1,2.63-.82,3.18s.83.27,2.1-.42A40.32,40.32,0,0,0,135.89,84q3-2.31,6.92-5.74t8-7.52c1.38-2.39,2.74-4.71,4.07-6.9q2.31-3.8,4.36-6.72a22.5,22.5,0,0,1,3.39-4,3.44,3.44,0,0,1,2-.72,6.7,6.7,0,0,1,2.51.26,4.32,4.32,0,0,1,1.85,1c.44.45.43,1-.05,1.6s-1.42,1.86-2.61,3.33-2.5,3.18-3.9,5.13-2.84,4.05-4.31,6.31-2.79,4.48-4,6.66c.88-1.09,2-2.41,3.23-3.94s2.6-3.14,4-4.78,2.82-3.26,4.26-4.87,2.8-3.06,4.1-4.36,2.46-2.39,3.49-3.28a6.8,6.8,0,0,1,2.35-1.54,2.48,2.48,0,0,1,2.26.51,5.82,5.82,0,0,1,1.65,2.16,12,12,0,0,1,.87,2.66,3.72,3.72,0,0,1,0,2.06,32.46,32.46,0,0,1-2,3.28q-1.65,2.57-3.59,5.44-2.26,3.38-4.93,7.28,6-6.76,10.88-12.21,2.05-2.27,4.15-4.51c1.4-1.51,2.69-2.87,3.85-4.1s2.17-2.24,3-3A8.31,8.31,0,0,1,193.59,52a2,2,0,0,1,2,.36,6.77,6.77,0,0,1,2.57,4.82,3.81,3.81,0,0,1-.62,2.52c-.48.62-1.23,1.67-2.25,3.17s-2.16,3.24-3.39,5.19-2.48,4-3.74,6.1-2.38,4.11-3.34,6-1.69,3.42-2.21,4.72-.63,2.08-.35,2.36.77,0,1.69-.56,2.05-1.37,3.39-2.36,2.78-2.14,4.35-3.44,3.12-2.58,4.62-3.85,2.89-2.47,4.16-3.64,2.24-2.09,2.92-2.77l.05,0,.26-.31q3.08-3.65,6.72-7.34t7.13-6.62a39.47,39.47,0,0,1,6.51-4.56c2-1.1,3.65-1.51,4.87-1.24a4,4,0,0,1,1.65,1.24,9.64,9.64,0,0,1,1.59,2.56,12.15,12.15,0,0,1,.87,3.49,8,8,0,0,1-.51,3.79,5.68,5.68,0,0,1,2.25,2.52,2.78,2.78,0,0,1,0,2.92q-2.76,4.3-5,7.75t-3.69,5.84a24.72,24.72,0,0,0-2,3.85c-.34,1-.3,1.54.1,1.74s1.46-.18,2.93-1.38,3.13-2.67,5-4.41,3.66-3.54,5.44-5.39,3.21-3.31,4.31-4.41a13.2,13.2,0,0,1,2.77-2.15,5.62,5.62,0,0,1,2.31-.87C247.57,67.55,247.84,67.77,247.81,68.25ZM85.46,59.32q3.48-3.39,6.88-6.62t5.79-6a28,28,0,0,0,3.54-4.88c.75-1.4.86-2.4.31-3-.34-.41-1-.15-2,.77a34.15,34.15,0,0,0-3.75,4.2c-1.47,1.89-3.13,4.16-5,6.83S87.44,56.17,85.46,59.32Zm-3.28,12.2A9.13,9.13,0,0,1,79,69.68q-3.9,6.45-7.44,12.82T65.35,94.1c-1.77,3.49-3.16,6.42-4.15,8.82s-1.35,3.86-1.08,4.42.94.33,2-.83a50.55,50.55,0,0,0,3.85-5q2.27-3.23,4.82-7.54t4.87-8.56q2.31-4.26,4.11-8A41.28,41.28,0,0,0,82.18,71.52Zm145-6.77a33.93,33.93,0,0,0,2-4.46c.44-1.26.46-2,.05-2.31q-1.23-.61-3.9,1a40,40,0,0,0-5.95,4.51q-3.28,2.93-6.77,6.57a86.32,86.32,0,0,0-6.1,7,45.28,45.28,0,0,0-4.06,6.05c-.95,1.78-1.16,3-.61,3.59s1.59.43,3.33-.56a39.46,39.46,0,0,0,6.21-4.67q3.58-3.18,7.75-7.55C221.85,71,224.54,68,227.13,64.75Z" style="fill:#09030b"/><path d="M182.12,164.42c-4.35-5.61-14.1-1.87-14.1-1.87,2.83-10.58-2.7-15.31-2.7-15.31-7.23-10.48-17-1-17-1-1.06-19.29-12.15-19.35-12.15-19.35-14.72,2.26-11.48,22.51-11.48,22.51l-3.64.31-.57-3.26L110.73,91l-2-11c-1.73-9.77-10-11-10-11-7,1.92-7.69,13.45-7.69,13.45,1.24,7.06,2.23,14.82,3,22.7,3.13,31.4,3,64.89,3,64.89-14.41-28.35-24-12.56-24-12.56,4.15,6,5.06,23.29,5.06,23.29-.38,16.86,13,54.78,13,54.78,10.85,19.58,23,65.78,23,65.78h69.33l-8.84-53,11.35-51.71a50,50,0,0,0-4-32.2" style="fill:#f8b99c"/></g></g></svg>