<svg xmlns="http://www.w3.org/2000/svg" xmlns:xlink="http://www.w3.org/1999/xlink" viewBox="0 0 1311.98 393.62"><defs><linearGradient id="Degradado_sin_nombre" x1="-128.24" y1="372.54" x2="-251.21" y2="249.57" gradientTransform="matrix(1.36, 0, 0, -1.36, 349.87, 591.27)" gradientUnits="userSpaceOnUse"><stop offset="0" stop-color="#00a0ff"/><stop offset="0.01" stop-color="#00a1ff"/><stop offset="0.26" stop-color="#00beff"/><stop offset="0.51" stop-color="#00d2ff"/><stop offset="0.76" stop-color="#00dfff"/><stop offset="1" stop-color="#00e3ff"/></linearGradient><linearGradient id="Degradado_sin_nombre_2" x1="-40.05" y1="289.85" x2="-217.35" y2="289.85" gradientTransform="matrix(1.36, 0, 0, -1.36, 349.87, 591.27)" gradientUnits="userSpaceOnUse"><stop offset="0" stop-color="#ffe000"/><stop offset="0.41" stop-color="#ffbd00"/><stop offset="0.78" stop-color="orange"/><stop offset="1" stop-color="#ff9c00"/></linearGradient><linearGradient id="Degradado_sin_nombre_3" x1="-106.05" y1="272.98" x2="-272.8" y2="106.22" gradientTransform="matrix(1.36, 0, 0, -1.36, 349.87, 591.27)" gradientUnits="userSpaceOnUse"><stop offset="0" stop-color="#ff3a44"/><stop offset="1" stop-color="#c31162"/></linearGradient><linearGradient id="Degradado_sin_nombre_4" x1="-234.49" y1="435.06" x2="-160.03" y2="360.6" gradientTransform="matrix(1.36, 0, 0, -1.36, 349.87, 591.27)" gradientUnits="userSpaceOnUse"><stop offset="0" stop-color="#32a071"/><stop offset="0.07" stop-color="#2da771"/><stop offset="0.48" stop-color="#15cf74"/><stop offset="0.8" stop-color="#06e775"/><stop offset="1" stop-color="#00f076"/></linearGradient></defs><g id="Capa_2" data-name="Capa 2"><g id="Capa_1-2" data-name="Capa 1"><path d="M62.41,73.22c-2.91,3.06-4.65,7.86-4.65,14V307.44c0,6.11,1.74,10.92,4.65,14l.73.73L186.58,198.7v-2.91L63.14,72.35Z" style="fill:url(#Degradado_sin_nombre)"/><path d="M227.63,239.9l-41-41.2v-2.91l41.2-41.2.87.59,48.77,27.65c14,7.86,14,20.82,0,28.83l-48.77,27.65Z" style="fill:url(#Degradado_sin_nombre_2)"/><path d="M228.65,239.31l-42.07-42.06L62.41,321.41c4.52,4.81,12.23,5.54,20.67.59Z" style="fill:url(#Degradado_sin_nombre_3)"/><path d="M228.65,155.32,83.08,72.64c-8.58-4.8-16.15-4.22-20.67.58L186.58,197.39Z" style="fill:url(#Degradado_sin_nombre_4)"/><path d="M227.63,238.44,83.08,320.54c-8.15,4.66-15.28,4.37-19.94.15l-.73.72.73.73c4.66,4.22,11.94,4.51,19.94-.14l145.57-82.69Z" style="opacity:0.20000000298023224;isolation:isolate"/><path d="M62.41,320c-2.91-3.06-4.65-7.86-4.65-14v1.46c0,6.11,1.74,10.92,4.65,14l.73-.72ZM277.27,210.2l-49.64,28.24.88.87,48.76-27.65c7-3.93,10.48-9.17,10.48-14.41C287.17,202.05,283.68,206.56,277.27,210.2Z" style="opacity:0.11999999731779099;isolation:isolate"/><path d="M83.08,74,277.27,184.29c6.26,3.64,9.9,8.15,10.48,13,0-5.25-3.49-10.49-10.48-14.42L83.08,72.49c-14-7.86-25.32-1.31-25.32,14.56v1.46C57.76,72.64,69.11,66.09,83.08,74Z" style="fill:#fff;opacity:0.25;isolation:isolate"/><path d="M630.46,192.18c-25.42,0-46.08,19.3-46.08,45.95s20.66,45.94,46.08,45.94,46.08-19.44,46.08-45.94S655.88,192.18,630.46,192.18Zm0,73.81c-13.86,0-26-11.55-26-27.86,0-16.59,12-27.87,26-27.87s26,11.28,26,27.87C656.29,254.44,644.33,266,630.46,266Zm123.43-63.48h-.68c-4.48-5.44-13.18-10.33-24.19-10.33-23,0-44,20.25-44,46.08s21.07,45.81,44,45.81c11,0,19.71-4.89,24.19-10.46h.68v6.66c0,17.53-9.38,26.91-24.47,26.91-12.37,0-20-8.83-23.11-16.31l-17.53,7.34c5,12.24,18.49,27.19,40.78,27.19,23.65,0,43.64-13.87,43.64-47.85V195H754ZM730.78,266c-13.86,0-25.55-11.69-25.55-27.73s11.69-28,25.55-28,24.47,11.83,24.47,28S744.51,266,730.78,266ZM529.87,192.18c-25.42,0-46.09,19.3-46.09,45.95s20.67,45.94,46.09,45.94S576,264.63,576,238.13s-20.66-45.95-46.08-45.95Zm0,73.81c-13.87,0-26-11.55-26-27.86,0-16.59,12-27.87,26-27.87s26,11.28,26,27.87C555.7,254.44,543.73,266,529.87,266ZM410.11,206.18v19.44h46.62c-1.36,11-5,19-10.6,24.61-6.8,6.79-17.4,14.27-36,14.27-28.69,0-51.12-23.11-51.12-51.79s22.43-51.8,51.12-51.8a50.27,50.27,0,0,1,35.2,13.87L459,161.05c-11.69-11.15-27.18-19.71-48.93-19.71-39.29,0-72.46,32.08-72.46,71.37s33,71.36,72.46,71.36c21.2,0,37.24-6.93,49.75-20,12.91-12.91,16.86-31,16.86-45.54a65.93,65.93,0,0,0-1.09-12.23Zm489.37,15.36c-3.81-10.33-15.5-29.22-39.28-29.22s-43.37,18.62-43.37,45.94c0,25.7,19.44,45.95,45.54,45.95a45.77,45.77,0,0,0,38.33-20.39l-15.63-10.47C879.91,261,872.7,266,862.51,266s-17.54-4.75-22.3-13.86l61.45-25.42ZM837,236.77C836.41,219,850.68,210,861,210c8,0,14.82,3.94,17,9.79Zm-50,44.59H807v-135H786.92Zm207.17-135H945.84v135H966V230.24h28.14c22.3,0,44.32-16.17,44.32-42S1016.39,146.37,994.09,146.37Zm.55,64.84H966V165h28.69a23.12,23.12,0,1,1,0,46.22Zm54.92,70.15h20.11v-135h-20.11Zm69.6-89.45c-14.55,0-29.77,6.39-36,20.66l17.95,7.48c3.8-7.48,10.87-9.93,18.35-9.93,10.47,0,21.07,6.26,21.2,17.4v1.36a45.17,45.17,0,0,0-21.07-5.16c-19.3,0-38.87,10.6-38.87,30.45,0,18.08,15.76,29.63,33.57,29.63,13.6,0,21.07-6.12,25.69-13.18h.68v10.46h19.44V229.29c.14-23.92-17.8-37.38-40.91-37.38ZM1116.71,266c-6.66,0-15.77-3.26-15.77-11.41,0-10.47,11.42-14.41,21.34-14.41,8.84,0,13,1.9,18.35,4.48A24.26,24.26,0,0,1,1116.71,266ZM1231,194.9l-23.11,58.59h-.68l-23.92-58.59h-21.75l35.89,81.83-20.53,45.68H1198L1253.46,195H1231ZM1219.43,0H82c-3,0-6,.1-9,.1A131.35,131.35,0,0,0,53.6,1.9a63.64,63.64,0,0,0-18.45,6A64.56,64.56,0,0,0,19.42,19.42,61.36,61.36,0,0,0,7.9,35.15a62.69,62.69,0,0,0-6,18.55A128.9,128.9,0,0,0,.1,73.12C.1,76,0,79,0,82V311.58c0,3,.1,6,.1,9A129,129,0,0,0,1.9,340a64.1,64.1,0,0,0,6,18.54,63.49,63.49,0,0,0,27.25,27.06,63.07,63.07,0,0,0,18.45,6.2A146.08,146.08,0,0,0,73,393.51c3,0,6,.11,9,.11h1147.9c2.91,0,6-.11,8.91-.11a143.38,143.38,0,0,0,19.43-1.69,64.83,64.83,0,0,0,18.54-6.2,61.37,61.37,0,0,0,15.73-11.43A60.57,60.57,0,0,0,1310.08,340a129,129,0,0,0,1.79-19.42v-9c.11-3.49.11-7,.11-10.61V92.65c0-3.59,0-7.12-.11-10.61V73.12a128.89,128.89,0,0,0-1.79-19.42,64.56,64.56,0,0,0-6-18.55,64.6,64.6,0,0,0-11.53-15.73A63.62,63.62,0,0,0,1276.82,7.9a62.63,62.63,0,0,0-18.54-6A129,129,0,0,0,1238.85.1c-2.91,0-6-.1-8.91-.1ZM82,385.07c-3,0-5.8,0-8.82-.1a110.53,110.53,0,0,1-18.13-1.59A56.52,56.52,0,0,1,39,378.06a51.71,51.71,0,0,1-13.52-9.83,52.39,52.39,0,0,1-9.9-13.63,58,58,0,0,1-5.33-16.14,116.55,116.55,0,0,1-1.59-18.14c-.1-2.1-.1-8.91-.1-8.91V82s.1-6.71.1-8.71A114.56,114.56,0,0,1,10.2,55.12a59.13,59.13,0,0,1,5.33-16.24,54.21,54.21,0,0,1,9.83-13.52A51.83,51.83,0,0,1,39,15.46a54.46,54.46,0,0,1,16.13-5.32,115.64,115.64,0,0,1,18.24-1.6l8.71-.1H1229.83l8.92.1a113.3,113.3,0,0,1,18,1.6A54.51,54.51,0,0,1,1273,15.46a50.62,50.62,0,0,1,13.53,9.9,53.67,53.67,0,0,1,10,13.63,52.92,52.92,0,0,1,5.12,16,116.71,116.71,0,0,1,1.69,18.34c.11,2.71.11,5.7.11,8.61V311.41c0,3.12,0,6-.11,9a124.58,124.58,0,0,1-1.59,17.93,53.92,53.92,0,0,1-5.32,16.24,52.51,52.51,0,0,1-9.83,13.52A54.19,54.19,0,0,1,1273,378a56.15,56.15,0,0,1-16.24,5.32,107.7,107.7,0,0,1-18.13,1.6c-2.82.1-5.8.1-8.72.1H82Zm261.67-262.8V66.08h19.35a47.52,47.52,0,0,1,10,.8,19,19,0,0,1,8.24,4,22.85,22.85,0,0,1,6.65,9.6,37.69,37.69,0,0,1,2.2,13.36,39.45,39.45,0,0,1-1.49,11.34,27.84,27.84,0,0,1-3.83,8.19,20.39,20.39,0,0,1-5.12,5.09,20.85,20.85,0,0,1-6.71,2.82,38.24,38.24,0,0,1-9,1Zm7.43-6.63h12a29.07,29.07,0,0,0,8.72-1,12.47,12.47,0,0,0,5-2.91,17.67,17.67,0,0,0,4.12-7.11,34.9,34.9,0,0,0,1.48-10.83q0-8.82-2.9-13.55a14.56,14.56,0,0,0-7-6.34q-3-1.15-9.62-1.15H351.14Zm50.52,6.63V66.08h7.44v56.19Zm18-18,7-.62a15.51,15.51,0,0,0,2.32,6.92,12.66,12.66,0,0,0,5.65,4.37,21.46,21.46,0,0,0,8.63,1.67,20.49,20.49,0,0,0,7.51-1.27,10.41,10.41,0,0,0,4.85-3.47,8,8,0,0,0,1.59-4.81,7.34,7.34,0,0,0-1.53-4.62,11.36,11.36,0,0,0-5.06-3.31,98.3,98.3,0,0,0-10-2.74q-7.74-1.86-10.84-3.51a15.1,15.1,0,0,1-6-5.23,12.78,12.78,0,0,1-2-7,14.3,14.3,0,0,1,2.42-7.95A15,15,0,0,1,431.29,67a26.89,26.89,0,0,1,10.31-1.91,28.18,28.18,0,0,1,11,2A15.92,15.92,0,0,1,460,73.05a17.07,17.07,0,0,1,2.76,8.86l-7.13.53q-.57-5.32-3.89-8t-9.79-2.72q-6.75,0-9.83,2.48a7.39,7.39,0,0,0-3.09,6,6.38,6.38,0,0,0,2.19,5q2.15,1.95,11.21,4a74.68,74.68,0,0,1,12.44,3.59,17.07,17.07,0,0,1,7.24,5.73,14,14,0,0,1,2.34,8,15.29,15.29,0,0,1-2.57,8.45,16.85,16.85,0,0,1-7.38,6.17,25.66,25.66,0,0,1-10.83,2.21A32.2,32.2,0,0,1,430.85,121a17.93,17.93,0,0,1-8.09-6.68A19,19,0,0,1,419.68,104.22Zm54.89,18V66.08h21.19a52.24,52.24,0,0,1,8.55.53,17,17,0,0,1,6.94,2.63,13.78,13.78,0,0,1,4.5,5.42,18.28,18.28,0,0,1-2.85,19.8q-4.56,5-16.48,5H482v22.85ZM482,92.79h14.53c4.8,0,8.22-.89,10.23-2.68a9.56,9.56,0,0,0,3-7.55,10.17,10.17,0,0,0-1.78-6,8.31,8.31,0,0,0-4.69-3.31,31.33,31.33,0,0,0-6.94-.5H482Zm42.67,2.11q0-14,7.51-21.9t19.39-7.92a26.88,26.88,0,0,1,14,3.72,24.27,24.27,0,0,1,9.53,10.37,33.72,33.72,0,0,1,3.27,15.08A33.07,33.07,0,0,1,575,109.54a23.45,23.45,0,0,1-9.77,10.22,28,28,0,0,1-13.65,3.47,26.56,26.56,0,0,1-14.18-3.84,24.6,24.6,0,0,1-9.46-10.46A31.67,31.67,0,0,1,524.67,94.9Zm7.66.12q0,10.16,5.46,16a19.06,19.06,0,0,0,27.52-.06q5.43-5.89,5.43-16.75a28.74,28.74,0,0,0-2.32-12,17.88,17.88,0,0,0-6.78-7.93,18.4,18.4,0,0,0-10-2.82A19,19,0,0,0,538,76.91Q532.34,82.32,532.33,95Zm55.58,27.25V66.08h7.63l29.51,44.12V66.08h7.13v56.19h-7.63L595,78.11v44.16Zm58,0V66.08h7.44v56.19Zm20.24,0V66.08h21.08a26.19,26.19,0,0,1,10.33,1.7,13.3,13.3,0,0,1,6.1,5.25,13.86,13.86,0,0,1,2.2,7.42,12.81,12.81,0,0,1-1.95,6.79A13.94,13.94,0,0,1,698,92.37a14.68,14.68,0,0,1,7.84,5.1,13.63,13.63,0,0,1,2.74,8.51,16.43,16.43,0,0,1-1.66,7.34,14.39,14.39,0,0,1-4.12,5.23,17.25,17.25,0,0,1-6.16,2.78,37.12,37.12,0,0,1-9.06.94Zm7.44-32.58h12.15a27.34,27.34,0,0,0,7.09-.65,7.91,7.91,0,0,0,4.27-2.8,8,8,0,0,0,1.44-4.91,9,9,0,0,0-1.34-4.92,6.84,6.84,0,0,0-3.83-2.92,32.29,32.29,0,0,0-8.55-.78H673.62Zm0,26h14a32,32,0,0,0,5.06-.27,12.3,12.3,0,0,0,4.29-1.53,8.17,8.17,0,0,0,2.84-3.13,9.75,9.75,0,0,0,1.11-4.73,9.33,9.33,0,0,0-1.61-5.46,8.47,8.47,0,0,0-4.47-3.26,27.51,27.51,0,0,0-8.22-.94h-13Zm44.92,6.63V66.08H726v49.56h27.67v6.63Zm44.12,0V66.08h40.63v6.63H770.1V89.92h31.08v6.59H770.1v19.13h34.49v6.63Zm74.17,0V66.08h40.63v6.63H844.27V89.92h31.08v6.59H844.27v19.13h34.49v6.63Zm52.13,0V66.08h7.63L926.1,110.2V66.08h7.13v56.19H925.6L896.09,78.11v44.16Z"/></g></g></svg>