<svg xmlns="http://www.w3.org/2000/svg" xmlns:xlink="http://www.w3.org/1999/xlink" viewBox="0 0 36.65 58.33"><defs><linearGradient id="Degradado_sin_nombre_109" y1="29.17" x2="36.65" y2="29.17" gradientUnits="userSpaceOnUse"><stop offset="0" stop-color="#eab5f7"/><stop offset="0.16" stop-color="#a7adee"/><stop offset="0.32" stop-color="#65a5e5"/><stop offset="0.44" stop-color="#3da0df"/><stop offset="0.5" stop-color="#2d9edd"/><stop offset="0.72" stop-color="#2d9fdb"/><stop offset="0.81" stop-color="#2ba2d4"/><stop offset="0.88" stop-color="#28a8c7"/><stop offset="0.94" stop-color="#25b0b5"/><stop offset="0.99" stop-color="#20ba9e"/><stop offset="1" stop-color="#1fbb9b"/></linearGradient></defs><g id="Capa_2" data-name="Capa 2"><g id="Capa_1-2" data-name="Capa 1"><path d="M36.24,46.21c-.09-2-.18-4-.17-6,0-5,0-10.11,0-15.14s0-10.24,0-15.35c0-2.85,1-8.17-2.39-9.26C31.46-.22,28.27.17,25.93.1s-4.67-.1-7-.1c-2.8,0-5.61.07-8.41.18C8.15.27,5.37,0,3.09.71-.69,1.84.36,7.73.29,10.76,0,24.89-.27,39.26.49,53.36c.25,4.76,4,4.85,7.78,4.92,5.72.09,11.46,0,17.19-.07,3.46-.07,9.69,1.06,10.89-3.21C37,52.53,36.36,48.76,36.24,46.21Zm-4,10.32a33.82,33.82,0,0,1-4.84.14c-4.57.14-9.15.15-13.72.15C9.92,56.81,2.89,58.25,2,53.36c-.54-2.89-.09-6.33-.11-9.24L1.8,30.36c0-4.44-.13-8.87-.09-13.32,0-2.34.05-4.69.1-7,0-1.64-.36-4.22.2-5.79C3.15,1,9,1.72,11.92,1.63c4.66-.16,9.34-.17,14,0,2,0,5.27-.44,7.1.32s1.29,1.27,1.45,2.57a59.32,59.32,0,0,1,.12,6.8c0,4.6.18,9.21,0,13.81-.14,6.57-.26,13.29.05,19.86.1,2.13.17,4.26.18,6.39C34.86,53.72,35.19,56,32.23,56.53Zm-18.59-53q4.72-.3,9.46-.15a.75.75,0,0,1,0,1.5q-4.74-.15-9.46.15C12.67,5.11,12.68,3.61,13.64,3.54Zm6.45,47.72c-1.78,0-5.74-.64-6.24,1.84s2.18,2.75,4,2.81,5.15.2,5.69-1.93S21.68,51.31,20.09,51.26Zm1.25,2.85a9.66,9.66,0,0,1-3.51.3,5.21,5.21,0,0,1-2.1-.23.65.65,0,0,1,.08-1.24,6,6,0,0,1,2.12-.13l2.16-.05c.45,0,1.45-.07,1.8.29C22.4,53.58,21.79,53.94,21.34,54.11Zm7.27-11.29c0,1.31.62,4.34-1.25,4.66a25.27,25.27,0,0,1-3.26,0c-1.05,0-2.11.08-3.16.09a.75.75,0,0,1,0-1.5c1.45,0,2.91-.1,4.37-.12a5.08,5.08,0,0,0,1.17,0h.45a1.64,1.64,0,0,0,.18-.8,20.82,20.82,0,0,0,0-2.37A.75.75,0,0,1,28.61,42.82Zm-.75-3.47a.75.75,0,0,1,0,1.5A.75.75,0,0,1,27.86,39.35Zm4.05-6.26c-.22-8.17-.34-16.31-.2-24.47A.73.73,0,0,0,31.33,8a10.35,10.35,0,0,0-3.6-.25c-3,0-6.07,0-9.11,0-4.25,0-9-.51-13.2.2a.74.74,0,0,0-.55.72c-.12,5.77-.3,11.54-.32,17.31,0,6.87.17,13.76.42,20.63,0,1.24-.3,3,.84,3.7,1.54,1,5.5.37,7.19.39q5.9.08,11.77-.11c1.58,0,5.36.42,6.77-.56,1.16-.81.68-2.82.66-4.09C32.15,41.63,32,37.36,31.91,33.09Zm-1.72-24c-.05-.06,0-.09,0,0Zm-6.11,40c-4.92.15-9.87.21-14.8,0a13.44,13.44,0,0,1-2.54-.15.62.62,0,0,0-.17,0,2.31,2.31,0,0,0,0-.34,64.84,64.84,0,0,1-.22-7c-.13-5.22-.26-10.44-.28-15.66,0-4.88.16-9.77.26-14.65,0-.58.11-1.29.07-1.91a35.46,35.46,0,0,0,4.73-.11c5.17-.06,10.34-.1,15.51-.06a31.12,31.12,0,0,1,3.61,0,3.4,3.4,0,0,1,0,.72,28.7,28.7,0,0,0-.05,4.25c-.1,10.76.47,21.49.57,32.24a8.92,8.92,0,0,1,0,2.25s0,0,0,0h-.57C28.14,48.74,26.1,49,24.08,49.07Zm.8-13c.93-2.38-.75-5.18-2.56-6.64a8.07,8.07,0,0,0-3-1.43q0-4.39.08-8.77c2-.43,3.83.17,4.32,2.67.18.95,1.63.55,1.45-.4-.61-3.1-3.12-4-5.75-3.59,0-.67,0-1.35,0-2a.75.75,0,0,0-1.5,0c0,.8,0,1.6-.05,2.4a8.38,8.38,0,0,0-5.1,4.27c-1,2.53.05,4.61,2.44,5.75a13.54,13.54,0,0,0,2.57.84c0,3,.06,5.94.13,8.91-2.51,0-4.85-1.11-4.72-3.83.05-1-1.46-1-1.5,0-.17,3.53,3,5.38,6.26,5.51,0,1,0,1.9.07,2.85s1.53,1,1.5,0-.05-1.94-.07-2.92C21.83,39.34,24.05,38.14,24.88,36Zm-7.61-8.63c-5.73-1.73-2.95-6.06.58-7.7,0,2.62-.07,5.23-.07,7.85Zm2,2.13a6.42,6.42,0,0,1,2.17,1.15c4.44,3.71,1.5,6.54-2.05,7.19Q19.31,33.69,19.28,29.52Z" style="fill:url(#Degradado_sin_nombre_109)"/></g></g></svg>