<svg xmlns="http://www.w3.org/2000/svg" xmlns:xlink="http://www.w3.org/1999/xlink" viewBox="0 0 476.69 231.52"><defs><filter id="luminosity-noclip" x="0" y="-9844.35" width="476.69" height="32766" filterUnits="userSpaceOnUse" color-interpolation-filters="sRGB"><feFlood flood-color="#fff" result="bg"/><feBlend in="SourceGraphic" in2="bg"/></filter><mask id="mask" x="0" y="-9844.35" width="476.69" height="32766" maskUnits="userSpaceOnUse"><g style="filter:url(#luminosity-noclip)"/></mask><linearGradient id="linear-gradient" x1="7657.1" y1="347.01" x2="7836" y2="-84.46" gradientTransform="translate(-7479.2)" gradientUnits="userSpaceOnUse"><stop offset="0"/><stop offset="0.99" stop-color="#fff"/></linearGradient><filter id="luminosity-noclip-2" x="0" y="0" width="476.69" height="231.52" filterUnits="userSpaceOnUse" color-interpolation-filters="sRGB"><feFlood flood-color="#fff" result="bg"/><feBlend in="SourceGraphic" in2="bg"/></filter><mask id="mask-2" x="0" y="0" width="476.69" height="231.52" maskUnits="userSpaceOnUse"><g style="mask:url(#mask);filter:url(#luminosity-noclip-2)"><path d="M408,117.66a66.4,66.4,0,0,0-11.44,1A137.5,137.5,0,0,0,130.57,92h0c-2.53-.22-5.11-.32-7.69-.32a94.74,94.74,0,0,0-93.24,77.91A43.95,43.95,0,0,0,5,231.51H459.82A68.75,68.75,0,0,0,408,117.66Z" style="mix-blend-mode:multiply;fill:url(#linear-gradient)"/></g></mask><linearGradient id="linear-gradient-2" x1="7657.1" y1="347.01" x2="7836" y2="-84.46" gradientTransform="translate(-7479.2)" gradientUnits="userSpaceOnUse"><stop offset="0" stop-color="#fff6ff"/><stop offset="0.99" stop-color="#fff"/></linearGradient><linearGradient id="linear-gradient-3" x1="-19.16" y1="115.15" x2="231.56" y2="113.51" gradientUnits="userSpaceOnUse"><stop offset="0" stop-color="#262860"/><stop offset="1" stop-color="#3c429a"/></linearGradient></defs><g id="Capa_2" data-name="Capa 2"><g id="Capa_1-2" data-name="Capa 1"><g style="mask:url(#mask-2)"><path d="M408,117.66a66.4,66.4,0,0,0-11.44,1A137.5,137.5,0,0,0,130.57,92h0c-2.53-.22-5.11-.32-7.69-.32a94.74,94.74,0,0,0-93.24,77.91A43.95,43.95,0,0,0,5,231.51H459.82A68.75,68.75,0,0,0,408,117.66Z" style="fill:url(#linear-gradient-2)"/></g><path d="M232.77,125.85h-5.85c-.21-1-.44-2-.62-3-.08-.42-.21-.58-.68-.58q-3.52,0-7,0a.53.53,0,0,0-.61.43c-.32,1-.67,1.93-1,2.88-.05.13-.22.31-.33.31-2.11,0-4.23,0-6.4,0,.39-1,.77-1.86,1.15-2.77q4.09-9.77,8.18-19.51a2.88,2.88,0,0,1,3-2h5.14c.17.79.34,1.57.5,2.35q2,9.64,4,19.29c.17.82.37,1.64.56,2.46Zm-7.66-8.63c-.62-3-1.23-5.93-1.85-8.88l-.07,0q-1.62,4.44-3.23,8.9Zm-20.76-16.08a2.37,2.37,0,0,1-.36.09,11.41,11.41,0,0,0-6,2.34,6.92,6.92,0,0,0-2.7,6.39,5.68,5.68,0,0,0,2.55,4c1.07.77,2.26,1.36,3.39,2a16.83,16.83,0,0,1,2.12,1.39,1.75,1.75,0,0,1-.2,2.88,4.53,4.53,0,0,1-1.65.69,11.38,11.38,0,0,1-6.41-.8c-.43-.17-.86-.37-1.31-.57-.38,1.8-.76,3.56-1.13,5.31l.17.1c.18.07.35.15.53.21a20.18,20.18,0,0,0,8.13.92,12,12,0,0,0,5.56-1.8,7.32,7.32,0,0,0,3.46-7.47,5.77,5.77,0,0,0-2.76-4.1c-1.24-.82-2.59-1.49-3.87-2.26a9.54,9.54,0,0,1-1.6-1.15,1.37,1.37,0,0,1,0-2.16,4,4,0,0,1,1.5-.79,8.08,8.08,0,0,1,4,0c1,.21,1.9.54,2.88.83.35-1.67.72-3.37,1.09-5.12-.74-.21-1.42-.44-2.12-.6s-1.54-.29-2.31-.44Zm-20.24.44h-5.78a.5.5,0,0,0-.56.38q-3.09,7.85-6.19,15.67c0,.1-.1.2-.18.36-.06-.27-.1-.47-.14-.66-.83-4.42-1.66-8.85-2.5-13.26a2.89,2.89,0,0,0-3-2.48h-10c-.69,0-.69,0-.7.73l.24.06a30.83,30.83,0,0,1,5.44,1.76,3.3,3.3,0,0,1,2,2.42c1.59,6.28,3.23,12.55,4.84,18.83.09.36.22.5.63.5,1.9,0,3.8,0,5.7,0a.58.58,0,0,0,.66-.43q4.5-10.77,9-21.55c.32-.75.63-1.5,1-2.29Zm-1.57,24.28c1.73,0,3.45,0,5.18,0,.48,0,.65-.14.74-.6q2.13-10,4.28-20c.25-1.21.51-2.42.77-3.65h-6.3c-1.73,8.08-3.45,16.15-5.19,24.26Z" style="fill:url(#linear-gradient-3)"/><path d="M274.15,136.24a2.47,2.47,0,0,1,.16.92v3.57h-1.2v-3.16a1.62,1.62,0,0,0-.34-1.11,1.2,1.2,0,0,0-.94-.38,1.42,1.42,0,0,0-.55.1,1.31,1.31,0,0,0-.45.28,1.54,1.54,0,0,0-.31.47,1.67,1.67,0,0,0-.11.65v3.15H269.2v-3.16a1.67,1.67,0,0,0-.33-1.11,1.22,1.22,0,0,0-.95-.38,1.45,1.45,0,0,0-.55.1,1.31,1.31,0,0,0-.45.28,1.54,1.54,0,0,0-.31.47,1.88,1.88,0,0,0-.11.65v3.15h-1.21v-5.68h1.2v.69a1.64,1.64,0,0,1,.37-.41,1.71,1.71,0,0,1,.42-.26,1.86,1.86,0,0,1,.46-.13,2.15,2.15,0,0,1,.43,0,2.3,2.3,0,0,1,1.13.27,2.1,2.1,0,0,1,.77.74,1.89,1.89,0,0,1,.42-.5,1.94,1.94,0,0,1,.51-.31,2.16,2.16,0,0,1,.55-.16,3.23,3.23,0,0,1,.53,0,2.36,2.36,0,0,1,.9.16,2.15,2.15,0,0,1,.71.47A2.12,2.12,0,0,1,274.15,136.24Zm5.89-1.19h1.24v5.68H280V140a2.06,2.06,0,0,1-.73.61,2.26,2.26,0,0,1-1.05.22,2.75,2.75,0,0,1-2-.84,2.86,2.86,0,0,1-.6-.94,3.16,3.16,0,0,1-.22-1.2,3.09,3.09,0,0,1,.22-1.2,2.8,2.8,0,0,1,.6-.95,3,3,0,0,1,.9-.62,2.8,2.8,0,0,1,1.12-.22,2.16,2.16,0,0,1,1.78.83Zm.08,2.84a2.15,2.15,0,0,0-.12-.73,1.82,1.82,0,0,0-.35-.57,1.6,1.6,0,0,0-.54-.38,1.62,1.62,0,0,0-.7-.14,1.65,1.65,0,0,0-.72.14,1.62,1.62,0,0,0-.88,1,2.08,2.08,0,0,0-.12.71,2,2,0,0,0,.12.7,1.68,1.68,0,0,0,.34.58,1.78,1.78,0,0,0,.54.39,1.66,1.66,0,0,0,.72.15,1.78,1.78,0,0,0,.7-.14,1.63,1.63,0,0,0,.54-.39,1.82,1.82,0,0,0,.35-.57A2.09,2.09,0,0,0,280.12,137.89Zm6.86,0a3.17,3.17,0,0,0-1.45-.55l-.59-.08-.37-.07a1.33,1.33,0,0,1-.3-.11.49.49,0,0,1-.19-.16.41.41,0,0,1-.08-.25.58.58,0,0,1,.28-.49,1.5,1.5,0,0,1,.8-.19,3.05,3.05,0,0,1,.52.05,3.51,3.51,0,0,1,.49.12,4.09,4.09,0,0,1,.42.16,2.38,2.38,0,0,1,.32.16l.53-1a3.72,3.72,0,0,0-1-.44,5.2,5.2,0,0,0-1.27-.16,3.56,3.56,0,0,0-1,.13,2.43,2.43,0,0,0-.74.36,1.55,1.55,0,0,0-.47.58,1.65,1.65,0,0,0-.16.75,1.44,1.44,0,0,0,.48,1.12,2.81,2.81,0,0,0,1.44.55l.6.08a1.65,1.65,0,0,1,.74.23.45.45,0,0,1,.24.4.56.56,0,0,1-.33.5,1.89,1.89,0,0,1-1,.19,3.93,3.93,0,0,1-.63,0,2.44,2.44,0,0,1-.5-.13,2.2,2.2,0,0,1-.41-.18l-.34-.22-.57.93a3,3,0,0,0,.64.37,4.84,4.84,0,0,0,.67.23,5,5,0,0,0,.62.1l.51,0a4.06,4.06,0,0,0,1.09-.14,2.53,2.53,0,0,0,.81-.38,1.69,1.69,0,0,0,.51-.59,1.66,1.66,0,0,0,.17-.75A1.35,1.35,0,0,0,287,137.88Zm12.15-1.21a3.57,3.57,0,0,1,.2,1.21,1.93,1.93,0,0,1,0,.24c0,.08,0,.15,0,.22h-4.2a1.77,1.77,0,0,0,.22.66,1.68,1.68,0,0,0,.38.45,1.54,1.54,0,0,0,.51.26,2.2,2.2,0,0,0,.58.08,2.42,2.42,0,0,0,.86-.16,2.74,2.74,0,0,0,.78-.44l.62.88a3.11,3.11,0,0,1-1.11.63,4.16,4.16,0,0,1-1.23.17,3.16,3.16,0,0,1-1.17-.21,2.62,2.62,0,0,1-.92-.6,2.66,2.66,0,0,1-.6-.95,3.36,3.36,0,0,1-.21-1.22,3.63,3.63,0,0,1,.2-1.22,2.73,2.73,0,0,1,.59-.94,2.46,2.46,0,0,1,.89-.62,3,3,0,0,1,1.15-.21,2.74,2.74,0,0,1,1.08.21,2.4,2.4,0,0,1,.85.62A2.65,2.65,0,0,1,299.13,136.67Zm-1.07.73a1.77,1.77,0,0,0-.47-1,1.3,1.3,0,0,0-1-.37,1.55,1.55,0,0,0-.59.1,1.21,1.21,0,0,0-.44.29,1.4,1.4,0,0,0-.31.44,2.09,2.09,0,0,0-.16.57Zm17-2.35h1.24v5.68H315V140a2.06,2.06,0,0,1-.73.61,2.26,2.26,0,0,1-1.05.22,2.75,2.75,0,0,1-2-.84,2.86,2.86,0,0,1-.6-.94,3.16,3.16,0,0,1-.22-1.2,3.09,3.09,0,0,1,.22-1.2,2.8,2.8,0,0,1,.6-.95,3,3,0,0,1,.9-.62,2.8,2.8,0,0,1,1.12-.22,2.16,2.16,0,0,1,1.78.83Zm.08,2.84a2.15,2.15,0,0,0-.12-.73,1.82,1.82,0,0,0-.35-.57,1.6,1.6,0,0,0-.54-.38,1.62,1.62,0,0,0-.7-.14,1.65,1.65,0,0,0-.72.14,1.62,1.62,0,0,0-.88,1,2.08,2.08,0,0,0-.12.71,2,2,0,0,0,.12.7,1.68,1.68,0,0,0,.34.58,1.78,1.78,0,0,0,.54.39,1.66,1.66,0,0,0,.72.15,1.78,1.78,0,0,0,.7-.14,1.63,1.63,0,0,0,.54-.39,1.82,1.82,0,0,0,.35-.57A2.09,2.09,0,0,0,315.12,137.89Zm-22.83,1.7a1.56,1.56,0,0,1-.59.12,1,1,0,0,1-.35-.06.77.77,0,0,1-.29-.19.87.87,0,0,1-.19-.33,1.39,1.39,0,0,1-.07-.48v-2.48h2v-1.12h-2v-1.72h-1.24v1.72h-1.14v1.12h1.14v2.5a2.28,2.28,0,0,0,.53,1.67,2,2,0,0,0,1.51.53,2.65,2.65,0,0,0,1-.16,3.71,3.71,0,0,0,.53-.25l-.42-1A2.59,2.59,0,0,1,292.29,139.59Zm11.19-4.69a2.19,2.19,0,0,0-.94.19,2,2,0,0,0-.71.7v-.74h-1.12v5.68h1.13V137.6a2.1,2.1,0,0,1,.1-.64,1.41,1.41,0,0,1,.28-.48,1.08,1.08,0,0,1,.43-.3,1.4,1.4,0,0,1,.54-.1,2.81,2.81,0,0,1,.49,0l.25.07.37-1.19a1.55,1.55,0,0,0-.31-.07A2.64,2.64,0,0,0,303.48,134.9Zm17.22,0a2.23,2.23,0,0,0-.94.19,2,2,0,0,0-.7.7v-.74h-1.13v5.68h1.14V137.6a1.83,1.83,0,0,1,.1-.64,1.41,1.41,0,0,1,.28-.48,1.12,1.12,0,0,1,.42-.3,1.42,1.42,0,0,1,.55-.1,3,3,0,0,1,.49,0l.25.07.36-1.19a1.63,1.63,0,0,0-.3-.07A2.75,2.75,0,0,0,320.7,134.9Zm7-2.16v8h-1.24V140a2.06,2.06,0,0,1-.73.61,2.29,2.29,0,0,1-1.05.22,2.75,2.75,0,0,1-2-.84,2.86,2.86,0,0,1-.6-.94,3.16,3.16,0,0,1-.22-1.2,3.09,3.09,0,0,1,.22-1.2,2.8,2.8,0,0,1,.6-.95,3,3,0,0,1,.9-.62,2.8,2.8,0,0,1,1.12-.22,2.17,2.17,0,0,1,1.05.23,2.14,2.14,0,0,1,.73.6v-3Zm-1.16,5.15a2.15,2.15,0,0,0-.12-.73,1.82,1.82,0,0,0-.35-.57,1.6,1.6,0,0,0-.54-.38,1.62,1.62,0,0,0-.7-.14,1.63,1.63,0,0,0-1.26.53,1.77,1.77,0,0,0-.34.58,2.08,2.08,0,0,0-.12.71,2,2,0,0,0,.12.7,1.62,1.62,0,0,0,.88,1,1.66,1.66,0,0,0,.72.15,1.78,1.78,0,0,0,.7-.14,1.63,1.63,0,0,0,.54-.39,1.82,1.82,0,0,0,.35-.57A2.09,2.09,0,0,0,326.57,137.89Zm-20.13-1.32a1.7,1.7,0,0,1,.57-.37,1.82,1.82,0,0,1,.7-.13h0a2.2,2.2,0,0,1,.78.13,2,2,0,0,1,.6.36l.6-1a3,3,0,0,0-.76-.44,3,3,0,0,0-1.22-.23,3,3,0,0,0-1.21.23,2.93,2.93,0,0,0-1,.62,3.12,3.12,0,0,0-.64.95,3.17,3.17,0,0,0,0,2.37,3,3,0,0,0,.64,1,3.13,3.13,0,0,0,1,.63,3.18,3.18,0,0,0,1.21.22,3.23,3.23,0,0,0,1.22-.22,3.35,3.35,0,0,0,.76-.44l-.6-1a1.66,1.66,0,0,1-.6.36,2.21,2.21,0,0,1-.78.14h0a1.82,1.82,0,0,1-.7-.14,1.7,1.7,0,0,1-.57-.37,1.8,1.8,0,0,1-.37-.58,1.9,1.9,0,0,1-.13-.73,2,2,0,0,1,.13-.74A1.8,1.8,0,0,1,306.44,136.57Zm23.67,3.37a.52.52,0,0,0-.19.12.59.59,0,0,0-.13.19.54.54,0,0,0-.05.22.59.59,0,0,0,.05.23.46.46,0,0,0,.13.18.43.43,0,0,0,.19.13.68.68,0,0,0,.46,0,.43.43,0,0,0,.19-.13.46.46,0,0,0,.13-.18.59.59,0,0,0,.05-.23.54.54,0,0,0-.05-.22.59.59,0,0,0-.13-.19.52.52,0,0,0-.19-.12.55.55,0,0,0-.46,0Zm.07.92a.42.42,0,0,1-.14-.09l-.09-.13a.47.47,0,0,1,0-.17.45.45,0,0,1,0-.16.73.73,0,0,1,.09-.13.42.42,0,0,1,.14-.09.44.44,0,0,1,.32,0,.34.34,0,0,1,.14.09.73.73,0,0,1,.09.13.45.45,0,0,1,0,.16.47.47,0,0,1,0,.17l-.09.13a.34.34,0,0,1-.14.09.44.44,0,0,1-.32,0Zm-.06-.64v.51h.15v-.18h0l.14.18h.18l-.16-.18a.17.17,0,0,0,.11-.06.13.13,0,0,0,0-.1.19.19,0,0,0,0-.13.25.25,0,0,0-.16,0Zm.25.12h.05s0,0,0,0,0,0,0,0h-.15v-.1Z" style="fill:#1d1d1b"/><path d="M288.35,108.5a21.36,21.36,0,0,1,8.12-16.79,21.41,21.41,0,1,0,0,33.57A21.35,21.35,0,0,1,288.35,108.5Z" style="fill:#e20d17"/><ellipse cx="296.47" cy="108.5" rx="8.13" ry="16.78" style="fill:#ea610a"/><path d="M329.71,120.07v-.62h-.26v-.17h.7v.17h-.26v.62Zm1.34,0v-.55l-.18.48h-.2l-.18-.48v.55h-.19v-.79h.27l.2.51.2-.51h.27v.79Zm-21.3-33a21.32,21.32,0,0,0-13.28,4.62,21.39,21.39,0,0,1,0,33.57,21.41,21.41,0,1,0,13.28-38.19Z" style="fill:#f59e00"/><line x1="248.08" y1="81.17" x2="248.08" y2="148.12" style="fill:#353535"/></g></g></svg>