<svg xmlns="http://www.w3.org/2000/svg" xmlns:xlink="http://www.w3.org/1999/xlink" viewBox="0 0 395.74 407.59"><defs><clipPath id="clip-path"><path d="M393.7,196.41c-13.57-30.27-13.41,12.1-27.74,4.25s-21.69-2.65-20.45,11.53-15,8.29-15,8.29c-26.22,1.07-13.46,39-13.46,39l4.83,15.41s27,8.26,32-2.06c5.75-5.83-5-21.1,8-21,15.46.17,18.56-12,16-27.86C376.15,213.71,403.23,217.66,393.7,196.41Z" style="fill:#0d8456"/></clipPath><clipPath id="clip-path-2"><path d="M344.25,173.66C317,154.8,339,191,322.71,191.67s-19.92,9-11.51,20.45S302.68,227,302.68,227c-21.87,14.5,8.7,40.36,8.7,40.36L323.5,278s31.07-7.79,26.32-18.35c1.91-8-15.16-15.48-4-22,13.32-7.86,9.66-19.9-.78-32.1C338.2,197.55,363.4,186.9,344.25,173.66Z" style="fill:#18b741"/></clipPath></defs><g id="Capa_2" data-name="Capa 2"><g id="Capa_1-2" data-name="Capa 1"><rect x="133.42" y="69.07" width="206.04" height="144.56" rx="18.88" style="fill:#fff"/><rect x="201.21" y="161.62" width="45.04" height="32.5" rx="6.37" style="fill:#cff7f9"/><path d="M258.27,191.23c0,3.76,2.74,6.81,6.12,6.81h54.26c3.38,0,6.12-3,6.12-6.81V170.56c0-3.76-2.74-6.81-6.12-6.81H264.39c-3.38,0-6.12,3.05-6.12,6.81Z" style="fill:#cff7f9"/><path d="M133.42,88a18.88,18.88,0,0,1,18.89-18.88H320.58A18.88,18.88,0,0,1,339.46,88Z" style="fill:#2ddae8"/><path d="M163.49,78.51a2.67,2.67,0,1,0,2.67-2.67A2.67,2.67,0,0,0,163.49,78.51Z" style="fill:#fff"/><path d="M154.37,78.51A2.67,2.67,0,1,0,157,75.84,2.67,2.67,0,0,0,154.37,78.51Z" style="fill:#fff"/><path d="M209.37,105a8.44,8.44,0,0,0,8.44,8.44H317.1a8.44,8.44,0,0,0,8.44-8.44h0a8.44,8.44,0,0,0-8.44-8.44H217.81a8.44,8.44,0,0,0-8.44,8.44Z" style="fill:#cff7f9"/><path d="M216,109l1.4-1.6a4.51,4.51,0,1,1,1.39,1l-1.53,1.74a.84.84,0,0,1-1.18.08A.83.83,0,0,1,216,109Zm3.39-1.34a3.64,3.64,0,1,0-1.42-.92l.24.23A3.73,3.73,0,0,0,219.42,107.69Z" style="fill:#2ddae8"/><path d="M282.82,151c0,4.22,3.07,7.63,6.85,7.63H318c3.78,0,6.85-3.41,6.85-7.63V127.25c0-4.21-3.07-7.63-6.85-7.63H289.67c-3.78,0-6.85,3.42-6.85,7.63Z" style="fill:#cff7f9"/><rect x="197.47" y="119.62" width="79.49" height="39.02" rx="7.63" style="fill:#cff7f9"/><rect x="152.02" y="126.52" width="36.77" height="25.71" rx="7.63" style="fill:#cff7f9"/><rect x="146.79" y="107.14" width="47.21" height="38.75" rx="7.63" style="fill:#2ddae8"/><path d="M146,145.36l11-7-3.37,13-2.91-2.27-3,3.85a1.34,1.34,0,0,1-2.11-1.65l3-3.84Z" style="fill:#229bc6"/><rect x="196.75" y="149.2" width="53.95" height="38.93" rx="7.63" style="fill:#2ddae8"/><path d="M203.51,155.35a1.92,1.92,0,0,0,1.92,1.92h9.14a1.91,1.91,0,0,0,1.91-1.92h0a1.91,1.91,0,0,0-1.91-1.91h-9.14a1.92,1.92,0,0,0-1.92,1.91Z" style="fill:#fff"/><path d="M153.65,112.5a1,1,0,0,0,1,1h4.78a1,1,0,0,0,1-1h0a1,1,0,0,0-1-1h-4.78a1,1,0,0,0-1,1Z" style="fill:#fff"/><path d="M153.65,112.5a1,1,0,0,0,1,1h4.78a1,1,0,0,0,1-1h0a1,1,0,0,0-1-1h-4.78a1,1,0,0,0-1,1Z" style="fill:#fff"/><path d="M162.77,112.5a1,1,0,0,0,1,1h4.78a1,1,0,0,0,1-1h0a1,1,0,0,0-1-1h-4.78a1,1,0,0,0-1,1Z" style="fill:#fff"/><g id="Fast_Charging" data-name="Fast Charging"><path d="M310.06,0H266.29a3.25,3.25,0,0,0,0,6.49,1.62,1.62,0,1,1,0,3.24h-9.73a3.24,3.24,0,0,0,0,6.48h25.88a1.62,1.62,0,0,1,1.67,2.14,27.68,27.68,0,0,0-1.22,4.82,1.64,1.64,0,0,1-1.73,1.36,1.94,1.94,0,0,1-.67-.21h-11a3.25,3.25,0,0,0,0,6.49H280.9l.27,0a1.59,1.59,0,0,1,1.74,1.29,27.22,27.22,0,0,0,1.2,4.72,1.64,1.64,0,0,1-.55,1.85,1.6,1.6,0,0,1-1.25.29H256.56a3.25,3.25,0,0,0,0,6.49h9.73a1.62,1.62,0,1,1,0,3.24,3.24,3.24,0,0,0,0,6.48h43.77a27.56,27.56,0,1,0,0-55.12Zm0,48.64a21.08,21.08,0,1,1,21.08-21.08A21.07,21.07,0,0,1,310.06,48.64Z" style="fill:#2ddae8"/><path d="M253.32,30.81a3.25,3.25,0,0,0,0-6.49h-3.24a3.25,3.25,0,1,0,0,6.49Z" style="fill:#2ddae8"/></g><path d="M310.35,35.47a2.51,2.51,0,0,1-1.77-.73L297,23.13a2.5,2.5,0,0,1,3.53-3.54l9.8,9.8,10.64-11.32a2.5,2.5,0,0,1,3.64,3.42l-12.41,13.2a2.48,2.48,0,0,1-1.78.78Z" style="fill:#2ddae8"/><rect x="283.91" y="279.25" width="66.8" height="30.51" rx="7.63" style="fill:#183293"/><path d="M393.7,196.41c-13.57-30.27-13.41,12.1-27.74,4.25s-21.69-2.65-20.45,11.53-15,8.29-15,8.29c-26.22,1.07-13.46,39-13.46,39l4.83,15.41s27,8.26,32-2.06c5.75-5.83-5-21.1,8-21,15.46.17,18.56-12,16-27.86C376.15,213.71,403.23,217.66,393.7,196.41Z" style="fill:#0d8456"/><g style="clip-path:url(#clip-path)"><path d="M335.43,250.61c.6-.9,1.23-1.82,1.88-2.75a175.15,175.15,0,0,1,56.63-51l-.47-.82a181.35,181.35,0,0,0-34.81,25.74q-5.61,5.32-10.69,11.08c-.27,1.12-.4,1.78-.41,1.82l-.93-.19a.9.9,0,0,1,0-.12,164.07,164.07,0,0,0-10.12,13,146.13,146.13,0,0,0-11.37,19c.23.73.39,1.13.39,1.14l-1.1.44,0-.07a75,75,0,0,0-3,6.92l.9.3c0-.1,3.52-10.08,12.58-23.75l-.18-.49S335,250.73,335.43,250.61Z" style="fill:#fff"/><path d="M363.13,199.42l3.34-3.39.18.17,1.2-1.29.82-.91c.38-.44.66-.76.31-1.09s-.66,0-1,.25l-1,.94c-1,1-2.53,2.54-4.6,4.66-10.27,10.48-15.41,33.72-15.8,35.57.43-.51.87-1,1.31-1.51C349.37,227,354.35,208.38,363.13,199.42Z" style="fill:#fff"/><path d="M347.56,234.64s.14-.7.41-1.82c-.44.5-.88,1-1.31,1.51a.9.9,0,0,0,0,.12Z" style="fill:#fff"/><path d="M344.83,249a35.63,35.63,0,0,0-9.4,1.61l-.48.71.16.4c.16-.06,16.56-6.14,28.71,4.57l.62-.71A27.63,27.63,0,0,0,344.83,249Z" style="fill:#fff"/><path d="M334.77,250.83l.18.49.48-.71C335,250.73,334.81,250.82,334.77,250.83Z" style="fill:#fff"/><path d="M322.63,248.86c-.08-10.43,2.24-26.55,13.69-44.15l-1-.65c-11.63,17.87-14,34.27-13.89,44.87.09,11.07,2.69,18.12,3,18.92.23-.48.47-1,.73-1.51A60.16,60.16,0,0,1,322.63,248.86Z" style="fill:#fff"/><path d="M325.56,267.48s-.16-.41-.39-1.14c-.26.52-.5,1-.73,1.51l0,.07Z" style="fill:#fff"/></g><path d="M393.7,196.41c-13.57-30.27-13.41,12.1-27.74,4.25s-21.69-2.65-20.45,11.53-15,8.29-15,8.29c-26.22,1.07-13.46,39-13.46,39l4.83,15.41s27.78,7.42,32-2.06c5.75-5.83-5-21.1,8-21,15.46.17,18.56-12,16-27.86C376.15,213.71,403.23,217.66,393.7,196.41Z" style="fill:none"/><path d="M357.36,197.84v-.54c-8.61-1.69-12.81,3.91-11.85,14.89,1.25,14.18-15,8.29-15,8.29-26.22,1.07-13.46,39-13.46,39l4.83,15.41s25,7.16,32.07-1.43c5.52-10.08-5-21.73,7.91-21.58a21,21,0,0,0,6.88-.95l.4-.72C341.63,218.38,357.36,197.84,357.36,197.84Z" style="fill:#116075;opacity:0.7000000000000001"/><path d="M344.25,173.66C317,154.8,339,191,322.71,191.67s-19.92,9-11.51,20.45S302.68,227,302.68,227c-21.87,14.5,8.7,40.36,8.7,40.36L323.5,278s31.07-7.79,26.32-18.35c1.91-8-15.16-15.48-4-22,13.32-7.86,9.66-19.9-.78-32.1C338.2,197.55,363.4,186.9,344.25,173.66Z" style="fill:#18b741"/><g style="clip-path:url(#clip-path-2)"><path d="M322.46,250.2c.05-1.08.11-2.19.19-3.32a175.17,175.17,0,0,1,22-73l-.83-.46a181.41,181.41,0,0,0-16.44,40q-2,7.46-3.41,15c.35,1.1.58,1.73.59,1.77l-.89.32a.49.49,0,0,1,0-.12,162.9,162.9,0,0,0-1.93,16.35,145.06,145.06,0,0,0,.13,22.16c.57.51.91.77.92.78l-.71.94-.06,0c.47,4.72,1,7.39,1.05,7.45l.92-.21c0-.11-2.2-10.44-1.54-26.84l-.4-.31S322.19,250.52,322.46,250.2Z" style="fill:#fff"/><path d="M319.65,192.07c.47-2,.83-3.5,1.1-4.63l.25.05s.18-.86.35-1.73c.09-.43.17-.87.23-1.2.1-.57.17-1-.29-1.09s-.58.33-.69.71-.19.72-.34,1.31c-.33,1.33-.85,3.47-1.53,6.36-3.36,14.28,4.29,36.83,4.91,38.61.11-.66.22-1.31.34-2C322.14,222.75,316.78,204.28,319.65,192.07Z" style="fill:#fff"/><path d="M324.57,230.26s-.24-.67-.59-1.77c-.12.66-.23,1.31-.34,2a.49.49,0,0,0,0,.12Z" style="fill:#fff"/><path d="M329.67,244a36.06,36.06,0,0,0-7.21,6.24c0,.29,0,.57,0,.85l.34.27c.11-.14,11-13.83,26.93-11l.17-.93A27.67,27.67,0,0,0,329.67,244Z" style="fill:#fff"/><path d="M322,250.74l.4.31c0-.28,0-.56,0-.85C322.19,250.52,322,250.71,322,250.74Z" style="fill:#fff"/><path d="M310.61,255.34c-5.47-8.88-11.84-23.88-11.15-44.86l-1.19,0c-.69,21.31,5.8,36.54,11.36,45.57,5.81,9.42,11.69,14.11,12.36,14.64-.05-.54-.1-1.09-.15-1.68A59.93,59.93,0,0,1,310.61,255.34Z" style="fill:#fff"/><path d="M322.76,269.75s-.35-.27-.92-.78c.05.59.1,1.14.15,1.68l.06,0Z" style="fill:#fff"/></g><path d="M295.3,278a6.74,6.74,0,0,0,6.74,6.74h52.2A6.74,6.74,0,0,0,361,278h0a6.74,6.74,0,0,0-6.74-6.74H302A6.73,6.73,0,0,0,295.3,278Z" style="fill:#183293"/><path d="M184.29,367.4s25.22,18.23,27.88,40H150l-32.84-43.06S136.19,359,184.29,367.4Z" style="fill:#f26866"/><path d="M124.49,363.22s27.37,9.93,37.11,44.2H102.16s-20.19-1-32.35-5.27C69.81,402.15,57,362.1,124.49,363.22Z" style="fill:#ffb399"/><path d="M159.13,351s19,11,25.16,16.37c0,0-92.42-12.49-106.67,9.92,0,0-10.91,11.51-7.81,24.83,0,0-50.17-17.12-45.66-50.2S159.13,351,159.13,351Z" style="fill:#183293"/><path d="M132.44,314.59h7.63v7.63A7.64,7.64,0,0,0,132.44,314.59Z" style="fill:#2ddae8"/><path d="M132.44,333.63a7.63,7.63,0,0,0,7.63-7.62v7.62Z" style="fill:#2ddae8"/><path d="M192.71,272l19.46,6.53v17.88l-27.88.72S159.54,272.19,192.71,272Z" style="fill:#f26866"/><path d="M121,249a24.76,24.76,0,0,0-11.24,22.5c.74,15.75,9.65,40,9.65,40H28.1s-3.29-52.52-4-62.9S116.52,233.59,121,249Z" style="fill:#229bc6"/><path d="M113.63,305.65a5.8,5.8,0,0,0,5.8,5.79H289.5a5.8,5.8,0,0,0,5.8-5.79h0a5.8,5.8,0,0,0-5.8-5.8H119.43a5.8,5.8,0,0,0-5.8,5.8Z" style="fill:#f251df"/><path d="M194,305.65a5.8,5.8,0,0,0-5.79-5.8H289.5a5.8,5.8,0,1,1,0,11.59H188.21A5.79,5.79,0,0,0,194,305.65Z" style="fill:#ce49a8"/><path d="M113.63,305.65a5.8,5.8,0,0,1,5.8-5.8h68.78a5.8,5.8,0,0,1,0,11.59H119.43A5.8,5.8,0,0,1,113.63,305.65Z" style="fill:#931d72"/><path d="M117.17,264.3s2.56,7.35,11.92,0S118.62,245.9,117.17,264.3Z" style="fill:#2175ad"/><path d="M117.32,257.93s8.2,8.14,18.36,24.58,48.61,14.54,48.61,14.54A25.77,25.77,0,0,1,181.56,281c1.34-9.47,11.15-9,11.15-9l-31.52-9.91L146.33,237.8S107.93,218.24,117.32,257.93Z" style="fill:#122668"/><path d="M47,124.36s2.57,10.15-5.3,12.27-17.43,2.7-18.84,10,8.72,13.77-3.09,18.27S.62,174.19.06,189.09s21.45,37.68,78.21,37.11,36.79-34.3,29.48-44.7,4.45-10.41,0-20.54c-3.07-6.94-14.59-5.37-13.61-20.67S52.26,103.21,47,124.36Z" style="fill:#183293"/><path d="M95.79,149.79s3.22,3.22,7,6.22,9.62,6.76,5.61,14.89c0,0-5,6.21,3.84,16.86s-30.54-11.08-30.54-11.08-.51-5.69-1.45-14.38a71.36,71.36,0,0,1,0-15.66Z" style="fill:#122668"/><path d="M57.37,140.29S54,147.62,41.44,148.9c-19.74,2,4.05,16.21-19.36,22l-10.6,15S7.8,192.8.06,189.09c0,0-1.48,11.75,10.43,19.23s56.79-18.09,56.79-18.09l11-18.69S66.76,126.92,57.37,140.29Z" style="fill:#122668"/><path d="M103.17,180.9s8.11,2.47,17.85,17.52,25.31,39.38,25.31,39.38-9.21,0-19.56,9c-9.68,8.44-9.6,17.48-9.6,17.48s-10.48-21-19.51-38.09S103.17,180.9,103.17,180.9Z" style="fill:#229bc6"/><path d="M50.53,170S6.32,157.15,13.38,191.77c7.32,35.86,11.38,64.69,11.38,64.69H112.2s26.44-14.24,8.07-40.49-6.19-26.85-6.19-26.85-4-6.85-25.92-14.77C61.73,164.8,50.53,170,50.53,170Z" style="fill:#2ddae8"/><path d="M41.35,186.53S47,200,54.1,216.32c5,11.42,9,23.05,27.56,19,11.87-2.59-38.3,24.61-43.36,3.25S32,180.59,41.35,186.53Z" style="fill:#229bc6"/><path d="M58.61,226.21s6.61,10.38-6.54,18.26-36,10.85-38.54-3.13S41.21,214.52,58.61,226.21Z" style="fill:#229bc6"/><path d="M52.42,224.3,63.1,261.71,36.83,274.84s-12.19-28.94-17-46.17c0,0,7.89-6.95,17-6.62C51,222.56,52.42,224.3,52.42,224.3Z" style="fill:#ffb399"/><path d="M52.42,224.3l1.68,4.93s-19.69-3-30.25,12.11l-4.26-12.29s11.83-12.54,32.83-5.85Z" style="fill:#f26866"/><path d="M107.71,296.07s6.52,3.14,4.33-10.29c-1.46-9-1.94-16.66-1.94-16.66s2.11-7.88-4,0L100,277h0S96,292.05,107.71,296.07Z" style="fill:#122668"/><path d="M49.6,256.46s7.49-5.24,21.27,0S126.77,272,126.77,272l-8,17.85H58.61s-19.34-2-24.2-20.86S49.6,256.46,49.6,256.46Z" style="fill:#ffb399"/><path d="M105.19,232.89a49.92,49.92,0,0,1,9.08,0C132.27,235.09,121,249,121,249c-3.85,3.93-9.15,10.71-9.15,10.71l-9.09-3.21C104.74,251.88,106.56,244.27,105.19,232.89Z" style="fill:#229bc6"/><path d="M78.9,235.61a49.78,49.78,0,0,1,.89,20.85h-55l-5.17-37.33C22.05,239,52.47,238.23,78.9,235.61Z" style="fill:#229bc6"/><path d="M99.35,262.07l-19.56-5.61h23A18.58,18.58,0,0,1,99.35,262.07Z" style="fill:#2ddae8"/><path d="M61.75,201.74c-8.33-17.84-17.39-33.07-17.39-33.07,12.64,2.7,43.53,3.44,43.53,3.44s2.26,9.12,13.31,43.26a92.22,92.22,0,0,1,4,17.52c-7.09.51-16.41,1.74-26.29,2.72C75.51,223,67.41,213.86,61.75,201.74Z" style="fill:#fff"/><path d="M78.9,235.61c9.88-1,19.2-2.21,26.29-2.72,1.37,11.38-.45,19-2.41,23.57h-23A49.78,49.78,0,0,0,78.9,235.61Z" style="fill:#2ddae8"/><path d="M126.77,272l17.33-7.37s4.46-2.65,9.81,7.37,5.22,11.52,5.22,11.52l-26.36,10.9s-13.28-.44-14-4.57S89.66,283.35,126.77,272Z" style="fill:#ffb399"/><path d="M54.1,229.23l6.17,22.58,49.8,14s-7.06,3.05-7.4,13.54,5,16.72,5,16.72-45,.33-55.29-4.35-28.21-2.28-39-52C13.38,239.71,21.58,211.22,54.1,229.23Z" style="fill:#183293"/><path d="M44.55,225s-24.18.49-21.25,21.84,8,28.35,14.38,33.25S94,297.16,89.26,287.35L87,283.49s5.7,7,17.79,7.58c0,0,.34,4.21,3.76,5,0,0-36.74,4.51-63.5-5.88-23.67-9.19-27.31-26.11-31.7-50.48C13.38,239.71,19.68,216.56,44.55,225Z" style="fill:#122668"/><path d="M111.87,268.24s-5.49,1.72-6,9.45,3.25,12.14,5.48,12.14h-7.07s-6.51-14.4,3.38-22.63Z" style="fill:#f26866"/><path d="M155.41,274.84s-3.28-8.79-9.08-5.72-11.48,24.41-19.56,24.67c0,0,8.42.77,10.65,5.42s10.53,2.93,16.86,0,10.07-4.19,4.85-15.71Z" style="fill:#f26866"/><path d="M18.3,172.43s13.12-7.07,21.74,11.3A152.1,152.1,0,0,1,49.6,212.4l4.5,16.83s-12.93-9.06-27.93-1.68-12.64,13.79-12.64,13.79S3.92,178.61,18.3,172.43Z" style="fill:#2ddae8"/><path d="M302.15,291a7,7,0,0,1-6.72,5.9h-106a5,5,0,0,1-5.06-5.9l12.4-88.28a7,7,0,0,1,6.73-5.89h106a5,5,0,0,1,5.07,5.89Z" style="fill:#b72d8a"/><path d="M306.65,291a7,7,0,0,1-6.72,5.9h-106a5,5,0,0,1-5.06-5.9l12.4-88.28a7,7,0,0,1,6.73-5.89H314a5,5,0,0,1,5.07,5.89Z" style="fill:#ce49a8"/><path d="M199.51,299.47a2.61,2.61,0,0,0-2.62-2.61H297.31a2.61,2.61,0,1,1,0,5.22H196.89A2.61,2.61,0,0,0,199.51,299.47Z" style="fill:#ce49a8"/><path d="M112.75,299.47a2.61,2.61,0,0,1,2.61-2.61h81.53a2.61,2.61,0,1,1,0,5.22H115.36A2.61,2.61,0,0,1,112.75,299.47Z" style="fill:#931d72"/><path d="M17.11,312.56h321.6a1.12,1.12,0,0,0,0-2.23H17.11a1.12,1.12,0,1,0,0,2.23Z" style="fill:#229bc6"/><path d="M150.9,268.09s14.89,12.55,12.68,16.38-11-9.42-16.47-7.35S150.9,268.09,150.9,268.09Z" style="fill:#f26866"/><path d="M87.89,76.5s14.89,5.54,22.18,37c6.77,29.23.47,32.76-16,30.23S77,78.17,87.89,76.5Z" style="fill:#183293"/><path d="M84.28,148.31l3.61,23.81s4.1,21.74-14.75,19.49S50.53,170,50.53,170l9.18-39.89S88,138.75,84.28,148.31Z" style="fill:#ffb399"/><path d="M59.71,138S61.87,161.42,86.2,161l-1.34-8.83S65.79,119.45,59.71,138Z" style="fill:#f26866"/><path d="M99.6,103.31s14,50-13.37,48.9c-31.47-1.25-35.7-33.34-33.77-52C54.6,79.58,72.69,78.88,79.52,81S93.57,85.06,99.6,103.31Z" style="fill:#ffb399"/><path d="M58.26,118.8s-6.69-19.49-13.21-11.53c-6,7.3,1.68,25.3,11.81,17.15S58.26,118.8,58.26,118.8Z" style="fill:#ffb399"/><path d="M71.1,113c0,1.54.53,2.8,1.19,2.8s1.19-1.26,1.19-2.8-.54-2.8-1.19-2.8S71.1,111.42,71.1,113Z" style="fill:#211818"/><path d="M91.72,113.47c0,1.55.53,2.8,1.19,2.8s1.19-1.25,1.19-2.8-.53-2.8-1.19-2.8S91.72,111.92,91.72,113.47Z" style="fill:#211818"/><path d="M86,130.79a13.34,13.34,0,0,1-4.55-1l.46-1.23c3.25,1.22,5.44,1.23,6.5,0,3.14-3.56-2.86-16.89-5.44-21.72l1.16-.61a88.41,88.41,0,0,1,4.26,9.55c2.55,6.92,2.89,11.51,1,13.65A4.31,4.31,0,0,1,86,130.79Z" style="fill:#f26866"/><path d="M53.46,119.74a14.5,14.5,0,0,0-2.84-6c-.88-1-1.8-1.43-2.33-1.2s-.72,1-.66,2.18l-1.31.07c-.14-2.41.86-3.2,1.46-3.46,1.1-.47,2.48.09,3.8,1.52a15.43,15.43,0,0,1,3.16,6.7Z" style="fill:#f26866"/><path d="M50.25,119.7l-1.3-.16c.23-1.94.88-3.23,1.92-3.81a2.8,2.8,0,0,1,2.39-.11l-.54,1.19a1.49,1.49,0,0,0-1.22.07C50.86,117.25,50.43,118.22,50.25,119.7Z" style="fill:#f26866"/><path d="M52.42,107.35s13.3,10.58,15.36-4a29.43,29.43,0,0,0-1.87-15.56s6.19,25.86-3.76,23.57c0,0,12.88,4.89,12.57-23.57,0,0,6,9.42-1.24,18.25,0,0,12.72.55,11-18.25,0,0,13.4,2.46,16.73,13.14,0,0-.5-27.33-27.5-28.08s-30.49,21-28,33.74C45.66,106.55,48.29,103.2,52.42,107.35Z" style="fill:#183293"/><path d="M90.34,106H89c0-.22,0-5.47,3.17-5.78s4.31,3.56,4.36,3.72l-1.28.4s-1-3-3-2.78C90.71,101.71,90.34,104.9,90.34,106Z" style="fill:#211818"/><path d="M75.92,141a9.6,9.6,0,0,1-1.85-.19c-4.93-1-4.92-7.51-4.92-7.79l1.32,0s0,5.72,3.85,6.48,5.85-1.53,5.93-1.63l1,.81A6.89,6.89,0,0,1,75.92,141Z" style="fill:#f26866"/><path d="M51.29,106.65s4.18,1.36,4.87,9.56c0,0-.39-5,2.8-4.94S54.4,97,51.29,106.65Z" style="fill:#183293"/><path d="M84.47,87.75a18.43,18.43,0,0,0,9.63,9s4.21,1.07,5.5,6.51S103.46,75.59,84.47,87.75Z" style="fill:#183293"/><path d="M93.31,80.2s-16.06-15.35-37.5-1.27c0,0-12.72,10.3-10.15,27.62,0,0-6.26-15.77,7.17-28.1S87.74,73.85,93.31,80.2Z" style="fill:#fff"/><path d="M55.46,112.39s-3-7.69-7.77-5.71c-5.85,2.42-4.13,11.16-4.13,11.16s-2.79-8.46,2.77-11.84S54.69,110.36,55.46,112.39Z" style="fill:#fff"/><path d="M328.34,326v19a7.64,7.64,0,0,1-7.63,7.63H132.44a7.64,7.64,0,0,0,7.63-7.63V333.63H320.71A7.63,7.63,0,0,0,328.34,326Z" style="fill:#2ddae8"/><path d="M129.9,314.59H320.71a7.64,7.64,0,0,1,7.63,7.63V326a7.63,7.63,0,0,1-7.63,7.62H140.07V322.22Z" style="fill:#229bc6"/><path d="M27.41,331.6h105a7.64,7.64,0,0,0,7.63-7.63v21.08a7.64,7.64,0,0,1-7.63,7.63h-105a7.63,7.63,0,0,1-7.63-7.63V324A7.63,7.63,0,0,0,27.41,331.6Z" style="fill:#229bc6"/><rect x="19.78" y="314.59" width="120.29" height="17.01" rx="7.63" style="fill:#2175ad"/><path d="M154.28,314.59a4.27,4.27,0,0,0-4.27-4.26H338.82a4.27,4.27,0,1,1,0,8.53H150A4.27,4.27,0,0,0,154.28,314.59Z" style="fill:#2ddae8"/><path d="M12.62,314.59a4.26,4.26,0,0,1,4.26-4.26H150a4.27,4.27,0,1,1,0,8.53H16.88A4.27,4.27,0,0,1,12.62,314.59Z" style="fill:#229bc6"/><path d="M163.89,340.73v66.86l-16.24-.17V340.73Z" style="fill:#2ddae8"/><path d="M53.57,340.73v54.21a103.22,103.22,0,0,1-16.23-11.33V340.73Z" style="fill:#229bc6"/><path d="M304.55,340.73v25.33a102.15,102.15,0,0,1-16.23,17.37v-42.7Z" style="fill:#2ddae8"/></g></g></svg>