<svg xmlns="http://www.w3.org/2000/svg" viewBox="0 0 563.9 522.64"><g style="isolation:isolate"><g id="Capa_2" data-name="Capa 2"><g id="Capa_1-2" data-name="Capa 1"><g style="opacity:0.15"><path d="M399.28,421.4c28.25-67.38,184.1-34.12,148.46-126.14s-125-96.54-115-156.49S393.52,32.09,355.78,29s-72.78,54.71-129,.56S53.66,31.9,103.24,187.74s-55.93,130.65-79.06,186,35.35,132,142.35,68.66S315.46,621.32,399.28,421.4Z" style="fill:#fff"/><path d="M236.68,457.82s31.33,18.66,58.69,44.33,73.23,28.58,93-11.71,13.23-62.27,41.88-82.92" style="fill:none;stroke:#fff;stroke-miterlimit:10;stroke-width:3px;stroke-dasharray:12,10;opacity:0.49"/><path d="M118.85,478s-61.72,16.3-94.32-21.09-28.76-79.51,0-110.71" style="fill:none;stroke:#fff;stroke-miterlimit:10;stroke-width:3px;stroke-dasharray:12,10"/><path d="M208.19,1.43A97,97,0,0,1,247,27.32c17.26,19.18,58.84,0,86.47-12.94s59.8,6.14,72.48,21" style="fill:none;stroke:#fff;stroke-miterlimit:10;stroke-width:3px;stroke-dasharray:12,10"/><path d="M536.54,250.46s31.64,34.73,24.93,71.67" style="fill:none;stroke:#fff;stroke-miterlimit:10;stroke-width:3px;stroke-dasharray:12,10"/></g><path d="M330.52,452.22H287.78L259.54,327.5h76.25l23.62,104.33C361.77,442.27,341.23,452.22,330.52,452.22Z" style="fill:#ce49a8"/><path d="M369.83,431.83,346.21,327.5H335.79l22.87,101c-4.3.14-8.29,0-11.44.14-5,.29-17.47,1.32-16.7,23.56h23A16.7,16.7,0,0,0,369.83,431.83Z" style="fill:#931d72"/><path d="M474.85,378.08H157.43a13.18,13.18,0,0,1-13.1-14.62l23.15-210.84a13.17,13.17,0,0,1,13.1-11.74H498a13.18,13.18,0,0,1,13.1,14.62L488,366.34A13.18,13.18,0,0,1,474.85,378.08Z" style="fill:#931d72"/><path d="M460.87,378.08H143.44a13.18,13.18,0,0,1-13.1-14.62l23.15-210.84a13.18,13.18,0,0,1,13.1-11.74H484a13.17,13.17,0,0,1,13.1,14.62L474,366.34A13.19,13.19,0,0,1,460.87,378.08Z" style="fill:#ce49a8"/><g style="opacity:0.2;mix-blend-mode:screen"><path d="M135.2,368.33l23.16-210.85a13.17,13.17,0,0,1,13.1-11.74H488.88a13.11,13.11,0,0,1,6.57,1.76A13.15,13.15,0,0,0,484,140.88H166.59a13.18,13.18,0,0,0-13.1,11.74L130.34,363.46a13.17,13.17,0,0,0,6.54,12.86A13.08,13.08,0,0,1,135.2,368.33Z" style="fill:#e5f4fd"/></g><polygon points="459.02 344.38 149.59 344.38 169.77 155.41 479.2 155.41 459.02 344.38" style="fill:#e5f4fd"/><path d="M163.26,266.58c1.92-14.68,9.5-88.88,12.35-111.17h-5.84l-20.18,189h6C155,332.31,161.45,280.48,163.26,266.58Z" style="fill:#dce9f6;mix-blend-mode:multiply"/><path d="M347.22,428.66H268.31a12.62,12.62,0,0,0-12.62,12.61v8.21a2.74,2.74,0,0,0,2.74,2.74h76.18v-11C334.61,434.31,340,429.22,347.22,428.66Z" style="fill:#931d72"/><path d="M313.23,363.63a8.93,8.93,0,1,1-8.92-8.92A8.92,8.92,0,0,1,313.23,363.63Z" style="fill:#fff"/><path d="M466.13,348.36c-5.75,10.18-14.82,13.91-26.19,17.43-8.62,2.65-18.06,2-27,2.79-21.87,1.94-43.84.82-65.76.92-25,.12-52.23-1.56-77.23-1.22-32.41.44-120.4,3-139.66-2a13.19,13.19,0,0,0,13.11,11.82H460.87A13.19,13.19,0,0,0,474,366.34q5.25-47.82,10.73-95.65c-4.06,14.2-6.2,27.88-8.48,42C474.46,323.54,471.48,338.9,466.13,348.36Z" style="fill:#dce9f6;mix-blend-mode:multiply"/><rect x="200.87" y="166.91" width="230.7" height="161.86" rx="21.14" style="fill:#fff"/><rect x="276.77" y="270.55" width="50.43" height="36.39" rx="7.13" style="fill:#cff7f9"/><path d="M340.67,303.7c0,4.21,3.06,7.63,6.84,7.63h60.76c3.79,0,6.85-3.42,6.85-7.63V280.56c0-4.21-3.06-7.63-6.85-7.63H347.51c-3.78,0-6.84,3.42-6.84,7.63Z" style="fill:#cff7f9"/><path d="M200.87,188.06A21.15,21.15,0,0,1,222,166.91H410.43a21.15,21.15,0,0,1,21.15,21.15Z" style="fill:#2ddae8"/><path d="M234.54,177.49a3,3,0,1,0,3-3A3,3,0,0,0,234.54,177.49Z" style="fill:#fff"/><path d="M224.32,177.49a3,3,0,1,0,3-3A3,3,0,0,0,224.32,177.49Z" style="fill:#fff"/><path d="M285.91,207.18a9.45,9.45,0,0,0,9.45,9.45H406.54a9.45,9.45,0,0,0,9.45-9.45h0a9.45,9.45,0,0,0-9.45-9.45H295.36a9.45,9.45,0,0,0-9.45,9.45Z" style="fill:#cff7f9"/><path d="M293.37,211.66l1.56-1.8a5,5,0,1,1,1.56,1.08l-1.71,1.95a1,1,0,0,1-1.33.09A.93.93,0,0,1,293.37,211.66Zm3.8-1.5a4.08,4.08,0,1,0-1.59-1l.26.26A3.89,3.89,0,0,0,297.17,210.16Z" style="fill:#2ddae8"/><path d="M368.16,258.67c0,4.72,3.43,8.54,7.67,8.54h31.7c4.24,0,7.68-3.82,7.68-8.54V232.06c0-4.72-3.44-8.54-7.68-8.54h-31.7c-4.24,0-7.67,3.82-7.67,8.54Z" style="fill:#cff7f9"/><rect x="272.59" y="223.52" width="89.01" height="43.69" rx="8.54" style="fill:#cff7f9"/><rect x="221.69" y="231.24" width="41.17" height="28.79" rx="8.54" style="fill:#cff7f9"/><rect x="215.84" y="209.55" width="52.86" height="43.39" rx="8.54" style="fill:#2ddae8"/><path d="M215,252.34l12.37-7.85-3.77,14.56-3.26-2.54-3.36,4.3a1.5,1.5,0,0,1-2.36-1.84l3.36-4.3Z" style="fill:#229bc6"/><rect x="271.78" y="256.64" width="60.41" height="43.59" rx="8.54" style="fill:#2ddae8"/><path d="M279.35,263.53a2.14,2.14,0,0,0,2.15,2.14h10.23a2.14,2.14,0,0,0,2.15-2.14h0a2.14,2.14,0,0,0-2.15-2.14H281.5a2.14,2.14,0,0,0-2.15,2.14Z" style="fill:#fff"/><path d="M223.51,215.55a1.13,1.13,0,0,0,1.13,1.12H230a1.13,1.13,0,0,0,1.13-1.12h0a1.13,1.13,0,0,0-1.13-1.12h-5.35a1.13,1.13,0,0,0-1.13,1.12Z" style="fill:#fff"/><path d="M223.51,215.55a1.13,1.13,0,0,0,1.13,1.12H230a1.13,1.13,0,0,0,1.13-1.12h0a1.13,1.13,0,0,0-1.13-1.12h-5.35a1.13,1.13,0,0,0-1.13,1.12Z" style="fill:#fff"/><path d="M233.73,215.55a1.12,1.12,0,0,0,1.12,1.12h5.36a1.12,1.12,0,0,0,1.12-1.12h0a1.12,1.12,0,0,0-1.12-1.12h-5.36a1.12,1.12,0,0,0-1.12,1.12Z" style="fill:#fff"/><path d="M180.94,131.26,55.26,183.34c-8.63,3.58-11.75,13.07-7,21.19l17.63,29.92a16,16,0,0,1,4.41-2.72l51.46-21.32c8.63-3.58,19.51.11,24.3,8.24l17.21,29.2,69.38-28.76c8.63-3.58,11.75-13.06,7-21.19l-34.41-58.4C200.45,131.37,189.57,127.68,180.94,131.26Z" style="fill:#2ddae8"/><path d="M171.66,189.75,121.8,210.41c8.5-3.53,19.19,0,24.08,7.88l34.24-14.18a7,7,0,0,0,3.39-10.34A9.8,9.8,0,0,0,171.66,189.75Z" style="fill:#fff"/><path d="M84.76,234.69a7,7,0,0,1,3.39-10.34l-17.81,7.38a16,16,0,0,0-4.41,2.72l16.79,28.48c4.78,8.13,15.66,11.82,24.29,8.24l56.3-23.32-17.21-29.2-.22-.36L96.62,238.71A9.84,9.84,0,0,1,84.76,234.69Z" style="fill:#1f80b5"/><path d="M121.8,210.41,88.15,224.35a7,7,0,0,0-3.39,10.34,9.84,9.84,0,0,0,11.86,4l49.26-20.42C141,210.41,130.3,206.88,121.8,210.41Z" style="fill:#fff"/><path d="M176.52,167.05a11.19,11.19,0,0,1-.89-10.07,14.53,14.53,0,0,0-9.41.48c-6.53,2.7-8.89,9.89-5.26,16a15.23,15.23,0,0,0,18.39,6.24,11.14,11.14,0,0,0,6.16-6A15,15,0,0,1,176.52,167.05Z" style="fill:#1f80b5"/><path d="M181.79,151a11.12,11.12,0,0,0-6.16,6,15.1,15.1,0,0,1,9,6.71,11.19,11.19,0,0,1,.89,10.07,14.6,14.6,0,0,0,9.41-.47c6.53-2.71,8.89-9.89,5.26-16A15.22,15.22,0,0,0,181.79,151Z" style="fill:#fff"/><path d="M184.62,163.69a15.1,15.1,0,0,0-9-6.71,11.19,11.19,0,0,0,.89,10.07,15,15,0,0,0,9,6.71A11.19,11.19,0,0,0,184.62,163.69Z" style="fill:#2ddae8"/><path d="M83.12,187.7a3.28,3.28,0,0,1-1.59,4.85l-17.17,7.12a4.62,4.62,0,0,1-5.57-1.89h0a3.29,3.29,0,0,1,1.59-4.86l17.17-7.11a4.61,4.61,0,0,1,5.57,1.89Z" style="fill:#fff"/><path d="M201.45,208.34,191,212.83s-8.82,3-4.63,9.9,7.24,12.58,7.24,12.58l19.24-7.85Z" style="fill:#1f80b5"/><path d="M230.85,453.16a6.12,6.12,0,0,1-6.12,6.12H123.83a6.13,6.13,0,0,1-6.13-6.12h0a6.13,6.13,0,0,1,6.13-6.12h100.9a6.12,6.12,0,0,1,6.12,6.12Z" style="fill:#2ddae8"/><path d="M157,453.16a6.12,6.12,0,0,1-6.12,6.12h-27a6.13,6.13,0,0,1-6.13-6.12h0a6.13,6.13,0,0,1,6.13-6.12h27a6.12,6.12,0,0,1,6.12,6.12Z" style="fill:#fff"/><path d="M453.8,94.86a46.77,46.77,0,0,0-43.74,78.27l-7.15,19.81,19.43-10.76A46.77,46.77,0,1,0,453.8,94.86Z" style="fill:#183293"/><path d="M456.77,152.59V138.37a13.2,13.2,0,1,0-26.39,0v14.22Z" style="fill:#fff"/><path d="M437.49,155.44v3.73a6.09,6.09,0,0,0,12.17,0v-3.73Z" style="fill:#fff"/><path d="M447.66,134a3.84,3.84,0,0,1-3.84,3.85h0A3.85,3.85,0,0,1,440,134V120a3.84,3.84,0,0,1,3.85-3.84h0a3.84,3.84,0,0,1,3.84,3.84Z" style="fill:#fff"/><path d="M169.45,336.47l-3-.33,2.94-26.47a21.8,21.8,0,0,1,21.41-19,17.17,17.17,0,0,1,12.86,5.72A17.4,17.4,0,0,1,207.82,310l-4,40.82-3-.33,4-40.82a14.45,14.45,0,0,0-3.4-11.34,14.24,14.24,0,0,0-10.66-4.71h-.2A18.75,18.75,0,0,0,172.39,310Z" style="fill:#1e3eb8"/><path d="M150.24,336.47l-3-.33,2.94-26.47a21.81,21.81,0,0,1,21.41-19,17.15,17.15,0,0,1,12.86,5.72A17.4,17.4,0,0,1,188.61,310l-2.85,25.62-3-.34,2.84-25.61a14.45,14.45,0,0,0-3.4-11.34,14.24,14.24,0,0,0-10.66-4.71h-.2A18.75,18.75,0,0,0,153.18,310Z" style="fill:#183293"/><polygon points="196.34 330.78 204.56 338.5 213.25 331.34 213.52 434.53 185.31 434.23 196.34 330.78" style="fill:#229bc6"/><path d="M132.5,330.78l-3.83,26.59h35.51a8.62,8.62,0,1,1,0,17.24h-38l-8.49,59.47h68.2l10.44-103.3Z" style="fill:#2ddae8"/><path d="M172.8,366a8.62,8.62,0,0,0-8.62-8.62H128.67l-2.48,17.24h38A8.62,8.62,0,0,0,172.8,366Z" style="fill:#fff"/><path d="M163,388.78H146.82a5.24,5.24,0,1,1,0-10.48H163a5.24,5.24,0,0,1,0,10.48Zm-16.17-8.09a2.85,2.85,0,0,0,0,5.69H163a2.85,2.85,0,1,0,0-5.69Z" style="fill:#fff"/><g id="Fast_Charging" data-name="Fast Charging"><path d="M302.61,18.43H237.18a4.85,4.85,0,0,0,0,9.69,2.43,2.43,0,1,1,0,4.85H222.64a4.85,4.85,0,0,0,0,9.69h38.68a2.43,2.43,0,0,1,2.62,2.22,2.5,2.5,0,0,1-.12,1,41.5,41.5,0,0,0-1.82,7.2,2.45,2.45,0,0,1-2.59,2,2.73,2.73,0,0,1-1-.32H242a4.85,4.85,0,1,0,0,9.69h17l.41-.07A2.38,2.38,0,0,1,262,66.34a40.73,40.73,0,0,0,1.8,7,2.46,2.46,0,0,1-.83,2.77,2.38,2.38,0,0,1-1.86.43H222.64a4.85,4.85,0,0,0,0,9.7h14.54a2.42,2.42,0,1,1,0,4.84,4.85,4.85,0,0,0,0,9.7h65.43a41.2,41.2,0,0,0,0-82.4Zm0,72.7a31.51,31.51,0,1,1,31.51-31.5A31.5,31.5,0,0,1,302.61,91.13Z" style="fill:#183293"/><path d="M217.8,64.47a4.85,4.85,0,0,0,0-9.69H213a4.85,4.85,0,1,0,0,9.69Z" style="fill:#183293"/></g><path d="M303,71.45a3.73,3.73,0,0,1-2.64-1.09L283,53a3.73,3.73,0,0,1,5.28-5.28L303,62.35l15.9-16.92a3.74,3.74,0,0,1,5.45,5.12L305.77,70.28a3.76,3.76,0,0,1-2.67,1.17Z" style="fill:#183293"/></g></g></g></svg>