<svg xmlns="http://www.w3.org/2000/svg" xmlns:xlink="http://www.w3.org/1999/xlink" viewBox="0 0 83.19 46.93"><defs><linearGradient id="Degradado_sin_nombre_109" y1="23.47" x2="83.19" y2="23.47" gradientUnits="userSpaceOnUse"><stop offset="0" stop-color="#eab5f7"/><stop offset="0.16" stop-color="#a7adee"/><stop offset="0.32" stop-color="#65a5e5"/><stop offset="0.44" stop-color="#3da0df"/><stop offset="0.5" stop-color="#2d9edd"/><stop offset="0.72" stop-color="#2d9fdb"/><stop offset="0.81" stop-color="#2ba2d4"/><stop offset="0.88" stop-color="#28a8c7"/><stop offset="0.94" stop-color="#25b0b5"/><stop offset="0.99" stop-color="#20ba9e"/><stop offset="1" stop-color="#1fbb9b"/></linearGradient><linearGradient id="Degradado_sin_nombre_109-2" x1="15.91" y1="36.2" x2="26.1" y2="36.2" xlink:href="#Degradado_sin_nombre_109"/><linearGradient id="Degradado_sin_nombre_109-3" x1="15.79" y1="27.16" x2="17.85" y2="27.16" xlink:href="#Degradado_sin_nombre_109"/></defs><g id="Capa_2" data-name="Capa 2"><g id="Capa_1-2" data-name="Capa 1"><path d="M80.64,1.36C77-.41,71.2.11,67.32,0,61-.09,54.59.19,48.24.33c-7.66.16-15.31.11-23,0C20.43.32,15.59.28,10.76.28,8.14.28,4.9-.18,2.59,1.43.55,2.84-.77,6.05.5,8.39c1.73,3.21,7.05,2.88,10.37,2.47,0,7.92,0,15.84.28,23.75.19,5.63,2.28,10.77,8.52,11.76,7.52,1.2,15.94.12,23.52.12H57.65c2.73,0,5.43.18,7.95-1.12C72.26,41.9,71,33.94,71,27.67q.07-7.53.13-15.06c4.23.11,9.43.9,11.41-3.7C83.69,6.25,83.47,2.73,80.64,1.36Zm-33.77,43c0-.72,0-1.45,0-2.18a.49.49,0,0,0,.11-.07c2.79-2.58,6-4.69,8.79-7.21,0,1.24,0,2.47,0,3.71a.89.89,0,0,0-.25.14c-1.2,1-2.62,1.68-3.85,2.62a27.91,27.91,0,0,0-3.31,3Zm-.08-13.47a.81.81,0,0,0,.18-.1c2.78-2.58,5.94-4.7,8.78-7.2,0,1,0,2.08,0,3.11-3,2.29-6.15,4.47-9,7C46.79,32.78,46.8,31.85,46.79,30.92Zm9-10.12a.76.76,0,0,0-.19.12c-2.72,2.67-5.88,4.79-8.77,7.24,0-1,0-2,0-3a1.34,1.34,0,0,0,.27-.17,81.87,81.87,0,0,1,8.7-7Zm0-5.38c-3,2.28-6.15,4.46-9,7,0-.93,0-1.87,0-2.8a1,1,0,0,0,.17-.1c2.78-2.58,5.94-4.69,8.77-7.19ZM46.82,36.51a2.22,2.22,0,0,0,.23-.15,82.07,82.07,0,0,1,8.71-7v2.73a.86.86,0,0,0-.2.13c-2.7,2.65-5.84,4.76-8.72,7.2C46.83,38.47,46.82,37.49,46.82,36.51Zm8.92-27a1.08,1.08,0,0,0-.18.11c-2.71,2.66-5.86,4.78-8.74,7.22,0-1,0-2,0-3a.9.9,0,0,0,.22-.14,83.6,83.6,0,0,1,8.68-6.95C55.74,7.66,55.73,8.57,55.74,9.48Zm0-5.38C52.8,6.36,49.65,8.52,46.86,11l0-2.52a40.84,40.84,0,0,1,6.55-5.77,1.07,1.07,0,0,0,.33-.38l2-.05ZM49.66,2.44l.62,0a44.31,44.31,0,0,0-3.35,2.94c0-1,0-1.92,0-2.88ZM2.19,6.33C1,2.55,7.5,2.43,9.72,2.42h1.19l0,6.29C8.24,9.08,3.21,9.65,2.19,6.33ZM22,44.34c-9.17-.39-8.69-8.86-8.79-16q-.18-13-.13-25.94,6.1,0,12.21.07c6.52.06,13,.09,19.56,0-.24,13.94-.23,27.89-.1,41.84l-1.54,0C36.14,44.34,29,44.64,22,44.34Zm29.35.15a22.12,22.12,0,0,1,2.12-1.75c.75-.55,1.55-1,2.32-1.54,0,1.11,0,2.22,0,3.33C54.3,44.54,52.82,44.53,51.33,44.49ZM61,44.34c-1,.08-2,.12-3.08.15q0-21.14-.05-42.27c3.62-.08,7.24-.13,10.85,0h.33c0,6.67-.09,13.35-.14,20C68.84,29.62,71.46,43.55,61,44.34Zm16-33.9c-1.67.49-4,.12-5.85,0,0-2.75,0-5.51,0-8.26a20.38,20.38,0,0,1,6.5.66C81.56,4.23,82.5,8.81,77,10.44Z" style="fill:url(#Degradado_sin_nombre_109)"/><path d="M24.75,39.67c-2.06.32-4.57-.3-5.55-2.3a12.1,12.1,0,0,1-1.13-5.8c.08-1.38-2.06-1.37-2.14,0-.14,2.55.41,6,2.14,8s4.69,2.57,7.25,2.17C26.68,41.53,26.1,39.46,24.75,39.67Z" style="fill:url(#Degradado_sin_nombre_109-2)"/><path d="M16.82,28.23a1.07,1.07,0,0,0,0-2.14A1.07,1.07,0,0,0,16.82,28.23Z" style="fill:url(#Degradado_sin_nombre_109-3)"/></g></g></svg>