<svg xmlns="http://www.w3.org/2000/svg" xmlns:xlink="http://www.w3.org/1999/xlink" viewBox="0 0 80.83 63.18"><defs><linearGradient id="Degradado_sin_nombre_109" y1="31.59" x2="80.83" y2="31.59" gradientUnits="userSpaceOnUse"><stop offset="0" stop-color="#eab5f7"/><stop offset="0.16" stop-color="#a7adee"/><stop offset="0.32" stop-color="#65a5e5"/><stop offset="0.44" stop-color="#3da0df"/><stop offset="0.5" stop-color="#2d9edd"/><stop offset="0.72" stop-color="#2d9fdb"/><stop offset="0.81" stop-color="#2ba2d4"/><stop offset="0.88" stop-color="#28a8c7"/><stop offset="0.94" stop-color="#25b0b5"/><stop offset="0.99" stop-color="#20ba9e"/><stop offset="1" stop-color="#1fbb9b"/></linearGradient><linearGradient id="Degradado_sin_nombre_109-2" x1="30.12" y1="54.83" x2="50.65" y2="54.83" xlink:href="#Degradado_sin_nombre_109"/><linearGradient id="Degradado_sin_nombre_109-3" x1="7.21" y1="55.61" x2="14.52" y2="55.61" xlink:href="#Degradado_sin_nombre_109"/><linearGradient id="Degradado_sin_nombre_109-4" x1="10.63" y1="50.12" x2="12.7" y2="50.12" xlink:href="#Degradado_sin_nombre_109"/></defs><g id="Capa_2" data-name="Capa 2"><g id="Capa_1-2" data-name="Capa 1"><path d="M80.54,57.73c-.64-2.13-3-4.28-4.37-6-2.42-3-4.82-6-7.38-8.81a4.25,4.25,0,0,0,1.07-.52c2.32-1.57,1.46-5.11,1.39-7.52-.13-4-.17-8-.13-12a19.65,19.65,0,0,0,2,0c1.91-.08,4.44-.28,5.67-2,1.46-2,1.61-5.25,1.37-7.59a2.46,2.46,0,0,0-.09-.29,1,1,0,0,0-.42-.59l0,0c-2.56-1.9-6-4.7-9.25-5.92v0c.25-4.07-.84-5.7-4.82-6C57.3-.11,48.84.14,40.54.15c-8.08,0-16.65-.56-24.68.46-3.9.5-5.72,1.82-5.49,5.92A46.8,46.8,0,0,0,.93,12.86a0,0,0,0,1,0,0h0a.93.93,0,0,0-.31.8s0,0,0,.06C.39,15.8.3,18.12,1.27,20c1.18,2.3,3.57,2.83,6,2.93.64,0,1.38,0,2.13,0-.06,4.84.15,9.68.49,14.51.13,1.74-.14,3.83,1.29,5,.15.11.31.21.47.31-4,4.24-8.56,9.08-11,14.16-1.2,2.49-.72,4.26,2,5.28,4.8,1.8,11.59.68,16.59.78,7.7.16,15.39.37,23.08.08,6.16-.23,12.31-.36,18.47-.44,5.29-.06,10.77.79,16,0C79.83,62.14,81.56,61.1,80.54,57.73ZM77.63,18.48c-.7,2.1-2.45,2.22-4.49,2.32-1.88.08-4.52.06-5.44-1.89-.62-1.33-.36-3-.2-4.42,3.54,0,7.07,0,10.61,0A11.39,11.39,0,0,1,77.63,18.48ZM64.55,28.3c0,3.65.94,7.07-3.49,8.28-3,.82-7.05.32-10.19.42q-5.38.18-10.79.27c-3.27,0-6.55.06-9.83,0-2.8,0-7.67.84-10.25-.16C15,35.23,16.12,27,16.16,22.06a10.19,10.19,0,0,0,4.65.89c1.83,0,4.51-.12,5.93-1.47a4.14,4.14,0,0,0,.68-.88,2,2,0,0,0,.12.19C29,22.66,31.55,23,33.73,23c1.83,0,4.51-.12,5.93-1.47a4.14,4.14,0,0,0,.68-.88,2,2,0,0,0,.12.19c1.41,1.87,4,2.16,6.18,2.16,1.83,0,4.52-.12,5.94-1.47a4.1,4.1,0,0,0,.67-.88,2,2,0,0,1,.12.19c1.54,2,4.49,2.25,6.84,2.15a11.37,11.37,0,0,0,4.15-.77C64.53,24.21,64.55,26.25,64.55,28.3ZM11.47,8.36l5.76-.07L14,12.37a.52.52,0,0,0-.06.13l-9.26,0A53.65,53.65,0,0,1,11.47,8.36Zm64.3,4c-2.93,0-5.85,0-8.77,0L63.74,8.1h.67C68.65,8.08,72.31,10,75.77,12.34ZM64.7,18.48c-.7,2.1-2.46,2.22-4.49,2.32s-4.52.06-5.44-1.89c-.63-1.33-.36-3-.2-4.4l10.6,0A11.11,11.11,0,0,1,64.7,18.48ZM51.06,20c-1,.89-3.2.84-4.42.84-1.93,0-4.2-.16-4.94-2.26a9.28,9.28,0,0,1-.05-4H51.93C52.11,16.14,52.35,18.78,51.06,20ZM38.15,20c-1,.89-3.21.84-4.42.84-1.93,0-4.2-.16-4.94-2.26a9.05,9.05,0,0,1-.06-4l10.28,0C39.2,16.17,39.43,18.79,38.15,20ZM25.23,20c-1,.89-3.2.84-4.42.84-1.93,0-4.2-.16-4.94-2.26a9.08,9.08,0,0,1-.07-3.92l10.3-.05C26.29,16.23,26.5,18.8,25.23,20ZM61.06,8.1l3.26,4.25H54c-.58-1.42-1.17-2.84-1.75-4.27C55.21,8.1,58.13,8.11,61.06,8.1ZM50,8.09q.89,2.13,1.76,4.28H41.61V8.08H50Zm-10.5,4.29-10.57,0c.38-1.44.8-2.87,1.29-4.29,3.09,0,6.19-.05,9.28-.06Zm-12.79.06-10,0,2.93-3.72a1.14,1.14,0,0,0,.21-.5l8.15-.09C27.46,9.58,27,11,26.68,12.44Zm.29-10q6.78-.14,13.57-.14,6.27,0,12.53.09C56.46,2.43,67.77.93,68.22,6l-.64-.06c-6.09-.2-12.22,0-18.31,0-12.24,0-24.48.12-36.72.27C13,1.22,24,2.49,27,2.43ZM7.24,20.8c-2.12-.09-3.88-.61-4.43-2.87a10.35,10.35,0,0,1-.16-3.24l10.54,0c.19,1.63.38,4.21-.88,5.33S8.61,20.86,7.24,20.8Zm6.48.77c.11-.1.2-.22.3-.33.14,3.49.22,7,.34,10.46.08,2.12-.17,4.73,1.49,6.35,1.94,1.88,6,1.29,8.32,1.33q8,.13,15.91,0T55.9,39c2.42-.1,6.89.67,9-.58s1.8-3.64,1.77-5.63c-.07-3.77.16-7.54-.24-11.29a1.08,1.08,0,0,0-.39-.74l.1-.16c0,.08.1.16.16.24A5.11,5.11,0,0,0,69,22.54s0,.08,0,.13c0,3.07,0,6.14,0,9.21.09,3.56,1.09,9-3.75,9-7.78.13-15.58.34-23.37.23-8.28-.12-16.55.15-24.83-.14-5.33-.19-5-2-5.26-6.63-.23-3.92-.34-7.83-.28-11.75A5.36,5.36,0,0,0,13.72,21.57ZM74,60.63c-2,.09-3.91,0-5.86,0-8.3-.23-16.62-.1-24.92.24-10.5.43-21-.14-31.47-.14a55.27,55.27,0,0,1-5.61-.09c-3.38-.33-4-1.5-2.63-4.38,2.18-4.44,6.82-9,10.33-12.8,3.31.53,8-.23,10.39-.18,6.2.13,12.38,0,18.58,0,5.51.08,11-.19,16.5-.25,1.77,0,4.51.42,6.92.32q2.81,3,5.41,6.22c1.81,2.22,5.15,5.07,6.2,7.7C79.32,60.88,76.68,60.53,74,60.63Z" style="fill:url(#Degradado_sin_nombre_109)"/><path d="M45.54,50.92c-4.13,0-8.27,0-12.4,0a1.1,1.1,0,0,0-1,.79c-.6,1.75-1.16,3.51-1.89,5.22,0,0,0,0,0,0A1.09,1.09,0,0,0,31,58.49a.86.86,0,0,0,.52.06,121.64,121.64,0,0,0,18.11-.27,1.08,1.08,0,0,0,.92-1.61C49,54.09,48.87,51,45.54,50.92ZM32.67,56.45q.64-1.68,1.23-3.39h8.44c1.33,0,3.13-.41,4.23.52A7.75,7.75,0,0,1,48,56.29,124.62,124.62,0,0,1,32.67,56.45Z" style="fill:url(#Degradado_sin_nombre_109-2)"/><path d="M13.49,56.24l-2,.11a7.62,7.62,0,0,0-2,.12H9.44a4.34,4.34,0,0,1,.2-.5,13.21,13.21,0,0,1,1.14-1.82c.8-1.13-1.06-2.2-1.85-1.08s-2.57,3.5-1.21,5a2.76,2.76,0,0,0,2.35.55l3.42-.2C14.85,58.29,14.86,56.15,13.49,56.24Z" style="fill:url(#Degradado_sin_nombre_109-3)"/><path d="M11.66,51.19a1.07,1.07,0,0,0,0-2.14A1.07,1.07,0,0,0,11.66,51.19Z" style="fill:url(#Degradado_sin_nombre_109-4)"/></g></g></svg>