<svg xmlns="http://www.w3.org/2000/svg" xmlns:xlink="http://www.w3.org/1999/xlink" viewBox="0 0 74.46 57.61"><defs><linearGradient id="Degradado_sin_nombre_109" y1="21.4" x2="74.46" y2="21.4" gradientUnits="userSpaceOnUse"><stop offset="0" stop-color="#eab5f7"/><stop offset="0.16" stop-color="#a7adee"/><stop offset="0.32" stop-color="#65a5e5"/><stop offset="0.44" stop-color="#3da0df"/><stop offset="0.5" stop-color="#2d9edd"/><stop offset="0.72" stop-color="#2d9fdb"/><stop offset="0.81" stop-color="#2ba2d4"/><stop offset="0.88" stop-color="#28a8c7"/><stop offset="0.94" stop-color="#25b0b5"/><stop offset="0.99" stop-color="#20ba9e"/><stop offset="1" stop-color="#1fbb9b"/></linearGradient><linearGradient id="Degradado_sin_nombre_109-2" x1="25.76" y1="52.23" x2="36.56" y2="52.23" xlink:href="#Degradado_sin_nombre_109"/><linearGradient id="Degradado_sin_nombre_109-3" x1="54.63" y1="52.24" x2="64.98" y2="52.24" xlink:href="#Degradado_sin_nombre_109"/></defs><g id="Capa_2" data-name="Capa 2"><g id="Capa_1-2" data-name="Capa 1"><path d="M63.6,9.28c-10.46,0-20.91,0-31.36.17h-.1q-7.89.11-15.79.23a1,1,0,0,0-.26.06c-.86-2.1-1.78-4.16-2.79-6.14C10.94-1,5.72.25,1,0-.35-.07-.34,2.07,1,2.14c2.09.11,6.14-.45,8,.42C12,4,13.17,9,14.27,11.81q2.67,6.69,5.32,13.38t5.32,13.38c.82,2.07,1.14,3.43,3.27,3.94,2.95.71,7-.06,10-.12s5.88-.13,8.82-.17c4.55-.06,9.64.5,14.15-.16,2.4-.35,3.07-1,4.23-3.15C67.58,34.78,69,30,70.49,25.55c.65-1.92,1.25-3.85,1.83-5.79S74.66,14.1,74.44,12C74,7.32,67.19,9.29,63.6,9.28Zm2.77,2.15c2,0,4.71-.82,5.51,1.91.35,1.21-1.09,4.28-1.54,5.61l-14.8.28,1.8-7.83ZM67,29l-13.73.13c.6-2.59,1.19-5.19,1.79-7.79l14.6-.27C68.83,23.77,67.94,26.42,67,29Zm-15.93.16L46,29.25c-3,0-6,.29-9,.5q-1-4-1.85-8l17.73-.32C52.25,24,51.66,26.6,51.06,29.2Zm4.06-17.8h0q-.91,3.93-1.81,7.87l-18.67.34q-.8-4-1.43-8C40.53,11.46,47.83,11.39,55.12,11.4Zm-24,.19q.63,4,1.42,8.06l-12.58.23c-1-2.69-2-5.4-3-8.07ZM20.7,22l12.24-.23q.84,4.08,1.86,8.11a45,45,0,0,1-10.66-.45,1.1,1.1,0,0,0-.69.12c-.35-1.1-.68-2.15-1-3C21.82,25.05,21.26,23.53,20.7,22ZM27,38a21.94,21.94,0,0,1-2.89-6.42,48.18,48.18,0,0,0,11.22.31c.73,2.8,1.51,5.6,2.36,8.37h-.5C33.53,40.35,29.6,41.32,27,38Zm12.88,2.23a1,1,0,0,0,0-.17c-.85-2.76-1.63-5.53-2.36-8.31,2.14-.15,4.32-.3,6.58-.34s4.35-.05,6.52-.08l-2,8.76C45.66,40.13,42.75,40.17,39.85,40.23Zm24.32-3.88c-2.5,3-5.55,3.6-9.11,3.64-1.43,0-2.86,0-4.3.06l2-8.74,13.47-.12C65.68,32.86,65.19,35.13,64.17,36.35Z" style="fill:url(#Degradado_sin_nombre_109)"/><path d="M31.8,46.9h0C28.89,46.84,26,49,25.77,52s2.65,5.48,5.52,5.59c3.29.13,5.21-2.32,5.27-5.43C36.61,49.51,34.72,46.51,31.8,46.9Zm-1.14,8.47c-1.54-.37-3-1.86-2.71-3.54A3.72,3.72,0,0,1,31.8,49,1.3,1.3,0,0,0,32,49h.08C35.06,48.39,35.7,56.56,30.66,55.37Z" style="fill:url(#Degradado_sin_nombre_109-2)"/><path d="M59.41,47.06a1,1,0,0,0-.48,0c-3,.77-5,3.47-4,6.56a5.34,5.34,0,0,0,6.25,3.71C67.61,56.31,65.15,46.77,59.41,47.06Zm1,8.23A3.1,3.1,0,0,1,57,53.07c-.66-2,.69-3.45,2.55-3.93,1.9-.27,3.23,1.84,3.39,3.45S62,55.18,60.36,55.29Z" style="fill:url(#Degradado_sin_nombre_109-3)"/></g></g></svg>