<svg xmlns="http://www.w3.org/2000/svg" viewBox="0 0 65.37 38.27"><g id="Capa_2" data-name="Capa 2"><g id="Capa_1-2" data-name="Capa 1"><path d="M58.62,1.46a5.3,5.3,0,0,1,5.29,5.29V31.52a5.3,5.3,0,0,1-5.29,5.29H6.75a5.3,5.3,0,0,1-5.29-5.29V6.75A5.3,5.3,0,0,1,6.75,1.46H58.62m0-1.46H6.75A6.76,6.76,0,0,0,0,6.75V31.52a6.76,6.76,0,0,0,6.75,6.75H58.62a6.75,6.75,0,0,0,6.75-6.75V6.75A6.75,6.75,0,0,0,58.62,0M41.85,14.68,32.69,5.51l-9.17,9.17a1.46,1.46,0,0,0,2.07,2.06l5.64-5.65v21a1.46,1.46,0,0,0,2.92,0v-21l5.64,5.65a1.49,1.49,0,0,0,1,.43,1.46,1.46,0,0,0,1-2.49Z" style="fill:#262626"/></g></g></svg>