<svg xmlns="http://www.w3.org/2000/svg" xmlns:xlink="http://www.w3.org/1999/xlink" viewBox="0 0 58.26 40.19"><defs><linearGradient id="Degradado_sin_nombre_109" y1="20.1" x2="58.26" y2="20.1" gradientUnits="userSpaceOnUse"><stop offset="0" stop-color="#eab5f7"/><stop offset="0.16" stop-color="#a7adee"/><stop offset="0.32" stop-color="#65a5e5"/><stop offset="0.44" stop-color="#3da0df"/><stop offset="0.5" stop-color="#2d9edd"/><stop offset="0.72" stop-color="#2d9fdb"/><stop offset="0.81" stop-color="#2ba2d4"/><stop offset="0.88" stop-color="#28a8c7"/><stop offset="0.94" stop-color="#25b0b5"/><stop offset="0.99" stop-color="#20ba9e"/><stop offset="1" stop-color="#1fbb9b"/></linearGradient></defs><g id="Capa_2" data-name="Capa 2"><g id="Capa_1-2" data-name="Capa 1"><path d="M56.48,1C54-.28,49.87.07,47.15,0,42.7-.06,38.24.13,33.79.23,28.42.34,23.06.31,17.7.26Q12.62.2,7.53.2C5.7.2,3.44-.12,1.81,1,.39,2-.54,4.23.35,5.88c1.22,2.25,5,2,7.29,1.72q0,9.15.09,18.29c0,3.37.07,6.73.15,10.09,0,.9-.34,3.05.25,3.83a.79.79,0,0,0,.85.35c1.34-.52,4-1.83,4.89-1.8,1.7.07,3.3,1.83,5,1.81,1.49,0,3.9-1.85,4.83-1.87,1.7,0,3.37,1.88,5.09,1.88s3.39-1.87,5.1-1.88c.87,0,3.29,1.76,4.73,1.86,1.7.11,3.3-1.59,5-1.74,1-.09,3.57,1.18,5.05,1.74a.76.76,0,0,0,.95-.73q.14-15.3.21-30.6c3,.08,6.59.63,8-2.59C58.61,4.38,58.46,1.91,56.48,1ZM1.53,4.43C.72,1.78,5.25,1.7,6.81,1.7h.83V6.1C5.8,6.36,2.25,6.77,1.53,4.43Zm42,32.42c-1.15.07-2.59,1-3.68,1.4-1.4.49-1.27.29-3-.36-2.87-1.09-3.23-1.09-6.09,0-1.19.45-1.67.7-2.44.56-1.39-.25-2.67-1.38-4.06-1.54-1.89-.21-3.94,1.75-5.49,1.75s-3.6-2-5.49-1.75a11.44,11.44,0,0,0-3.82,1.45l-.05,0a1.53,1.53,0,0,1,0-.37c.28-2.8-.13-5.87-.17-8.69-.11-9.21-.18-18.43-.13-27.64,2.86,0,5.71,0,8.56.05,5.69.05,11.38.08,17.08-.05,4.44-.11,8.9-.31,13.35-.16h.23c0,12.25-.12,24.51-.23,36.76C46.66,37.65,45,36.78,43.54,36.85ZM53.92,7.31a14,14,0,0,1-4.09,0c0-1.93,0-3.86,0-5.78A14.32,14.32,0,0,1,54.42,2C57.12,3,57.78,6.17,53.92,7.31ZM17.15,9.39c7.4-.84,14.92.53,22.29-.56,1-.13,1.35,1.31.4,1.45-7.52,1.1-15.15-.24-22.69.61C16.19,11,16.2,9.5,17.15,9.39Zm22,8.66q-10.72.49-21.45.13c-1,0-1-1.54,0-1.5q10.72.36,21.45-.13C40.09,16.51,40.08,18,39.12,18.05Zm.52,10.33c-7.45-.1-15.09.73-22.49-.18-.95-.12-1-1.62,0-1.5,7.4.91,15,.08,22.49.18A.75.75,0,0,1,39.64,28.38Zm5.12,5.88a7.18,7.18,0,0,1-4.43,1c-1,0-1-1.55,0-1.5a6.74,6.74,0,0,0,3.26-.52c.88-.44.54-2,.52-2.87a.75.75,0,0,1,1.5,0C45.64,31.65,45.94,33.36,44.76,34.26Zm-.16-7a.75.75,0,0,1,0,1.5A.75.75,0,0,1,44.6,27.26Z" style="fill:url(#Degradado_sin_nombre_109)"/></g></g></svg>