<svg xmlns="http://www.w3.org/2000/svg" xmlns:xlink="http://www.w3.org/1999/xlink" viewBox="0 0 165.85 63.03"><defs><linearGradient id="linear-gradient" x1="-164.03" y1="26.42" x2="72.02" y2="24.87" gradientUnits="userSpaceOnUse"><stop offset="0" stop-color="#262860"/><stop offset="1" stop-color="#3c429a"/></linearGradient></defs><g id="Capa_2" data-name="Capa 2"><g id="Capa_1-2" data-name="Capa 1"><path d="M73.15,36.49h-5.5c-.2-1-.42-1.91-.59-2.87-.07-.4-.2-.55-.64-.54q-3.32,0-6.63,0a.51.51,0,0,0-.57.41c-.3.91-.63,1.81-1,2.71,0,.12-.2.29-.31.29-2,0-4,0-6,0,.38-.89.73-1.75,1.09-2.61q3.86-9.18,7.7-18.37a2.71,2.71,0,0,1,2.82-1.88h4.84c.16.75.32,1.48.47,2.22q1.9,9.08,3.79,18.15c.17.78.36,1.55.53,2.32ZM66,28.37c-.59-2.81-1.17-5.59-1.75-8.37h-.07l-3,8.38ZM46.4,13.23a2.37,2.37,0,0,1-.34.08,10.63,10.63,0,0,0-5.68,2.21,6.52,6.52,0,0,0-2.54,6,5.38,5.38,0,0,0,2.4,3.81c1,.72,2.13,1.27,3.19,1.92a14.05,14.05,0,0,1,2,1.31,1.65,1.65,0,0,1-.19,2.71,4.39,4.39,0,0,1-1.55.64,10.63,10.63,0,0,1-6-.75c-.41-.16-.8-.35-1.23-.53-.36,1.69-.71,3.34-1.07,5l.17.1a4.94,4.94,0,0,0,.49.19,18.74,18.74,0,0,0,7.65.87A11.08,11.08,0,0,0,48.9,35.1a6.89,6.89,0,0,0,3.26-7,5.38,5.38,0,0,0-2.6-3.86c-1.17-.78-2.44-1.41-3.64-2.13A8.53,8.53,0,0,1,44.41,21a1.28,1.28,0,0,1,0-2,3.85,3.85,0,0,1,1.41-.75,7.64,7.64,0,0,1,3.74,0c.91.2,1.79.51,2.71.78.33-1.57.68-3.18,1-4.82-.7-.2-1.34-.41-2-.57s-1.45-.27-2.18-.41Zm-19,.41c-1.82,0-3.64,0-5.45,0a.48.48,0,0,0-.53.36q-2.89,7.38-5.82,14.76c0,.09-.1.18-.18.33,0-.26-.09-.44-.12-.62-.79-4.16-1.56-8.33-2.36-12.49a2.72,2.72,0,0,0-2.84-2.33H.66c-.65,0-.65,0-.66.68l.23.06A29.71,29.71,0,0,1,5.35,16a3.07,3.07,0,0,1,1.86,2.28c1.5,5.91,3,11.82,4.56,17.73.09.34.21.47.59.47,1.79,0,3.58,0,5.37,0a.56.56,0,0,0,.62-.4Q22.6,26,26.85,15.82l.9-2.16ZM25.86,36.5c1.63,0,3.26,0,4.88,0,.46,0,.61-.13.7-.57q2-9.44,4-18.85c.25-1.14.49-2.28.74-3.44H30.26C28.64,21.27,27,28.86,25.38,36.5Z" transform="translate(0 5.58)" style="fill:url(#linear-gradient)"/><path d="M112.11,46.28a2.35,2.35,0,0,1,.16.86V50.5h-1.14v-3a1.54,1.54,0,0,0-.31-1,1.14,1.14,0,0,0-.89-.36,1.46,1.46,0,0,0-.52.09,1.21,1.21,0,0,0-.43.27,1.28,1.28,0,0,0-.28.45,1.4,1.4,0,0,0-.11.6v3h-1.14v-3a1.54,1.54,0,0,0-.31-1,1.12,1.12,0,0,0-.89-.36,1.46,1.46,0,0,0-.52.09,1.22,1.22,0,0,0-.71.72,1.4,1.4,0,0,0-.11.6v3h-1.14V45.15h1.13v.65a1.88,1.88,0,0,1,.35-.39,1.63,1.63,0,0,1,.4-.24,1.66,1.66,0,0,1,.42-.12,2,2,0,0,1,.42,0,2.14,2.14,0,0,1,1.05.25,2,2,0,0,1,.73.7,2.07,2.07,0,0,1,.4-.47,2,2,0,0,1,.48-.29,2.15,2.15,0,0,1,.51-.15,2.89,2.89,0,0,1,.5,0,2.15,2.15,0,0,1,.85.16,2,2,0,0,1,.67.43A2.07,2.07,0,0,1,112.11,46.28Zm5.55-1.13h1.17V50.5h-1.17v-.65a2.11,2.11,0,0,1-.69.57,2.19,2.19,0,0,1-1,.22,2.59,2.59,0,0,1-1-.21,2.65,2.65,0,0,1-.85-.59,2.72,2.72,0,0,1-.57-.89,3,3,0,0,1-.2-1.13,3,3,0,0,1,.2-1.13,2.83,2.83,0,0,1,.57-.89,2.62,2.62,0,0,1,.85-.58,2.59,2.59,0,0,1,1-.21,2.19,2.19,0,0,1,1,.21,2.27,2.27,0,0,1,.69.58Zm.07,2.67a2.15,2.15,0,0,0-.11-.68,1.63,1.63,0,0,0-.33-.54,1.68,1.68,0,0,0-.51-.36,1.59,1.59,0,0,0-.66-.13,1.51,1.51,0,0,0-.68.14,1.43,1.43,0,0,0-.5.36,1.59,1.59,0,0,0-.32.55,2.07,2.07,0,0,0,0,1.33,1.55,1.55,0,0,0,.32.54,1.45,1.45,0,0,0,.5.37,1.65,1.65,0,0,0,.68.14,1.59,1.59,0,0,0,.66-.14,1.4,1.4,0,0,0,.51-.36,1.63,1.63,0,0,0,.33-.54A2.11,2.11,0,0,0,117.73,47.82Zm6.46,0a3,3,0,0,0-1.37-.51l-.55-.08-.35-.06a1.51,1.51,0,0,1-.28-.1.56.56,0,0,1-.18-.16.35.35,0,0,1-.07-.23.53.53,0,0,1,.26-.46,1.34,1.34,0,0,1,.75-.18,4,4,0,0,1,.49,0,5.52,5.52,0,0,1,.86.26l.3.16.5-.91a3.37,3.37,0,0,0-1-.42,4.49,4.49,0,0,0-1.18-.15,3.33,3.33,0,0,0-.93.12,2.22,2.22,0,0,0-.69.34,1.52,1.52,0,0,0-.44.54,1.69,1.69,0,0,0-.15.72,1.29,1.29,0,0,0,.46,1,2.55,2.55,0,0,0,1.35.53l.56.07a1.82,1.82,0,0,1,.7.21.44.44,0,0,1,.22.38.54.54,0,0,1-.3.48,1.87,1.87,0,0,1-.91.17,3.49,3.49,0,0,1-.59,0,3.37,3.37,0,0,1-.48-.12,2.7,2.7,0,0,1-.38-.17l-.32-.21-.54.87a2.52,2.52,0,0,0,.61.35,3.88,3.88,0,0,0,.63.21,3.07,3.07,0,0,0,.58.1l.48,0a3.68,3.68,0,0,0,1-.13,2.14,2.14,0,0,0,.76-.36,1.57,1.57,0,0,0,.48-.55,1.54,1.54,0,0,0,.16-.71A1.29,1.29,0,0,0,124.19,47.81Zm11.44-1.13a3.17,3.17,0,0,1,.19,1.14,1.62,1.62,0,0,1,0,.22c0,.07,0,.14,0,.21h-4a1.81,1.81,0,0,0,.21.62,1.48,1.48,0,0,0,.36.42,1.57,1.57,0,0,0,.48.25,1.9,1.9,0,0,0,.54.07,2.44,2.44,0,0,0,1.55-.56l.58.83a2.87,2.87,0,0,1-1,.59,4,4,0,0,1-1.16.17,2.8,2.8,0,0,1-1.1-.21,2.35,2.35,0,0,1-.87-.57,2.5,2.5,0,0,1-.56-.88,3.07,3.07,0,0,1-.2-1.16,3.21,3.21,0,0,1,.19-1.14,2.52,2.52,0,0,1,.55-.89,2.38,2.38,0,0,1,.84-.58,2.85,2.85,0,0,1,1.08-.2,2.61,2.61,0,0,1,1,.2,2.32,2.32,0,0,1,.8.58A2.61,2.61,0,0,1,135.63,46.68Zm-1,.68a1.69,1.69,0,0,0-.44-1,1.25,1.25,0,0,0-.91-.34,1.6,1.6,0,0,0-.56.09,1.51,1.51,0,0,0-.42.27,1.54,1.54,0,0,0-.28.42,1.82,1.82,0,0,0-.16.53Zm16-2.21h1.17V50.5h-1.17v-.65a2.11,2.11,0,0,1-.69.57,2.19,2.19,0,0,1-1,.22,2.59,2.59,0,0,1-1.05-.21,2.65,2.65,0,0,1-.85-.59,2.72,2.72,0,0,1-.57-.89,3.15,3.15,0,0,1-.2-1.13,3.19,3.19,0,0,1,.2-1.13,2.83,2.83,0,0,1,.57-.89,2.62,2.62,0,0,1,.85-.58,2.59,2.59,0,0,1,1.05-.21,2.19,2.19,0,0,1,1,.21,2.27,2.27,0,0,1,.69.58Zm.07,2.67a2.15,2.15,0,0,0-.11-.68,1.63,1.63,0,0,0-.33-.54,1.57,1.57,0,0,0-.51-.36,1.59,1.59,0,0,0-.66-.13,1.51,1.51,0,0,0-.68.14,1.43,1.43,0,0,0-.5.36,1.59,1.59,0,0,0-.32.55,2.07,2.07,0,0,0,0,1.33,1.55,1.55,0,0,0,.32.54,1.45,1.45,0,0,0,.5.37,1.65,1.65,0,0,0,.68.14,1.59,1.59,0,0,0,.66-.14,1.32,1.32,0,0,0,.51-.36,1.63,1.63,0,0,0,.33-.54A2.11,2.11,0,0,0,150.68,47.82Zm-21.49,1.61a1.58,1.58,0,0,1-.55.11,1,1,0,0,1-.34-.06.68.68,0,0,1-.26-.18.86.86,0,0,1-.19-.31,1.44,1.44,0,0,1-.06-.45V46.21h1.87V45.15h-1.87V43.53h-1.17v1.62h-1.07v1.06h1.07v2.35a2.13,2.13,0,0,0,.5,1.57,1.91,1.91,0,0,0,1.42.51,2.63,2.63,0,0,0,.91-.16,3.85,3.85,0,0,0,.5-.24l-.4-1ZM139.72,45a2.1,2.1,0,0,0-.88.18,1.84,1.84,0,0,0-.67.66v-.7h-1.06V50.5h1.07v-3a1.61,1.61,0,0,1,.1-.6,1.38,1.38,0,0,1,.26-.46,1.26,1.26,0,0,1,.4-.28,1.46,1.46,0,0,1,.52-.09,2.48,2.48,0,0,1,.45.05l.24.06.34-1.11a1.43,1.43,0,0,0-.28-.07A2.49,2.49,0,0,0,139.72,45Zm16.22,0a2.14,2.14,0,0,0-.89.18,1.89,1.89,0,0,0-.66.66v-.7h-1.06V50.5h1.07v-3a1.85,1.85,0,0,1,.09-.6,1.6,1.6,0,0,1,.27-.46,1.15,1.15,0,0,1,.4-.28,1.44,1.44,0,0,1,.51-.09,2.58,2.58,0,0,1,.46.05l.23.06.35-1.11a1.37,1.37,0,0,0-.29-.07A2.33,2.33,0,0,0,155.94,45Zm6.62-2V50.5h-1.17v-.65a2.11,2.11,0,0,1-.69.57,2.19,2.19,0,0,1-1,.22,2.59,2.59,0,0,1-1.05-.21,2.65,2.65,0,0,1-.85-.59,2.72,2.72,0,0,1-.57-.89,3,3,0,0,1-.2-1.13,3,3,0,0,1,.2-1.13,2.83,2.83,0,0,1,.57-.89,2.62,2.62,0,0,1,.85-.58,2.59,2.59,0,0,1,1.05-.21,2.19,2.19,0,0,1,1,.21,2.27,2.27,0,0,1,.69.58V43Zm-1.1,4.85a1.91,1.91,0,0,0-.12-.68,1.46,1.46,0,0,0-.32-.54,1.82,1.82,0,0,0-.51-.36,1.59,1.59,0,0,0-.66-.13,1.51,1.51,0,0,0-.68.14,1.43,1.43,0,0,0-.5.36,1.59,1.59,0,0,0-.32.55,2.07,2.07,0,0,0,0,1.33,1.55,1.55,0,0,0,.32.54,1.45,1.45,0,0,0,.5.37,1.65,1.65,0,0,0,.68.14,1.59,1.59,0,0,0,.66-.14A1.49,1.49,0,0,0,161,49a1.46,1.46,0,0,0,.32-.54A1.87,1.87,0,0,0,161.46,47.82Zm-18.94-1.23a1.55,1.55,0,0,1,.53-.36,1.76,1.76,0,0,1,.66-.12h0a2.15,2.15,0,0,1,.73.12,1.8,1.8,0,0,1,.57.34l.56-.93a3,3,0,0,0-.71-.42,3.25,3.25,0,0,0-2.3,0,2.83,2.83,0,0,0-.91.6,2.79,2.79,0,0,0-.6.89,2.89,2.89,0,0,0-.21,1.11,2.94,2.94,0,0,0,.21,1.12,2.91,2.91,0,0,0,.6.89,2.8,2.8,0,0,0,.91.59,3.12,3.12,0,0,0,2.3,0,2.93,2.93,0,0,0,.71-.41l-.56-.94a1.63,1.63,0,0,1-.57.34,2.15,2.15,0,0,1-.73.13h0a1.76,1.76,0,0,1-.66-.13,1.4,1.4,0,0,1-.53-.35,1.7,1.7,0,0,1-.36-.54,2.07,2.07,0,0,1,0-1.39A1.7,1.7,0,0,1,142.52,46.59Zm22.27,3.17a.42.42,0,0,0-.18.11.57.57,0,0,0-.12.18.46.46,0,0,0,0,.21.5.5,0,0,0,.16.38.57.57,0,0,0,.18.12.62.62,0,0,0,.44,0,.57.57,0,0,0,.18-.12.5.5,0,0,0,.16-.38.46.46,0,0,0,0-.21.57.57,0,0,0-.12-.18.42.42,0,0,0-.18-.11.51.51,0,0,0-.44,0Zm.07.86a.33.33,0,0,1-.21-.21.4.4,0,0,1,0-.15.41.41,0,0,1,0-.16.5.5,0,0,1,.08-.12.35.35,0,0,1,.13-.08.28.28,0,0,1,.15,0,.29.29,0,0,1,.16,0,.37.37,0,0,1,.2.2.41.41,0,0,1,0,.16.4.4,0,0,1,0,.15.35.35,0,0,1-.08.13l-.12.08a.41.41,0,0,1-.16,0A.4.4,0,0,1,164.86,50.62Zm-.06-.6v.48h.14v-.17h0l.13.17h.16l-.15-.17a.23.23,0,0,0,.11,0,.13.13,0,0,0,0-.1.17.17,0,0,0-.05-.12.24.24,0,0,0-.15,0Zm.24.11h.05a.05.05,0,0,1,0,0s0,0,0,0h-.15v-.09Z" transform="translate(0 5.58)" style="fill:#1d1d1b"/><path d="M125.48,20.15a20.11,20.11,0,0,1,7.65-15.8,20.16,20.16,0,1,0,0,31.6A20.1,20.1,0,0,1,125.48,20.15Z" transform="translate(0 5.58)" style="fill:#e20d17"/><ellipse cx="133.13" cy="25.73" rx="7.65" ry="15.8" style="fill:#ea610a"/><path d="M164.41,31.05v-.59h-.23V30.3h.65v.16h-.24v.59Zm1.27,0v-.52l-.17.45h-.19l-.17-.45v.52H165V30.3h.25l.19.48.18-.48h.25v.75ZM145.63,0a20,20,0,0,0-12.5,4.35,20.14,20.14,0,0,1,0,31.6A20.15,20.15,0,1,0,145.63,0Z" transform="translate(0 5.58)" style="fill:#f59e00"/><line x1="87.57" x2="87.57" y2="63.03" style="fill:#353535"/></g></g></svg>