<svg xmlns="http://www.w3.org/2000/svg" viewBox="0 0 71.41 50">
    <defs><style>.youtube{fill:#FFF;}</style></defs>
    <g id="Capa_2" data-name="Capa 2">
        <g id="Layer_1" data-name="Layer 1">
            <path class="youtube" d="M69.94,7.82a9,9,0,0,0-6.29-6.29C58.06,0,35.71,0,35.71,0S13.35,0,7.76,1.47A9.13,9.13,0,0,0,1.47,7.82C0,13.41,0,25,0,25S0,36.65,1.47,42.18a9,9,0,0,0,6.29,6.29C13.41,50,35.71,50,35.71,50s22.35,0,27.94-1.47a9,9,0,0,0,6.29-6.29c1.47-5.59,1.47-17.18,1.47-17.18S71.47,13.41,69.94,7.82ZM28.59,35.71V14.29L47.18,25Z"/>
        </g>
    </g>
</svg>